<svg width="24" height="24" viewBox="0 0 24 24" fill="none" xmlns="http://www.w3.org/2000/svg">
<path d="M23.571 8.23188L21.9594 23.2145L16.8667 18.0464L19.1246 2.02609L23.8899 9.63188L24 8.87536L19.1826 1L2.64348 1.13623L0 18.0203L7.0058 23.5942L22.4493 23.7855L24 8.87246L23.571 8.23188ZM7.56812 3.58841L7.6 3.55072H13.058L11.6 14.7768H7.84348L8.98551 6.43188H7.13333L7.56812 3.58841ZM7.24928 22.9942L0.991304 18.0464H16.0377L21.087 23.1826L7.24928 22.9942Z" fill="url(#paint0_linear_9142_184)"/>
<path d="M12.9101 20.1131L9.40865 18.7885L8.79416 20.0957L5.22314 20.3421L9.15358 21.4435L10.1188 22.7276L13.0116 22.1247L17.1391 22.7537L15.3101 21.4087L17.0956 20.3653L12.9101 20.1131Z" fill="url(#paint1_linear_9142_184)"/>
<defs>
<linearGradient id="paint0_linear_9142_184" x1="11.7961" y1="24.203" x2="12.2272" y2="1.51797" gradientUnits="userSpaceOnUse">
<stop stop-color="#FEFE00"/>
<stop offset="0.2698" stop-color="#F8AD00"/>
<stop offset="0.799" stop-color="#F9BE00"/>
<stop offset="1" stop-color="#FDF400"/>
</linearGradient>
<linearGradient id="paint1_linear_9142_184" x1="11.4794" y1="23.715" x2="9.29164" y2="0.688191" gradientUnits="userSpaceOnUse">
<stop stop-color="#FEFE00"/>
<stop offset="0.3763" stop-color="#F8AD00"/>
<stop offset="0.799" stop-color="#F9BE00"/>
<stop offset="1" stop-color="#FDF400"/>
</linearGradient>
</defs>
</svg>
