<svg width="24" height="24" viewBox="0 0 24 24" fill="none" xmlns="http://www.w3.org/2000/svg">
<g clip-path="url(#clip0_4906_106)">
<path fill-rule="evenodd" clip-rule="evenodd" d="M12 24C18.6274 24 24 18.6274 24 12C24 5.37259 18.6274 0 12 0C5.37259 0 0 5.37259 0 12C0 18.6274 5.37259 24 12 24ZM13.1751 16.4599C15.0422 15.3817 15.8968 14.1384 16.0037 12.08C15.2456 14.5975 14.1366 15.815 13.1751 16.4599ZM9.88253 17.5259C8.48393 16.6318 6.96371 15.66 6.80089 13.4368L6.68385 10.7748C9.31395 9.387 14.6912 9.387 17.3212 10.7748L17.1991 13.4368C17.0364 15.6547 15.519 16.6256 14.1215 17.5197C13.2468 18.0794 12.4191 18.6089 12 19.3953C11.5815 18.6121 10.7558 18.0842 9.88253 17.5259ZM8.26091 7.6536C9.27326 7.40081 10.2907 7.25636 11.3031 7.20994C11.5615 6.321 12.2438 5.9541 12.9127 5.59436L12.9208 5.59001C13.4024 5.28878 13.6326 5.09963 13.7859 4.97363C14.0764 4.73494 14.0911 4.72283 15.0167 4.60466C14.9252 5.74478 14.1824 6.14201 13.4193 6.54956C13.0734 6.73013 12.7275 6.91586 12.5036 7.20476C13.5821 7.24088 14.6606 7.39564 15.7391 7.6536C16.8735 7.92701 17.8605 8.62346 17.8605 9.80486C17.8605 10.1866 17.7587 10.5478 17.5857 10.8624L17.5959 10.6148L17.4433 10.5374C17.306 10.4652 17.1584 10.3982 17.016 10.3414C16.6497 10.1918 16.2682 10.0577 15.8866 9.94931C13.6483 9.3096 10.3518 9.3096 8.11339 9.94931C7.73183 10.0577 7.3503 10.1866 6.984 10.3414C6.96548 10.3494 6.94688 10.3575 6.9282 10.3656C6.80336 10.4196 6.67616 10.4746 6.55669 10.5374L6.40406 10.6148L6.41426 10.8624C6.24128 10.5478 6.13954 10.1866 6.13954 9.80486C6.13954 8.62346 7.12646 7.93733 8.26091 7.6536Z" fill="url(#paint0_linear_4906_106)"/>
</g>
<defs>
<linearGradient id="paint0_linear_4906_106" x1="19.8299" y1="0.862804" x2="4.04944" y2="22.6878" gradientUnits="userSpaceOnUse">
<stop stop-color="#F8B900"/>
<stop offset="1" stop-color="#E67508"/>
</linearGradient>
<clipPath id="clip0_4906_106">
<rect width="24" height="24" fill="white"/>
</clipPath>
</defs>
</svg>
