<svg width="24" height="24" viewBox="0 0 24 24" fill="none" xmlns="http://www.w3.org/2000/svg">
<g clip-path="url(#clip0_7342_744)">
<path d="M11.661 22.9728C10.5817 22.8615 9.73882 22.5223 8.98692 21.9097C8.28353 21.3275 7.79843 20.6694 7.52557 19.9253C7.4043 19.581 7.39219 19.4342 7.36793 17.7484L7.34973 15.9361H9.53264H11.7216V17.5763C11.7216 19.1811 11.7216 19.2165 11.855 19.3532C12.1097 19.6215 12.5948 19.7025 13.0496 19.5506C13.5347 19.3886 13.5104 19.5658 13.5104 16.2904C13.5104 13.4049 13.5104 13.3796 13.377 13.1416C13.2133 12.8429 12.9465 12.6961 12.5584 12.6961C12.0733 12.6961 11.849 12.929 11.7459 13.5213L11.7095 13.7592H9.53264H7.35579V8.16526V2.57129H12.3583H17.3609V4.44438V6.31749H14.4503H11.5397V7.76534C11.5397 8.56014 11.5579 9.20306 11.5882 9.19295C12.0855 8.97525 12.0976 8.97525 13.1163 8.97525C14.2683 8.97525 14.6017 9.036 15.4083 9.36506C16.2754 9.71942 17.2275 10.5598 17.6882 11.385C18.1311 12.1595 18.1127 12.0127 18.1369 15.607C18.1491 17.7788 18.1311 18.9887 18.0885 19.2773C17.9552 20.1227 17.5429 20.8719 16.8211 21.5857C16.124 22.2793 15.2872 22.6893 14.1775 22.8767C13.5225 22.988 12.2916 23.0336 11.661 22.9728Z" fill="white"/>
<path d="M9.70319 7.38015C7.43672 7.94805 5.69773 7.37276 5.06504 5.83817C4.7454 5.06288 4.89045 4.87262 5.75937 4.9182C6.07704 4.93634 6.53834 4.92631 6.7872 4.89826L7.23319 4.85108L7.37621 5.15244C7.4567 5.31806 7.5586 5.47486 7.60795 5.50421C7.66046 5.52606 7.86123 5.5613 8.05544 5.58064C9.33513 5.67431 11.4904 4.79195 12.4671 3.7742C12.8012 3.42524 12.8163 3.35691 12.6992 2.9827L12.59 2.64256L12.9817 2.31333C13.1982 2.13087 13.5114 1.82158 13.6775 1.62261C14.0342 1.20841 14.1985 1.14069 14.4452 1.28747C14.5879 1.37774 14.6509 1.46981 14.7976 1.8256C15.4174 3.3593 14.6132 4.94581 12.5851 6.16712C12.0631 6.48173 10.277 7.23678 9.70319 7.38015Z" fill="#FAA61A"/>
<path d="M9.14555 4.44787C8.74627 4.56279 7.82225 4.74494 7.45406 4.78493C7.28806 4.80366 7.27079 4.79214 7.19489 4.56248C6.9635 3.8813 6.91791 2.73213 7.092 2.17577C7.19204 1.86116 7.38035 1.74625 7.6944 1.81558C7.98485 1.88842 8.41213 1.88621 8.74923 1.81557C9.1777 1.7259 9.58057 1.45419 9.94768 1.00463C10.3085 0.570098 10.4472 0.500468 10.7139 0.620391C11.1774 0.826883 12.2906 2.0516 12.4253 2.49925C12.4709 2.65444 12.4509 2.6813 12.1433 2.91374C11.2627 3.56259 10.0178 4.20008 9.14555 4.44787Z" fill="#FAA61A"/>
</g>
<defs>
<clipPath id="clip0_7342_744">
<rect width="24" height="24" fill="white"/>
</clipPath>
</defs>
</svg>
