<svg width="24" height="24" viewBox="0 0 24 24" fill="none" xmlns="http://www.w3.org/2000/svg">
<path fill-rule="evenodd" clip-rule="evenodd" d="M0 3.1777V8.10552C0 8.55548 0.29592 8.89431 0.581967 9.07317C1.05588 9.36952 1.35593 9.28322 1.95253 9.28322C2.99594 9.28322 4.03935 9.28322 5.08276 9.28322C4.18017 11.8355 3.27998 14.3858 2.39037 16.9423C2.20809 17.4465 1.2087 20.1473 1.2087 20.5025C1.2087 21.2098 2.076 21.6182 2.51038 21.6182H8.73989C9.247 21.6182 9.73846 20.9481 9.76265 20.6575C10.4357 20.6575 10.6521 20.5576 11.1061 20.3273C11.6232 20.065 11.7761 19.843 12.0871 19.6347C12.4703 19.8914 12.4454 20.0451 13.2779 20.3964C14.4117 20.875 15.629 20.822 16.726 20.2756C16.8836 20.1971 17.0604 20.0394 17.2008 20.0066C17.264 20.2777 17.6958 20.6575 18.0376 20.6575H21.5708C22.1935 20.6575 22.8895 20.2535 23.299 19.8133C24.0404 19.0165 24.1709 17.4107 23.7979 16.4158C23.6753 16.0886 23.5184 15.9069 23.526 15.767C23.5671 15.0077 23.5543 14.2599 23.5543 13.4982C23.5543 13.0812 23.0951 12.75 22.8105 12.5994C22.982 12.2752 23.0759 12.2891 23.3157 11.679C24.0479 9.81673 23.1357 7.33183 21.2432 6.54257C20.2963 6.14768 19.2635 6.05827 18.2544 6.33877L17.6792 6.56939C17.5901 6.62415 17.6065 6.63835 17.4798 6.64889C17.4394 6.49776 17.2297 6.35722 17.1086 6.27619C16.8866 6.12762 16.8404 6.15252 16.488 6.15299C15.9818 6.15362 15.4756 6.15299 14.9694 6.15299C14.9844 5.97291 15.6843 4.11314 15.7639 3.87925C15.8985 3.48377 16.0454 3.09793 15.856 2.66304C15.7143 2.33781 15.2787 2 14.9694 2H1.27069C0.534764 2 0 2.45535 0 3.1777V3.1777Z" fill="#1F1F1E"/>
<path fill-rule="evenodd" clip-rule="evenodd" d="M1.15063 3.09729L1.18163 8.02511H6.6983L2.39037 20.422H8.58884L14.7254 3.09729H1.15063Z" fill="#E50A7E"/>
<path fill-rule="evenodd" clip-rule="evenodd" d="M8.54208 7.09955V16.3139C8.19777 16.3139 7.86586 16.3766 7.63142 16.5861C7.45622 16.7427 7.29688 16.9589 7.29688 17.2789V19.7692C7.29688 20.2694 7.87105 20.6409 8.41754 20.6409H9.88062C10.4372 20.6409 11.0929 20.2615 11.4994 19.956C11.5719 19.9016 11.6371 19.8572 11.7093 19.7924C11.7826 19.7265 11.8588 19.6648 11.9352 19.6136C12.0327 19.6789 12.2238 19.8675 12.4766 20.0372C12.6886 20.1794 12.8815 20.2733 13.1312 20.3787C13.5971 20.5753 14.077 20.6826 14.5568 20.7031H14.8984C15.4768 20.6785 16.0505 20.5284 16.5946 20.2573C16.7529 20.1784 16.9305 20.02 17.0715 19.9872C17.135 20.2594 17.5687 20.6409 17.912 20.6409H21.4608C22.0862 20.6409 22.7853 20.235 23.1967 19.793C23.5537 19.4093 23.8889 18.6355 23.8889 17.9015V17.8753V17.7468C23.8883 17.2584 23.8768 16.8579 23.6978 16.3805C23.5746 16.0517 23.417 15.8693 23.4247 15.7288C23.4295 15.6397 23.4531 15.5884 23.4531 15.4422V13.45C23.4531 13.0312 22.9918 12.6985 22.706 12.5472C22.7886 12.3909 22.901 12.2777 22.9866 12.1119C23.5702 10.9814 23.6342 9.54479 23.0695 8.41701C22.8502 7.97901 22.6258 7.59643 22.2785 7.24682C21.5989 6.56278 20.5292 6.10342 19.5308 6.10342C18.8922 6.10342 18.765 6.0823 18.1298 6.25887C17.7616 6.36122 17.4701 6.5605 17.3517 6.57037C17.303 6.38813 16.8934 6.07227 16.6357 6.07227H14.0831C13.9757 6.07227 13.7936 6.13198 13.7217 6.1778C13.615 6.24581 13.3665 6.60042 13.2697 6.72193C13.1766 6.83872 13.123 6.94878 13.0247 6.97505L12.6421 6.42373C12.5177 6.27626 12.2832 6.07227 12.0286 6.07227H9.60047C9.29794 6.07227 9.03585 6.22894 8.88268 6.38176C8.75795 6.50617 8.54208 6.85783 8.54208 7.09955V7.09955Z" fill="#1F1B20"/>
<path fill-rule="evenodd" clip-rule="evenodd" d="M15.6512 16.6031C15.6512 17.5269 14.3854 17.7302 14.066 16.9486C13.7621 16.2052 14.4888 15.5707 15.1392 15.8444C15.4068 15.957 15.6512 16.2408 15.6512 16.6031V16.6031ZM11.9011 16.2622L11.8701 13.6588H9.79363V16.6341C9.79363 17.6037 9.32538 17.4399 8.49194 17.4399V19.5784C9.52438 19.5784 9.79654 19.6903 10.6103 19.2793C10.7382 19.2146 10.8639 19.1334 10.9635 19.0437L11.2744 18.7347C11.6568 18.2977 11.8701 17.7225 11.8701 16.913H11.9011C11.9011 17.5813 12.257 18.097 12.627 18.5736C12.6794 18.6411 12.7306 18.695 12.7924 18.7491C14.1796 19.9645 16.1744 19.7622 17.1879 18.3567C17.2965 18.206 17.3738 18.0873 17.4595 17.9155C18.1209 16.5899 17.7193 15.2331 16.697 14.3176C15.9273 13.6283 14.7012 13.4515 13.7334 13.8485C13.4349 13.971 13.0713 14.1756 12.8537 14.3945C12.5965 14.6531 12.4188 14.8318 12.2321 15.1675C12.09 15.423 11.9011 15.8831 11.9011 16.2622V16.2622Z" fill="url(#paint0_linear_4873_43)"/>
<path fill-rule="evenodd" clip-rule="evenodd" d="M9.79346 13.1939H11.87V10.2806L12.9856 11.7063C13.1612 11.9459 13.1154 11.9417 13.3091 11.6887L14.3494 10.3426V13.1939H16.4259V7.27429H14.3494C14.3278 7.35517 13.2301 8.85133 13.1407 8.9169C13.0904 8.88008 11.9266 7.37031 11.901 7.27429H9.79346V13.1939Z" fill="url(#paint1_linear_4873_43)"/>
<path fill-rule="evenodd" clip-rule="evenodd" d="M20.2691 10.2186C20.2691 11.1424 19.0033 11.3456 18.6839 10.5641C18.3801 9.82069 19.1068 9.18617 19.7571 9.45991C20.0247 9.57249 20.2691 9.85625 20.2691 10.2186V10.2186ZM16.488 10.1256C16.488 11.3827 17.1065 12.3492 18.1922 12.8844C19.2773 13.4193 20.6712 13.1578 21.4858 12.3339C21.7407 12.076 21.9083 11.8697 22.0774 11.531C22.8323 10.018 22.1433 8.1135 20.5839 7.48637C19.8245 7.18093 18.9509 7.16249 18.2232 7.52178C17.2282 8.01296 16.488 8.94044 16.488 10.1256V10.1256Z" fill="url(#paint2_linear_4873_43)"/>
<path fill-rule="evenodd" clip-rule="evenodd" d="M17.6719 15.1775C17.6719 15.7206 17.6621 16.1106 17.8797 16.6123C18.2542 17.4753 18.8288 17.4399 19.5315 17.4399C19.8553 17.4399 20.5542 17.336 20.5542 17.6569C20.5542 17.8127 20.3729 17.8738 20.2133 17.8738H18.1058V19.5474H21.298C22.7985 19.5474 23.0207 17.4903 22.4657 16.4582C22.0609 15.705 21.4827 15.7663 20.8022 15.7663C20.4856 15.7663 19.8414 15.8636 19.8414 15.5494C19.8414 15.3935 20.0228 15.3324 20.1823 15.3324H22.2898V13.6588H19.0976C18.3242 13.6588 17.6719 14.4187 17.6719 15.1775V15.1775Z" fill="url(#paint3_linear_4873_43)"/>
<defs>
<linearGradient id="paint0_linear_4873_43" x1="8.49194" y1="16.6161" x2="17.783" y2="16.6161" gradientUnits="userSpaceOnUse">
<stop stop-color="#FDE610"/>
<stop offset="1" stop-color="#E7432E"/>
</linearGradient>
<linearGradient id="paint1_linear_4873_43" x1="9.79346" y1="10.2341" x2="16.4259" y2="10.2341" gradientUnits="userSpaceOnUse">
<stop stop-color="#FDE610"/>
<stop offset="1" stop-color="#E7432E"/>
</linearGradient>
<linearGradient id="paint2_linear_4873_43" x1="16.4881" y1="10.2091" x2="22.3845" y2="10.2091" gradientUnits="userSpaceOnUse">
<stop stop-color="#FDE610"/>
<stop offset="1" stop-color="#E7432E"/>
</linearGradient>
<linearGradient id="paint3_linear_4873_43" x1="17.6719" y1="16.6031" x2="22.7434" y2="16.6031" gradientUnits="userSpaceOnUse">
<stop stop-color="#FDE610"/>
<stop offset="1" stop-color="#E7432E"/>
</linearGradient>
</defs>
</svg>
