<svg width="22" height="19" viewBox="0 0 22 19" fill="none" xmlns="http://www.w3.org/2000/svg">
<path d="M11.4203 0.234245C11.6347 0.256271 11.8491 0.273892 12.0627 0.301057C14.9048 0.66081 17.1544 1.96253 18.6213 4.47346C19.2944 5.62816 19.6318 6.94793 19.5952 8.28403C19.5586 9.62014 19.1496 10.9195 18.4142 12.0356C18.3811 12.0867 18.3357 12.1288 18.2823 12.158C18.2289 12.1872 18.169 12.2027 18.1081 12.203C17.7902 12.203 17.4715 12.203 17.1536 12.1927C17.0932 12.1907 17.0344 12.1719 16.9839 12.1387C16.9334 12.1054 16.893 12.0588 16.8673 12.004C16.7748 11.8073 16.7006 11.6017 16.6103 11.38H16.9877C17.1676 11.38 17.3474 11.3851 17.5266 11.38C17.7468 11.3712 17.8254 11.2464 17.7468 11.0415C17.5611 10.5562 17.3797 10.0702 17.1896 9.58636C17.1723 9.55306 17.166 9.51514 17.1717 9.47805C17.1774 9.44097 17.1947 9.40665 17.2212 9.38005C17.2778 9.31467 17.3187 9.23723 17.3408 9.15364C17.363 9.07005 17.3657 8.98251 17.3489 8.89769C17.2263 8.36907 16.578 8.21709 16.2058 8.51371C16.1137 8.57844 16.0418 8.66802 15.9987 8.77201C15.9555 8.876 15.9428 8.99012 15.962 9.10106C15.9801 9.2258 16.0355 9.34215 16.1209 9.4348C16.2063 9.52746 16.3178 9.59207 16.4407 9.62013C16.4788 9.62745 16.514 9.64572 16.5419 9.67271C16.5698 9.6997 16.5893 9.73425 16.5978 9.77211C16.6925 10.0658 16.7961 10.3536 16.8959 10.6443C16.8964 10.6539 16.8964 10.6634 16.8959 10.673C16.7315 10.673 16.5648 10.673 16.3989 10.6693C16.3754 10.6693 16.346 10.615 16.3343 10.5812C16.1037 9.9488 15.8744 9.31593 15.6463 8.68257C15.5369 8.38008 15.4261 8.0776 15.3181 7.77438C15.2998 7.72298 15.2836 7.70096 15.2154 7.70096C14.7132 7.70096 13.6875 7.70096 13.6625 7.70096C13.6963 7.86542 13.7286 8.02767 13.7624 8.19066C13.9048 8.87884 14.0473 9.56702 14.1897 10.2552C14.2352 10.4755 14.1288 10.6473 13.9144 10.6517C13.4313 10.6619 12.9474 10.6553 12.446 10.6553C12.3285 9.67152 12.2118 8.69138 12.0943 7.70096H11.7368C11.7874 8.68477 11.8373 9.66418 11.888 10.6524H10.0158C10.0672 9.66932 10.1193 8.68991 10.1715 7.70096H9.82346C9.79923 7.89699 9.77427 8.09301 9.75004 8.28831C9.67711 8.9065 9.60492 9.52493 9.53346 10.1436C9.51657 10.2904 9.49748 10.4373 9.485 10.5805C9.4806 10.6362 9.46224 10.6539 9.40571 10.6539C8.9395 10.6539 8.47402 10.6612 8.01075 10.6539C7.80003 10.6539 7.67742 10.4887 7.71707 10.2802C7.88936 9.44123 8.06361 8.60279 8.23981 7.76483C8.24422 7.74354 8.24716 7.72665 8.25303 7.69141C8.20971 7.69141 8.17227 7.69141 8.13409 7.69141C7.67229 7.69141 7.21048 7.69802 6.74867 7.69141C6.64882 7.69141 6.61065 7.7105 6.57908 7.79934C6.09745 9.1385 5.60848 10.4747 5.13125 11.8161C5.04021 12.0723 4.88383 12.2001 4.61732 12.2008C4.37651 12.2008 4.13569 12.1935 3.89488 12.2008C3.68857 12.2089 3.55348 12.1134 3.44996 11.9453C3.04951 11.3089 2.74776 10.6156 2.55498 9.88884C2.01095 7.75455 2.39786 5.77738 3.6012 3.95292C4.62907 2.39717 6.06367 1.35315 7.81839 0.741571C8.63029 0.463559 9.47677 0.299254 10.3337 0.253334C10.3734 0.253334 10.413 0.240853 10.4519 0.234245H11.4203ZM10.9703 4.80972C8.72316 4.80972 6.4758 4.80972 4.2282 4.80972C4.10834 4.81099 3.98905 4.82651 3.87285 4.85597C3.76346 4.88607 3.67976 5.03144 3.67976 5.15552C3.67976 5.33613 3.67976 5.51748 3.67976 5.69735C3.68174 5.71814 3.68916 5.73805 3.70128 5.75506C3.71339 5.77207 3.72977 5.78559 3.74877 5.79427C4.27641 6.00424 4.80527 6.21055 5.33536 6.41319C5.37522 6.42605 5.41811 6.42605 5.45797 6.41319C6.26802 6.10042 7.07563 5.78594 7.8808 5.46975C7.97339 5.42989 8.07294 5.40872 8.17374 5.40746C8.27454 5.4062 8.37459 5.42488 8.46815 5.46241C9.25446 5.77665 10.0415 6.08794 10.8264 6.40438C10.9052 6.43634 10.9934 6.43634 11.0723 6.40438C11.8491 6.08794 12.6273 5.77738 13.4041 5.46168C13.4917 5.4246 13.5858 5.4055 13.6809 5.4055C13.776 5.4055 13.8701 5.4246 13.9577 5.46168C14.7687 5.77934 15.5795 6.09259 16.3901 6.40144C16.4383 6.4237 16.4926 6.42913 16.5442 6.41686C17.0861 6.21422 17.625 6.00424 18.1661 5.79941C18.2307 5.77518 18.2395 5.73847 18.2395 5.67166C18.2325 5.55845 18.2325 5.44493 18.2395 5.33173C18.2615 5.01749 18.1741 4.87947 17.8893 4.82587C17.8224 4.81363 17.7546 4.80798 17.6866 4.80898L10.9703 4.80972ZM14.3615 4.54467C14.3152 4.425 14.2778 4.32442 14.2359 4.22237C13.8938 3.40888 13.4386 2.67322 12.7543 2.09835C11.6472 1.1674 10.2214 1.17181 9.12158 2.1079C8.51734 2.62183 8.09811 3.26939 7.7714 3.98302C7.68844 4.16363 7.61796 4.35011 7.53793 4.54467H14.3615ZM18.2527 6.05931C17.7505 6.26635 17.2733 6.46164 16.7968 6.66061C16.7026 6.70113 16.6012 6.72203 16.4987 6.72203C16.3962 6.72203 16.2948 6.70113 16.2006 6.66061C15.4077 6.34638 14.6118 6.03875 13.8182 5.72599C13.7888 5.71309 13.757 5.70642 13.7249 5.70642C13.6928 5.70642 13.6611 5.71309 13.6317 5.72599C12.8131 6.04609 11.993 6.36179 11.1751 6.68043C11.0399 6.7333 10.8897 6.7333 10.7544 6.68043C9.92674 6.35739 9.09784 6.03924 8.26771 5.72599C8.21293 5.70468 8.15216 5.70468 8.09738 5.72599C7.28928 6.04071 6.48339 6.35666 5.67969 6.67383C5.58927 6.71307 5.49158 6.73277 5.39302 6.73163C5.29446 6.73049 5.19725 6.70854 5.10776 6.66722C4.65844 6.47046 4.20397 6.28617 3.75098 6.09675C3.72675 6.08647 3.70105 6.0806 3.65627 6.06592C3.69004 6.1342 3.71206 6.18485 3.7385 6.23184C3.9316 6.56347 4.215 6.83338 4.55565 7.01008C5.12465 7.32652 5.7421 7.44252 6.38745 7.44252C9.4221 7.44252 12.458 7.44105 15.4951 7.43812C15.821 7.43574 16.1459 7.40082 16.4649 7.33386C17.0266 7.21786 17.5354 6.98072 17.9377 6.55489C18.076 6.41394 18.1824 6.24494 18.2498 6.05931H18.2527ZM8.83084 9.65684C9.20527 9.65684 9.52024 9.37711 9.53126 9.03718C9.53311 8.87295 9.47413 8.71385 9.36569 8.5905C9.25725 8.46715 9.10701 8.38828 8.9439 8.36907C8.57167 8.31988 8.2288 8.52986 8.14804 8.85584C8.04158 9.27139 8.37344 9.66051 8.8279 9.65904L8.83084 9.65684ZM13.78 9.06141C13.7828 8.97063 13.7673 8.88021 13.7346 8.7955C13.7018 8.71078 13.6525 8.63347 13.5894 8.56813C13.5263 8.50278 13.4508 8.45073 13.3672 8.41503C13.2837 8.37933 13.1939 8.36071 13.1031 8.36026C12.954 8.35183 12.8062 8.39171 12.6816 8.47398C12.557 8.55625 12.4623 8.67652 12.4115 8.81693C12.3677 8.94632 12.3686 9.08665 12.414 9.21548C12.4594 9.3443 12.5467 9.45421 12.6618 9.52762C12.7714 9.60604 12.9008 9.65187 13.0353 9.65979C13.1698 9.66772 13.3038 9.63742 13.4217 9.57241C13.5218 9.52813 13.6078 9.4573 13.6704 9.36761C13.7331 9.27792 13.7699 9.17278 13.7771 9.06361L13.78 9.06141ZM10.9615 9.64876C11.3939 9.64876 11.7228 9.29121 11.6494 8.89915C11.5929 8.59226 11.3293 8.37641 10.9886 8.35879C10.8358 8.34944 10.6842 8.39078 10.5573 8.47641C10.4304 8.56203 10.3353 8.68715 10.2867 8.83234C10.1649 9.24716 10.4989 9.65023 10.9585 9.65023L10.9615 9.64876ZM0.0954448 14.9959C0.412615 14.9452 0.729785 14.8865 1.04989 14.849C1.97644 14.7316 2.90299 14.6104 3.831 14.5106C4.75902 14.4107 5.67676 14.3226 6.60771 14.2573C7.58198 14.1839 8.55845 14.1413 9.53493 14.1024C10.9299 14.0466 12.3248 14.0524 13.7147 14.1325C14.952 14.2039 16.1879 14.295 17.4223 14.4056C18.3489 14.4893 19.2718 14.6119 20.1954 14.7264C20.7688 14.7998 21.34 14.8865 21.9156 14.968C21.9098 14.9582 21.9026 14.9493 21.8943 14.9415C21.8627 14.9232 21.8304 14.9056 21.7981 14.8894C21.2972 14.6458 20.7727 14.4542 20.2328 14.3175C19.2616 14.0495 18.273 13.8493 17.274 13.7184C16.2682 13.5862 15.2601 13.4666 14.2499 13.3777C13.4878 13.3102 12.7206 13.2984 11.9548 13.2617C11.9388 13.2599 11.923 13.2562 11.9078 13.2507V12.2383H13.6948C13.7424 12.2392 13.79 12.2373 13.8373 12.2324C13.9354 12.2199 14.0261 12.1736 14.0937 12.1013C14.1613 12.0291 14.2015 11.9355 14.2075 11.8368C14.2134 11.738 14.1846 11.6403 14.1261 11.5605C14.0677 11.4808 13.9831 11.4239 13.8872 11.3998C13.8223 11.3883 13.7563 11.3841 13.6904 11.3873C11.8682 11.3873 10.0462 11.3873 8.2244 11.3873C8.18402 11.3873 8.14364 11.3873 8.10326 11.3873C7.99784 11.3922 7.89814 11.4367 7.82399 11.5118C7.74985 11.5869 7.7067 11.6871 7.70312 11.7926C7.69431 12.0474 7.88153 12.2331 8.15538 12.2368C8.73099 12.2368 9.30659 12.2368 9.8822 12.2368H10.0151V13.2536C9.99233 13.2536 9.97838 13.2588 9.96369 13.2595C8.8164 13.2815 7.67204 13.3525 6.53062 13.4724C5.04242 13.6273 3.56523 13.8439 2.11153 14.2066C1.43167 14.3747 0.760621 14.5686 0.129218 14.8843C0.0859004 14.9063 0.0440515 14.932 0.000734329 14.9577L0.0462541 14.9988L0.0954448 14.9959ZM5.1107 16.4598C5.03728 16.4598 4.99543 16.5046 4.99543 16.5949C4.99543 16.6493 5.02626 16.6801 5.08867 16.6874L5.21495 16.7043V17.0611H4.04025V16.6874H4.10192C4.21058 16.6874 4.29207 16.6236 4.34641 16.4966L4.9734 15.0421H5.85443L6.48437 16.4877C6.50841 16.5499 6.55162 16.6027 6.60773 16.6386C6.66383 16.6745 6.72992 16.6916 6.7964 16.6874V17.0611H5.41759V16.6985L5.54387 16.6816C5.60407 16.6742 5.63417 16.6434 5.63417 16.5891C5.63417 16.5032 5.59379 16.4598 5.51303 16.4598H5.1107ZM5.29057 15.7844L5.16136 16.1419H5.42052L5.29057 15.7844ZM7.76039 15.7961V16.5494C7.76163 16.5755 7.77022 16.6007 7.78515 16.6221C7.80009 16.6436 7.82077 16.6604 7.84482 16.6706C7.89056 16.6979 7.94276 16.7126 7.99606 16.7131V17.0611H6.92488V16.7183C6.97387 16.711 7.02085 16.6938 7.06291 16.6676C7.12091 16.636 7.14954 16.6023 7.14954 16.5663V15.5935C7.14991 15.5655 7.14404 15.5379 7.13236 15.5124C7.12067 15.487 7.10347 15.4646 7.082 15.4467C7.0381 15.4066 6.98061 15.3848 6.92121 15.3857V15.037H8.24862L8.64288 15.9797L9.03935 15.037H10.4255V15.3857C10.3674 15.3839 10.3108 15.4047 10.2676 15.4437C10.2477 15.4626 10.2319 15.4853 10.2213 15.5106C10.2107 15.5359 10.2055 15.5631 10.206 15.5906V16.5384C10.2083 16.5653 10.2179 16.591 10.2338 16.6128C10.2497 16.6345 10.2714 16.6515 10.2963 16.6617C10.3437 16.6906 10.3979 16.7063 10.4534 16.7073V17.0553H9.15535V16.7124C9.20368 16.7079 9.24975 16.6899 9.28824 16.6603C9.34183 16.6258 9.369 16.5913 9.369 16.5582V15.7903C9.369 15.7697 9.35652 15.7594 9.33229 15.7594C9.32128 15.7594 9.311 15.7726 9.30145 15.7983L8.81028 17.0582H8.3382L7.8316 15.7932C7.82944 15.7861 7.82491 15.78 7.81876 15.7758C7.81261 15.7717 7.80522 15.7698 7.79783 15.7704C7.77213 15.7704 7.76039 15.7778 7.76039 15.7932V15.7961ZM11.689 15.5964V16.5751C11.6915 16.6022 11.7015 16.6281 11.7178 16.6499C11.7341 16.6717 11.7562 16.6885 11.7815 16.6985C11.8295 16.7262 11.884 16.7409 11.9394 16.741V17.0611H10.5863V16.7462C10.625 16.7455 10.6632 16.737 10.6986 16.7211C10.7339 16.7052 10.7657 16.6822 10.7919 16.6537C10.807 16.6323 10.814 16.6063 10.8117 16.5803V15.5906C10.8121 15.5626 10.8062 15.5349 10.7945 15.5095C10.7828 15.4841 10.7656 15.4616 10.7441 15.4437C10.7005 15.4037 10.6433 15.3819 10.5841 15.3828V15.034H11.9137V15.3828C11.8554 15.3811 11.7986 15.4019 11.7551 15.4408C11.7335 15.4598 11.7164 15.4834 11.705 15.5098C11.6936 15.5362 11.6881 15.5647 11.689 15.5935V15.5964ZM13.1824 16.2712C13.1818 16.3603 13.2125 16.4468 13.269 16.5156C13.3091 16.565 13.3604 16.604 13.4187 16.6295C13.4769 16.6551 13.5403 16.6664 13.6038 16.6625C13.6741 16.6648 13.7439 16.6491 13.8064 16.617C13.8371 16.6011 13.8626 16.5769 13.88 16.5472C13.8974 16.5174 13.906 16.4833 13.9048 16.4488C13.9075 16.423 13.9018 16.397 13.8886 16.3747C13.8754 16.3523 13.8553 16.3348 13.8314 16.3248C13.7815 16.311 13.7307 16.3007 13.6794 16.2939V15.99H15.0215V16.28L14.9481 16.288L14.929 16.2969C14.8446 16.3321 14.802 16.3776 14.802 16.4319V17.0472H14.4283C14.4019 16.9797 14.3644 16.9459 14.316 16.9459C14.2844 16.9452 14.2532 16.9531 14.2257 16.9686C13.9326 17.0423 13.6332 17.0876 13.3314 17.1037C13.0188 17.1144 12.7114 17.0215 12.457 16.8394C12.3296 16.7508 12.2262 16.632 12.1559 16.4936C12.0857 16.3553 12.0509 16.2016 12.0547 16.0465C12.0547 15.9139 12.0851 15.783 12.1437 15.664C12.2022 15.5449 12.2873 15.441 12.3924 15.36C12.5976 15.1891 12.8492 15.0833 13.1148 15.0561C13.2407 15.0401 13.3675 15.0318 13.4944 15.0311C13.6802 15.0293 13.8651 15.0558 14.0429 15.1097C14.0715 15.1173 14.0997 15.1266 14.1273 15.1376C14.1696 15.1588 14.2138 15.1757 14.2594 15.1882C14.291 15.1882 14.3402 15.15 14.4063 15.073H14.7976V15.8321H14.0487L14.034 15.6978C14.0267 15.6339 13.9665 15.5737 13.8542 15.5171C13.774 15.4726 13.6845 15.4475 13.5928 15.4437C13.539 15.442 13.4853 15.4509 13.4349 15.4699C13.3845 15.4889 13.3384 15.5177 13.2991 15.5546C13.2602 15.591 13.2295 15.6353 13.2091 15.6846C13.1887 15.7339 13.1791 15.7869 13.1809 15.8402L13.1824 16.2712ZM16.5061 17.1118C16.1784 17.1215 15.8547 17.0378 15.5729 16.8703C15.4316 16.791 15.3145 16.6748 15.2342 16.5341C15.1538 16.3934 15.1133 16.2334 15.117 16.0715C15.117 15.6965 15.2567 15.4173 15.5362 15.2337C15.7726 15.0781 16.0886 15.0003 16.484 15.0003C16.8795 15.0003 17.1955 15.0771 17.4319 15.2308C17.567 15.3197 17.6779 15.4408 17.7546 15.5832C17.8314 15.7255 17.8715 15.8848 17.8715 16.0465C17.8715 16.2082 17.8314 16.3674 17.7546 16.5098C17.6779 16.6522 17.567 16.7733 17.4319 16.8622C17.1547 17.0346 16.8323 17.1205 16.5061 17.1089V17.1118ZM16.5061 15.3857C16.3827 15.3857 16.2858 15.4702 16.2197 15.6405C16.1692 15.7721 16.1443 15.9121 16.1463 16.0531C16.1463 16.4936 16.2626 16.7139 16.495 16.7139C16.7275 16.7139 16.8428 16.4921 16.8409 16.0487C16.8425 15.9104 16.8207 15.7729 16.7762 15.642C16.7138 15.4687 16.6243 15.3828 16.5061 15.3828V15.3857ZM4.60264 18.5692C4.45591 18.574 4.31285 18.5228 4.2025 18.426C4.15209 18.3808 4.11176 18.3254 4.08416 18.2636C4.05656 18.2017 4.04229 18.1347 4.04229 18.067C4.04229 17.9992 4.05656 17.9323 4.08416 17.8704C4.11176 17.8086 4.15209 17.7532 4.2025 17.708C4.29919 17.6281 4.41755 17.579 4.54237 17.567C4.66719 17.5549 4.79276 17.5805 4.90292 17.6404C4.9873 17.6909 5.05456 17.7656 5.09601 17.8548H4.86695C4.83475 17.8164 4.79419 17.7859 4.74836 17.7657C4.70254 17.7455 4.65269 17.736 4.60264 17.7381C4.55718 17.7367 4.5119 17.7444 4.46943 17.7606C4.42696 17.7769 4.38814 17.8014 4.35522 17.8328C4.3238 17.8638 4.29887 17.9008 4.28185 17.9416C4.26483 17.9824 4.25607 18.0261 4.25607 18.0703C4.25607 18.1145 4.26483 18.1582 4.28185 18.199C4.29887 18.2397 4.3238 18.2767 4.35522 18.3078C4.38814 18.3392 4.42696 18.3637 4.46943 18.38C4.5119 18.3962 4.55718 18.4039 4.60264 18.4025C4.66988 18.4053 4.73624 18.3865 4.79206 18.3489C4.84216 18.3129 4.87885 18.2612 4.89631 18.2021H4.5439V18.0317H5.12685C5.13021 18.1041 5.11893 18.1763 5.0937 18.2442C5.06847 18.3121 5.0298 18.3742 4.98001 18.4267C4.93016 18.475 4.87097 18.5125 4.80606 18.537C4.74116 18.5615 4.67193 18.5725 4.60264 18.5692ZM7.29491 17.5832L7.767 18.5508H7.5394L7.43367 18.3364H6.9381L6.83237 18.5508H6.61211L7.0842 17.5832H7.29491ZM7.18699 17.8365L7.02326 18.1661H7.34851L7.18699 17.8365ZM9.56209 17.5832L9.96076 18.3452L10.3587 17.5832H10.6024V18.5508H10.3881V17.9444L10.0731 18.5508H9.83815L9.52318 17.9444V18.5508H9.30879V17.5832H9.56209ZM12.4871 17.5832V18.5508H12.2735V17.5832H12.4871ZM14.929 17.5832H15.1434V18.5508H14.9114L14.3725 17.8717V18.5508H14.1581V17.5832H14.3901L14.929 18.2623V17.5832ZM17.3159 18.5692C17.1691 18.574 17.0261 18.5228 16.9157 18.426C16.8653 18.3808 16.825 18.3254 16.7974 18.2636C16.7698 18.2017 16.7555 18.1347 16.7555 18.067C16.7555 17.9992 16.7698 17.9323 16.7974 17.8704C16.825 17.8086 16.8653 17.7532 16.9157 17.708C17.0124 17.6281 17.1308 17.579 17.2556 17.567C17.3804 17.5549 17.506 17.5805 17.6162 17.6404C17.7 17.69 17.7672 17.7633 17.8092 17.8511H17.5802C17.548 17.8128 17.5074 17.7823 17.4616 17.762C17.4158 17.7418 17.3659 17.7323 17.3159 17.7344C17.2704 17.7329 17.2251 17.7406 17.1826 17.7568C17.1401 17.7731 17.1013 17.7977 17.0684 17.8291C17.037 17.8602 17.0121 17.8972 16.9951 17.9379C16.9781 17.9787 16.9693 18.0224 16.9693 18.0666C16.9693 18.1108 16.9781 18.1545 16.9951 18.1953C17.0121 18.2361 17.037 18.2731 17.0684 18.3041C17.1013 18.3356 17.1401 18.3601 17.1826 18.3764C17.2251 18.3927 17.2704 18.4003 17.3159 18.3988C17.3831 18.4016 17.4495 18.3828 17.5053 18.3452C17.5554 18.3092 17.5921 18.2576 17.6095 18.1984H17.2571V18.0281H17.8408C17.8442 18.1004 17.8329 18.1727 17.8077 18.2405C17.7824 18.3084 17.7438 18.3705 17.694 18.4231C17.6444 18.4721 17.5852 18.5103 17.5201 18.5355C17.4551 18.5606 17.3855 18.5721 17.3159 18.5692Z" fill="url(#paint0_linear_3010_2680)"/>
<defs>
<linearGradient id="paint0_linear_3010_2680" x1="10.9563" y1="18.5692" x2="10.9563" y2="0.234245" gradientUnits="userSpaceOnUse">
<stop offset="0.17" stop-color="#E42520"/>
<stop offset="1" stop-color="#ED7119"/>
</linearGradient>
</defs>
</svg>
