<svg width="24" height="24" viewBox="0 0 24 24" fill="none" xmlns="http://www.w3.org/2000/svg">
<g clip-path="url(#clip0_7811_238)">
<path fill-rule="evenodd" clip-rule="evenodd" d="M4.63059 12.0195C4.64927 9.92332 6.62817 7.22838 9.99947 5.75485C15.935 3.16145 19.3367 5.55235 20.2161 7.81312C21.036 9.9204 19.4137 13.6203 16.6038 16.3771C18.6113 14.9397 20.25 13.3956 21.3862 11.8964C22.8941 9.9064 23.518 7.99344 22.9449 6.50941C22.0987 4.31401 18.791 3.60847 14.5975 4.20021C10.4039 4.79195 7.18256 5.8208 4.59558 7.13559C1.71856 8.59744 0.233361 10.3347 0.0209402 12.3166C-0.287187 15.1947 2.79642 19.0633 9.85124 19.54C13.5587 19.791 17.115 19.8744 24 18.2031C23.1801 18.2293 4.55473 20.5432 4.63059 12.0195Z" fill="#A6CE39"/>
<path fill-rule="evenodd" clip-rule="evenodd" d="M11.4802 15.3692C12.2738 15.3696 13.0496 15.1346 13.7096 14.6939C14.3696 14.2533 14.8842 13.6268 15.1881 12.8937C15.492 12.1607 15.5717 11.3539 15.4171 10.5755C15.2625 9.79714 14.8805 9.0821 14.3195 8.52082C13.7585 7.95955 13.0436 7.57726 12.2653 7.42231C11.487 7.26736 10.6802 7.34672 9.94697 7.65033C9.21376 7.95394 8.58706 8.46818 8.14613 9.128C7.7052 9.78782 7.46985 10.5636 7.46985 11.3572C7.47201 12.4205 7.89532 13.4396 8.64714 14.1915C9.39895 14.9435 10.418 15.3669 11.4813 15.3692H11.4802Z" fill="#A6CE39"/>
</g>
<defs>
<clipPath id="clip0_7811_238">
<rect width="24" height="24" fill="white"/>
</clipPath>
</defs>
</svg>
