<svg width="24" height="24" viewBox="0 0 24 24" fill="none" xmlns="http://www.w3.org/2000/svg">
<path d="M15.0697 12.6229C15.4171 10.9969 14.6674 9.50619 13.2231 9.00175C9.28395 7.62606 2.43111 8.51922 1.1132 13.1972C1.11126 13.2035 1.09962 13.2078 1.08604 13.2078C1.07634 13.2078 1.06859 13.2014 1.06665 13.1972C0.93851 12.5672 1.05453 11.9742 1.31105 11.3982C3.14573 7.96318 10.1499 6.77881 14.0416 8.34065C16.5688 10.0802 15.4096 11.7884 15.0697 12.6229Z" fill="#FF6EDF"/>
<path d="M13.1338 10.3221C13.1338 10.3221 13.1125 10.3136 13.0698 10.2988C11.001 9.47644 8.14429 9.91147 6.49404 11.3285C1.7131 16.0668 13.393 17.9543 14.2065 17.9543C13.1668 18.6102 2.36197 17.3891 4.24198 12.21C4.41656 11.7163 4.79482 11.2523 5.31079 10.8687C7.28505 9.38755 10.9205 8.75558 13.1202 10.2585C13.1512 10.2797 13.1668 10.2924 13.1668 10.2924C13.1745 10.2988 13.1726 10.3051 13.1629 10.3094C13.1532 10.3242 13.1435 10.3242 13.1338 10.3221Z" fill="#FF6EDF"/>
<path d="M8.50359 13.4026C10.9391 17.3933 21.2503 16.2365 22.8131 11.0549C22.8258 11.0136 22.8438 10.9336 22.9121 10.7964C22.9414 10.9336 22.9742 11.0286 22.98 11.0591C24.0106 17.0919 11.1215 17.2805 8.29216 14.6549C7.54878 13.9684 7.47323 11.8627 8.92646 11.3642C8.71816 11.5691 7.86724 12.3594 8.50359 13.4026Z" fill="#FF6EDF"/>
<path d="M18.2431 11.6249C20.5591 6.72433 10.5592 6.87897 9.78387 6.0459C14.2189 6.26038 21.4452 7.01777 19.7503 11.7902C18.7155 14.7166 13.0275 14.927 10.8275 13.7078C12.6371 13.9812 15.8114 14.8292 18.2431 11.6249Z" fill="#FF6EDF"/>
<path d="M11.9951 13.0595C13.0643 13.0595 13.931 12.5861 13.931 12.0021C13.931 11.4182 13.0643 10.9448 11.9951 10.9448C10.926 10.9448 10.0593 11.4182 10.0593 12.0021C10.0593 12.5861 10.926 13.0595 11.9951 13.0595Z" fill="#FF6EDF"/>
</svg>
