<svg width="24" height="24" viewBox="0 0 24 24" fill="none" xmlns="http://www.w3.org/2000/svg">
<path fill-rule="evenodd" clip-rule="evenodd" d="M5 0H19C21.7614 0 24 2.23858 24 5V19C24 21.7614 21.7614 24 19 24H5C2.23858 24 0 21.7614 0 19V5C0 2.23858 2.23858 0 5 0ZM9.16006 12.3991H9.28257H11.9401C12.4867 12.3991 12.9296 12.4902 13.2688 12.6724C13.6081 12.8483 13.8563 13.1028 14.0133 13.4357C14.1704 13.7624 14.2489 14.1488 14.2489 14.5949C14.2489 15.0221 14.1578 15.3959 13.9756 15.7163C13.7997 16.0304 13.5327 16.2786 13.1746 16.4608C12.8165 16.6367 12.3704 16.7247 11.8364 16.7247H9.16006V12.3991ZM9.16006 10.6746V6.76367H11.45C12.0092 6.76367 12.4678 6.82964 12.8259 6.96157C13.1903 7.09351 13.4605 7.30397 13.6364 7.59297C13.8123 7.88197 13.9002 8.25578 13.9002 8.7144C13.9002 9.12905 13.806 9.48402 13.6175 9.7793C13.4291 10.0683 13.1526 10.2913 12.7882 10.4484C12.4301 10.5992 11.9935 10.6746 11.4783 10.6746H9.30142H9.16006ZM14.2887 11.4585C14.4201 11.4043 14.5451 11.344 14.6636 11.2777C15.1913 10.9824 15.5903 10.6023 15.8604 10.1374C16.1306 9.66621 16.2656 9.1479 16.2656 8.58247C16.2656 7.94165 16.1557 7.38879 15.9358 6.92388C15.7222 6.45897 15.4049 6.07573 14.984 5.77417C14.5693 5.46632 14.0636 5.24015 13.4667 5.09565C12.8762 4.95116 12.204 4.87891 11.45 4.87891H6.79468V18.6H7.69937H9.16006H11.8364C12.8354 18.6 13.6898 18.4492 14.3997 18.1477C15.1096 17.8398 15.6531 17.3906 16.03 16.8C16.4133 16.2095 16.6049 15.4776 16.6049 14.6043C16.6049 14.0389 16.4855 13.5111 16.2468 13.0211C16.008 12.5311 15.6437 12.1321 15.1536 11.8243C14.9019 11.6641 14.6136 11.5422 14.2887 11.4585Z" fill="white"/>
</svg>
