<svg width="24" height="24" viewBox="0 0 24 24" fill="none" xmlns="http://www.w3.org/2000/svg">
<path d="M1.01805 0.0180451L5.51128 0L6.41353 0.721804V0H17.2406V0.721804L17.9624 0H21.0301L22.6541 1.46165V20.7519L19.406 24H5.69173L2.26316 20.5714V14.6165L1 12.6316L1.01805 0.0180451Z" fill="#00192C"/>
<path d="M6.57587 1.8587L5.1503 0.559448H1.55933V9.94291H5.33075L6.57587 8.6617V5.84667L5.85406 5.14291L6.57587 4.49328V1.8587ZM4.4285 8.6617H3.72474V5.77449H4.4285V8.6617ZM4.4285 4.67373H3.72474V1.82261H4.4285V4.67373Z" fill="#488ACB"/>
<path d="M7.18945 0.559448V9.96095H10.9248V8.51734H9.30073V5.95494H10.9248V4.52937H9.30073V2.00306L10.9248 2.05719V0.559448H7.18945Z" fill="#488ACB"/>
<path d="M7.18945 10.5564V19.9399H10.9248V18.5143H9.30073V15.9519H10.9248V14.5263H9.30073V12H10.9248V10.5564H7.18945Z" fill="#488ACB"/>
<path d="M11.4841 0.559448H16.5368V2.05719H15.0932V9.979H12.7473V2.00306H11.4841V0.559448Z" fill="#488ACB"/>
<path d="M1.55933 10.5564H6.61196V12.0181H5.16835V19.9218H2.82248V11.9639H1.55933V10.5564Z" fill="#488ACB"/>
<path d="M17.0781 2.00306L18.5037 0.559448H20.6691L22.1127 1.84065V4.70982L19.2616 7.29028V8.48125H22.0766L22.0947 9.96095H17.0781V7.2181L18.7744 5.63013L19.9653 4.67373V1.82261L19.2435 1.80456V3.98802H17.0781V2.00306Z" fill="#FF9900"/>
<path d="M22.0947 10.8993V10.5744H19.9653V14.6346H19.2435V10.5564H17.0781V19.9218H19.2435V15.7173H19.9653V19.9218H22.0947V10.8993Z" fill="#488ACB"/>
<path d="M12.9097 10.5564H15.1473L16.5368 11.982V14.6165H14.3713V12.1805H13.6315V18.6045H14.3713V15.8797H16.5368V18.6767L15.2916 19.9399H12.9277L11.4841 18.4782V11.9639L12.9097 10.5564Z" fill="#488ACB"/>
</svg>
