<svg width="24" height="24" viewBox="0 0 24 24" fill="none" xmlns="http://www.w3.org/2000/svg">
<path d="M12.0104 11C12.3513 10.5608 12.5217 10.0714 12.5217 9.53176L12.5143 5.72313C12.5217 5.64158 12.5217 5.56 12.5143 5.48471C12.4402 4.78196 12.0993 4.19216 11.4916 3.71529C10.8839 3.23843 10.1577 3 9.32026 3H6.34113V11H12.0104ZM10.0243 5.05176C10.2244 5.20863 10.3355 5.40941 10.3578 5.64783C10.3578 5.67293 10.3652 5.69803 10.3652 5.72313L10.3726 9.53176C10.3726 9.78274 10.2614 10.0023 10.0539 10.178C9.84644 10.3537 9.59446 10.4416 9.29803 10.4416H8.4458V4.8196H9.29803C9.58707 4.81333 9.82421 4.8949 10.0243 5.05176Z" fill="white"/>
<path d="M12.511 13.237C12.468 12.7786 12.3103 12.3705 12.038 12H6.34113V20H9.42963C10.2824 20 11.0061 19.7363 11.6081 19.2025C12.21 18.6688 12.511 18.0283 12.5181 17.281L12.511 13.4694C12.5253 13.3878 12.5253 13.3061 12.511 13.237ZM10.4472 17.281C10.4472 17.5385 10.3397 17.752 10.1391 17.9278C9.93842 18.1036 9.70194 18.1915 9.42963 18.1915H8.40492V12.5652H9.4368C9.70195 12.5652 9.92408 12.6468 10.1247 12.8038C10.3182 12.9608 10.4257 13.1617 10.4544 13.4003C10.4544 13.4254 10.4615 13.4506 10.4615 13.4757L10.4472 17.281Z" fill="white"/>
<path d="M14.3406 11H17.7138C17.3406 10.7296 16.9673 10.4528 16.5941 10.1824C15.9266 9.64781 15.5534 8.96857 15.4746 8.14466C15.4601 8.01258 15.4529 7.87422 15.4529 7.72956L15.4675 5.72956C15.4675 5.47798 15.5751 5.25787 15.776 5.08176C15.977 4.90566 16.2137 4.81761 16.4936 4.81761C16.7664 4.81761 17.0034 4.89937 17.1971 5.05661C17.3909 5.21385 17.4985 5.4151 17.52 5.65408C17.52 5.67924 17.5272 5.7044 17.5272 5.72956V7H19.58V5.72956C19.5871 5.64781 19.5871 5.56604 19.58 5.49057C19.5153 4.78616 19.185 4.19497 18.6037 3.71698C18.008 3.23899 17.3119 3 16.5079 3C15.6612 3 14.9363 3.26415 14.3335 3.79874C13.7304 4.33333 13.429 4.97484 13.4147 5.72328L13.4075 8.27044C13.4004 8.47799 13.4075 8.67925 13.4219 8.86794C13.508 9.72328 13.8094 10.4277 14.3406 11Z" fill="#FFF200"/>
<path d="M18.6125 12H15.2281C15.6161 12.2817 16.0113 12.5696 16.4065 12.8513C17.0747 13.3834 17.4198 14.0595 17.4986 14.8795C17.5132 15.011 17.5058 15.3052 17.5132 15.2927L17.5203 17.2833C17.5132 17.5337 17.4126 17.7527 17.204 17.928C16.9957 18.1033 16.7586 18.1909 16.4784 18.1909C16.1981 18.1909 15.968 18.1158 15.774 17.953C15.58 17.7965 15.4723 17.5962 15.4508 17.3584C15.4508 17.3333 15.4436 17.3083 15.4436 17.2833L15.4651 16.0188H13.4101V17.2833C13.4029 17.3646 13.4029 17.446 13.4101 17.5211C13.4746 18.2222 13.8053 18.8106 14.3873 19.2864C14.9765 19.7621 15.6734 20 16.4784 20C17.3263 20 18.052 19.7371 18.6557 19.205C19.2592 18.6729 19.561 18.0344 19.5753 17.2895L19.5825 14.7543C19.5897 14.5477 19.5825 14.3474 19.5682 14.1596C19.4748 13.2895 19.1587 12.5696 18.6125 12Z" fill="#FFF200"/>
<path d="M1.04346 15.2V8.80005L4.57523 12.0289L1.04346 15.2Z" fill="white"/>
<path d="M24 15.2V8.80005L20.4682 11.9968L24 15.2Z" fill="white"/>
</svg>
