<svg width="24" height="24" viewBox="0 0 24 24" fill="none" xmlns="http://www.w3.org/2000/svg">
<path d="M15.197 10.543C15.5181 10.1516 15.8315 9.77484 16.1214 9.40517H21.0727L23 7.09345H17.8215C18.9339 5.43387 19.4197 4.30334 19.0984 4.04969C19.0279 3.99172 18.9027 3.98447 18.7459 4.02795C18.362 4.12943 17.892 4.44103 17.5629 4.67295C17.2261 4.90486 16.8422 5.20197 16.4191 5.54259C15.4868 6.30354 15.5259 6.28175 16.3642 5.62954C16.8344 5.26718 17.2103 5.01356 17.4924 4.88311C17.5786 4.84687 17.6491 4.81787 17.7196 4.80338C17.8215 4.78164 17.892 4.78164 17.939 4.81788C18.1662 4.99181 17.7352 5.83971 16.8422 7.09345C15.8159 8.54279 14.1629 10.5502 12.2042 12.6881L12.0632 12.8402C10.9978 13.9998 9.95582 15.0724 9 16H15.1969V12.7389H20.634L22.4437 10.572H15.197V10.543Z" fill="white"/>
<path d="M12.5902 10.7397C12.7061 10.5856 12.8066 10.4024 12.884 10.1971C12.9613 9.99174 13 9.74975 13 9.4858C13 9.07516 12.9149 8.70855 12.7371 8.40057C12.5592 8.09259 12.3118 7.82864 11.9871 7.62332C11.6624 7.41064 11.268 7.2567 10.8118 7.15404C10.3556 7.05138 9.83758 7 9.27317 7L2.90973 7.00022L1 9.33933L9.40463 9.33911C9.61344 9.33911 9.79901 9.38314 9.96914 9.46373C10.1392 9.54443 10.2242 9.69837 10.2242 9.9184C10.2242 10.153 10.1392 10.3143 9.97686 10.395C9.81443 10.4831 9.62116 10.5196 9.40463 10.5196L1.00057 10.5199V15.9974L7.66501 15.9972C7.50269 16.1511 7.30935 16.3418 7.10058 16.5398C6.31969 17.2804 5.27588 18.2188 4.46403 18.6514C4.38672 18.6881 4.31712 18.7248 4.25527 18.7467C4.10063 18.8054 3.99238 18.8127 3.93053 18.7614C3.58258 18.4754 5.02071 16.723 5.02071 16.723C3.97692 17.8082 2.83262 19.568 3.31198 19.9493C3.40477 20.0226 3.55941 20.0153 3.77589 19.9346C3.96919 19.8613 4.20887 19.7367 4.48722 19.5533C4.59549 19.48 4.71147 19.4067 4.82742 19.3187C5.43826 18.8861 6.21142 18.2775 7.10058 17.5076C7.62633 17.0529 8.19074 16.5472 8.7784 15.9972C9.86865 14.9706 11.0439 13.7901 12.2036 12.5069C12.366 12.3235 12.5284 12.1476 12.683 11.9642C12.6366 11.9202 12.5902 11.8689 12.5438 11.8323C12.3737 11.6782 12.1882 11.561 11.9794 11.4655C11.8866 11.429 11.8015 11.3923 11.701 11.3629C11.8634 11.3116 12.0181 11.2309 12.1804 11.1283C12.335 11.0257 12.4742 10.8936 12.5902 10.7397ZM10.0464 13.5187C9.90722 13.6288 9.67526 13.68 9.35052 13.68L3.94639 13.6803V12.4409H9.35052C9.67526 12.4409 9.90722 12.4922 10.0464 12.5948C10.1856 12.6975 10.2629 12.8515 10.2629 13.0495C10.2629 13.2548 10.1933 13.4161 10.0464 13.5187Z" fill="white"/>
</svg>
