<svg width="24" height="24" viewBox="0 0 24 24" fill="none" xmlns="http://www.w3.org/2000/svg">
<path fill-rule="evenodd" clip-rule="evenodd" d="M3.7773 1.75439H20.223C20.3821 1.75439 20.5347 1.81761 20.6473 1.93013C20.7598 2.04265 20.823 2.19526 20.823 2.35439V21.6456C20.823 21.8047 20.7598 21.9573 20.6473 22.0699C20.5347 22.1824 20.3821 22.2456 20.223 22.2456H3.777C3.61787 22.2456 3.46526 22.1824 3.35274 22.0699C3.24022 21.9573 3.177 21.8047 3.177 21.6456V2.35439C3.177 2.19526 3.24022 2.04265 3.35274 1.93013C3.46526 1.81761 3.61787 1.75439 3.777 1.75439H3.7773ZM7.2909 18.879H12.54C14.115 18.8664 15.3036 18.5217 16.1058 17.8443C16.9083 17.1672 17.3094 16.1544 17.3094 14.8062C17.3094 14.0628 17.1288 13.4328 16.7676 12.9162C16.4064 12.3996 15.8886 12.0468 15.2136 11.8581C15.8115 11.6187 16.2642 11.247 16.5723 10.743C16.8801 10.239 17.0343 9.63089 17.0343 8.91899C17.0343 7.68419 16.6002 6.74249 15.7329 6.09359C14.8656 5.44469 13.5999 5.1204 11.9361 5.1204H7.2909V18.879ZM10.4082 13.0296H12.5931C13.6647 13.0359 14.2005 13.6125 14.2005 14.7591C14.2005 15.2568 14.0496 15.6426 13.7475 15.9165C13.4457 16.1907 13.0134 16.3275 12.4509 16.3275H10.4082V13.0302V13.0296ZM10.4082 10.8564V7.68149H11.9358C12.6348 7.68149 13.1409 7.809 13.4547 8.0643C13.7685 8.3193 13.9254 8.7366 13.9254 9.3162C13.9254 9.8202 13.7802 10.2012 13.4901 10.4598C13.2 10.7178 12.7146 10.8504 12.0336 10.8567H10.4082V10.8564Z" fill="#FFC927"/>
</svg>
