<svg width="24" height="24" viewBox="0 0 24 24" fill="none" xmlns="http://www.w3.org/2000/svg">
<path d="M12 22C17.5231 22 22 17.5227 22 12C22 6.47725 17.5231 2 12 2C6.47692 2 2 6.47725 2 12C2 17.5227 6.47692 22 12 22Z" fill="#D60B0B"/>
<path fill-rule="evenodd" clip-rule="evenodd" d="M11.2625 15.9832H12.5907C12.642 15.9832 12.6838 15.9425 12.6838 15.8922V9.90674H13.6118C14.2343 8.79424 15.3456 8.37549 15.3456 8.37549H8.89868C8.89868 8.37549 9.8633 8.67474 10.2174 9.90674H11.1697V15.8922C11.1697 15.9425 11.2112 15.9832 11.2625 15.9832Z" fill="white"/>
<path fill-rule="evenodd" clip-rule="evenodd" d="M18.5933 10.4329L19.2285 9.23666C19.2285 9.23666 18.3736 8.39941 16.8595 8.39941C14.6618 8.39941 13.4408 10.0979 13.3674 12.3229C13.2967 14.4999 14.8085 16.0549 16.7374 16.0789C18.6667 16.1027 19.5213 15.1697 19.5213 15.1697V11.8062C19.5241 11.4523 17.4854 11.6368 17.2136 11.6314C16.854 11.6213 17.0602 12.7438 17.0574 12.9067C17.0447 13.3107 17.7956 12.9111 17.9678 13.0796C17.9929 13.1042 18.0072 13.1375 18.0074 13.1722V14.4282C18.0074 14.4282 15.0133 15.7199 14.9549 12.1074C14.9305 10.5999 16.0049 9.83466 16.9328 9.78666C17.7972 9.74141 18.5933 10.4329 18.5933 10.4329Z" fill="white"/>
<path d="M12.0026 2.07422C6.52025 2.07422 2.07538 6.51672 2.07538 12C2.07538 17.4832 6.51999 21.9257 12.0023 21.9257C17.4844 21.9257 21.929 17.4832 21.929 12C21.9292 6.51672 17.4846 2.07422 12.0023 2.07422H12.0026ZM12.0026 2.64822C17.1669 2.64822 21.3528 6.83497 21.3528 12C21.3528 13.8205 20.8328 15.5192 19.9341 16.957C19.5654 17.1627 18.332 17.701 15.5264 17.6627C12.1808 17.6172 11.1746 16.866 8.07333 16.866C6.29051 16.866 4.81076 17.335 4.41769 17.4712C3.3064 15.933 2.65205 14.043 2.65205 12C2.65205 6.83497 6.83769 2.64822 12.0026 2.64822V2.64822ZM7.70948 17.8875C9.30179 17.8875 13.1061 19.6842 16.6569 20.115C15.8142 20.5996 14.8975 20.95 13.9415 21.153C9.79692 18.6292 8.0682 17.8875 7.70922 17.8875H7.70948ZM10.8326 21.28C9.12333 21.067 7.5582 20.3925 6.26384 19.3827C6.65922 19.3397 7.83871 19.5527 8.68128 19.9545C9.34307 20.268 10.1123 20.6962 10.8326 21.28ZM17.9633 19.208C15.4018 19.3875 11.7313 17.8565 9.43102 17.555C11.9387 17.39 16.2954 18.7057 19.5703 17.4975C19.1087 18.1298 18.569 18.7043 17.9633 19.208V19.208Z" fill="white"/>
<path d="M9.20381 11.725C9.66792 11.366 9.92433 11.091 9.92433 10.2535C9.92433 9.34449 9.02074 8.37549 7.34792 8.37549C5.32099 8.37549 4.78381 9.66749 4.78381 9.66749V15.2175C4.78381 15.2175 5.7851 15.9832 7.25048 15.9832C8.1074 15.9832 10.4125 16.0072 10.4125 13.5072C10.4125 12.4785 9.61894 12.06 9.20381 11.725ZM6.4933 10.409C6.4933 10.409 6.70099 9.82299 7.32356 9.81099C7.81202 9.80149 8.22715 10.122 8.22715 10.5047C8.22715 10.9355 7.8974 11.2465 7.57997 11.2465C7.36039 11.2465 6.68808 11.4063 6.52329 11.2413C6.39101 11.1089 6.49324 10.5857 6.4933 10.409ZM8.5933 13.9377C8.47125 14.847 6.85945 14.6077 6.54202 14.3852C6.52731 14.3764 6.51513 14.3641 6.50661 14.3495C6.30662 14.0057 6.4933 13.0351 6.4933 12.6315C6.4933 12.579 6.53715 12.5357 6.59074 12.5357C6.59074 12.5357 8.05612 12.3445 8.49586 12.9545C8.6374 13.153 8.64458 13.5575 8.5933 13.9377Z" fill="white"/>
<path fill-rule="evenodd" clip-rule="evenodd" d="M12.0487 2.80151L12.6744 4.43751L14.4544 4.51401L13.0577 5.60026L13.5362 7.28201L12.049 6.31801L10.5644 7.28201L11.0405 5.60026L9.64386 4.51401L11.4264 4.43751L12.0487 2.80151ZM7.73386 5.06926L8.13668 5.81576L8.99642 5.74176L8.39796 6.34676L8.73514 7.12426L7.96078 6.75351L7.30899 7.30851L7.43104 6.47351L6.69104 6.03851L7.53848 5.89226L7.73386 5.06926ZM16.4274 5.06926L16.0221 5.81576L15.1649 5.74176L15.7631 6.34676L15.4262 7.12426L16.2003 6.75351L16.8498 7.30851L16.7303 6.47351L17.47 6.03851L16.6203 5.89226L16.4274 5.06926Z" fill="white"/>
</svg>
