<svg width="24" height="24" viewBox="0 0 24 24" fill="none" xmlns="http://www.w3.org/2000/svg">
<path d="M1 11.5283L5.5199 13.0663L1.62264 15.3393L6.78824 14.7173L3.58281 18.7997L8.47169 16.4927L7.6069 21.7738L10.5817 18.2456L11.7924 21.8304L13.0723 18.2343L16.1509 22L15.6667 16.4701L19.979 19.2068L17.9843 14.3554L22.6079 14.265L18.2264 12.4443L23 9.43618L17.7883 9.14218L21.0398 4.9693L16.001 7.16317L17.1195 2.70758L14.2484 5.27464L13.9602 1L11.3312 5.61389L8.6216 1.6785L9.03667 6.54121L4.66667 3.39741L6.62682 7.8756L2.49895 7.00485L6.23479 10.5218L1 11.5283Z" fill="#FFE300"/>
<path d="M16.1163 13.3376C15.6436 12.8966 15.5167 12.3425 15.5167 12.3425C15.4937 12.252 15.436 12.2746 15.436 12.2746C15.3784 12.2859 15.4014 12.3538 15.4014 12.3538C15.5052 12.7609 15.5629 12.8627 15.5629 12.8627C11.9077 13.6203 8.62155 12.7835 8.62155 12.7835C8.77145 12.546 8.87523 12.2972 8.87523 12.2972C8.89828 12.2181 8.85215 12.2068 8.85215 12.2068C8.7945 12.1841 8.77145 12.252 8.77145 12.252C8.42555 12.8966 7.94127 13.1341 7.94127 13.1341C7.94127 13.1341 7.84902 13.1906 7.88362 13.2358C7.88362 13.2358 7.90667 13.2698 8.02197 13.2358C8.2526 13.1228 8.4832 12.9305 8.4832 12.9305C8.85219 13.5977 9.45174 14.231 9.45174 14.231C10.109 14.9435 10.8239 15.2035 10.8239 15.2035C11.2966 15.441 11.9308 15.4523 11.9308 15.4523C14.479 15.5767 15.632 13.0436 15.632 13.0436C15.7473 13.2358 16.0356 13.4281 16.0356 13.4281C16.174 13.4733 16.1163 13.3376 16.1163 13.3376ZM12.023 15.2714C9.90145 15.2488 8.72533 12.987 8.72533 12.987L8.88676 13.021C10.7547 13.4394 12.2767 13.3829 12.4727 13.3715C12.0115 13.3829 13.7987 13.3829 15.2169 13.1001L15.4014 13.0662C15.413 13.0662 14.283 15.294 12.023 15.2714Z" fill="black"/>
<path d="M11.239 11.6413C11.2851 11.6413 12.0115 11.6526 12.0115 11.6526C12.2191 11.6187 12.1268 11.8675 12.1268 11.8675C12.0577 11.958 12.1384 11.9806 12.1384 11.9806C12.2537 11.9806 12.2998 11.7431 12.2998 11.7431C12.3344 11.483 12.1153 11.5282 12.1153 11.5282L11.3082 11.5056C10.5241 11.4377 10.5702 10.6688 10.5702 10.6688C10.5702 10.1599 11.066 9.71884 11.066 9.71884C11.4581 9.36829 12.1614 9.16473 12.1614 9.16473C12.2537 9.11949 12.2306 9.09689 12.2306 9.09689C12.1845 9.02901 11.804 9.16473 11.804 9.16473C11.804 9.16473 10.4665 9.53792 10.3858 10.6461C10.3858 10.6461 10.3166 11.5508 11.239 11.6413Z" fill="black"/>
<path d="M7.75677 9.92253C7.75677 9.92253 8.21801 9.01784 8.99054 9.2101C9.76308 9.40233 9.76308 10.3297 9.76308 10.3297C9.76308 10.3297 9.90143 9.24401 9.03667 9.01784C8.05658 8.78037 7.75677 9.92253 7.75677 9.92253Z" fill="black"/>
<path d="M14.848 9.32298C15.9665 9.41343 15.9665 10.6235 15.9665 10.6235C15.9665 10.6235 15.7935 9.56045 14.848 9.48131C14.1908 9.42476 13.8334 10.2163 13.8334 10.2163C13.8334 10.2163 14.0409 9.26644 14.848 9.32298Z" fill="black"/>
<path d="M8.71385 9.91125C8.17191 9.91125 7.90671 11.517 8.55242 11.5736C9.18657 11.6415 9.39413 9.86601 8.71385 9.91125Z" fill="black"/>
<path d="M8.56399 10.1486C8.56399 10.1486 8.41408 10.2278 8.37948 10.4765C8.34491 10.7253 8.34491 10.7819 8.34491 10.7819C8.34491 10.7819 8.40256 10.8271 8.47173 10.8045C8.54091 10.7932 8.61008 10.7253 8.61008 10.7253C8.61008 10.7253 8.58703 10.6575 8.62164 10.4539C8.66773 10.2617 8.71386 10.1486 8.71386 10.1486C8.71386 10.1486 8.67929 10.1373 8.64469 10.126C8.61008 10.1373 8.56399 10.1486 8.56399 10.1486Z" fill="#FFE300"/>
<path d="M15.24 10.7933C15.2284 10.5785 15.1708 10.3523 15.0555 10.2618C15.0555 10.2618 14.9863 10.2053 14.9517 10.194C14.9171 10.1827 14.8479 10.1714 14.8479 10.1714C14.283 10.1375 14.0293 11.879 14.5943 11.9355C14.9863 11.9694 15.2746 11.2909 15.24 10.7933Z" fill="black"/>
<path d="M14.698 10.3749C14.698 10.3749 14.5481 10.4541 14.5135 10.7028C14.4789 10.9516 14.4789 11.0082 14.4789 11.0082C14.4789 11.0082 14.5366 11.0534 14.6058 11.0308C14.6749 11.0195 14.7441 10.9516 14.7441 10.9516C14.7441 10.9516 14.7211 10.8838 14.7557 10.6802C14.8018 10.488 14.8479 10.3749 14.8479 10.3749C14.8479 10.3749 14.8133 10.3636 14.7787 10.3523C14.7441 10.3636 14.698 10.3749 14.698 10.3749Z" fill="#FFE300"/>
</svg>
