<svg width="24" height="24" viewBox="0 0 24 24" fill="none" xmlns="http://www.w3.org/2000/svg">
<path d="M15.7337 1.09388C20.6823 0.274897 24.4897 4.95875 22.428 9.51571L18.3668 18.9171C16.4442 23.1674 10.8476 23.6373 7.9496 19.8849L2.33803 12.619C-0.560012 8.86658 1.4994 3.44958 6.1148 2.68595L15.7337 1.09388Z" fill="#069BE8"/>
<path d="M13.293 16.2396C12.2299 16.2396 11.2662 16.0098 10.4018 15.5503C9.54734 15.0808 8.87173 14.4365 8.37493 13.6174C7.88808 12.7883 7.64465 11.8542 7.64465 10.8154C7.64465 9.77651 7.88808 8.84744 8.37493 8.02832C8.87173 7.19925 9.54734 6.55488 10.4018 6.09543C11.2662 5.62589 12.2349 5.39115 13.308 5.39115C14.2121 5.39115 15.0268 5.55098 15.7521 5.87064C16.4873 6.1903 17.1033 6.64983 17.6 7.24914L16.0502 8.68761C15.3447 7.86849 14.4704 7.45893 13.4271 7.45893C12.7814 7.45893 12.2051 7.60377 11.6984 7.89351C11.1917 8.17316 10.7942 8.56779 10.5061 9.07721C10.2279 9.58669 10.0888 10.166 10.0888 10.8154C10.0888 11.4647 10.2279 12.0441 10.5061 12.5535C10.7942 13.063 11.1917 13.4626 11.6984 13.7522C12.2051 14.032 12.7814 14.1718 13.4271 14.1718C14.4704 14.1718 15.3447 13.7572 16.0502 12.9281L17.6 14.3666C17.1033 14.9759 16.4873 15.4404 15.7521 15.7601C15.0168 16.0798 14.1971 16.2396 13.293 16.2396Z" fill="white"/>
</svg>
