<svg width="24" height="24" viewBox="0 0 24 24" fill="none" xmlns="http://www.w3.org/2000/svg">
<path fill-rule="evenodd" clip-rule="evenodd" d="M11.8 1.68889C14.7778 3.37778 17.7111 4.88889 20.6444 6.57778C20.8222 6.66667 20.7778 6.66667 20.7778 6.88889C20.7778 9.73333 20.7778 12.7556 20.7778 15.6C20.7778 16.0444 20.4667 16.4 20.0222 16.4444C16.9556 16.4444 12.9556 16.4444 9.93333 16.4444C9.66667 16.4444 9.44444 16.3556 9.26667 16.2222C9.08889 16.0444 9 15.8667 9 15.6444C9 13.0667 9 10.4889 9 7.91111C9 7.68889 9.08889 7.51111 9.26667 7.33333C9.44444 7.15556 9.66667 7.11111 9.93333 7.11111C11.5778 7.11111 13.1778 7.11111 14.8222 7.11111C15 7.11111 15.0444 7.15556 15 6.97778C14.8222 6.57778 14.6889 6.22222 14.5111 5.82222C14.4222 5.64444 14.4667 5.64444 14.2889 5.64444C11.8 5.64444 9.26667 5.64444 6.77778 5.64444C6.28889 5.64444 5.84444 5.82222 5.48889 6.13333C5.13333 6.44444 4.95556 6.8 4.95556 7.24444C4.95556 10.2667 4.95556 13.3333 4.95556 16.3556C4.95556 16.8 5.13333 17.1556 5.48889 17.4667C5.84444 17.7778 6.33333 17.9111 6.82222 17.9111C10.6444 17.9111 14.6 17.9111 18.3778 17.9111C18.7778 17.9111 19.1778 17.9111 19.5333 17.9111C19.6222 17.9111 19.6667 18.0444 19.5778 18.0889C17.1333 19.5111 14.5111 20.8444 12.0222 22.2222C11.7556 22.3556 11.8444 22.3556 11.5778 22.2222C8.64445 20.5778 5.8 19.0667 2.86667 17.4222C2.73333 17.3778 2.73333 17.3778 2.73333 17.2444C2.73333 14.0444 2.73333 10.6222 2.73333 7.46667C2.73333 7.24444 2.73333 7.02222 2.73333 6.8C2.73333 6.75556 2.73333 6.71111 2.77778 6.71111C5.75556 4.97778 8.77778 3.42222 11.7556 1.73333C11.7556 1.64444 11.7556 1.64444 11.8 1.68889ZM16.7333 15.1556C17.5333 15.1556 18.2889 15.1556 19.0889 15.1556C19.0444 15.0667 19.0444 14.9333 19 14.8444C19 14.7556 18.9556 14.6667 18.9556 14.5778C18.9556 12.7111 18.9556 10.8 18.9556 8.93333C18.9556 8.84444 18.9556 8.75556 19 8.66667C19.0444 8.57778 19.0444 8.44444 19.0889 8.35556C18.2889 8.35556 17.4889 8.35556 16.6889 8.35556C16.7333 8.44444 16.7333 8.57778 16.7778 8.66667C16.7778 8.75556 16.8222 8.84444 16.8222 8.93333C16.8222 9.68889 16.8222 10.4889 16.8222 11.2444H16.7778C15.7111 11.2444 14.6444 11.2444 13.5778 11.2444H13.5333C13.5333 10.4889 13.5333 9.68889 13.5333 8.93333C13.5333 8.84444 13.5333 8.75556 13.5778 8.66667C13.6222 8.57778 13.6222 8.44444 13.6667 8.35556C12.8667 8.35556 12.0667 8.35556 11.2667 8.35556C11.3111 8.44444 11.3111 8.57778 11.3556 8.66667C11.3556 8.75556 11.4 8.84444 11.4 8.93333C11.4 10.8 11.4 12.7111 11.4 14.5778C11.4 14.6667 11.4 14.7556 11.3556 14.8444C11.3111 14.9333 11.3111 15.0667 11.2667 15.1556C12.0667 15.1556 12.8222 15.1556 13.6222 15.1556C13.6222 15.0667 13.5778 14.9333 13.5778 14.8444C13.5778 14.7556 13.5778 14.6667 13.5778 14.5778C13.5778 13.7778 13.5778 13.0222 13.5778 12.2222H13.6222C14.6889 12.2222 15.7556 12.2222 16.8222 12.2222H16.8667C16.8667 13.0222 16.8667 13.7778 16.8667 14.5778C16.8667 14.6667 16.8667 14.7556 16.8667 14.8444C16.7778 14.9333 16.7333 15.0667 16.7333 15.1556ZM11.7556 0.844444C11.5333 0.844444 11.3556 0.888889 11.1778 1.02222L2.55556 5.77778C2.15556 5.95556 1.84444 6.35556 1.84444 6.84444V17.2C1.84444 17.6444 2.11111 18.0444 2.55556 18.2667L11.1778 23.0222C11.3556 23.1111 11.5333 23.1556 11.7556 23.2C11.9333 23.2 12.1556 23.1556 12.3333 23.0222L20.9556 18.2222C21.3556 18.0444 21.6667 17.6444 21.6667 17.1556V6.84444C21.6667 6.4 21.4 6 20.9556 5.77778L12.3333 0.977778C12.1556 0.888889 11.9778 0.844444 11.7556 0.844444ZM11.8 24H11.7556H11.7111C11.4 24 11.0889 23.9111 10.8222 23.7333L2.11111 18.9333C1.44444 18.6222 1 17.9556 1 17.2V12.0444V11.9556V6.8C1 6.04444 1.44444 5.37778 2.11111 5.06667L10.8222 0.266667C11.0889 0.133333 11.4 0.0444444 11.7111 0H11.7556H11.8C12.1111 0 12.4222 0.0888889 12.6889 0.266667L21.3556 5.06667C22.0222 5.37778 22.4667 6.04444 22.4667 6.8V11.9556V12.0444V17.2C22.4667 17.9556 22.0222 18.6222 21.3556 18.9333L12.6889 23.7333C12.4222 23.9111 12.1111 24 11.8 24Z" fill="white"/>
</svg>
