<svg width="24" height="24" viewBox="0 0 24 24" fill="none" xmlns="http://www.w3.org/2000/svg">
<path d="M19.1425 7C17.325 7 15.8521 8.73245 15.8521 10.8704C15.8521 13.0084 17.325 14.7397 19.1425 14.7397C20.3182 14.7397 21.349 14.0142 21.931 12.9234C21.7731 13.7259 21.4132 14.4374 20.9082 14.9453C19.2711 16.5917 16.8616 15.3142 15.3389 14.1626L15.1334 14.0069C15.3927 13.2407 15.4995 12.4025 15.4439 11.5691C15.3882 10.7356 15.1721 9.93355 14.815 9.23642C13.317 6.31037 9.74014 6.41803 8.32605 9.35257C7.98407 10.0622 7.78507 10.8717 7.74726 11.7068C7.70946 12.542 7.83406 13.376 8.10965 14.1326L8.05368 14.1807C6.7929 15.2531 5.00382 16.3994 3.43174 15.2402C1.49147 13.8095 1.47875 10.2923 3.36108 8.81085C4.21823 8.13625 5.33577 8.09801 6.21923 8.71301C6.66098 9.02052 7.03305 9.47214 7.29863 10.0232C7.42171 9.57396 7.58658 9.14585 7.78961 8.74831C7.3686 8.11149 6.83068 7.62208 6.2254 7.32513C4.97221 6.71035 3.54343 7.03812 2.557 7.98777C0.347857 10.1146 0.43565 14.5648 3.0082 16.386C4.90571 17.7293 7.04137 16.5669 8.59146 15.2426L8.63517 15.2036C9.00295 15.7744 9.46442 16.2316 9.98595 16.542C11.0289 17.1629 12.2739 17.1405 13.3033 16.4825C13.8179 16.1534 14.2695 15.6797 14.6249 15.096L14.8405 15.2602C16.92 16.842 19.9702 17.9962 21.8696 15.5358C22.5933 14.5983 23 13.3267 23 12.0009C23 10.675 22.5933 9.40345 21.8696 8.46592C21.1459 7.52839 20.1643 7.0017 19.1407 7.0017L19.1425 7ZM19.1425 13.4705C17.8667 13.4705 16.8319 12.3061 16.8319 10.8704C16.8319 9.43473 17.8667 8.26749 19.1425 8.26749C20.4182 8.26749 21.4527 9.43417 21.4527 10.8727C21.4527 12.3112 20.4182 13.4705 19.1425 13.4705ZM9.88148 14.9996C9.38436 14.525 9.0179 13.8563 8.83598 13.0918C8.65405 12.3274 8.66624 11.5075 8.87077 10.7527C9.7841 7.38202 13.7104 7.72721 14.3838 11.0384C14.5411 11.812 14.5027 12.6305 14.2742 13.3737C12.8349 12.3861 11.1169 12.0733 9.57385 13.0197C9.6964 13.4263 9.89022 13.7904 10.14 14.0833C11.3534 13.4132 12.656 13.7141 13.7601 14.4594C12.8537 15.7974 11.1133 16.1756 9.88148 14.9996Z" fill="url(#paint0_linear_7342_2840)"/>
<defs>
<linearGradient id="paint0_linear_7342_2840" x1="12.0008" y1="7" x2="12.0008" y2="16.9983" gradientUnits="userSpaceOnUse">
<stop stop-color="#FDD000"/>
<stop offset="0.328125" stop-color="#F7B000"/>
<stop offset="0.82" stop-color="#EFAC00"/>
<stop offset="1" stop-color="#EEAB00"/>
</linearGradient>
</defs>
</svg>
