<svg width="24" height="24" viewBox="0 0 24 24" fill="none" xmlns="http://www.w3.org/2000/svg">
<path fill-rule="evenodd" clip-rule="evenodd" d="M9.454 5.08403L7.35611 7.18036L9.10855 7.18135C11.0266 7.18246 11.0429 7.18999 10.6193 7.88679C10.146 8.66552 8.88264 9.0302 6.65194 9.03193L5.45585 9.03292L4.29125 10.1741C2.58948 11.8416 2.58173 12.1357 4.1984 13.7144C4.78525 14.2875 6.67912 16.1612 8.40684 17.8782C11.4305 20.883 11.5662 21 12.0266 21C12.4807 21 12.6094 20.8957 14.5784 18.9335L16.6518 16.867L14.8325 16.7966C12.9118 16.7222 12.3285 16.5771 11.7426 16.0284C11.0741 15.4022 11.0455 15.2414 11.0455 12.1172C11.0455 10.5226 11.0878 9.06635 11.1394 8.88092C11.2722 8.40508 11.924 7.69976 12.4468 7.46609C12.7595 7.32631 13.4443 7.24624 14.771 7.1943L16.6518 7.12065L14.5784 5.05417C11.8262 2.31149 12.2308 2.30915 9.454 5.08403Z" fill="#45A4F1"/>
<path fill-rule="evenodd" clip-rule="evenodd" d="M13.4811 9.33041L13.136 9.62823V11.9936V14.3591L13.4811 14.6569C13.8199 14.9493 13.8684 14.9546 16.189 14.9546H18.5519L19.6806 13.8134C20.3016 13.1857 20.8663 12.5196 20.9358 12.3329C21.1342 11.7996 20.914 11.4208 19.6806 10.1739L18.5519 9.03271H16.189C13.8684 9.03271 13.8199 9.03802 13.4811 9.33041Z" fill="#45A4F1"/>
<path fill-rule="evenodd" clip-rule="evenodd" d="M17.9635 18.2859C18.2297 18.2859 19.3464 19.4084 19.3464 19.676C19.3464 20.0071 18.3414 21.0001 18.0065 21.0001C17.6882 21.0001 16.6409 19.9888 16.6409 19.6813C16.6409 19.5632 16.9017 19.2008 17.2203 18.8761C17.5391 18.5515 17.8736 18.2859 17.9635 18.2859ZM17.3787 19.1359V19.6362C17.3787 19.9113 17.4341 20.1365 17.5017 20.1365C17.5694 20.1365 17.6247 20.0795 17.6247 20.0099C17.6247 19.9387 17.791 19.9697 18.0051 20.0807C18.3778 20.2742 18.6995 20.222 18.375 20.0207C18.243 19.939 18.2524 19.8948 18.422 19.7997C18.5398 19.7334 18.6141 19.5765 18.5893 19.446C18.5543 19.2613 18.4202 19.2032 17.9618 19.1735L17.3787 19.1359Z" fill="#45A4F1"/>
<path fill-rule="evenodd" clip-rule="evenodd" d="M17.6248 19.5192C17.6248 19.5869 17.7908 19.6422 17.9937 19.6422C18.1966 19.6422 18.3626 19.5869 18.3626 19.5192C18.3626 19.4516 18.1966 19.3962 17.9937 19.3962C17.7908 19.3962 17.6248 19.4516 17.6248 19.5192Z" fill="#45A4F1"/>
</svg>
