<svg width="24" height="24" viewBox="0 0 24 24" fill="none" xmlns="http://www.w3.org/2000/svg">
<g clip-path="url(#clip0_7342_2919)">
<path fill-rule="evenodd" clip-rule="evenodd" d="M10.4842 9V12.7472H14.861V9.01994H17.8811C17.8847 9.53005 17.8879 10.0402 17.8908 10.5509L17.9197 10.521L19.8444 9.01994L23.9999 9.02991H23.9806L20.2497 12.2401L23.9729 15.4603H19.8444L17.8651 13.8103V15.4806H2.45098C2.05698 15.4806 1.52821 15.5444 1.20046 15.4407C0.821578 15.3204 0.520205 15.0193 0.315001 14.7149C-0.0506985 14.1699 0.00816087 13.4139 0.00816087 12.4884V10.9883C0.00816087 10.76 -0.0198215 10.4782 0.027459 10.2824C0.120032 9.92963 0.318714 9.61635 0.594824 9.38782C0.795579 9.21174 1.03233 9.08495 1.28731 9.01695L2.038 9H10.4842V9Z" fill="#4583B6"/>
<path fill-rule="evenodd" clip-rule="evenodd" d="M17.5643 15.1827V13.1449L19.9692 15.1531H23.1341L23.1148 15.1232L19.7575 12.232H19.7768L23.1534 9.32787H19.9598L17.5836 11.1872V9.31823H15.1594V13.0455H10.1956V9.30859H3.58697L1.42236 9.31823C1.17629 9.37759 0.948988 9.50095 0.762041 9.6766C0.575093 9.85225 0.434705 10.0744 0.354206 10.3218C0.301136 10.5046 0.325258 10.7808 0.325258 11.0077V12.4391C0.325258 13.2782 0.247101 14.0618 0.58514 14.5599C0.754311 14.82 0.995723 15.0212 1.27762 15.1368C1.58897 15.2488 2.10969 15.1867 2.49726 15.1867H17.5643V15.1827V15.1827Z" fill="white"/>
<path fill-rule="evenodd" clip-rule="evenodd" d="M8.07934 9.6758H9.82068V13.433H15.1695V14.8347H8.07934V9.6758ZM15.4972 9.70571H17.2L17.2093 11.8425L17.2286 11.8226L20.0754 9.70571H22.1564L19.2147 12.22L19.234 12.25L22.2065 14.8141H20.0175L17.2087 12.3796H17.199V14.8148H15.4975L15.4972 9.70571ZM7.66539 9.6758V11.0672H3.69255C3.43138 11.0672 2.54463 11.0117 2.44203 11.137C2.3703 11.2254 2.38253 11.4201 2.38478 11.582H7.65671V12.9458H2.37449C2.37449 13.094 2.35583 13.2921 2.42273 13.3735C2.52244 13.4952 3.41498 13.433 3.68258 13.433H7.66539V14.8244H2.91355C1.79844 14.8244 1.04806 14.9517 0.729641 14.089C0.58587 13.7035 0.662097 13.0266 0.662097 12.5284C0.662097 11.4344 0.507712 10.3697 1.12397 9.88416C1.51089 9.57943 2.3732 9.67513 3.04831 9.67513L7.66539 9.6758Z" fill="#0079FF"/>
</g>
<defs>
<clipPath id="clip0_7342_2919">
<rect width="24" height="24" fill="white"/>
</clipPath>
</defs>
</svg>
