<svg width="24" height="24" viewBox="0 0 24 24" fill="none" xmlns="http://www.w3.org/2000/svg">
<path d="M21.056 5.70317C21.056 5.70317 18.3573 1.77783 12.3058 1.77783C7.31732 1.77783 3.55554 4.55828 3.55554 6.19383C3.55554 8.07472 7.31732 9.05605 7.31732 12.0001H13.7778C13.7778 10.2827 8.1351 9.38317 8.1351 5.70317C8.1351 2.35028 16.8853 2.59561 21.056 5.70317Z" fill="#325ED0"/>
<path d="M21.056 18.2969C21.056 18.2969 18.3573 22.2222 12.3058 22.2222C7.31732 22.2222 3.55554 19.4418 3.55554 17.8062C3.55554 15.9253 7.31732 14.8622 7.31732 12H13.7778C13.7778 13.7173 8.1351 14.6169 8.1351 18.2969C8.1351 21.6498 16.8853 21.4044 21.056 18.2969Z" fill="#D08911"/>
<path d="M3.63732 5.62134C3.55554 5.86667 3.55554 6.03023 3.55554 6.19378C3.55554 8.07467 7.31732 9.056 7.31732 12C7.31732 14.8622 3.55554 15.9253 3.55554 17.8062C3.55554 17.9698 3.55554 18.1333 3.63732 18.2969C3.14665 16.4978 9.68888 14.944 12.7147 13.3084C13.3689 12.8996 13.7778 12.4907 13.7778 12C13.7778 11.5093 13.3689 11.1004 12.7147 10.6916C9.68888 9.056 3.14665 7.50223 3.63732 5.62134Z" fill="#BD1A14"/>
</svg>
