<svg width="24" height="24" viewBox="0 0 24 24" fill="none" xmlns="http://www.w3.org/2000/svg">
<path d="M8.86579 8.78916C8.24715 10.1581 7.76034 10.5177 7.32949 10.4471C6.13933 10.2521 6.9707 8.45199 7.56024 7.8594C4.99771 8.39906 3.72337 12.2722 4.05044 15.3885C4.40871 18.8019 7.14125 22.0073 10.7786 22.781C13.3024 23.3072 16.2468 22.9199 18.3386 21.2401C18.7232 19.2485 18.9808 17.1767 19.5166 15.2259L13.6022 15.2585L13.1529 17.5666H16.5473C16.4054 18.2652 16.2768 18.9668 16.1404 19.6667C14.9712 20.2535 14.2277 20.6549 12.497 20.5769C10.4935 20.4866 9.77057 18.932 9.78271 17.079C9.80706 13.3643 13.2561 10.4926 15.6304 11.0128C18.0046 11.5329 17.446 13.1194 17.446 13.1194L19.966 12.9178C20.0937 11.0679 19.9045 8.75156 18.6544 7.33275C18.2475 6.87113 18.2293 6.87113 18.3143 7.40427C18.3143 7.40427 18.6787 8.75877 17.8346 8.77615C16.9906 8.79354 15.9583 8.13898 16.7659 6.07141C17.7374 3.99095 16.019 1.3771 14.592 0.999998C15.6243 4.40044 10.235 5.75933 8.86579 8.78916Z" fill="#FEB501"/>
</svg>
