<svg width="24" height="24" viewBox="0 0 24 24" fill="none" xmlns="http://www.w3.org/2000/svg">
<path d="M16.4835 7.4725L16.407 7.3501H1.20001V16.3519H12.1989L13.218 14.8237H19.056L20.0496 16.2397L20.1261 16.3471H22.5969L22.3269 15.9547L16.4835 7.4725V7.4725ZM10.7928 11.5171V14.0641L10.7268 14.1205C9.91171 14.8183 8.68891 15.175 7.16041 15.175C4.43491 15.175 2.80471 13.9369 2.80471 11.8585C2.79002 11.3684 2.89733 10.8823 3.117 10.4439C3.33666 10.0055 3.66181 9.62853 4.06321 9.3469C4.97471 8.76788 6.04086 8.48002 7.11991 8.5216C8.64811 8.5216 9.70291 8.8222 10.4973 9.4639L10.6452 9.5863L10.5228 9.7339L10.0134 10.4065L9.89131 10.5595L9.73831 10.432C9.22891 9.9886 8.56141 9.6934 7.11991 9.6934C5.19391 9.6934 4.22101 10.4065 4.22101 11.8483C4.22101 13.2901 5.16871 14.0134 7.11991 14.0134C7.94161 14.0692 8.76241 13.8925 9.48871 13.504V12.5359H6.48301V11.3236H10.7982L10.7931 11.5171H10.7928ZM14.5218 12.9028L16.1118 10.5439L17.7318 12.9028H14.5218V12.9028Z" fill="#0486D1"/>
</svg>
