<svg width="24" height="24" viewBox="0 0 24 24" fill="none" xmlns="http://www.w3.org/2000/svg">
<path d="M19.295 9.44865C19.2162 9.41158 19.6899 9.64613 18.9 9.25118C17.7934 8.69788 16.3657 8.16505 16.3986 6.35484C16.4026 6.13589 16.215 6.22323 15.9708 6.48649C15.9542 6.50256 15.9367 6.51766 15.9184 6.53174C13.7985 8.39544 12.8426 9.74466 12.5513 11.7375C12.0871 14.9122 12.8791 15.3104 13.1517 15.1814C13.2025 15.1559 13.2468 15.119 13.2811 15.0735C13.3153 15.0281 13.3386 14.9754 13.3491 14.9194C13.4453 14.4745 13.6401 12.9396 16.3362 12.4272C18.999 16.7827 14.8576 19.4134 12.3257 19.4134C9.23435 19.4134 5.14245 15.3401 9.86618 10.3967C10.6718 9.55369 11.8081 8.73883 12.9757 6.98018C14.406 4.82583 14.6573 2.79011 13.2196 0.860748C12.482 -0.128993 12.3545 -0.0965957 12.3833 0.13431C12.4998 1.06839 12.4707 0.782083 12.482 1.05587C12.538 2.41247 11.5851 3.07444 10.3098 3.85347L5.33992 6.71689C5.29263 6.74392 4.72896 7.0519 4.68166 7.07893C4.22088 7.34223 3 8.32962 3 9.8107C3 10.6975 3.0031 17.249 3.0031 17.249C2.99953 17.7871 3.13753 18.3167 3.40327 18.7846C3.669 19.2526 4.05313 19.6424 4.51709 19.915C5.17772 20.3059 9.83058 23.0134 10.7047 23.5025C10.7562 23.5313 10.8168 23.5743 10.8693 23.6012C12.0871 24.2265 13.2565 24.0572 14.2264 23.5025C15.1798 22.9571 19.2769 20.7084 20.7102 19.6846C21.6318 19.0263 21.9938 18.1047 21.9609 17.3148V12.9374C21.9609 11.4234 20.9735 10.2386 19.295 9.44865Z" fill="url(#paint0_linear_4723_161)"/>
<defs>
<linearGradient id="paint0_linear_4723_161" x1="5.55439" y1="6.47588" x2="19.1194" y2="23.0752" gradientUnits="userSpaceOnUse">
<stop offset="0.03856" stop-color="#AA19AB"/>
<stop offset="0.92103" stop-color="#E00E52"/>
</linearGradient>
</defs>
</svg>
