<svg width="24" height="24" viewBox="0 0 24 24" fill="none" xmlns="http://www.w3.org/2000/svg">
<path fill-rule="evenodd" clip-rule="evenodd" d="M12 3.14C7.115 3.14 3.14 7.11425 3.14 12C3.14 16.885 7.11475 20.86 12 20.86C16.8855 20.86 20.8603 16.8855 20.8603 12C20.8603 7.11425 16.8855 3.14 12.0002 3.14H12ZM12 21.9997C6.486 22 2 17.514 2 11.9997C2 6.486 6.48625 2 12 2C17.514 2 22 6.48625 22 12C22 17.514 17.5138 21.9997 12 21.9997Z" fill="#DDB74D"/>
<path fill-rule="evenodd" clip-rule="evenodd" d="M15.1301 8.01135H15.5087L15.6711 10.6163H15.2742C15.0776 10.1429 14.8089 9.75074 14.4682 9.44083C13.2079 8.29345 11.0417 8.20025 9.81087 9.44637C8.50286 10.7568 8.59473 13.2102 9.90423 14.4835C10.9887 15.5429 12.987 15.8339 14.282 14.9682C14.282 14.3485 14.638 12.4883 13.7558 12.2254C13.5854 12.1751 13.3398 12.1492 13.0193 12.1492V11.7887H17V12.149C16.583 12.1608 16.3034 12.2557 16.161 12.4342C15.6709 13.0487 15.9479 14.4066 15.9479 15.1262C15.6868 15.2839 15.3464 15.4308 14.9257 15.5659C13.2098 16.1099 11.269 16.1936 9.57045 15.549C8.7785 15.2481 8.15233 14.799 7.6912 14.2018C7.23032 13.6036 7 12.8901 7 12.0594C7 10.2618 8.34555 8.87034 9.97369 8.30464C11.3222 7.83569 12.6534 8.01617 14.0054 8.36676C14.4406 8.53448 14.9358 8.49175 15.1301 8.01135Z" fill="#DDB74D"/>
</svg>
