<svg width="24" height="24" viewBox="0 0 24 24" fill="none" xmlns="http://www.w3.org/2000/svg">
<path d="M12.8628 3.60509C13.7649 3.61113 13.6607 1.15649 12.8661 1.15649C12.0746 1.15649 11.9684 3.5976 12.8628 3.60509Z" fill="#FEAC32"/>
<path d="M10.8615 4.93354C11.7653 4.93354 11.6322 2.48584 10.8615 2.48584C10.0888 2.48584 9.96121 4.93192 10.8615 4.93354Z" fill="#FEAC32"/>
<path d="M10.8621 1.58608C11.125 1.58641 11.3587 1.35604 11.3622 1.09318V1.10008C11.3622 0.834806 11.1274 0.599976 10.8621 0.599976C10.5968 0.599976 10.362 0.834806 10.362 1.10008V1.09318C10.3658 1.35594 10.5993 1.5861 10.8621 1.58608Z" fill="#FEAC32"/>
<path d="M14.8647 5.31962C15.1367 5.31995 15.3645 5.09279 15.3648 4.82072V4.82642C15.3648 4.55394 15.137 4.32617 14.8645 4.32617C14.5921 4.32617 14.3643 4.55394 14.3643 4.82642V4.81502C14.3618 5.08924 14.5904 5.3198 14.8647 5.31962Z" fill="#FEAC32"/>
<rect x="7" y="10" width="10" height="10" rx="5" fill="white"/>
<path d="M18.8664 9.02606C18.5901 9.02606 18.366 9.24986 18.366 9.52616V9.77816C18.3447 10.0343 18.1072 10.2458 17.8502 10.2373C17.5933 10.2288 17.3702 10.0022 17.3658 9.74516V8.49776C17.3532 8.2408 17.1227 8.02127 16.8654 8.02127C16.6082 8.02127 16.3776 8.2408 16.365 8.49776V8.52506C16.365 8.79033 16.1302 9.02516 15.8649 9.02516C15.5997 9.02516 15.3648 8.79033 15.3648 8.52506V6.43316C15.3648 6.1682 15.1303 5.93366 14.8653 5.93366C14.6004 5.93366 14.3658 6.1682 14.3658 6.43316V7.23056C14.3584 7.49436 14.1275 7.72475 13.8636 7.73156C13.5981 7.73187 13.3638 7.49814 13.3635 7.23266V4.97846C13.3635 4.71295 13.1285 4.47791 12.863 4.47791C12.5975 4.47791 12.3624 4.71295 12.3624 4.97846V6.93956C12.3624 7.20482 12.1276 7.43966 11.8623 7.43966C11.5971 7.43966 11.3622 7.20482 11.3622 6.93956V6.23516C11.3622 5.96973 11.1273 5.73476 10.8618 5.73476C10.5964 5.73476 10.3614 5.96973 10.3614 6.23516V7.74266C10.3614 8.00846 10.1271 8.24276 9.86133 8.24276C9.59552 8.24276 9.36123 8.00846 9.36123 7.74266V5.64776C9.36123 5.38249 9.1264 5.14766 8.86113 5.14766C8.59586 5.14766 8.36103 5.38249 8.36103 5.64776V8.84786C8.36103 9.1132 8.12613 9.34811 7.86078 9.34811C7.59543 9.34811 7.36053 9.1132 7.36053 8.84786V8.00246C7.36053 7.73703 7.12556 7.50206 6.86013 7.50206C6.5947 7.50206 6.35973 7.73703 6.35973 8.00246V10.3581C6.34878 10.6162 6.11757 10.8378 5.85918 10.8378C5.60078 10.8378 5.36958 10.6162 5.35863 10.3581C5.35863 9.9386 5.51088 9.08306 4.85853 9.08306C4.20838 9.08306 4.35458 9.93836 4.35003 10.3581V19.0221L11.8569 23.3592L19.3635 19.0251V9.52706C19.3643 9.26241 19.1311 9.02733 18.8664 9.02606ZM15.3936 17.5275H13.035V15.732H10.6773V17.5266H8.31963V11.9064H10.6776V13.7955H13.035V11.9064H15.393L15.3936 17.5275Z" fill="#FEAC32"/>
</svg>
