<svg width="24" height="24" viewBox="0 0 24 24" fill="none" xmlns="http://www.w3.org/2000/svg">
<path d="M11.603 13.559H14.3373V15.7042L18.6667 15.8136V3.79633C18.6667 3.66499 18.5983 3.55554 18.4844 3.55554H14.5196C14.4057 3.55554 14.3373 3.6431 14.3373 3.79633V9.48757H11.603V3.79633C11.603 3.66499 11.5346 3.55554 11.4207 3.55554H7.50144C7.38751 3.55554 7.31915 3.6431 7.31915 3.79633V15.5509L11.603 15.6604V13.559Z" fill="white"/>
<path d="M12.1642 20.2271C12.1642 20.3575 12.2314 20.4444 12.3434 20.4444H16.218C16.33 20.4444 16.3972 20.3575 16.3972 20.2271V16.4671L12.1418 16.3584L12.1642 20.2271Z" fill="white"/>
<path d="M5.51343 20.4445H9.386C9.49857 20.4445 9.58863 20.3555 9.58863 20.2221V16.175L5.33331 16.0861V20.2221C5.33331 20.3555 5.40086 20.4445 5.51343 20.4445Z" fill="white"/>
</svg>
