<svg width="24" height="24" viewBox="0 0 24 24" fill="none" xmlns="http://www.w3.org/2000/svg">
<path fill-rule="evenodd" clip-rule="evenodd" d="M2.01187 5.49467C4.95711 5.49467 8.09257 5.36558 11.0041 5.50217C10.2998 7.09952 9.64937 8.73347 8.88439 10.3028C9.54936 10.0339 10.7172 10.5748 11.2778 10.8965C13.9538 12.4278 13.7303 16.6997 10.9533 18.007C9.85011 18.5377 8.30897 18.6204 7.20019 18.045C6.61421 17.7415 6.14273 17.26 5.74949 16.737C4.49953 16.7315 3.25007 16.7355 2.00037 16.7343C2.00362 15.7436 2.00312 14.7526 2.00962 13.7619H2.95708C2.95708 13.0983 2.93122 12.4288 2.96433 11.766H6.47547C6.47847 12.4309 6.47972 13.0964 6.47897 13.7621H7.61593V8.46707H6.47872C6.48047 9.19154 6.47747 9.91577 6.47597 10.6402C5.30675 10.6397 4.13754 10.6422 2.96808 10.6375V8.46707H2.01237C2.01112 7.4771 2.01187 6.48588 2.01187 5.49467Z" fill="#EFC633"/>
<path fill-rule="evenodd" clip-rule="evenodd" d="M16.1159 5.49463H16.1184C16.1184 5.49463 20.9854 5.49463 21.9785 5.49463C21.9815 6.4941 21.9792 7.49331 21.9797 8.49278C20.8543 8.49428 19.7288 8.49103 18.6036 8.49003C17.5717 8.48355 16.5564 8.99336 16.0947 9.95223C15.8016 10.6046 15.8094 11.4982 16.0849 12.1589C17.0032 14.3387 20.1217 13.7272 21.9972 13.7361C21.9957 14.7318 21.998 15.7275 22 16.7228H13.7695C15.0298 15.2542 15.1969 12.8305 14.3702 11.1232C13.7038 9.72322 12.2257 8.87914 10.7171 8.72477C10.9581 8.13129 11.1978 7.53731 11.4381 6.94383C12.7468 6.94033 14.0562 6.93933 15.3652 6.93733C15.6137 6.45535 15.8707 5.97811 16.1159 5.49463Z" fill="#EFC633"/>
<path fill-rule="evenodd" clip-rule="evenodd" d="M17.8631 9.79103C18.2696 9.61828 18.7186 9.62403 19.1521 9.62678C20.1013 9.62678 21.0503 9.62028 21.9997 9.62103V10.6695C20.817 10.6695 19.6341 10.6687 18.4516 10.67C18.4516 11.0382 18.4471 11.4065 18.4489 11.7745C19.3736 11.775 20.2983 11.7745 21.2235 11.7745C21.224 12.0524 21.2235 12.3302 21.2238 12.6079C20.5488 12.6084 19.8741 12.6079 19.1993 12.6079C18.4828 12.6032 17.7135 12.524 17.2656 11.8755C16.7833 11.1815 17.073 10.1036 17.8631 9.79103Z" fill="#EFC633"/>
</svg>
