<svg width="24" height="24" viewBox="0 0 24 24" fill="none" xmlns="http://www.w3.org/2000/svg">
<path d="M22 12C22 17.5228 17.5228 22 12 22C6.47715 22 2 17.5228 2 12C2 6.47715 6.47715 2 12 2C17.5228 2 22 6.47715 22 12Z" fill="#FF3333"/>
<path d="M7.42863 11.3421C7.9998 9.81236 8.92564 8.45861 10.1214 7.40495C9.4478 8.33573 9.39659 9.32042 9.81103 9.86586C9.91578 9.9819 10.047 10.068 10.1919 10.1159C10.337 10.1638 10.4911 10.1718 10.6399 10.1394C11.5727 9.97561 12.1934 8.55358 12.3486 8.1161C12.7585 7.13743 12.8677 6.04764 12.6608 5C13.5809 5.44076 14.3953 6.09485 15.0432 6.9137C16.7008 9.04688 18.0409 13.2556 15.8719 16.3177C14.3184 18.5608 12.9477 18.9593 11.5727 18.9981C7.81317 19.1043 6.14331 14.7356 7.42863 11.3421Z" fill="white"/>
<path fill-rule="evenodd" clip-rule="evenodd" d="M8.74503 11.8918L8.74502 11.8918C8.24905 13.2012 8.33377 14.6958 8.87205 15.8091C9.38526 16.8706 10.2735 17.5468 11.5347 17.5111C12.0952 17.4953 12.5499 17.4102 13.0046 17.1632C13.4682 16.9114 14.0419 16.4308 14.7262 15.4428L14.7306 15.4364L14.7352 15.43C15.5306 14.3071 15.7212 12.9308 15.4953 11.5128C15.267 10.0803 14.6281 8.7346 13.9495 7.85921C13.9468 7.85587 13.9442 7.85254 13.9415 7.84922C13.8659 8.13029 13.7724 8.40686 13.6611 8.67701C13.5482 8.98615 13.3076 9.54937 12.9411 10.0915C12.599 10.5974 11.9316 11.409 10.8998 11.6018C10.523 11.6788 10.1337 11.656 9.76695 11.5349L9.7666 11.5348C9.51123 11.4504 9.27268 11.3203 9.06109 11.1513C8.94575 11.3898 8.84106 11.6346 8.74756 11.885L8.74503 11.8918ZM9.82179 9.87758C9.9247 9.9877 10.0519 10.0696 10.1919 10.1159C10.337 10.1638 10.4911 10.1718 10.6399 10.1394C11.5727 9.97561 12.1934 8.55358 12.3486 8.1161C12.5355 7.66988 12.6599 7.20056 12.7203 6.72267C12.7923 6.15243 12.7733 5.56998 12.6608 5C13.2088 5.26251 13.7193 5.60069 14.1794 6.00428C14.4919 6.27833 14.7811 6.58254 15.0432 6.9137C16.7008 9.04688 18.0409 13.2556 15.8719 16.3177C14.3184 18.5608 12.9477 18.9593 11.5727 18.9981C7.81317 19.1043 6.14331 14.7356 7.42863 11.3421C7.63999 10.776 7.89991 10.234 8.20411 9.72246C8.72196 8.85155 9.36811 8.06871 10.1214 7.40495C9.4478 8.33573 9.39659 9.32042 9.81103 9.86586C9.81459 9.8698 9.81817 9.87371 9.82179 9.87758Z" fill="black"/>
</svg>
