<svg width="24" height="24" viewBox="0 0 24 24" fill="none" xmlns="http://www.w3.org/2000/svg">
<path d="M15.1318 7.56677C13.8682 7.56677 12.633 7.96734 11.6503 8.76856V4.94955C11.6503 3.80119 10.9203 3.05341 9.90917 3H8V14.8309C8 18.3561 11.0887 21 14.9914 21C18.6697 21 21 17.7419 21 14.457C21 11.0653 19.0628 7.56677 15.1318 7.56677ZM14.5142 18.1691C12.5206 18.1691 11.6783 16.3798 11.6503 14.1899C11.6219 12.1602 12.5767 10.3976 14.5142 10.3976C16.4233 10.3976 17.3781 12.2404 17.3501 14.2967C17.3217 16.4599 16.4233 18.1691 14.5142 18.1691Z" fill="white"/>
<path d="M5.03036 7C4.35358 7 3.67679 7 3 7V21H6.9992V9.02407C7.02997 7.81526 6.1686 7 5.03036 7Z" fill="#FF3333"/>
<path d="M5.01504 3C4.34336 3 3.67168 3 3 3V6H7V4.86111C6.90977 3.86111 6.12782 3 5.01504 3Z" fill="#FF3333"/>
</svg>
