<svg width="20" height="24" viewBox="0 0 20 24" fill="none" xmlns="http://www.w3.org/2000/svg">
<path d="M4.60924 0.480005C4.51693 0.535389 4.36924 0.636929 4.28616 0.701544C4.20309 0.766159 3.47386 1.32001 2.66155 1.92C1.84924 2.52 1.12924 3.08308 1.06463 3.16616C0.963087 3.28616 0.935394 5.03077 0.935394 12.96C0.935394 21.7015 0.953856 22.6246 1.09232 22.8277C1.17539 22.9569 1.33232 23.0862 1.44309 23.1139C1.84001 23.2154 4.81232 23.1692 5.07078 23.0585C5.2277 22.9846 5.38462 22.7723 5.53232 22.4492C5.75386 21.96 5.75386 21.9508 5.95693 22.0985C7.57232 23.2523 9.20616 23.7508 11.1539 23.6769C12.5108 23.6215 13.1292 23.5108 14.2923 23.0769C16.1569 22.3939 17.7723 20.9262 18.7046 19.0615C19.3139 17.8339 19.6092 16.5785 19.6462 15.0369C19.7569 9.90462 16.2585 6.11077 11.2923 5.95385C9.64924 5.9077 8.48616 6.13847 7.28616 6.73846C6.98155 6.89539 6.72309 7.00616 6.70463 6.9877C6.68616 6.96923 6.6677 5.59385 6.6677 3.93231C6.65847 0.941544 6.65847 0.913851 6.45539 0.673851C6.26155 0.452312 6.17847 0.42462 5.51386 0.406158C5.1077 0.396929 4.70155 0.433851 4.60924 0.480005ZM11.3292 11.2154C12.8892 11.7508 13.8031 13.0985 13.8031 14.8431C13.7939 17.0769 12.0862 18.6923 9.85232 18.5908C7.94155 18.5077 6.48309 17.0677 6.33539 15.1477C6.16001 12.7477 7.90462 10.8923 10.2308 11.0215C10.5908 11.04 11.08 11.1323 11.3292 11.2154Z" fill="#D60006"/>
</svg>
