<svg width="25" height="26" viewBox="0 0 25 26" fill="none" xmlns="http://www.w3.org/2000/svg">
<path d="M9.27053 9.00097C9.87578 9.56785 10.4476 10.1685 10.9842 10.8006C11.1791 11.028 11.362 11.2654 11.5327 11.5117C11.7241 11.7867 11.8986 12.0724 12.0551 12.3685C12.2009 12.6501 12.5476 12.7601 12.8291 12.6144C12.9342 12.5595 13.0205 12.4736 13.075 12.3685C13.2119 12.1027 13.3492 11.8542 13.452 11.7C13.6576 11.4001 13.8804 11.1086 14.1117 10.8432C14.6502 10.213 15.2225 9.61235 15.8254 9.04354C16.3827 8.52958 16.9565 8.0325 17.5395 7.56112C17.7761 7.35017 17.7969 6.98694 17.5859 6.75029C17.5713 6.73418 17.556 6.71846 17.5395 6.70389C15.736 5.16892 14.211 3.33363 13.032 1.27933C12.8694 1.0074 12.5165 0.918796 12.2446 1.08142C12.1633 1.13013 12.0954 1.19802 12.0463 1.27933C10.8324 3.28146 9.29163 5.06574 7.48741 6.55813C7.25076 6.76947 7.23005 7.13231 7.441 7.36896C7.45557 7.38507 7.47092 7.40079 7.48741 7.41537C8.10531 7.94659 8.69636 8.46093 9.27053 9.00097Z" fill="url(#paint0_linear_4936_625)" stroke="url(#paint1_linear_4936_625)" stroke-miterlimit="10"/>
<path d="M23.9585 15.916C23.333 12.5484 20.5307 9.31778 20.5307 9.31778H20.9937C22.1624 10.1716 23.1619 11.2352 23.9416 12.4541V5.29012C23.9562 4.99249 23.7265 4.73896 23.4288 4.72477C23.3057 4.71863 23.1845 4.75507 23.0848 4.82756C20.7225 6.18687 18.5355 7.82999 16.5721 9.72051C16.0041 10.2644 15.4637 10.8366 14.9524 11.4342C14.463 12.0291 14.0591 12.6896 13.7526 13.3965C13.6326 13.6791 13.4443 14.3139 13.2813 14.8612C13.1244 15.4132 12.6208 15.7948 12.047 15.7959C12.047 15.7959 11.5503 13.9361 11.319 13.3965C11.0156 12.688 10.6117 12.0272 10.1193 11.4342C9.60799 10.8363 9.06757 10.2644 8.49953 9.72051C6.51006 7.79816 4.29122 6.12856 1.8925 4.75047C1.64204 4.57979 1.30106 4.64461 1.13038 4.89468C1.0648 4.99095 1.03181 5.10525 1.03565 5.22147V12.4541C1.82538 11.2317 2.8368 10.1681 4.01775 9.31778H4.46343C4.46343 9.31778 1.68691 12.5657 1.03565 15.9333C0.872253 17.487 1.27421 19.0473 2.16673 20.3295C3.19158 21.7272 4.73575 22.6538 6.45099 22.9001C6.84835 22.9591 7.24954 22.9879 7.65074 22.986C8.01779 22.9825 8.38408 22.9572 8.74769 22.9093C10.3801 22.6807 11.9829 22.2787 13.5294 21.7091L13.7948 21.9151C12.4198 22.8391 10.9343 23.5878 9.37288 24.1432C9.82853 24.6797 10.4944 24.9927 11.1982 25H13.829C15.0352 25.0008 16.0666 24.132 16.271 22.9438C16.6235 22.9867 16.9783 23.0098 17.3338 23.0121C17.7354 23.0147 18.1362 22.986 18.5336 22.9265C21.9506 22.4858 24.3724 19.3706 23.9581 15.9505L23.9585 15.916Z" fill="url(#paint2_linear_4936_625)" stroke="url(#paint3_linear_4936_625)" stroke-miterlimit="10"/>
<defs>
<linearGradient id="paint0_linear_4936_625" x1="12.5135" y1="12.6788" x2="12.5135" y2="0.999994" gradientUnits="userSpaceOnUse">
<stop stop-color="#B88540"/>
<stop offset="0.4036" stop-color="white"/>
</linearGradient>
<linearGradient id="paint1_linear_4936_625" x1="12.5133" y1="12.871" x2="12.5133" y2="0.808564" gradientUnits="userSpaceOnUse">
<stop stop-color="#F8CF96"/>
<stop offset="0.5608" stop-color="white"/>
</linearGradient>
<linearGradient id="paint2_linear_4936_625" x1="12.5022" y1="24.9998" x2="12.5022" y2="4.65531" gradientUnits="userSpaceOnUse">
<stop offset="0.543" stop-color="#B88540"/>
<stop offset="0.8368" stop-color="white"/>
</linearGradient>
<linearGradient id="paint3_linear_4936_625" x1="12.502" y1="25.1917" x2="12.502" y2="4.46353" gradientUnits="userSpaceOnUse">
<stop offset="0.3501" stop-color="#F3B256"/>
<stop offset="0.5252" stop-color="white"/>
</linearGradient>
</defs>
</svg>
