<svg width="24" height="24" viewBox="0 0 24 24" fill="none" xmlns="http://www.w3.org/2000/svg">
<path d="M5.6773 14.4573C6.40183 14.4452 7.12667 14.4516 7.8512 14.4536C7.99375 14.4548 8.14496 14.4395 8.27608 14.5093C8.48816 14.6094 8.64216 14.8565 8.5888 15.0992C8.32232 16.3436 8.04968 17.5871 7.77915 18.8308C7.68754 19.2536 7.27232 19.5536 6.85803 19.5467C6.0922 19.5448 5.32606 19.5476 4.56023 19.5451C4.28196 19.5457 3.98135 19.3273 4.00091 19.0174V18.9501C4.01427 18.739 4.06892 18.535 4.11302 18.3293C4.33973 17.2966 4.56551 16.2639 4.79003 15.2308C4.85432 14.7985 5.25525 14.4596 5.6773 14.4573ZM16.8686 4.31507C16.9462 4.29466 17.0263 4.28734 17.1062 4.28829C17.8928 4.29435 18.6791 4.28446 19.4654 4.29339C19.758 4.2902 20.0186 4.5727 19.999 4.8724C19.989 4.96519 19.9638 5.05542 19.9452 5.14661C19.721 6.19144 19.4897 7.235 19.2623 8.27923C19.13 8.89171 18.7859 9.44643 18.325 9.85491C17.6527 10.432 16.8474 10.8245 16.0133 11.0866C15.3381 11.3024 14.6443 11.4478 13.9514 11.5881C13.8857 11.6044 13.8146 11.6235 13.7673 11.6768C13.7357 11.7392 13.7857 11.812 13.849 11.8221C14.0403 11.8732 14.239 11.8818 14.4334 11.913C15.0527 12.0144 15.663 12.2051 16.2126 12.5188C16.521 12.6983 16.8204 12.9056 17.0539 13.1826C17.4958 13.6966 17.7409 14.4048 17.6434 15.0903C17.4546 16.3439 17.1294 17.5702 16.8788 18.8114C16.8164 19.1191 16.5856 19.3773 16.3024 19.4889C16.1245 19.5658 15.9285 19.5438 15.7406 19.546C15.0263 19.5451 14.3118 19.5483 13.5971 19.5441C13.281 19.5546 12.9993 19.2218 13.0698 18.9013C13.2372 18.0908 13.4257 17.2848 13.5953 16.475C13.6854 16.0251 13.7593 15.5631 13.7126 15.103C13.6415 14.6943 13.5251 14.2593 13.2148 13.9712C12.8385 13.6475 12.4043 13.3835 11.927 13.2531C11.4882 13.1233 11.022 13.0886 10.603 12.8919C10.4288 12.8061 10.2527 12.7037 10.1366 12.5402C9.8844 12.1908 9.86856 11.6848 10.0844 11.3127C10.1941 11.1156 10.3869 10.9884 10.5816 10.8937C10.9425 10.7231 11.3415 10.6753 11.7298 10.6087C12.4943 10.4865 13.2816 10.3832 13.9819 10.0226C14.4527 9.79595 14.913 9.49331 15.2021 9.03835C15.2986 8.88467 15.3729 8.71539 15.4151 8.53747C15.6806 7.35903 15.9301 6.1771 16.1925 4.99803C16.2667 4.66197 16.5474 4.39734 16.8686 4.31507ZM7.77077 4.3173C7.90927 4.28159 8.05304 4.2902 8.1944 4.28925C8.92824 4.29466 9.66208 4.28383 10.3962 4.29435C10.7062 4.29275 10.9692 4.62434 10.9018 4.93586C10.6338 6.18124 10.3586 7.42503 10.09 8.67011C9.9928 9.08139 9.59064 9.37475 9.18472 9.37571C8.43008 9.37795 7.67574 9.37475 6.92108 9.37731C6.71239 9.37859 6.48723 9.29091 6.37605 9.10019C6.28786 8.96211 6.29096 8.78675 6.32481 8.63123C6.57915 7.46966 6.83164 6.30782 7.08443 5.14597C7.10897 5.03501 7.12729 4.92119 7.17698 4.8182C7.29282 4.57397 7.51797 4.39159 7.77077 4.3173Z" fill="white"/>
<path d="M7.18776 10.4789C7.63278 10.396 8.10361 10.5637 8.42689 10.8826C8.68833 11.1332 8.83865 11.4919 8.86169 11.856C8.88529 12.3049 8.69425 12.7568 8.36849 13.0555C8.15857 13.2509 7.88651 13.368 7.60763 13.4104C7.05421 13.4852 6.47036 13.1932 6.19211 12.6955C6.0008 12.3824 5.96354 11.9931 6.02254 11.6344C6.13155 11.0519 6.62005 10.5772 7.18776 10.4789Z" fill="#FE7A1C"/>
</svg>
