<svg width="24" height="24" viewBox="0 0 24 24" fill="none" xmlns="http://www.w3.org/2000/svg">
<path d="M7.87825 4.18098C7.92334 4.13573 7.87824 4 8.01352 4H19.5C19.2295 5.35604 18.9145 6.75732 18.6442 8.11303H7.06758C7.29271 6.80224 7.60802 5.49177 7.87825 4.18098ZM6.617 9.87562H18.1937C17.9231 11.2766 17.6081 12.7231 17.3379 14.1244C14.8602 14.1696 12.3828 14.1244 9.90539 14.1696H5.71616C6.03147 12.7231 6.34678 11.3218 6.617 9.87562ZM5.31066 15.9771C8.41869 15.9322 11.5718 15.9771 14.6801 15.9322C15.401 15.9322 16.1665 15.9322 16.8873 15.9775C16.6171 17.3335 16.3469 18.6895 16.0767 20H4.5C4.5 19.6836 4.59018 19.3672 4.68004 19.0059C4.90549 18.0115 5.08553 17.0168 5.31066 15.9771Z" fill="white"/>
</svg>
