<svg width="24" height="24" viewBox="0 0 24 24" fill="none" xmlns="http://www.w3.org/2000/svg">
<path d="M18.4128 15.8395C16.1079 15.7171 14.7182 14.2794 14.6829 12.0007C14.718 9.70425 16.0904 8.28434 18.4128 8.16172C19.9435 8.07398 21.0341 6.95195 20.9992 5.51472C20.9463 4.12946 19.8203 3.02544 18.4304 3.00789C17.0053 3.00789 15.7737 4.05972 15.8264 5.53227C15.8971 7.32004 15.1051 8.37209 13.5218 8.96786C11.8857 9.5814 10.408 9.23065 9.08832 8.16172C8.4375 7.6357 8.19091 6.93441 8.17335 6.11072C8.19091 5.61979 8.12065 5.12887 7.97968 4.65549C7.53987 3.42862 6.23824 2.76243 4.97151 3.07786C3.61695 3.41107 2.75467 4.79588 3.07107 6.16337C3.335 7.30271 4.3378 8.10952 5.49914 8.1444C7.06493 8.23192 8.3141 8.84546 9.0354 10.2829C9.30431 10.8126 9.44445 11.3981 9.44445 11.9921C9.44445 12.586 9.30431 13.1715 9.0354 13.7012C8.3141 15.1389 7.04737 15.7346 5.49914 15.8397C4.0741 15.9099 2.96568 17.0843 3.00081 18.504C3.03594 19.6611 3.86286 20.6603 4.98885 20.9233C6.25558 21.2388 7.55744 20.555 7.99747 19.3457C8.13799 18.8723 8.19091 18.3814 8.19091 17.8905C8.20848 17.0668 8.45484 16.348 9.10589 15.8395C10.4255 14.7703 11.9033 14.4198 13.5393 15.0331C15.1229 15.6293 15.9142 16.6809 15.844 18.4689C15.7737 19.9415 17.0053 20.9933 18.4304 20.9933C19.8203 20.9758 20.9463 19.8715 20.999 18.4865C21.0341 17.0488 19.9257 15.9272 18.4128 15.8395V15.8395Z" fill="#FF3333"/>
<path d="M11.9827 15.8424C10.5589 15.8599 9.41632 17.0352 9.43387 18.4563C9.45142 19.877 10.6118 21.0174 12.0353 20.9998C13.4591 20.9822 14.6017 19.8072 14.5841 18.3861C14.5841 16.9652 13.4065 15.825 11.9827 15.8424V15.8424ZM5.60167 9.38739C4.1601 9.38716 3 10.5624 3 12.0011C3 13.4396 4.16032 14.5971 5.60167 14.5971C7.00747 14.5971 8.15048 13.4567 8.15048 12.036V11.9658C8.16803 10.5624 7.0428 9.40472 5.61922 9.38716H5.60167V9.38739ZM21 11.8958C20.9471 10.4924 19.7693 9.3696 18.3457 9.38716C16.9041 9.44007 15.7793 10.6505 15.8317 12.0889C15.8563 12.7476 16.1293 13.3724 16.5957 13.8378C17.0622 14.3031 17.6874 14.5744 18.3457 14.5971C19.0245 14.6073 19.6808 14.3532 20.176 13.8885C20.6712 13.4238 20.9666 12.7848 21 12.1063V11.8958V11.8958ZM11.9824 8.14165C13.406 8.12409 14.5488 6.96638 14.5312 5.54548C14.5137 4.17748 13.4238 3.05445 12.0527 3.00177C10.6289 2.94931 9.43365 4.07212 9.38077 5.49279C9.3279 6.91392 10.4356 8.08896 11.8596 8.14165H11.9824V8.14165Z" fill="white"/>
</svg>
