<svg width="24" height="24" viewBox="0 0 24 24" fill="none" xmlns="http://www.w3.org/2000/svg">
<path fill-rule="evenodd" clip-rule="evenodd" d="M12.5519 11.2542C12.8536 10.7676 13.2405 10.3375 13.6949 9.98357C13.6987 8.7609 14.4971 7.65533 15.6389 7.23337C16.0638 8.09565 17.4166 7.9596 17.6221 7.01228C18.326 6.80404 18.6065 5.92085 18.1254 5.35696C17.8512 5.03548 17.3968 4.90953 16.9949 5.03708C16.3013 4.39212 15.1057 4.9986 15.237 5.94791C13.0896 6.69282 11.8601 9.09905 12.5519 11.2542Z" fill="white"/>
<path fill-rule="evenodd" clip-rule="evenodd" d="M4.34399 9.96893V4.30884H19.6442V9.96893C19.6227 12.4779 16.5519 13.7358 14.7005 12.1886C14.4134 12.5578 14.2349 12.9973 14.1844 13.4592C16.1286 14.8155 18.8231 14.3662 20.2036 12.4558C20.7258 11.7328 21.0044 10.8673 21.0002 9.98074V3H3V9.96893C3.00072 10.405 3.06851 10.8382 3.20096 11.2542C3.50019 10.7617 3.88741 10.3263 4.34399 9.96893Z" fill="white"/>
<path fill-rule="evenodd" clip-rule="evenodd" d="M16.9832 18.6529C17.52 18.8042 18.1085 18.5022 18.2786 17.9667C18.4484 17.4321 18.1386 16.8535 17.6104 16.6782C17.4087 15.7559 16.051 15.586 15.6272 16.4571C14.0623 15.9207 13.2368 14.2396 13.7825 12.7023C14.4869 10.7181 17.0911 10.1214 18.6269 11.4865C18.9141 11.1175 19.0926 10.6781 19.1431 10.2162C17.1897 8.87311 14.4979 9.34034 13.131 11.2595C11.5047 13.5438 12.6187 16.7807 15.225 17.7157C15.0652 18.6764 16.2813 19.3055 16.9832 18.6529ZM11.4481 12.433C11.1457 12.9189 10.7588 13.3489 10.3051 13.7034C10.3033 14.3015 10.1163 14.8849 9.76911 15.3762C9.42189 15.8674 8.93081 16.2433 8.36108 16.4538C7.93683 15.5878 6.58459 15.7307 6.37502 16.6747C5.83419 16.8412 5.51156 17.429 5.68476 17.9721C5.85839 18.5166 6.46312 18.8172 7.00507 18.6503C7.71892 19.3141 8.91896 18.6457 8.75988 17.71C10.8896 16.9708 12.1476 14.6104 11.4481 12.433ZM8.76012 5.94764C8.93726 4.96778 7.71494 4.38895 7.00531 5.01012C6.46586 4.85045 5.86873 5.15143 5.69639 5.69152C5.52435 6.23066 5.84027 6.81402 6.37502 6.98531C6.59393 7.92926 7.93643 8.07096 8.36108 7.20641C9.92526 7.74261 10.7512 9.42348 10.2056 10.9607C9.50095 12.9457 6.89732 13.5415 5.36108 12.1765C5.06294 12.5395 4.88316 12.9824 4.84521 13.4473C6.80411 14.7937 9.50315 14.3246 10.8736 12.3997C12.5079 10.1039 11.3638 6.8451 8.76012 5.94764Z" fill="white"/>
<path fill-rule="evenodd" clip-rule="evenodd" d="M20.7991 12.4333C20.4982 12.9204 20.111 13.3507 19.6558 13.7038V19.3637H4.35605V13.7067C4.37024 12.0785 5.72505 10.7703 7.38226 10.784C8.08575 10.7903 8.76466 11.0391 9.30053 11.487C9.58739 11.1177 9.76581 10.6781 9.81639 10.2162C7.02214 8.26755 2.98438 10.3071 3.00005 13.6949V21.0002H21V13.7067C20.9981 13.2747 20.9304 12.8455 20.7991 12.4333Z" fill="white"/>
</svg>
