<svg width="24" height="24" viewBox="0 0 24 24" fill="none" xmlns="http://www.w3.org/2000/svg">
<path d="M19.8059 8.72L23 3.18741L1.36667 3.19556L12.1793 21.9526L19.2274 9.73852L10.6311 9.74667L12.1793 12.4356H14.583L12.1793 16.5993L6.00297 5.88445L18.3556 5.89259L16.7259 8.72H19.8059Z" fill="url(#paint0_linear_3635_2590)"/>
<path d="M19.6837 8.56519L22.9104 3L1 3.00815L11.9593 21.8711L19.0889 9.59185H10.3867L11.9593 12.297H14.3874L11.9593 16.4933L5.70148 5.71333L18.2089 5.72148L16.5548 8.56519H19.6837Z" fill="url(#paint1_linear_3635_2590)"/>
<path d="M21.9408 3.68445L19.48 7.92963L18.8445 7.93778L20.9874 4.23037H3.14297L12.0733 19.6874L17.117 10.9037L12 10.8874L11.6741 10.3415L18.0704 10.3496L12.0733 20.7874L2.18964 3.68445H21.9408Z" fill="white"/>
<defs>
<linearGradient id="paint0_linear_3635_2590" x1="4.78838" y1="14.5625" x2="19.5828" y2="-0.231881" gradientUnits="userSpaceOnUse">
<stop stop-color="#EFEFEF"/>
<stop offset="0.4214" stop-color="#BFBFC1"/>
<stop offset="0.5605" stop-color="#C2C2C4"/>
<stop offset="0.6596" stop-color="#CBCBCD"/>
<stop offset="0.7462" stop-color="#DBDBDC"/>
<stop offset="0.8251" stop-color="#F1F1F1"/>
<stop offset="0.8652" stop-color="white"/>
<stop offset="0.884" stop-color="#F5F5F6"/>
<stop offset="0.9156" stop-color="#DBDBDC"/>
<stop offset="0.956" stop-color="#B2B1B3"/>
<stop offset="0.9719" stop-color="#9F9EA1"/>
</linearGradient>
<linearGradient id="paint1_linear_3635_2590" x1="4.50198" y1="14.4192" x2="19.4174" y2="-0.496283" gradientUnits="userSpaceOnUse">
<stop offset="0.0393258" stop-color="#2E2E2E"/>
<stop offset="0.2528" stop-color="#ACACAC"/>
<stop offset="0.3876" stop-color="#5C5C5C"/>
<stop offset="0.5393" stop-color="#595959" stop-opacity="0.6"/>
<stop offset="0.6573" stop-color="#E7E7E7"/>
<stop offset="0.7528" stop-color="#B8B8B8"/>
<stop offset="1" stop-color="#4D4D4D"/>
</linearGradient>
</defs>
</svg>
