<svg width="24" height="24" viewBox="0 0 24 24" fill="none" xmlns="http://www.w3.org/2000/svg">
<g clip-path="url(#clip0_7342_4919)">
<path d="M1.50465 6.8997C0.845264 4.653 2.89902 2.55064 5.16053 3.15731L18.2383 6.66555C20.4539 7.25991 21.2098 10.02 19.6062 11.6603L10.3398 21.1386C8.73689 22.7782 5.96178 22.0864 5.31606 19.8862L1.50465 6.8997Z" fill="#FA3A71"/>
<path d="M3.5 4.34299C3.5 2.00152 6.06269 0.562616 8.06182 1.7816L19.6224 8.83071C21.5809 10.025 21.529 12.8862 19.5283 14.0085L7.96775 20.4937C5.96798 21.6155 3.5 20.1702 3.5 17.8773V4.34299Z" fill="#9C00FB"/>
<mask id="mask0_7342_4919" style="mask-type:alpha" maskUnits="userSpaceOnUse" x="3" y="1" width="19" height="20">
<path d="M3.5 4.34299C3.5 2.00152 6.06269 0.562616 8.06182 1.7816L19.6224 8.83071C21.5809 10.025 21.529 12.8862 19.5283 14.0085L7.96775 20.4937C5.96798 21.6155 3.5 20.1702 3.5 17.8773V4.34299Z" fill="#9C00FB"/>
</mask>
<g mask="url(#mask0_7342_4919)">
<path d="M6 16H8.48276V11.3503C8.48276 10.5637 8.94565 10.0228 9.63998 10.0228C10.3553 10.0228 10.7551 10.4583 10.7551 11.245V16H13.2379V11.3082C13.2379 10.5426 13.6797 10.0228 14.3881 10.0228C15.1385 10.0228 15.5102 10.4442 15.5102 11.2871V16H18V10.655C18 9.05356 16.9831 8 15.4471 8C14.346 8 13.4342 8.58297 13.1116 9.47498H12.9784C12.6768 8.52678 11.8703 8 10.8042 8C9.78025 8 8.93863 8.51975 8.61601 9.42581H8.48276V8.18262H6V16Z" fill="white"/>
</g>
</g>
<defs>
<clipPath id="clip0_7342_4919">
<rect width="24" height="24" fill="white"/>
</clipPath>
</defs>
</svg>
