<svg width="24" height="24" viewBox="0 0 24 24" fill="none" xmlns="http://www.w3.org/2000/svg">
<path d="M2.51172 3.52332L5.30616 17.9848L11.9977 21.9103L18.8368 17.7914L21.4652 3.49988L11.8647 3.12891L2.51172 3.52332Z" fill="white"/>
<path d="M17.4114 8.86846C17.707 9.72553 17.1383 10.7106 16.5095 11.2507C16.0275 11.7165 15.081 12.1223 14.4652 12.1223L14.5253 9.21708C15.1018 8.97834 15.6743 8.71138 16.269 8.51983C16.7052 8.37932 17.1814 8.42404 17.4114 8.86846ZM2.5 3.52289L12 2.93091L21.5 3.49996L20.4935 8.79097C20.4935 5.74699 17.8916 5.01065 16.0285 5.73084C14.6991 6.198 13.3931 6.7262 12.0601 7.18344L12.0597 20.8703L14.3449 19.9663C14.393 19.9663 14.4027 19.9291 14.4046 19.8845L14.4051 15.318C14.7939 16.2407 15.5768 17.8796 16.08 19.055L18.8361 17.782C18.2146 16.5787 17.6759 15.3283 17.1108 14.0978C18.2888 13.5286 19.5914 12.4307 20.0281 11.3206L18.8544 17.8165L12 22.0273L5.32595 18.107C5.32595 18.1541 5.25902 17.7054 5.19922 17.4883L6.94937 18.688L6.28797 12.1804C6.88924 13.5749 7.43038 14.9694 8.03165 16.3639C8.63291 15.4342 9.17405 14.5045 9.77532 13.5168V19.8501C9.77532 20.0244 9.77532 20.0244 9.9557 20.0825L11.918 20.8703L11.9375 7.18344C11.6153 7.07966 9.71519 6.42809 9.71519 6.42809C9.11392 7.35775 8.51266 8.34552 7.91139 9.27518C7.85127 9.33329 7.85127 9.39139 7.79114 9.4495C7.73101 9.39139 7.73101 9.39139 7.73101 9.33329C7.25 7.88069 6.76899 6.48619 6.28797 5.0917C5.76908 4.87615 2.5 3.52289 2.5 3.52289Z" fill="#31A6EE"/>
</svg>
