<svg width="24" height="24" viewBox="0 0 24 24" fill="none" xmlns="http://www.w3.org/2000/svg">
<path d="M15.0152 10.3744L16.5884 9.25824L10.7707 5.19232C10.6043 5.076 10.384 5.07189 10.2133 5.18191L3.27318 9.65613C2.97988 9.84522 2.9656 10.269 3.2455 10.4774L8.80997 14.6205L7.46154 15.676L9.05444 16.8316C9.22287 16.9538 9.44938 16.959 9.62314 16.8445L15.3255 13.0876C15.6166 12.8958 15.627 12.4724 15.3455 12.2665L11.5243 9.47191C11.35 9.34441 11.1135 9.34327 10.9379 9.46906L8.99725 10.8596L10.3332 12.0486L11.2321 11.3692L12.4237 12.3918L10.6328 13.5772L6.00074 10.3744L10.5579 7.29289L15.0152 10.3744Z" fill="#236B53"/>
<path d="M16.2524 11.147L17.8645 10.1028L22 13.0995L10.0648 20.8162C9.89303 20.9272 9.67095 20.9225 9.50411 20.8041L2.58895 15.9009C2.30406 15.6989 2.30876 15.2745 2.59805 15.0788L4.92059 13.5082L6.48601 14.4844L5.1776 15.4833L9.50003 18.639L18.4019 12.759L16.2524 11.147Z" fill="#236B53"/>
<path d="M15.0152 9.37445L16.5884 8.25824L10.7707 4.19232C10.6043 4.076 10.384 4.07189 10.2133 4.18191L3.27318 8.65613C2.97988 8.84522 2.9656 9.269 3.2455 9.47741L8.80997 13.6205L7.46154 14.676L9.05444 15.8316C9.22287 15.9538 9.44938 15.959 9.62314 15.8445L15.3255 12.0876C15.6166 11.8958 15.627 11.4724 15.3455 11.2665L11.5243 8.47191C11.35 8.34441 11.1135 8.34327 10.9379 8.46906L8.99725 9.85964L10.3332 11.0486L11.2321 10.3692L12.4237 11.3918L10.6328 12.5772L6.00074 9.37445L10.5579 6.29289L15.0152 9.37445Z" fill="#4AD1A3"/>
<path d="M16.2524 10.147L17.8645 9.10278L22 12.0995L10.0648 19.8162C9.89303 19.9272 9.67095 19.9225 9.50411 19.8041L2.58895 14.9009C2.30406 14.6989 2.30876 14.2745 2.59805 14.0788L4.92059 12.5082L6.48601 13.4844L5.1776 14.4833L9.50003 17.639L18.4019 11.759L16.2524 10.147Z" fill="#4AD1A3"/>
</svg>
