<svg width="24" height="24" viewBox="0 0 24 24" fill="none" xmlns="http://www.w3.org/2000/svg">
<path fill-rule="evenodd" clip-rule="evenodd" d="M9 21H16L12.5 18L9.00027 21H9Z" fill="#72C05D"/>
<path fill-rule="evenodd" clip-rule="evenodd" d="M13 16.4999L18 21L23 16.5001L18 12L13 16.5001V16.4999Z" fill="#72C05D"/>
<path fill-rule="evenodd" clip-rule="evenodd" d="M18 12V21L13 16.5003L18 12.0003V12Z" fill="#34B677"/>
<path fill-rule="evenodd" clip-rule="evenodd" d="M17 16C17 16 17.3001 15.9 17.5999 15.6002C17.8999 15.3001 17.9999 15 17.9999 15C17.9999 15 18.1123 15.3124 18.3999 15.6002C18.6874 15.8875 19 15.9998 19 15.9998C19 15.9998 18.6999 16.0758 18.3999 16.4C18.0998 16.7243 17.9999 17 17.9999 17C17.9999 17 17.95 16.8001 17.6497 16.4504C17.3499 16.1002 17 16 17 16" fill="#FEFEFE"/>
<path fill-rule="evenodd" clip-rule="evenodd" d="M17.9999 14.1126L16.1125 15.9997L17.9999 17.8874L19.887 15.9997L17.9999 14.1126V14.1126ZM17.9999 13L21 15.9997L17.9999 19L15 15.9997L18.0001 13H17.9999V13Z" fill="#090204"/>
<path fill-rule="evenodd" clip-rule="evenodd" d="M6 12L11 16.5L6 21L1 16.5003L6 12.0003V12Z" fill="#72C05D"/>
<path fill-rule="evenodd" clip-rule="evenodd" d="M6 12V21L1 16.5003L6 12.0003V12Z" fill="#34B677"/>
<path fill-rule="evenodd" clip-rule="evenodd" d="M5 16C5 16 5.30029 15.9 5.60012 15.6002C5.90017 15.3001 5.99988 15 5.99988 15C5.99988 15 6.11258 15.3124 6.40012 15.6002C6.68765 15.8875 7 15.9998 7 15.9998C7 15.9998 6.69994 16.0758 6.40012 16.4C6.10006 16.7243 5.99988 17 5.99988 17C5.99988 17 5.95003 16.8001 5.64997 16.4504C5.35014 16.1002 5 16 5 16" fill="#FEFEFE"/>
<path fill-rule="evenodd" clip-rule="evenodd" d="M6.00026 14.1126L4.11257 15.9999L6.00026 17.8876L7.88769 15.9999L6.00026 14.1126V14.1126ZM6.00026 13L9 15.9996L6.00026 19L3 15.9996L6.00026 13V13.0003V13Z" fill="#090204"/>
<path fill-rule="evenodd" clip-rule="evenodd" d="M12.0001 3L18 8.99974L12.0001 15L6 8.99974L12.0001 3Z" fill="#72C05D"/>
<path fill-rule="evenodd" clip-rule="evenodd" d="M11.9997 9H18L11.9997 15L6 9H11.9997V9Z" fill="#26B574"/>
<path fill-rule="evenodd" clip-rule="evenodd" d="M12 3V15L6 8.99987L12 3Z" fill="#34B677"/>
<path fill-rule="evenodd" clip-rule="evenodd" d="M9.18526 9H12V15L6 9H9.18526V9Z" fill="#009169"/>
<path fill-rule="evenodd" clip-rule="evenodd" d="M10.5 9C10.5 9 10.9499 8.85011 11.3999 8.39989C11.8498 7.95021 12 7.5 12 7.5C12 7.5 12.1685 7.96912 12.6001 8.40016C13.0309 8.83147 13.5 9.00027 13.5 9.00027C13.5 9.00027 13.0498 9.11368 12.5998 9.60011C12.1499 10.0865 11.9997 10.5 11.9997 10.5C11.9997 10.5 11.9247 10.2002 11.475 9.67519C11.025 9.15016 10.5 9 10.5 9Z" fill="#FEFEFE"/>
<path fill-rule="evenodd" clip-rule="evenodd" d="M11.9999 6.18734L9.18762 9.00014L12.0004 11.8127L14.8132 9.00014L12.0004 6.18734H11.9999ZM11.9999 5L16 9.00014L12.0001 13L8 8.99986L12.0001 5H11.9999Z" fill="#090204"/>
</svg>
