<svg width="24" height="24" viewBox="0 0 24 24" fill="none" xmlns="http://www.w3.org/2000/svg">
<path d="M12.0357 9.40438C12.0697 9.58583 12.3122 10.2794 11.9863 10.2925C11.2478 10.3205 10.4986 10.3154 9.76007 10.2908C9.6926 10.2886 9.6526 10.2537 9.6529 10.1854C9.65442 9.69359 9.38289 9.10711 9.09732 8.72379C8.13508 7.4324 6.02033 7.583 4.58575 7.70858C4.53007 7.7134 4.50277 7.74906 4.50062 7.80226C4.46997 8.5453 4.49582 9.29366 4.49676 10.0372C4.49713 10.2949 4.49544 10.2935 4.24881 10.2932C3.53535 10.2925 2.79036 10.3601 2.08038 10.2846C2.03913 10.2802 2.01075 10.2535 2.00787 10.2106C1.89888 8.6719 2.0004 7.09238 2.00004 5.54983C1.99993 5.23993 1.99115 5.26302 2.30271 5.26292C5.89038 5.2618 11.1427 4.6388 12.0357 9.40438Z" fill="white"/>
<path d="M14.3639 17.9376C14.3099 17.9359 14.2746 17.907 14.2704 17.8522C14.1244 15.8468 14.2643 13.7803 14.266 11.7693C14.2662 11.4162 14.2348 11.4453 14.5867 11.4446C15.27 11.4435 15.9596 11.4152 16.6423 11.4486C16.6954 11.4511 16.7325 11.4779 16.7351 11.5343C16.7868 12.721 16.7418 13.917 16.7427 15.1047C16.743 15.4682 16.7074 15.4449 17.0785 15.4449C18.6108 15.445 20.1431 15.4447 21.6754 15.4451C22.0282 15.4452 21.9993 15.4195 21.9995 15.7677C22.0002 16.4597 22.0354 17.1607 21.9941 17.8518C21.9907 17.9067 21.9555 17.9358 21.9014 17.9376C19.4038 18.0152 16.8616 18.0152 14.3639 17.9376Z" fill="white"/>
<path d="M4.47544 17.8111C4.17781 17.8226 2.01164 17.8111 2.01164 17.8111C1.97464 15.7579 2.00502 11.4699 2.00502 11.4699C2.29355 11.4635 4.47544 11.4699 4.47544 11.4699V17.8111Z" fill="white"/>
<path d="M12.1425 17.9328C11.415 17.9346 10.4433 18.0409 9.72394 17.9328C9.69627 15.8835 9.61771 13.8277 9.64956 11.7784C9.65291 11.5303 9.65301 11.5284 9.90263 11.5279C10.6022 11.5268 11.3146 11.4871 12.013 11.5288C12.1166 11.535 12.1379 11.5571 12.1425 11.6721C12.2292 13.7062 12.1436 15.8607 12.1425 17.9328Z" fill="white"/>
<path d="M16.7411 10.0362C16.7407 10.29 16.7387 10.2922 16.4958 10.2926C15.7866 10.2938 15.0635 10.3362 14.3557 10.2875C14.2982 10.2837 14.2721 10.2457 14.2692 10.1938C14.1831 8.64941 14.265 7.07861 14.2657 5.53185C14.2658 5.17423 14.236 5.20443 14.583 5.20395C15.267 5.203 15.9541 5.18383 16.6378 5.20682C16.7082 5.2092 16.7372 5.25202 16.7389 5.31706C16.7816 6.8877 16.743 8.46486 16.7411 10.0362Z" fill="white"/>
</svg>
