<svg width="24" height="24" viewBox="0 0 24 24" fill="none" xmlns="http://www.w3.org/2000/svg">
<path fill-rule="evenodd" clip-rule="evenodd" d="M14.0554 14.5019C13.9154 14.6225 13.8345 14.798 13.8345 14.9829C13.8345 15.1354 13.8893 15.2826 13.9891 15.3981C14.1087 15.5385 14.2841 15.6195 14.4685 15.6195C14.6205 15.6195 14.7677 15.5641 14.8821 15.4644C15.9401 14.6017 16.5355 13.3076 16.5355 11.9472C16.5355 9.42478 14.4852 7.36719 11.9717 7.36719C9.45873 7.36719 7.40845 9.42478 7.40845 11.9472C7.40741 13.3232 8.02782 14.6293 9.09526 15.4978C9.35951 15.7297 9.7564 15.6634 9.98775 15.3981C10.2191 15.1328 10.1533 14.7348 9.88853 14.5019C7.47425 12.5441 8.83048 8.59547 11.9388 8.59547C15.0476 8.6618 16.4363 12.5441 14.0554 14.5019ZM15.973 17.5883C17.6927 16.3271 18.8171 14.3035 18.8171 12.0135C18.8176 12.0051 18.8176 11.9962 18.8176 11.9879C18.8176 11.6427 18.5335 11.3591 18.1889 11.3591C17.8442 11.3591 17.5601 11.6427 17.5601 11.9879C17.5601 11.9962 17.5601 12.0051 17.5606 12.0135C17.5606 13.905 16.6347 15.5641 15.2127 16.5929C14.9479 16.7919 14.8821 17.1904 15.0805 17.4556C15.279 17.7209 15.6759 17.7873 15.9736 17.5883H15.973Z" fill="#0DB3E8"/>
<path fill-rule="evenodd" clip-rule="evenodd" d="M9.35939 3.2527C9.02829 3.35245 8.82985 3.68458 8.92907 4.0162C9.02829 4.34834 9.35939 4.54731 9.68996 4.44756C14.7164 2.95398 19.7429 6.70412 19.7429 11.9473C19.7429 12.2789 20.0077 12.5777 20.3717 12.5777C20.7022 12.5777 20.9999 12.3124 20.9999 11.9473C20.967 5.87482 15.1462 1.49435 9.35939 3.25322V3.2527Z" fill="#0DB3E8"/>
<path fill-rule="evenodd" clip-rule="evenodd" d="M16.2712 6.63757C11.8396 3.0206 5.09338 6.17279 5.09338 11.98C5.09338 15.7965 8.16933 18.8828 11.9717 18.8828C12.3028 18.8828 12.6005 18.617 12.6005 18.252C12.6005 17.887 12.3357 17.6217 11.9717 17.6217C8.86337 17.6217 6.34987 15.0993 6.34987 11.9805C6.34987 7.23501 11.8725 4.64683 15.5103 7.60005C15.7751 7.83244 16.172 7.76612 16.4033 7.50082C16.6018 7.26843 16.5689 6.86997 16.2712 6.6381V6.63757Z" fill="#0DB3E8"/>
<path fill-rule="evenodd" clip-rule="evenodd" d="M3.50581 11.416C3.17524 11.416 2.87756 11.6813 2.87756 12.0469C2.87756 17.0572 6.94522 21.1389 11.9383 21.1389C14.0669 21.1332 16.1271 20.3812 17.7591 19.015C18.0238 18.7831 18.0567 18.3847 17.8254 18.1194C17.7058 17.9789 17.5303 17.8979 17.346 17.8979C17.194 17.8979 17.0467 17.9533 16.9324 18.0531C15.5432 19.2474 13.7572 19.8782 11.9059 19.8782C7.57346 19.8782 4.06825 16.3605 4.06825 12.0134C4.13405 11.6813 3.83638 11.416 3.50581 11.416Z" fill="#0DB3E8"/>
</svg>
