<svg width="24" height="24" viewBox="0 0 24 24" fill="none" xmlns="http://www.w3.org/2000/svg">
<path d="M17.014 14.6002L12.379 11.532C12.379 11.532 12.1614 11.3361 11.7479 11.3579C11.3345 11.3796 11.0097 11.8801 11.0097 11.8801V11.8801L11.0085 13.1085C11.008 13.7455 11.5242 14.2622 12.1612 14.2622C12.5525 14.2622 12.8967 14.0661 13.1045 13.7675C13.1691 13.6746 13.2942 13.6487 13.388 13.712L16.3977 15.7465L16.3801 15.7578L16.3977 15.764L15.8824 16.8633L16.926 18.1459L17.7133 17.6416C19.1306 15.787 17.014 14.6002 17.014 14.6002Z" fill="#F48319"/>
<path d="M16.9353 18.1411C16.9353 18.1411 17.659 16.3036 16.5542 15.7892C16.4698 15.7499 16.3773 15.7067 16.288 15.6581L16.0323 15.4995C16.0323 15.4995 16.148 15.6219 16.153 15.7508C16.1533 15.9105 16.0191 15.9902 16.0191 15.9902L13.4174 17.6569C13.3299 17.713 13.2156 17.681 13.1652 17.5901C12.9688 17.2358 12.5911 16.996 12.1574 16.9956H12.1564C11.5202 16.9956 11.0043 17.511 11.0038 18.1472L11.0023 19.7722C11.0019 20.2045 11.212 20.6261 11.5886 20.8383C11.7648 20.9376 11.9598 20.987 12.1549 20.987C12.3715 20.987 12.5876 20.926 12.7767 20.8049L16.9353 18.1411Z" fill="#EB3A14"/>
<path d="M11.0096 11.8801V11.8801C11.0096 11.8801 11.3344 11.3797 11.7479 11.3579C12.1613 11.3361 12.379 11.532 12.379 11.532L17.014 14.6002C17.014 14.6002 19.1058 15.7742 17.7348 17.6114L19.1162 16.7266C19.4426 16.5172 19.6422 16.158 19.6469 15.7701C19.6517 15.3824 19.4611 15.0182 19.1397 14.801L12.844 10.5457C12.7083 10.4456 12.5517 10.3732 12.3797 10.3404C12.3491 10.3343 12.3181 10.3345 12.2872 10.331C12.2461 10.3265 12.206 10.3184 12.1636 10.3184C12.1634 10.3184 12.1629 10.3184 12.1626 10.3184C12.1619 10.3184 12.1612 10.3186 12.1604 10.3186C12.1589 10.3186 12.1574 10.3186 12.1559 10.3186C11.786 10.3186 11.4228 10.496 11.1998 10.8255C11.0497 11.0477 10.9923 11.303 11.0099 11.5513L11.0096 11.8801Z" fill="#ECDA35"/>
<path d="M10.408 13.1083L10.4095 11.6477C9.07946 11.2424 8.10271 10.0185 8.10271 8.55781C8.10271 6.76865 9.55837 5.31304 11.3474 5.31304C13.1365 5.31304 14.5922 6.76865 14.5922 8.55781C14.5922 9.30581 14.3275 9.98691 13.9006 10.5363L15.7295 11.7724C16.3931 10.8704 16.7902 9.76094 16.7902 8.55781C16.7902 5.55664 14.3486 3.11499 11.3474 3.11499C8.34626 3.11499 5.90466 5.55664 5.90466 8.55781V18.3965C5.90466 19.0034 6.39665 19.4956 7.00369 19.4956C7.61072 19.4956 8.10271 19.0034 8.10271 18.3965V12.9172C8.82712 13.4578 9.69099 13.8144 10.6277 13.9408C10.4922 13.6919 10.408 13.4111 10.408 13.1083Z" fill="white"/>
</svg>
