<svg width="24" height="24" viewBox="0 0 24 24" fill="none" xmlns="http://www.w3.org/2000/svg">
<path d="M9.90068 7H9.06104V7.8397H9.90068V7Z" fill="#E06E1A"/>
<path d="M1.83972 8.00781H1V8.84755H1.83972V8.00781Z" fill="#571BE0"/>
<path d="M2.84729 16.0691H2.00757V16.9088H2.84729V16.0691Z" fill="#6DBCE3"/>
<path d="M7.88565 14.0537H7.0459V14.8934H7.88565V14.0537Z" fill="#C41FD6"/>
<path d="M13.9315 9.01514H13.0918V9.85488H13.9315V9.01514Z" fill="#C41F70"/>
<path d="M15.9468 7H15.1071V7.8397H15.9468V7Z" fill="#ECB733"/>
<path d="M14.939 15.0613H14.0994V15.901H14.939V15.0613Z" fill="#4F85E1"/>
<path d="M20.985 16.0691H20.1453V16.9088H20.985V16.0691Z" fill="#DD4C12"/>
<path d="M22.9999 14.0537H22.1603V14.8934H22.9999V14.0537Z" fill="#DA1F2C"/>
<path d="M22.9999 11.0308H22.1603V11.8705H22.9999V11.0308Z" fill="#82E493"/>
<path d="M13.088 10.0189V14.8829H15.1099V16.8901H19.9739V15.9085H22.025V13.8574H22.9919V12.0115H22.025V11.0299H18.1426V12.8905H21.1167V14.0039H20.0765V15.0441H16.0036V14.0039H14.9487V9.93105H16.0915V8.89087H20.0765V9.93105H22.025V7.87984H19.9739V6.94238H16.0915V8.02658H14.1136V10.0189H13.088Z" fill="white"/>
<path fill-rule="evenodd" clip-rule="evenodd" d="M0.988892 16.9083H1.85144V15.9109H2.84919V14.8739H6.85797V13.9142H9.90712V12.8617H10.8977V9.0078H9.90712V7.9862H8.91653V6.99561H1.99791V9.0078H0.988892V16.9083ZM3.04097 13.0136V9.0078H8.0157V9.93974L9.06727 10.0409V12.0833H8.0157V13.0136H3.04097Z" fill="white"/>
</svg>
