<svg width="24" height="24" viewBox="0 0 24 24" fill="none" xmlns="http://www.w3.org/2000/svg">
<path fill-rule="evenodd" clip-rule="evenodd" d="M5.04789 4.16H18.1329L21 2V18.2C21.001 19.1931 20.0841 19.9991 18.9521 20H5.04789C4.77859 19.9997 4.51201 19.953 4.2634 19.8624C4.0148 19.7718 3.78907 19.6392 3.59914 19.4721C3.21487 19.1342 2.99941 18.6767 3 18.2V5.96C2.99941 5.48328 3.21487 5.0258 3.59914 4.68785C3.78907 4.5208 4.0148 4.38819 4.2634 4.29761C4.51201 4.20703 4.77859 4.16027 5.04789 4.16V4.16Z" fill="#0355A5"/>
<path d="M12.7738 13.1237C12.9839 13.0208 13.162 12.8785 13.2937 12.7084C13.4315 12.5259 13.5266 12.3232 13.5742 12.1113C13.6289 11.8828 13.6565 11.6505 13.6563 11.4175C13.6563 11.1841 13.6265 10.9516 13.5672 10.7236C13.5136 10.5079 13.414 10.3019 13.2731 10.115C13.1394 9.93963 12.9591 9.79177 12.7459 9.68272C12.5074 9.56765 12.2346 9.51051 11.9587 9.51786C11.6784 9.50958 11.4009 9.56671 11.158 9.68272C10.9472 9.78981 10.7692 9.93587 10.6381 10.1094C10.5008 10.2944 10.4057 10.4986 10.3575 10.712C10.3022 10.9444 10.2747 11.1807 10.2755 11.4175C10.2752 11.6505 10.305 11.8835 10.3643 12.1113C10.416 12.3232 10.5132 12.5254 10.6519 12.7084C10.8845 12.9787 11.228 13.1699 11.6184 13.2463C12.0087 13.3227 12.4194 13.2791 12.7738 13.1237V13.1237ZM10.2481 8.46017V9.21077H10.2752C10.4877 8.91118 10.8019 8.66986 11.1788 8.51684C11.5557 8.37071 11.9676 8.2969 12.3838 8.30091C12.8814 8.29017 13.3747 8.38013 13.8206 8.56298C14.2116 8.73027 14.5529 8.96719 14.8198 9.25669C15.0921 9.558 15.2919 9.89972 15.4085 10.2633C15.5374 10.6544 15.6019 11.0583 15.6 11.4637C15.6016 11.8484 15.5372 12.2314 15.4085 12.6011C15.2894 12.9507 15.092 13.2786 14.8266 13.5679C14.5668 13.8484 14.2348 14.0776 13.8548 14.239C13.4319 14.4124 12.9645 14.4983 12.4927 14.4894C12.0737 14.4929 11.6593 14.417 11.2812 14.2676C10.9127 14.1206 10.5984 13.8948 10.3708 13.6136H10.3437V16.4H8.40002V8.46039H10.2481V8.46017Z" fill="#FDE428"/>
</svg>
