<svg width="24" height="24" viewBox="0 0 24 24" fill="none" xmlns="http://www.w3.org/2000/svg">
<path d="M3.42857 22.2857V4.48816L18.4526 11.9997L9.94299 16.2548V11.9997C9.94299 11.545 9.76237 11.109 9.44088 10.7875C9.11939 10.466 8.68336 10.2854 8.2287 10.2854C7.77405 10.2854 7.33801 10.466 7.01652 10.7875C6.69503 11.109 6.51442 11.545 6.51442 11.9997V19.0287C6.51444 19.3209 6.58914 19.6082 6.73144 19.8634C6.87374 20.1186 7.07891 20.3332 7.32747 20.4869C7.57603 20.6405 7.85974 20.728 8.15164 20.7411C8.44354 20.7543 8.73396 20.6926 8.99531 20.5619L23.0523 13.5332C23.337 13.3908 23.5764 13.172 23.7438 12.9012C23.9111 12.6304 23.9998 12.3183 23.9998 12C23.9998 11.6817 23.9111 11.3696 23.7438 11.0988C23.5764 10.828 23.337 10.6092 23.0523 10.4668L2.48089 0.180743C2.2195 0.0501652 1.92908 -0.0114482 1.63718 0.00175045C1.34529 0.0149491 1.06161 0.102522 0.813073 0.256157C0.564533 0.409793 0.359377 0.624395 0.217078 0.879594C0.0747778 1.13479 5.46565e-05 1.42212 0 1.71432V22.2857C1.35498e-08 22.7404 0.180612 23.1764 0.502102 23.4979C0.823593 23.8194 1.25963 24 1.71428 24C2.16894 24 2.60497 23.8194 2.92647 23.4979C3.24796 23.1764 3.42857 22.7404 3.42857 22.2857Z" fill="#FF002A"/>
</svg>
