<svg width="24" height="24" viewBox="0 0 24 24" fill="none" xmlns="http://www.w3.org/2000/svg">
<path d="M0 11.9999C0 18.6267 5.37204 24 11.9999 24C18.6267 24 23.9989 18.6267 23.9989 11.9999C23.9989 5.37295 18.6267 1.62173e-07 11.9999 1.62173e-07C5.37204 1.62173e-07 0 5.37295 0 11.9999" fill="url(#paint0_radial_8136_575)"/>
<path d="M4.07172 19.929C4.44694 20.3046 4.84918 20.6539 5.27498 20.9734C4.86557 20.3427 4.36897 19.7482 3.91738 19.1282C3.52143 18.8713 3.14913 18.5902 2.7251 18.303C3.12273 18.8868 3.57406 19.4312 4.07172 19.929V19.929Z" fill="black"/>
<path d="M2.72533 18.3028C3.14937 18.59 3.52166 18.8711 3.91761 19.128C3.46611 18.5078 3.05953 17.8619 2.83024 17.1281C2.48984 16.893 2.17354 16.6392 1.70068 16.4404C1.98376 17.0957 2.3277 17.7189 2.72533 18.3028Z" fill="black"/>
<path d="M5.27509 20.9733C5.70098 21.2928 6.15036 21.5827 6.61994 21.8398C6.29867 21.0759 5.75733 20.4485 5.25249 19.8088C4.7333 19.6178 4.31352 19.3851 3.91748 19.1282C4.36907 19.7482 4.86567 20.3427 5.27509 20.9733V20.9733Z" fill="black"/>
<path d="M3.91746 19.128C4.3135 19.385 4.73328 19.6176 5.25247 19.8087C4.74754 19.1688 4.27912 18.5171 4.10352 17.7048C3.53471 17.5802 3.17039 17.3635 2.83008 17.1282C3.05937 17.862 3.46595 18.5078 3.91746 19.128V19.128Z" fill="#101010"/>
<path d="M6.61988 21.8396C6.29862 21.0757 5.75728 20.4483 5.25244 19.8086C5.44133 19.8811 5.67612 19.9264 5.9351 19.9566C6.37455 20.649 6.84794 21.3307 7.14749 22.1109C6.96896 22.025 6.79301 21.9346 6.61988 21.8396V21.8396Z" fill="black"/>
<path d="M7.14794 22.1109C6.84838 21.3307 6.375 20.649 5.93555 19.9565C6.19452 19.9867 6.47769 20.0014 6.76333 20.0127C7.08725 20.7798 7.4397 21.5384 7.69149 22.3546C7.50783 22.278 7.32655 22.1967 7.14794 22.1109V22.1109Z" fill="black"/>
<path d="M5.25247 19.8087C4.74754 19.1688 4.27912 18.5171 4.10352 17.7048C4.30818 17.755 4.59586 17.7582 4.92625 17.7367C5.09016 18.5605 5.49568 19.2642 5.93513 19.9567C5.67615 19.9265 5.44136 19.8812 5.25247 19.8087V19.8087Z" fill="#191717"/>
<path d="M5.93564 19.9567C5.49619 19.2643 5.09067 18.5606 4.92676 17.7368C5.25723 17.7154 5.63033 17.6693 6.0059 17.6211C6.14393 18.4706 6.43941 19.246 6.76342 20.0129C6.47778 20.0016 6.19461 19.9869 5.93564 19.9567V19.9567Z" fill="#151414"/>
<path d="M7.69135 22.3546C7.43955 21.5384 7.0871 20.7798 6.76318 20.0127C7.04883 20.024 7.33686 20.032 7.60558 20.0481C7.81424 20.8859 8.04575 21.7179 8.24988 22.5702C8.06134 22.503 7.8751 22.4313 7.69135 22.3546V22.3546Z" fill="black"/>
<path d="M8.24976 22.5704C8.04563 21.7181 7.81412 20.8861 7.60547 20.0483C7.87428 20.0646 8.12378 20.0891 8.33225 20.1339C8.47587 21.0134 8.63987 21.8882 8.82229 22.7566C8.62923 22.6994 8.43839 22.6374 8.24976 22.5704V22.5704Z" fill="black"/>
<path d="M6.76289 20.0127C6.43889 19.2458 6.14341 18.4704 6.00537 17.6209C6.38085 17.5725 6.75882 17.522 7.09877 17.4917C7.21112 18.3669 7.39673 19.2103 7.6053 20.0481C7.33657 20.032 7.04854 20.024 6.76289 20.0127V20.0127Z" fill="#0C0C0C"/>
<path d="M7.60564 20.0483C7.39708 19.2105 7.21146 18.367 7.09912 17.4919C7.43917 17.4616 7.74129 17.4515 7.96518 17.4839C8.06574 18.3706 8.18889 19.2546 8.33242 20.1339C8.12395 20.0891 7.87445 20.0646 7.60564 20.0483V20.0483Z" fill="#040404"/>
<path d="M8.82213 22.7566C9.54191 22.9676 10.2908 23.1099 11.063 23.1739C10.948 21.3376 10.8422 19.5024 10.7566 17.665C9.8933 17.6345 8.77517 17.6049 7.96484 17.4839C8.16596 19.2575 8.45728 21.0195 8.82213 22.7566Z" fill="black"/>
<path d="M11.0632 23.1738C11.3714 23.1993 11.6839 23.2124 12.0002 23.2124C11.8813 21.4525 12.4593 19.2205 12.3421 17.4292C11.6854 17.5816 11.1228 17.6789 10.7568 17.6649C10.8424 19.5022 10.9482 21.3375 11.0632 23.1738V23.1738Z" fill="black"/>
<path d="M12.0006 23.2124C12.4543 23.2124 12.9019 23.1855 13.3418 23.1332C13.3673 22.2857 13.8832 21.0961 14.3945 19.8972C13.6572 20.0549 12.8643 20.2243 12.1709 20.3326C12.0559 21.3345 11.9411 22.3325 12.0006 23.2124V23.2124Z" fill="black"/>
<path d="M12.1704 20.3328C12.8639 20.2245 13.6568 20.0551 14.394 19.8974C14.9053 18.6985 15.4117 17.4902 15.4184 16.6052C14.3986 16.8845 13.2752 17.2127 12.3419 17.4294C12.4005 18.3251 12.2853 19.3309 12.1704 20.3328Z" fill="#040404"/>
<path d="M13.3413 23.1334C13.7812 23.0809 14.2135 23.0029 14.6365 22.9007C14.7468 22.0856 15.5201 20.8161 16.2836 19.532C15.8128 19.5936 15.1312 19.7397 14.394 19.8974C13.8827 21.0963 13.3668 22.2858 13.3413 23.1334V23.1334Z" fill="black"/>
<path d="M14.394 19.8971C14.9053 18.6982 15.4118 17.4899 15.4184 16.6049C15.9283 16.4653 16.4122 16.3379 16.8335 16.2429C16.7821 17.1204 16.1146 18.406 15.4388 19.6784C15.1174 19.7422 14.7627 19.8183 14.394 19.8971V19.8971Z" fill="#111010"/>
<path d="M15.439 19.6785C16.1147 18.406 16.7823 17.1205 16.8337 16.243C17.2551 16.1478 17.6137 16.0849 17.8731 16.0745C17.8013 16.9488 17.0474 18.2476 16.2838 19.5318C16.0484 19.5626 15.7603 19.6145 15.439 19.6785V19.6785Z" fill="#171515"/>
<path d="M14.6367 22.9005C15.6555 22.6549 16.62 22.2704 17.509 21.768C17.8131 21.1115 18.3842 20.1971 18.9236 19.2559C18.1888 19.3764 17.4057 19.384 16.2839 19.5318C15.5203 20.8159 14.7471 22.0854 14.6367 22.9005V22.9005Z" fill="black"/>
<path d="M16.2837 19.5317C17.4055 19.3839 18.1886 19.3763 18.9234 19.2558C19.4629 18.3145 19.9707 17.3461 20.148 16.5813C19.6333 16.3568 19.0978 16.0244 17.8729 16.0744C17.8011 16.9487 17.0472 18.2475 16.2837 19.5317V19.5317Z" fill="#191717"/>
<path d="M17.5088 21.7682C18.3979 21.2658 19.2114 20.6457 19.9283 19.9289C20.426 19.431 20.877 18.8864 21.2743 18.3027C20.345 18.902 19.6583 19.1356 18.9234 19.2561C18.384 20.1973 17.8129 21.1117 17.5088 21.7682Z" fill="black"/>
<path d="M18.9233 19.2559C19.6583 19.1354 20.345 18.9019 21.2743 18.3026C21.6718 17.7187 22.0155 17.0957 22.2985 16.4404C21.1567 16.9222 20.6627 16.8058 20.148 16.5815C19.9706 17.3463 19.4628 18.3147 18.9233 19.2559V19.2559Z" fill="#101010"/>
<path d="M1.70065 16.4404C2.1735 16.6393 2.4898 16.893 2.8302 17.1282C2.71077 16.747 2.58062 16.3501 2.45073 15.9423C2.11077 15.7614 1.79483 15.5637 1.30957 15.3936C1.42289 15.7506 1.55357 16.0999 1.70065 16.4404V16.4404Z" fill="black"/>
<path d="M1.30957 15.3935C1.79483 15.5636 2.11077 15.7614 2.45073 15.9423C2.32075 15.5347 2.19104 15.1165 2.07241 14.693C1.7919 14.5566 1.53558 14.4074 1.02295 14.3005C1.10047 14.6719 1.19634 15.0366 1.30957 15.3935Z" fill="black"/>
<path d="M1.02292 14.3006C1.53555 14.4074 1.79187 14.5566 2.07237 14.6931C1.83519 13.8462 1.64258 12.9785 1.58189 12.1327C1.44819 12.0773 1.33895 12.0149 0.786621 12C0.786621 12.7884 0.868044 13.5579 1.02292 14.3006Z" fill="black"/>
<path d="M2.83015 17.1282C3.17046 17.3635 3.53478 17.5802 4.10359 17.7048C4.01189 17.2831 3.88254 16.8426 3.73626 16.3907C3.15469 16.2876 2.79064 16.1233 2.45068 15.9424C2.58057 16.3501 2.71072 16.747 2.83015 17.1282V17.1282Z" fill="#191717"/>
<path d="M2.45058 15.9424C2.79054 16.1233 3.15459 16.2875 3.73616 16.3907C3.58979 15.939 3.42659 15.4758 3.2672 15.0091C2.65764 14.9532 2.35286 14.8296 2.07227 14.6931C2.1909 15.1166 2.32061 15.5348 2.45058 15.9424Z" fill="#161515"/>
<path d="M2.07252 14.6932C2.35311 14.8296 2.65789 14.9533 3.26746 15.0091C2.94876 14.0754 2.64558 13.1267 2.52437 12.2237C1.87397 12.2368 1.71582 12.1883 1.58203 12.1328C1.64272 12.9786 1.83534 13.8463 2.07252 14.6932V14.6932Z" fill="#0F0E0E"/>
<path d="M0.786621 12.0001C1.89137 12.0297 1.2235 12.2498 2.52423 12.2237C2.47922 11.8888 2.45929 11.5603 2.47284 11.241C1.12861 11.2977 1.96623 11.1308 0.818694 11.1488C0.796899 11.4297 0.786621 11.7132 0.786621 12.0001Z" fill="black"/>
<path d="M4.10367 17.7049C4.30834 17.755 4.59602 17.7582 4.9264 17.7368C4.82513 17.2298 4.67576 16.6915 4.51008 16.1372C4.16472 16.1709 3.86472 16.179 3.65332 16.1384C3.83335 16.6787 3.99505 17.205 4.10367 17.7049V17.7049Z" fill="#211F1F"/>
<path d="M3.65325 16.1383C3.86465 16.1789 4.16465 16.1707 4.51001 16.137C4.34433 15.5826 4.16234 15.0118 3.99551 14.4402C3.63447 14.485 3.31906 14.5082 3.09277 14.4884C3.27484 15.0439 3.47322 15.598 3.65325 16.1383V16.1383Z" fill="#1C1A1A"/>
<path d="M4.92609 17.7367C5.25657 17.7152 5.62966 17.6692 6.00523 17.621C5.91991 17.0984 5.78808 16.5482 5.63932 15.9836C5.24603 16.0444 4.85521 16.1034 4.50977 16.1371C4.67545 16.6914 4.82482 17.2297 4.92609 17.7367V17.7367Z" fill="#1C1A1A"/>
<path d="M4.5101 16.1371C4.85555 16.1034 5.24636 16.0444 5.63965 15.9836C5.49081 15.4192 5.32521 14.8405 5.17247 14.2612C4.76341 14.3284 4.35665 14.3952 3.99561 14.4402C4.16244 15.0118 4.34442 15.5826 4.5101 16.1371Z" fill="#1A1818"/>
<path d="M3.09273 14.4885C2.91057 13.9331 2.7448 13.3764 2.62988 12.831C2.75056 12.8304 2.89293 12.8207 3.05179 12.8042C3.16112 13.3572 3.31936 13.9236 3.49355 14.4886C3.34125 14.4977 3.20587 14.4984 3.09273 14.4885V14.4885Z" fill="#101010"/>
<path d="M3.49351 14.4888C3.31933 13.9237 3.16109 13.3574 3.05176 12.8043C3.21053 12.7879 3.38587 12.7646 3.57228 12.7368C3.67709 13.2957 3.8286 13.8686 3.99543 14.4404C3.81486 14.4629 3.64582 14.4799 3.49351 14.4888V14.4888Z" fill="#121111"/>
<path d="M2.63001 12.831C2.51518 12.2856 2.4513 11.7513 2.47292 11.241C2.59696 11.2357 2.74218 11.2211 2.90351 11.1997C2.88216 11.7116 2.94259 12.2512 3.05192 12.8042C2.89306 12.8207 2.75068 12.8305 2.63001 12.831V12.831Z" fill="#050505"/>
<path d="M3.05159 12.8042C2.94226 12.2512 2.88183 11.7116 2.90318 11.1997C3.06443 11.1783 3.24181 11.1499 3.43008 11.1169C3.40953 11.6328 3.46738 12.1778 3.57211 12.7367C3.3857 12.7645 3.21036 12.7877 3.05159 12.8042Z" fill="#080808"/>
<path d="M3.99542 14.4404C4.35646 14.3954 4.76322 14.3286 5.17228 14.2615C5.01953 13.682 4.87972 13.1019 4.78262 12.5347C4.36275 12.6077 3.94518 12.6812 3.57227 12.7368C3.67708 13.2957 3.82858 13.8686 3.99542 14.4404Z" fill="#151414"/>
<path d="M3.57241 12.7365C3.94532 12.6809 4.36289 12.6074 4.78276 12.5344C4.68566 11.967 4.63117 11.4125 4.64924 10.8843C4.22698 10.967 3.80684 11.0508 3.43038 11.1168C3.40983 11.6326 3.46769 12.1776 3.57241 12.7365V12.7365Z" fill="#101010"/>
<path d="M6.00589 17.6209C6.38138 17.5725 6.75934 17.522 7.0993 17.4917C7.06474 17.2227 7.01885 16.948 6.96507 16.6689C6.61794 16.7049 6.23111 16.7623 5.84668 16.818C5.90896 17.0914 5.96328 17.3595 6.00589 17.6209V17.6209Z" fill="#101010"/>
<path d="M5.84635 16.8181C6.23078 16.7625 6.61761 16.7051 6.96474 16.6691C6.91096 16.39 6.84938 16.1065 6.78338 15.8203C6.42845 15.8607 6.03285 15.9231 5.63965 15.9837C5.71398 16.266 5.78415 16.5447 5.84635 16.8181V16.8181Z" fill="#121111"/>
<path d="M5.63955 15.9836C6.03275 15.923 6.42835 15.8606 6.78328 15.8202C6.65135 15.2477 6.50197 14.6634 6.36314 14.0789C5.99279 14.126 5.58143 14.1939 5.17236 14.2612C5.32511 14.8405 5.4907 15.4192 5.63955 15.9836Z" fill="#151414"/>
<path d="M7.09907 17.4919C7.43912 17.4616 7.74124 17.4515 7.96513 17.4839C7.93421 17.2114 7.89319 16.9328 7.84517 16.6498C7.61942 16.6188 7.31198 16.6332 6.96484 16.6691C7.01862 16.9482 7.06452 17.2229 7.09907 17.4919V17.4919Z" fill="#050505"/>
<path d="M6.96457 16.6689C7.3117 16.633 7.61914 16.6186 7.84489 16.6496C7.79687 16.3665 7.74176 16.0791 7.68284 15.7884C7.45239 15.7613 7.13813 15.7798 6.7832 15.8202C6.84921 16.1063 6.91079 16.3899 6.96457 16.6689Z" fill="#080808"/>
<path d="M6.78342 15.8201C7.13835 15.7797 7.45261 15.7613 7.68306 15.7884C7.56522 15.2072 7.43179 14.6141 7.30793 14.0208C7.06304 14.0053 6.73371 14.0317 6.36328 14.0788C6.50212 14.6634 6.65149 15.2476 6.78342 15.8201V15.8201Z" fill="#101010"/>
<path d="M5.17237 14.2614C5.58144 14.194 5.9928 14.1262 6.36315 14.079C6.2244 13.4946 6.0962 12.9097 6.00663 12.3359C5.62459 12.3891 5.2025 12.4616 4.78271 12.5346C4.87982 13.1018 5.01963 13.6819 5.17237 14.2614V14.2614Z" fill="#1F1E1F"/>
<path d="M4.7828 12.5344C5.20259 12.4614 5.62467 12.3889 6.00671 12.3358C5.96188 12.0489 5.9268 11.7648 5.90474 11.4849C5.51977 11.5416 5.0952 11.6176 4.67285 11.6947C4.69633 11.9702 4.73425 12.2507 4.7828 12.5344Z" fill="#292829"/>
<path d="M4.673 11.6948C5.09535 11.6178 5.51992 11.5417 5.90488 11.485C5.88291 11.2051 5.87405 10.9292 5.88185 10.6589C5.49635 10.7202 5.07178 10.8018 4.64943 10.8845C4.64039 11.1487 4.64952 11.4193 4.673 11.6948V11.6948Z" fill="#2C2B2D"/>
<path d="M6.36287 14.079C6.22412 13.4946 6.09592 12.9096 6.00635 12.3359C6.19737 12.3093 6.37829 12.2877 6.54397 12.2729C6.62911 12.8503 6.75076 13.4384 6.88224 14.0265C6.72303 14.0371 6.54804 14.0554 6.36287 14.079Z" fill="#292829"/>
<path d="M6.88271 14.0265C6.75122 13.4384 6.62958 12.8503 6.54443 12.2729C6.71011 12.2582 6.86047 12.2508 6.99018 12.2527C7.06992 12.8343 7.18421 13.4277 7.30798 14.021C7.18554 14.0132 7.04201 14.0159 6.88271 14.0265V14.0265Z" fill="#2C2B2D"/>
<path d="M6.00676 12.3358C6.19778 12.3092 6.3787 12.2876 6.54438 12.2729C6.50186 11.9842 6.46845 11.6982 6.44754 11.4165C6.28 11.433 6.09731 11.4566 5.90479 11.4849C5.92685 11.7649 5.96193 12.0489 6.00676 12.3358V12.3358Z" fill="#414042"/>
<path d="M5.90473 11.4851C6.09725 11.4567 6.27994 11.4331 6.44748 11.4167C6.42657 11.1347 6.41807 10.8571 6.42551 10.5847C6.25744 10.6028 6.07448 10.6283 5.88169 10.659C5.87389 10.9292 5.88276 11.2051 5.90473 11.4851V11.4851Z" fill="#49484B"/>
<path d="M6.5441 12.2729C6.70979 12.2582 6.86014 12.2507 6.98985 12.2527C6.94998 11.9619 6.91879 11.6741 6.8993 11.3906C6.7672 11.3906 6.61481 11.4 6.44727 11.4165C6.46818 11.6982 6.50158 11.9842 6.5441 12.2729Z" fill="#49484B"/>
<path d="M6.44747 11.4166C6.61502 11.4001 6.76741 11.3907 6.89951 11.3907C6.8801 11.1074 6.8724 10.8285 6.87966 10.5554C6.74667 10.5561 6.59357 10.5668 6.4255 10.5847C6.41806 10.857 6.42657 11.1347 6.44747 11.4166Z" fill="#525254"/>
<path d="M7.96469 17.4837C8.16732 17.514 8.38908 17.5385 8.62139 17.5589C8.59321 17.2847 8.55715 17.0048 8.51569 16.7205C8.27585 16.7016 8.04859 16.6785 7.84473 16.6497C7.89275 16.9326 7.93377 17.2112 7.96469 17.4837Z" fill="black"/>
<path d="M7.84515 16.6498C8.04902 16.6786 8.27628 16.7017 8.51612 16.7206C8.47456 16.4364 8.42769 16.1479 8.3779 15.8564C8.12663 15.8364 7.89052 15.8139 7.68311 15.7886C7.74202 16.0792 7.79713 16.3666 7.84515 16.6498Z" fill="#040404"/>
<path d="M7.68275 15.7886C7.89016 15.8139 8.12627 15.8364 8.37754 15.8564C8.27787 15.2734 8.16659 14.6788 8.06381 14.0839C7.78419 14.058 7.52575 14.0355 7.30762 14.021C7.43148 14.6143 7.56491 15.2073 7.68275 15.7886V15.7886Z" fill="#0E0E0E"/>
<path d="M8.62181 17.559C8.85403 17.5792 9.09679 17.5952 9.34115 17.6085C9.31909 17.331 9.29215 17.0501 9.26203 16.7664C9.0081 16.7545 8.75586 16.7397 8.51611 16.7207C8.55758 17.0049 8.59364 17.2849 8.62181 17.559Z" fill="black"/>
<path d="M8.51566 16.7206C8.75541 16.7396 9.00765 16.7545 9.26157 16.7664C9.23154 16.4828 9.19814 16.1967 9.16314 15.9087C8.89504 15.8938 8.62862 15.8765 8.37744 15.8564C8.42723 16.1479 8.4741 16.4364 8.51566 16.7206V16.7206Z" fill="#040404"/>
<path d="M8.37769 15.8565C8.62887 15.8765 8.89529 15.8939 9.16339 15.9088C9.0934 15.3329 9.01676 14.7499 8.94632 14.1667C8.64411 14.1391 8.3435 14.11 8.06396 14.084C8.16674 14.6788 8.27802 15.2735 8.37769 15.8565V15.8565Z" fill="#0D0D0D"/>
<path d="M7.30755 14.0209C7.52568 14.0355 7.78413 14.058 8.06375 14.0839C7.96088 13.4892 7.86653 12.8943 7.80078 12.3108C7.4968 12.2791 7.21842 12.2564 6.98975 12.2527C7.06949 12.8343 7.18378 13.4277 7.30755 14.0209V14.0209Z" fill="#2D2C2E"/>
<path d="M6.98996 12.2527C7.21864 12.2564 7.49702 12.2791 7.801 12.3108C7.76804 12.0191 7.74235 11.7301 7.72622 11.4456C7.41559 11.4128 7.13163 11.3908 6.89941 11.3906C6.91891 11.6741 6.95009 11.9619 6.98996 12.2527V12.2527Z" fill="#4C4B4E"/>
<path d="M6.89949 11.3908C7.13171 11.391 7.41567 11.4129 7.7263 11.4457C7.71017 11.1611 7.70371 10.881 7.70947 10.6063C7.39804 10.575 7.11319 10.5542 6.87965 10.5555C6.87238 10.8285 6.88008 11.1074 6.89949 11.3908H6.89949Z" fill="#565558"/>
<path d="M8.06374 14.0838C8.34327 14.1099 8.64389 14.1389 8.9461 14.1666C8.87558 13.5834 8.81117 13.0003 8.76554 12.4238C8.43435 12.3834 8.10477 12.3425 7.80078 12.3108C7.86652 12.8943 7.96088 13.4892 8.06374 14.0838V14.0838Z" fill="#29292A"/>
<path d="M7.80085 12.3108C8.10484 12.3425 8.43443 12.3835 8.76561 12.4239C8.74284 12.1356 8.72477 11.849 8.71289 11.5652C8.374 11.5219 8.0367 11.4783 7.72607 11.4456C7.7422 11.7301 7.76789 12.0191 7.80085 12.3108Z" fill="#464547"/>
<path d="M7.72642 11.4456C8.03705 11.4784 8.37435 11.522 8.71324 11.5652C8.70146 11.2813 8.69588 10.9999 8.69818 10.7219C8.35876 10.6799 8.02093 10.6377 7.70959 10.6062C7.70383 10.8809 7.7103 11.161 7.72642 11.4456V11.4456Z" fill="#4F4E50"/>
<path d="M9.34084 17.6082C9.82955 17.6344 10.3249 17.6494 10.7566 17.6647C10.7434 17.3824 10.7306 17.1 10.7184 16.8177C10.2841 16.8033 9.76966 16.7902 9.26172 16.7661C9.29184 17.0498 9.31878 17.3307 9.34084 17.6082Z" fill="black"/>
<path d="M9.26201 16.7663C9.76995 16.7904 10.2844 16.8035 10.7187 16.8179C10.7064 16.5354 10.6948 16.253 10.6837 15.9705C10.2424 15.9587 9.69969 15.9386 9.16357 15.9087C9.19857 16.1966 9.23197 16.4828 9.26201 16.7663V16.7663Z" fill="#030303"/>
<path d="M9.16336 15.9088C9.69947 15.9387 10.2422 15.9588 10.6835 15.9706C10.6613 15.4057 10.6414 14.8405 10.6241 14.2752C10.1618 14.2709 9.55071 14.222 8.94629 14.1667C9.01673 14.7499 9.09336 15.3329 9.16336 15.9088V15.9088Z" fill="#0A0A0A"/>
<path d="M8.94668 14.1668C9.24889 14.1945 9.55279 14.2205 9.83887 14.2402C9.80069 13.6707 9.76622 13.101 9.7407 12.533C9.43025 12.5038 9.09739 12.4643 8.76611 12.4241C8.81174 13.0005 8.87615 13.5837 8.94668 14.1668Z" fill="#212021"/>
<path d="M8.76561 12.4239C9.09688 12.4641 9.42975 12.5036 9.7402 12.5329C9.72753 12.2488 9.71699 11.9653 9.70945 11.6825C9.39236 11.6511 9.05178 11.6084 8.71289 11.5652C8.72476 11.8491 8.74284 12.1356 8.76561 12.4239V12.4239Z" fill="#373637"/>
<path d="M8.71284 11.5652C9.05173 11.6084 9.3923 11.6512 9.7094 11.6825C9.70187 11.3995 9.69726 11.1174 9.6962 10.836C9.37831 10.8057 9.03729 10.7639 8.69778 10.7219C8.69547 10.9999 8.70105 11.2813 8.71284 11.5652H8.71284Z" fill="#3F3D3F"/>
<path d="M9.8384 14.2401C10.1245 14.2598 10.3929 14.273 10.624 14.2752C10.6067 13.7099 10.5922 13.1445 10.5806 12.579C10.3388 12.5807 10.0508 12.562 9.74023 12.533C9.76575 13.1009 9.80022 13.6706 9.8384 14.2401V14.2401Z" fill="#171617"/>
<path d="M9.74023 12.5328C10.0508 12.5619 10.3388 12.5805 10.5806 12.5789C10.569 12.0132 10.5604 11.4476 10.5553 10.882C10.3087 10.8854 10.0141 10.8664 9.69629 10.8359C9.69842 11.3985 9.71481 11.9649 9.74023 12.5328Z" fill="#272626"/>
<path d="M10.7568 17.6651C11.1084 17.6785 11.6414 17.5892 12.2648 17.4471C12.2498 16.8829 12.212 16.3313 12.1637 15.7859C11.5634 15.9057 11.0433 15.9812 10.6836 15.9707C10.7058 16.5356 10.7304 17.1005 10.7568 17.6651Z" fill="black"/>
<path d="M10.6834 15.9704C11.0431 15.9809 11.5632 15.9054 12.1635 15.7856C12.1151 15.2402 12.0561 14.7008 11.9986 14.1614C11.4757 14.2328 11.0015 14.2789 10.624 14.275C10.6413 14.8402 10.6612 15.4055 10.6834 15.9704Z" fill="#050505"/>
<path d="M12.2646 17.4469C12.2344 16.3187 12.1138 15.2403 11.9985 14.1615C12.5214 14.0899 13.0926 13.9931 13.6638 13.8955C14.0029 14.8405 14.336 15.7846 14.3162 16.9111C13.6023 17.1097 12.8882 17.3048 12.2646 17.4469V17.4469Z" fill="#050505"/>
<path d="M10.624 14.2752C11.0014 14.2791 11.4757 14.2331 11.9985 14.1616C11.9409 13.6221 11.8847 13.0825 11.8417 12.5364C11.4011 12.5596 10.9756 12.5764 10.5806 12.5791C10.5922 13.1445 10.6067 13.71 10.624 14.2752Z" fill="#101010"/>
<path d="M10.5805 12.5789C10.9756 12.5762 11.401 12.5594 11.8416 12.5362C11.7987 11.9901 11.7691 11.4376 11.7647 10.8723C11.3615 10.8732 10.9583 10.8764 10.5552 10.8821C10.5603 11.4477 10.5689 12.0133 10.5805 12.5789V12.5789Z" fill="#1C1A1A"/>
<path d="M11.9989 14.1616C11.8836 13.0827 11.7738 12.0032 11.7651 10.8725C12.1684 10.8714 12.5716 10.8725 12.9748 10.8757C12.9796 12.0051 13.3249 12.9508 13.6641 13.8957C13.0929 13.9933 12.5217 14.0901 11.9989 14.1616V14.1616Z" fill="#0D0C0C"/>
<path d="M14.3162 16.911C15.0302 16.7124 15.744 16.5104 16.367 16.3544C16.4018 15.7922 16.2829 15.3107 16.0849 14.8691C15.4851 14.9994 14.8049 15.1686 14.1245 15.3352C14.2478 15.8301 14.326 16.3479 14.3162 16.911Z" fill="#101010"/>
<path d="M14.1249 15.3354C14.8052 15.1688 15.4855 14.9996 16.0853 14.8694C15.8873 14.428 15.6102 14.0268 15.3288 13.6252C14.8063 13.6998 14.2352 13.7982 13.6641 13.8957C13.8336 14.3682 14.0017 14.8405 14.1249 15.3354V15.3354Z" fill="#0F0E0E"/>
<path d="M16.367 16.3546C16.99 16.1986 17.5221 16.0888 17.8726 16.0746C17.9189 15.5129 17.7869 15.0504 17.563 14.6377C17.2042 14.648 16.6848 14.7392 16.085 14.8693C16.2829 15.3109 16.4018 15.7923 16.367 16.3546V16.3546Z" fill="#1C1A1A"/>
<path d="M16.0851 14.8693C16.6849 14.7393 17.2043 14.648 17.5631 14.6377C17.3392 14.2248 17.0233 13.8614 16.7017 13.4978C16.325 13.5001 15.8511 13.5508 15.3286 13.6252C15.61 14.0267 15.8871 14.4279 16.0851 14.8693Z" fill="#181616"/>
<path d="M13.6639 13.8956C14.235 13.7981 14.8061 13.6998 15.3286 13.6252C15.0472 13.2238 14.7613 12.8221 14.5456 12.3796C14.1052 12.3986 13.6495 12.4261 13.1938 12.4548C13.3231 12.9506 13.4943 13.4232 13.6639 13.8956V13.8956Z" fill="#0D0C0C"/>
<path d="M13.1939 12.4547C13.6496 12.426 14.1052 12.3985 14.5457 12.3796C14.33 11.9373 14.1846 11.4542 14.1842 10.89C13.781 10.8835 13.3778 10.8785 12.9746 10.8755C12.977 11.4402 13.0645 11.9589 13.1939 12.4547V12.4547Z" fill="#0B0A0A"/>
<path d="M15.3289 13.6252C15.8514 13.5508 16.3253 13.5001 16.7021 13.4978C16.3805 13.1342 16.0532 12.7704 15.8064 12.3565C15.4116 12.3504 14.9863 12.3607 14.5459 12.3797C14.7615 12.8221 15.0475 13.2238 15.3289 13.6252Z" fill="#0F0E0E"/>
<path d="M14.5456 12.3797C14.986 12.3607 15.4113 12.3504 15.8061 12.3565C15.5593 11.9425 15.3929 11.4786 15.3934 10.9148C14.9903 10.9052 14.5872 10.8969 14.1841 10.8901C14.1844 11.4543 14.3299 11.9374 14.5456 12.3797V12.3797Z" fill="#070606"/>
<path d="M17.8729 16.0747C19.0978 16.0247 19.6333 16.3571 20.148 16.5816C20.2411 16.1744 20.272 15.7817 20.2613 15.3974C19.6071 15.1424 18.9244 14.7932 17.6611 14.835C17.824 15.1975 17.9119 15.6006 17.8729 16.0747V16.0747Z" fill="#211F1F"/>
<path d="M17.6611 14.8348C18.9244 14.793 19.6071 15.1422 20.2612 15.3972C20.2505 15.0127 20.1983 14.6369 20.1252 14.2628C19.259 14.0713 18.3468 13.8156 16.999 13.84C17.2602 14.1508 17.4982 14.4724 17.6611 14.8348V14.8348Z" fill="#1D1B1B"/>
<path d="M16.9993 13.84C18.3471 13.8156 19.2593 14.0713 20.1255 14.2628C19.9794 13.5151 19.7501 12.7756 19.603 11.9947C18.356 11.9415 17.038 11.868 15.5674 11.8669C15.8615 12.6406 16.4769 13.2184 16.9993 13.84V13.84Z" fill="#141313"/>
<path d="M20.1479 16.5815C20.6627 16.8058 21.1567 16.9222 22.2985 16.4404C22.4457 16.0999 22.5764 15.7506 22.6896 15.3936C21.5408 15.8128 20.9153 15.6521 20.2612 15.3973C20.2719 15.7816 20.2411 16.1743 20.1479 16.5815V16.5815Z" fill="#191717"/>
<path d="M20.2615 15.3974C20.9156 15.6522 21.5411 15.8129 22.6899 15.3936C22.8031 15.0368 22.899 14.6721 22.9765 14.3007C21.8122 14.5819 20.9918 14.4545 20.1255 14.2629C20.1986 14.637 20.2508 15.0128 20.2615 15.3974V15.3974Z" fill="#161515"/>
<path d="M20.1251 14.2628C20.9914 14.4543 21.8118 14.5817 22.9761 14.3005C23.1311 13.5579 23.2124 12.7883 23.2124 11.9999C22.0256 12.0804 20.8496 12.0478 19.6025 11.9946C19.7496 12.7755 19.979 13.515 20.1251 14.2628V14.2628Z" fill="#0F0E0E"/>
<path d="M15.5671 11.8671C18.5084 11.869 20.839 12.1612 23.2126 12.0001C23.2126 11.7143 23.2023 11.4308 23.1804 11.1499C20.9416 11.114 18.2743 10.9841 15.3936 10.9148C15.3934 11.2671 15.4581 11.5805 15.5671 11.8671Z" fill="#020202"/>
<path d="M0.818848 11.1489C1.96639 11.1308 1.12877 11.2977 2.473 11.241C2.51836 10.1654 3.35491 8.63672 3.5415 7.58203C2.30129 7.75764 2.38688 8.29703 1.34247 8.50488C1.0671 9.3464 0.887601 10.2326 0.818848 11.1489V11.1489Z" fill="black"/>
<path d="M2.47266 11.241C2.49534 10.7032 2.71586 10.0522 2.95393 9.40363C3.07309 9.39299 3.21033 9.37722 3.36122 9.35791C3.13254 10.0068 2.92558 10.6598 2.90325 11.1997C2.74191 11.2212 2.5967 11.2357 2.47266 11.241V11.241Z" fill="black"/>
<path d="M2.90332 11.1996C2.92565 10.6597 3.13262 10.0067 3.36129 9.35784C3.51226 9.33835 3.67688 9.31513 3.8508 9.28979C3.63497 9.92647 3.45175 10.5711 3.43022 11.1169C3.24195 11.1498 3.06457 11.1782 2.90332 11.1996V11.1996Z" fill="#040404"/>
<path d="M3.43018 11.1169C3.45171 10.5711 3.63493 9.92648 3.85076 9.28981C4.19851 9.23877 4.58365 9.17853 4.97101 9.11987C4.7869 9.71065 4.66817 10.3215 4.64904 10.8844C4.22677 10.9672 3.80663 11.051 3.43018 11.1169V11.1169Z" fill="#0E0E0E"/>
<path d="M2.9541 9.40359C3.19226 8.75522 3.44804 8.10933 3.54134 7.58199C3.65563 7.56586 3.79385 7.55222 3.95005 7.54053C3.84063 8.06415 3.59016 8.70897 3.36139 9.35788C3.21051 9.37719 3.07327 9.39296 2.9541 9.40359Z" fill="black"/>
<path d="M3.36133 9.35779C3.59009 8.70889 3.84056 8.06407 3.94998 7.54044C4.10618 7.52858 4.28046 7.51883 4.46696 7.5105C4.31501 8.0242 4.06658 8.6529 3.85084 9.28975C3.67692 9.31509 3.5123 9.3383 3.36133 9.35779V9.35779Z" fill="#040404"/>
<path d="M3.85107 9.28963C4.06681 8.65278 4.31525 8.02408 4.46719 7.51038C4.84011 7.49354 5.26202 7.48274 5.68614 7.47388C5.40519 7.95763 5.15552 8.52874 4.97132 9.1197C4.58397 9.17835 4.19883 9.2386 3.85107 9.28963V9.28963Z" fill="#0D0D0D"/>
<path d="M4.64941 10.8844C4.66855 10.3214 4.78727 9.71062 4.97138 9.11984C5.35883 9.06118 5.74849 9.00395 6.10554 8.95947C5.9528 9.50312 5.89849 10.0785 5.88183 10.6588C5.49633 10.7201 5.07177 10.8016 4.64941 10.8844Z" fill="#2D2C2E"/>
<path d="M5.88184 10.6589C5.89849 10.0786 5.9528 9.5032 6.10555 8.95956C6.28399 8.93723 6.45436 8.9181 6.61216 8.90356C6.47217 9.43339 6.44143 9.99865 6.42566 10.5846C6.25759 10.6027 6.07463 10.6282 5.88184 10.6589V10.6589Z" fill="#4C4B4E"/>
<path d="M6.42529 10.5847C6.44106 9.99866 6.47181 9.4334 6.61179 8.90357C6.76959 8.88886 6.9148 8.87876 7.04318 8.87451C6.91241 9.40239 6.89496 9.96712 6.87945 10.5554C6.74646 10.5561 6.59337 10.5668 6.42529 10.5847V10.5847Z" fill="#565558"/>
<path d="M4.97119 9.11987C5.15539 8.52892 5.40506 7.9578 5.68601 7.47405C6.11022 7.4652 6.53674 7.45846 6.91905 7.44995C6.50901 7.90376 6.25801 8.41586 6.10535 8.95951C5.7483 9.00398 5.35864 9.06122 4.97119 9.11987Z" fill="#29292A"/>
<path d="M6.10498 8.95939C6.25764 8.41575 6.50864 7.90364 6.91868 7.44984C7.10987 7.44559 7.28999 7.44098 7.45319 7.4353C7.00063 7.87918 6.75149 8.37357 6.61159 8.90339C6.4538 8.91793 6.28342 8.93706 6.10498 8.95939V8.95939Z" fill="#464547"/>
<path d="M6.6123 8.90346C6.7522 8.37364 7.00134 7.87925 7.45391 7.43537C7.61711 7.42987 7.76347 7.42332 7.88716 7.41553C7.41847 7.85569 7.17447 8.34653 7.04369 8.8744C6.91531 8.87865 6.7701 8.88875 6.6123 8.90346V8.90346Z" fill="#4F4E50"/>
<path d="M6.87939 10.5555C7.11294 10.5542 7.39779 10.5749 7.70921 10.6063C7.7163 10.3109 7.7249 10.0189 7.74634 9.73255C7.43598 9.70561 7.15157 9.68896 6.91802 9.69232C6.89534 9.97301 6.8871 10.2613 6.87939 10.5555Z" fill="#5A595C"/>
<path d="M6.91846 9.69233C6.94114 9.41164 6.97817 9.13841 7.04356 8.87456C7.16033 8.87031 7.28871 8.87047 7.42586 8.87383C7.36243 9.1414 7.3261 9.41783 7.30377 9.70099C7.16476 9.6939 7.03523 9.69054 6.91846 9.69232V9.69233Z" fill="#58575A"/>
<path d="M7.30322 9.70094C7.32555 9.41778 7.36188 9.14135 7.42531 8.87378C7.56246 8.87732 7.7083 8.88405 7.85998 8.89292C7.80186 9.16563 7.76766 9.44613 7.74622 9.73248C7.59099 9.71902 7.44232 9.70821 7.30322 9.70094V9.70094Z" fill="#565557"/>
<path d="M7.70947 10.6062C8.02081 10.6377 8.35864 10.6799 8.69806 10.7219C8.70382 10.4237 8.71304 10.1269 8.73129 9.83342C8.39346 9.79639 8.05705 9.75936 7.7466 9.73242C7.72516 10.0188 7.71656 10.3108 7.70947 10.6062Z" fill="#535154"/>
<path d="M7.74658 9.73239C8.05703 9.75932 8.39344 9.79636 8.73127 9.83339C8.74952 9.53977 8.77672 9.2497 8.81846 8.96476C8.49073 8.93748 8.16379 8.91072 7.86034 8.89282C7.80222 9.16553 7.76802 9.44604 7.74658 9.73239V9.73239Z" fill="#504F51"/>
<path d="M7.04346 8.87438C7.17423 8.3465 7.41823 7.85566 7.88692 7.4155C8.00378 7.4077 8.12056 7.40008 8.23733 7.39282C7.78805 7.83918 7.55264 8.33871 7.42576 8.87367C7.28861 8.87029 7.16023 8.87013 7.04346 8.87439V8.87438Z" fill="#525154"/>
<path d="M7.42578 8.87363C7.55266 8.33867 7.78806 7.83914 8.23735 7.39278C8.35413 7.38534 8.47072 7.37825 8.58741 7.37134C8.18915 7.83418 7.97678 8.34753 7.86045 8.89277C7.70877 8.88391 7.56293 8.87718 7.42578 8.87363V8.87363Z" fill="#504F51"/>
<path d="M7.86035 8.89286C8.1638 8.91075 8.49074 8.93752 8.81846 8.96481C8.8602 8.67987 8.91637 8.40007 8.99256 8.12754C8.69575 8.11602 8.39904 8.10557 8.11809 8.10132C8.00069 8.3556 7.91856 8.62033 7.86035 8.89286Z" fill="#49484A"/>
<path d="M8.11816 8.10134C8.39911 8.10559 8.69583 8.11606 8.99264 8.12757C9.06883 7.85486 9.16496 7.58941 9.28652 7.33301C9.05368 7.34469 8.82067 7.35764 8.58739 7.37146C8.38821 7.60288 8.23565 7.84688 8.11816 8.10134Z" fill="#404041"/>
<path d="M8.69824 10.722C9.03775 10.764 9.37877 10.8058 9.69667 10.8361C9.70101 10.535 9.71013 10.234 9.72413 9.93397C9.40836 9.90721 9.06921 9.87035 8.73147 9.8335C8.71322 10.1269 8.704 10.4237 8.69824 10.722V10.722Z" fill="#424042"/>
<path d="M8.73145 9.83347C9.06919 9.87033 9.40834 9.90719 9.72411 9.93394C9.7382 9.63395 9.75716 9.33537 9.78099 9.03909C9.4747 9.0196 9.14627 8.99195 8.81863 8.96484C8.7769 9.24978 8.7497 9.53985 8.73145 9.83347V9.83347Z" fill="#3D3C3E"/>
<path d="M9.69629 10.836C10.0141 10.8664 10.3087 10.8854 10.5553 10.882C10.5589 10.5795 10.5664 10.2762 10.5763 9.973C10.3319 9.9769 10.0395 9.96061 9.72375 9.93384C9.70976 10.2338 9.70063 10.5349 9.69629 10.836Z" fill="#2F2D2D"/>
<path d="M9.72363 9.93391C10.0394 9.96067 10.3318 9.97697 10.5761 9.97308C10.5859 9.66989 10.5979 9.36688 10.6106 9.06493C10.3712 9.07007 10.0869 9.05855 9.78051 9.03906C9.75668 9.33534 9.73772 9.63392 9.72363 9.93391Z" fill="#292828"/>
<path d="M8.81836 8.9647C9.146 8.99181 9.47444 9.01946 9.78072 9.03895C9.80465 8.74267 9.83353 8.44888 9.86746 8.15881C9.58616 8.151 9.28926 8.13878 8.99246 8.12744C8.91626 8.39997 8.86009 8.67977 8.81836 8.9647V8.9647Z" fill="#343334"/>
<path d="M8.99268 8.12766C9.28948 8.139 9.58638 8.15123 9.86768 8.15902C9.90162 7.86895 9.9406 7.58259 9.98472 7.30103C9.75215 7.31059 9.51949 7.32123 9.28656 7.3331C9.165 7.58951 9.06887 7.85495 8.99268 8.12766Z" fill="#292829"/>
<path d="M9.78076 9.03908C9.80468 8.7428 9.83357 8.44901 9.8675 8.15894C10.0082 8.16284 10.145 8.16567 10.2759 8.16674C10.2567 8.46266 10.2379 8.76124 10.2209 9.06124C10.0816 9.05663 9.93395 9.04882 9.78076 9.03909V9.03908Z" fill="#1D1C1D"/>
<path d="M10.2212 9.06115C10.2382 8.76115 10.257 8.46257 10.2762 8.16665C10.4072 8.16774 10.5323 8.16701 10.6496 8.16382C10.6372 8.4624 10.6238 8.76293 10.6111 9.06487C10.4914 9.06736 10.3605 9.06596 10.2212 9.06115V9.06115Z" fill="#151414"/>
<path d="M9.86768 8.15896C9.90161 7.86888 9.94059 7.58253 9.98472 7.30096C10.101 7.29635 10.2173 7.29192 10.3334 7.28784C10.3149 7.57756 10.2953 7.87082 10.2761 8.16675C10.1452 8.16566 10.0084 8.16284 9.86768 8.15894V8.15896Z" fill="#111011"/>
<path d="M10.2764 8.16661C10.2956 7.87069 10.3152 7.57743 10.3337 7.28771C10.4499 7.28346 10.5662 7.27974 10.6823 7.27637C10.6735 7.56928 10.662 7.86537 10.6497 8.16378C10.5324 8.16697 10.4073 8.16768 10.2764 8.16661V8.16661Z" fill="#090808"/>
<path d="M10.5552 10.882C10.9583 10.8763 11.3615 10.8731 11.7647 10.8722C11.7677 10.5717 11.7683 10.2685 11.7678 9.96442C11.3706 9.96388 10.9733 9.96655 10.5762 9.97293C10.5663 10.2761 10.5588 10.5795 10.5552 10.882L10.5552 10.882Z" fill="#211F1F"/>
<path d="M10.5767 9.97302C10.9738 9.96665 11.371 9.96398 11.7683 9.96451C11.768 9.66044 11.7664 9.35548 11.7652 9.05176C11.3798 9.05248 10.9949 9.05689 10.6111 9.06488C10.5985 9.36682 10.5864 9.66983 10.5767 9.97302H10.5767Z" fill="#1C1A1A"/>
<path d="M11.7651 10.8724C11.7711 10.2715 11.7674 9.65931 11.7651 9.05187C12.1505 9.05114 12.5364 9.05399 12.9219 9.06038C12.9505 9.66923 12.9776 10.2836 12.9748 10.8756C12.5716 10.8724 12.1684 10.8714 11.7651 10.8724Z" fill="#141312"/>
<path d="M10.6108 9.06498C10.9947 9.05701 11.3795 9.05257 11.7649 9.05186C11.7638 8.74832 11.763 8.44584 11.7638 8.14673C11.3916 8.14854 11.0197 8.15417 10.6494 8.16391C10.6369 8.46249 10.6236 8.76302 10.6109 9.06497L10.6108 9.06498Z" fill="#101010"/>
<path d="M10.6494 8.16388C11.0198 8.15414 11.3916 8.14846 11.7639 8.1467C11.7648 7.84759 11.7674 7.55184 11.7729 7.26123C11.41 7.26106 11.0463 7.26603 10.682 7.27648C10.6732 7.56939 10.6617 7.86549 10.6494 8.16389L10.6494 8.16388Z" fill="#050505"/>
<path d="M11.7647 9.05182C11.7623 8.44456 11.7614 7.84226 11.7725 7.26123C12.1355 7.26159 12.4979 7.26708 12.8596 7.27736C12.8628 7.84777 12.8928 8.4513 12.9214 9.06033C12.5359 9.05395 12.1501 9.05112 11.7647 9.05182L11.7647 9.05182Z" fill="#0D0D0C"/>
<path d="M12.9746 10.8756C13.3778 10.8786 13.781 10.8836 14.1841 10.8901C14.184 10.5986 14.171 10.3001 14.1512 9.99829C13.7543 9.98836 13.3572 9.98022 12.96 9.97437C12.97 10.2781 12.976 10.5795 12.9746 10.8756L12.9746 10.8756Z" fill="#0A0909"/>
<path d="M12.9602 9.97429C13.3573 9.98013 13.7545 9.98828 14.1514 9.99822C14.1315 9.69662 14.1047 9.39202 14.0768 9.08901C13.6926 9.07607 13.3075 9.0665 12.9219 9.0603C12.9362 9.36473 12.9501 9.67057 12.9602 9.97429V9.97429Z" fill="#0B0B0A"/>
<path d="M14.1843 10.8901C14.5875 10.8969 14.9906 10.9052 15.3936 10.9148C15.3929 10.6252 15.3722 10.33 15.3411 10.0325C14.9449 10.0199 14.5482 10.0082 14.1514 9.99829C14.1712 10.3001 14.1841 10.5986 14.1843 10.8901V10.8901Z" fill="#030202"/>
<path d="M14.1513 9.99807C14.5481 10.008 14.9448 10.0197 15.341 10.0323C15.3099 9.73458 15.2681 9.43494 15.2251 9.13671C14.8438 9.11757 14.4608 9.10163 14.0767 9.08887C14.1046 9.39188 14.1314 9.69648 14.1513 9.99807V9.99807Z" fill="#080707"/>
<path d="M12.9218 9.06031C13.3074 9.06652 13.6926 9.07608 14.0767 9.08902C14.0488 8.78583 14.0198 8.48424 13.9957 8.18832C13.6254 8.17255 13.2536 8.16121 12.8813 8.1543C12.8929 8.4527 12.9076 8.75571 12.9218 9.06031V9.06031Z" fill="#0F0F0F"/>
<path d="M12.8812 8.1543C13.2535 8.16121 13.6253 8.17255 13.9955 8.18832C13.9713 7.89258 13.9519 7.6025 13.9433 7.32253C13.5827 7.30286 13.2216 7.28762 12.8599 7.27734C12.8615 7.56263 12.8698 7.85607 12.8812 8.1543V8.1543Z" fill="#131313"/>
<path d="M14.0767 9.08918C14.4608 9.10193 14.8439 9.11788 15.2251 9.13702C15.182 8.8388 15.1376 8.54199 15.1008 8.2505C14.7346 8.22498 14.3659 8.20442 13.9956 8.18848C14.0198 8.4844 14.0488 8.78599 14.0767 9.08918V9.08918Z" fill="#131213"/>
<path d="M13.9956 8.1883C14.3659 8.20425 14.7346 8.22481 15.1008 8.25032C15.0641 7.95866 15.0352 7.6723 15.0232 7.39481C14.6638 7.36646 14.3039 7.34218 13.9434 7.32251C13.9521 7.60248 13.9714 7.89256 13.9956 8.1883Z" fill="#1E1E1E"/>
<path d="M15.3934 10.9145C16.8337 10.9491 18.2207 10.9988 19.5275 11.0446C19.5186 10.7853 19.4819 10.5163 19.4291 10.2436C18.1266 10.1593 16.7561 10.0771 15.3408 10.0322C15.3719 10.3297 15.3926 10.625 15.3934 10.9145V10.9145Z" fill="black"/>
<path d="M15.341 10.0325C16.7563 10.0774 18.1268 10.1596 19.4293 10.2439C19.3766 9.97104 19.3079 9.69443 19.2354 9.41959C17.9309 9.30388 16.5852 9.20465 15.2251 9.13696C15.2682 9.43519 15.3099 9.73483 15.341 10.0325V10.0325Z" fill="#070607"/>
<path d="M15.2254 9.13701C15.9054 9.17086 16.5818 9.21268 17.2514 9.26034C17.1859 8.9731 17.1183 8.68764 17.0619 8.40695C16.4081 8.34777 15.7535 8.29567 15.1011 8.25049C15.1378 8.54198 15.1823 8.83879 15.2254 9.13701V9.13701Z" fill="#151515"/>
<path d="M15.1006 8.25029C15.753 8.29547 16.4076 8.34757 17.0614 8.40676C17.0048 8.12625 16.9595 7.85088 16.9386 7.58384C16.3013 7.50889 15.6628 7.44528 15.0229 7.39478C15.0349 7.67227 15.0639 7.95862 15.1006 8.25029V8.25029Z" fill="#232323"/>
<path d="M17.251 9.26013C17.9205 9.30797 18.583 9.36166 19.2353 9.41943C19.1627 9.14459 19.0861 8.87171 19.0175 8.60662C18.3683 8.53255 17.7153 8.4661 17.0615 8.40674C17.118 8.68742 17.1856 8.97289 17.251 9.26013V9.26013Z" fill="#141314"/>
<path d="M17.0618 8.4069C17.7155 8.46626 18.3685 8.53271 19.0178 8.60678C18.9493 8.34169 18.8888 8.08422 18.8483 7.84021C18.2126 7.74488 17.5763 7.65876 16.939 7.58398C16.9599 7.85102 17.0052 8.12639 17.0618 8.4069Z" fill="#212021"/>
<path d="M19.5275 11.0448C20.8344 11.0906 22.0609 11.132 23.1802 11.1499C23.1634 10.9208 23.1395 10.6936 23.1088 10.4686C21.9661 10.4147 20.7317 10.3281 19.4292 10.2439C19.4819 10.5166 19.5187 10.7856 19.5275 11.0448V11.0448Z" fill="black"/>
<path d="M19.4293 10.2438C20.7318 10.3279 21.9662 10.4146 23.1089 10.4684C23.0783 10.2434 23.0409 10.0205 22.997 9.80006C21.8026 9.66698 20.5397 9.53497 19.2354 9.41943C19.3079 9.69427 19.3766 9.97088 19.4293 10.2438V10.2438Z" fill="#050505"/>
<path d="M19.2354 9.4195C19.8875 9.47727 20.5293 9.53911 21.1574 9.60325C21.0922 9.34862 21.0212 9.09611 20.9515 8.85211C20.3125 8.76245 19.6669 8.68076 19.0176 8.60669C19.0862 8.87178 19.1627 9.14466 19.2354 9.4195Z" fill="#100F10"/>
<path d="M19.0176 8.60665C19.667 8.68072 20.3126 8.76241 20.9516 8.85207C20.8819 8.60807 20.8136 8.37257 20.7535 8.15161C20.1187 8.03997 19.4838 7.93542 18.8481 7.84009C18.8886 8.08409 18.9491 8.34156 19.0176 8.60665V8.60665Z" fill="#1B1A1B"/>
<path d="M21.1576 9.6032C21.7856 9.66716 22.4 9.73344 22.9972 9.80006C22.9532 9.57945 22.9028 9.36114 22.8462 9.14549C22.2231 9.03935 21.5907 8.94171 20.9517 8.85205C21.0214 9.09605 21.0924 9.34856 21.1576 9.6032V9.6032Z" fill="#090909"/>
<path d="M20.9515 8.85208C21.5906 8.94174 22.223 9.03938 22.846 9.14552C22.7893 8.92987 22.7263 8.7167 22.6574 8.50636C22.0227 8.38232 21.3882 8.26342 20.7534 8.15161C20.8136 8.37258 20.8819 8.60807 20.9515 8.85208V8.85208Z" fill="#100F10"/>
<path d="M1.34229 8.50501C1.86449 8.40099 2.10424 8.21422 2.36835 8.03153C2.4208 7.81623 2.52083 7.60714 2.64655 7.40283C2.33974 7.60679 2.05737 7.81641 1.54491 7.9385C1.47253 8.12491 1.40484 8.31381 1.34229 8.50501V8.50501Z" fill="black"/>
<path d="M1.54492 7.93822C2.05738 7.81613 2.33975 7.6065 2.64656 7.40255C2.7722 7.19806 2.92353 6.99818 3.07858 6.80078C2.66101 7.00793 2.26763 7.22446 1.7767 7.3866C1.69465 7.56788 1.6174 7.75181 1.54492 7.93822V7.93822Z" fill="black"/>
<path d="M1.77686 7.38659C2.26778 7.22446 2.66117 7.00792 3.07873 6.80077C3.23369 6.60337 3.39229 6.40863 3.53263 6.2146C3.00741 6.42493 2.50612 6.64838 2.03663 6.85057C1.94546 7.02652 1.85881 7.20532 1.77686 7.38659Z" fill="black"/>
<path d="M2.03613 6.85059C2.50562 6.64841 3.00691 6.42496 3.53213 6.21462C3.67247 6.02077 3.79447 5.82744 3.87625 5.63306C3.31754 5.8643 2.78285 6.11061 2.32311 6.33087C2.22299 6.50133 2.1273 6.67463 2.03613 6.85059Z" fill="black"/>
<path d="M2.36816 8.03136C2.63237 7.84849 2.92102 7.66988 3.54113 7.58199C3.58339 7.3426 3.71567 7.11755 3.89429 6.90137C3.28428 7.00042 2.9531 7.19871 2.64637 7.40266C2.52064 7.60697 2.42061 7.81607 2.36816 8.03136Z" fill="black"/>
<path d="M2.64648 7.40274C2.95322 7.19879 3.2844 7.0005 3.8944 6.90145C4.07302 6.68509 4.29797 6.47723 4.5255 6.27222C3.93773 6.39625 3.49597 6.59383 3.07849 6.80097C2.92345 6.99837 2.77212 7.19826 2.64648 7.40274V7.40274Z" fill="#040404"/>
<path d="M3.07861 6.80067C3.49609 6.59352 3.93785 6.39595 4.52562 6.27191C4.75323 6.06671 4.98341 5.86417 5.17257 5.65845C4.60704 5.80747 4.05781 6.00434 3.53251 6.21449C3.39217 6.40853 3.23357 6.60327 3.07861 6.80067V6.80067Z" fill="#0E0D0E"/>
<path d="M3.53271 6.21468C4.05802 6.00452 4.60725 5.80766 5.17278 5.65863C5.36202 5.45273 5.51016 5.24363 5.57351 5.02515C5.01808 5.18551 4.43545 5.40187 3.87683 5.63311C3.79506 5.8275 3.67306 6.02082 3.53271 6.21468V6.21468Z" fill="#171617"/>
<path d="M3.5415 7.58205C3.58377 7.34265 3.71604 7.11761 3.89466 6.90143C4.00709 6.88318 4.14983 6.86351 4.31542 6.84277C4.14238 7.06445 4.00798 7.29516 3.95021 7.54058C3.79401 7.55227 3.6558 7.56592 3.5415 7.58205V7.58205Z" fill="black"/>
<path d="M3.9502 7.54045C4.00796 7.29503 4.14237 7.06432 4.3154 6.84264C4.48099 6.82209 4.66935 6.80029 4.87313 6.77832C4.70949 7.00761 4.56578 7.24931 4.46717 7.5105C4.28067 7.51883 4.1064 7.52858 3.9502 7.54045Z" fill="#030303"/>
<path d="M3.89453 6.90143C4.11948 6.86492 4.46538 6.82257 4.87302 6.77845C5.03675 6.54898 5.22051 6.33191 5.3993 6.11963C5.04809 6.17421 4.74252 6.22648 4.52562 6.2722C4.2981 6.47721 4.07315 6.68507 3.89453 6.90143Z" fill="#060506"/>
<path d="M4.4668 7.51055C4.83971 7.49371 5.26162 7.4829 5.68574 7.47404C5.90839 7.16501 6.08249 6.89283 6.22133 6.64404C5.74971 6.68781 5.2804 6.73406 4.87276 6.77836C4.70912 7.00766 4.56541 7.24935 4.4668 7.51055V7.51055Z" fill="#0A0A0A"/>
<path d="M4.87305 6.77839C5.28069 6.73409 5.75 6.68783 6.22162 6.64407C6.36045 6.3951 6.4642 6.16989 6.54633 5.95459C6.14719 6.00846 5.75053 6.06498 5.39933 6.11956C5.22053 6.33184 5.03678 6.54891 4.87305 6.77839V6.77839Z" fill="#0D0D0D"/>
<path d="M4.52588 6.2721C4.74277 6.22638 5.04835 6.17411 5.39956 6.11954C5.57835 5.90743 5.75218 5.7001 5.89616 5.49048C5.62867 5.54683 5.38166 5.60371 5.17283 5.65864C4.98367 5.86437 4.75349 6.06691 4.52588 6.2721Z" fill="#121212"/>
<path d="M5.17285 5.65863C5.38168 5.6037 5.6287 5.54681 5.89618 5.49047C6.04006 5.28084 6.15409 5.06891 6.21318 4.84741C5.99302 4.90624 5.77869 4.96614 5.57359 5.02514C5.51024 5.24363 5.3621 5.45272 5.17285 5.65863Z" fill="#1E1E1E"/>
<path d="M5.39941 6.11947C5.75062 6.06489 6.14728 6.00836 6.54642 5.9545C6.62855 5.7392 6.68898 5.53383 6.74134 5.32544C6.45118 5.37824 6.16341 5.43406 5.89601 5.49041C5.75204 5.70004 5.57821 5.90736 5.39941 6.11947Z" fill="#171617"/>
<path d="M5.896 5.49039C6.16339 5.43404 6.45116 5.37822 6.74132 5.32541C6.79368 5.11685 6.83798 4.9051 6.8876 4.67651C6.65919 4.73091 6.43317 4.7885 6.213 4.84733C6.15391 5.06883 6.03988 5.28076 5.896 5.49039V5.49039Z" fill="#201F20"/>
<path d="M5.68604 7.47404C6.11025 7.46518 6.53677 7.45845 6.91907 7.44994C7.26576 7.09306 7.47016 6.79059 7.58419 6.52319C7.16724 6.55845 6.69323 6.6001 6.22162 6.64404C6.08278 6.89283 5.90869 7.165 5.68604 7.47404V7.47404Z" fill="#212121"/>
<path d="M6.22168 6.6441C6.69329 6.60016 7.1673 6.55851 7.58425 6.52325C7.69836 6.25568 7.72211 6.02284 7.70758 5.80542C7.34698 5.84937 6.94554 5.90058 6.5464 5.95462C6.46426 6.16992 6.36051 6.39514 6.22168 6.6441Z" fill="#1F1E1F"/>
<path d="M6.91895 7.45C7.26563 7.09312 7.47003 6.79065 7.58406 6.52326C7.79262 6.50553 7.98683 6.48941 8.15942 6.47559C8.05461 6.75007 7.841 7.06282 7.45346 7.43547C7.29026 7.44113 7.11014 7.44574 6.91895 7.45001V7.45Z" fill="#393839"/>
<path d="M7.45361 7.43547C7.84115 7.06282 8.05476 6.75006 8.15957 6.47558C8.33216 6.46159 8.48314 6.44971 8.60496 6.44067C8.50573 6.71923 8.2899 7.03695 7.88686 7.41562C7.76318 7.42342 7.61681 7.42997 7.45361 7.43547Z" fill="#403F40"/>
<path d="M7.58398 6.52324C8.00102 6.4878 8.361 6.45891 8.60474 6.44066C8.70397 6.16193 8.6866 5.92254 8.62343 5.70068C8.38767 5.72496 8.06791 5.76146 7.70732 5.80541C7.72185 6.02283 7.6981 6.25567 7.58398 6.52324V6.52324Z" fill="#302F30"/>
<path d="M6.54639 5.95473C6.94553 5.90069 7.34697 5.84947 7.70757 5.80553C7.69304 5.58793 7.64014 5.38575 7.60098 5.17896C7.32402 5.22308 7.03147 5.27287 6.7413 5.32568C6.68894 5.53406 6.62852 5.73944 6.54639 5.95473V5.95473Z" fill="#212021"/>
<path d="M6.74121 5.32544C7.03137 5.27264 7.32393 5.22284 7.60089 5.17872C7.56164 4.97193 7.53612 4.76071 7.57626 4.52539C7.34661 4.57111 7.11581 4.62232 6.88749 4.67654C6.83787 4.90513 6.79357 5.11688 6.74121 5.32544V5.32544Z" fill="#252424"/>
<path d="M7.70761 5.80541C7.67855 5.37039 7.49612 4.99615 7.57639 4.5255C7.80613 4.47961 8.03481 4.43921 8.25887 4.40625C8.1872 4.88327 8.49729 5.25698 8.62373 5.70068C8.38796 5.72496 8.06821 5.76146 7.70761 5.80541V5.80541Z" fill="#2C2B2B"/>
<path d="M7.88672 7.41563C8.28976 7.03695 8.50559 6.71924 8.60482 6.44068C8.71991 6.43164 8.8249 6.4258 8.92253 6.42261C8.82906 6.70223 8.62342 7.01906 8.23713 7.39295C8.12036 7.4002 8.00358 7.40782 7.88672 7.41563V7.41563Z" fill="#434243"/>
<path d="M8.2373 7.39283C8.6236 7.01894 8.82924 6.7021 8.92271 6.42248C9.02026 6.41929 9.11027 6.41858 9.19533 6.41966C9.11204 6.69857 8.92953 7.0099 8.58736 7.37139C8.47067 7.3783 8.35408 7.3854 8.2373 7.39283V7.39283Z" fill="#403F40"/>
<path d="M8.60498 6.4407C8.83507 6.42263 9.02521 6.41749 9.19532 6.41979C9.2786 6.14088 9.26274 5.89457 9.20816 5.66333C9.03522 5.66652 8.84588 5.67698 8.62367 5.70072C8.68685 5.92257 8.70421 6.16197 8.60498 6.4407V6.4407Z" fill="#383738"/>
<path d="M8.5874 7.37141C8.82068 7.35758 9.0537 7.34466 9.28654 7.33296C9.49492 7.0094 9.60939 6.71578 9.66557 6.442C9.51557 6.43137 9.36548 6.4218 9.19537 6.41968C9.11209 6.69859 8.92957 7.00993 8.5874 7.37141Z" fill="#393839"/>
<path d="M9.19531 6.41978C9.36542 6.4219 9.51551 6.43148 9.66551 6.44211C9.72177 6.16851 9.71964 5.91477 9.69466 5.67094C9.53775 5.66474 9.38111 5.66031 9.20816 5.66332C9.26274 5.89456 9.2786 6.14087 9.19531 6.41978V6.41978Z" fill="#302F30"/>
<path d="M8.62352 5.70064C8.49708 5.25694 8.18699 4.88323 8.25866 4.40621C8.46935 4.37449 8.68376 4.34543 8.90039 4.31885C8.83491 4.79923 9.09885 5.20094 9.208 5.66325C9.03506 5.66645 8.84572 5.6769 8.62352 5.70064Z" fill="#312F30"/>
<path d="M9.20805 5.66324C9.381 5.66022 9.53764 5.66469 9.69455 5.67086C9.66957 5.42703 9.62181 5.19313 9.58673 4.95923C9.38844 4.96897 9.1906 4.98085 8.98877 4.99786C9.06018 5.21617 9.15348 5.43217 9.20805 5.66324V5.66324Z" fill="#2C2B2B"/>
<path d="M8.98923 4.99775C9.19106 4.98075 9.3889 4.96887 9.58719 4.95912C9.55219 4.72522 9.52978 4.49132 9.55565 4.24731C9.33628 4.26858 9.11744 4.29232 8.9009 4.31873C8.86821 4.55901 8.91782 4.77944 8.98923 4.99775Z" fill="#292829"/>
<path d="M9.28662 7.33309C9.51955 7.32123 9.75221 7.31059 9.98478 7.30102C10.0593 7.01538 10.1061 6.74019 10.1356 6.47262C9.96574 6.465 9.81574 6.45295 9.66565 6.44214C9.60948 6.71591 9.49501 7.00953 9.28662 7.33309Z" fill="#212121"/>
<path d="M9.66553 6.44207C9.81561 6.45288 9.96561 6.46492 10.1355 6.47254C10.165 6.20497 10.1772 5.94485 10.1825 5.68968C10.0086 5.68525 9.8515 5.67711 9.69468 5.6709C9.71966 5.91472 9.72179 6.16847 9.66553 6.44207V6.44207Z" fill="#1F1E1F"/>
<path d="M9.98438 7.30081C10.0589 7.01517 10.1057 6.73998 10.1352 6.47241C10.2201 6.47613 10.3101 6.4788 10.4075 6.47951C10.3875 6.74531 10.3635 7.01447 10.3331 7.28771C10.2169 7.29179 10.1007 7.29622 9.98438 7.30083V7.30081Z" fill="#0A0A0A"/>
<path d="M10.3335 7.28787C10.3639 7.01463 10.3879 6.74547 10.4079 6.47967C10.5053 6.48057 10.6102 6.47931 10.7251 6.47559C10.7101 6.74085 10.6958 7.00807 10.6821 7.27652C10.566 7.2799 10.4497 7.28362 10.3335 7.28786V7.28787Z" fill="#030303"/>
<path d="M10.1353 6.47255C10.3052 6.47999 10.4951 6.483 10.7248 6.47556C10.7397 6.2103 10.755 5.94698 10.7707 5.68579C10.5468 5.69465 10.3561 5.69394 10.1823 5.68969C10.177 5.94486 10.1648 6.20499 10.1353 6.47256V6.47255Z" fill="#0D0D0D"/>
<path d="M9.69474 5.67079C9.85156 5.67699 10.0086 5.68514 10.1826 5.68957C10.1878 5.43423 10.1861 5.18367 10.1879 4.93506C9.9841 4.94232 9.78529 4.94959 9.58691 4.95916C9.622 5.19306 9.66975 5.42696 9.69474 5.67079H9.69474Z" fill="#212021"/>
<path d="M9.5867 4.9591C9.78507 4.94953 9.98389 4.94226 10.1877 4.935C10.1894 4.68621 10.1946 4.43955 10.2135 4.19165C9.99443 4.2076 9.77453 4.2262 9.55516 4.24729C9.52928 4.49129 9.5517 4.7252 9.5867 4.9591Z" fill="#252424"/>
<path d="M10.1821 5.68972C10.356 5.69397 10.5466 5.69468 10.7705 5.68582C10.7862 5.42481 10.8021 5.1661 10.8181 4.9104C10.6 4.92033 10.3912 4.92777 10.1874 4.93521C10.1857 5.18382 10.1874 5.43438 10.1821 5.68972L10.1821 5.68972Z" fill="#171617"/>
<path d="M10.1875 4.93514C10.3913 4.9277 10.6 4.92026 10.8181 4.91033C10.8342 4.65446 10.8501 4.40159 10.866 4.1521C10.6504 4.16273 10.4324 4.17602 10.2134 4.19179C10.1944 4.43969 10.1892 4.68635 10.1875 4.93514Z" fill="#201F20"/>
<path d="M10.6821 7.27639C11.0464 7.26593 11.4101 7.26096 11.7731 7.26114C11.7838 6.99517 11.7933 6.72866 11.8021 6.46304C11.4443 6.46021 11.0854 6.46413 10.7251 6.47545C10.7101 6.74072 10.6958 7.00793 10.6821 7.27639V7.27639Z" fill="black"/>
<path d="M10.7246 6.47568C11.0849 6.46434 11.4438 6.46044 11.8016 6.46327C11.8105 6.19765 11.8187 5.93274 11.8271 5.67013C11.4747 5.66749 11.1223 5.67226 10.7705 5.6859C10.7548 5.94709 10.7395 6.21041 10.7246 6.47568V6.47568Z" fill="#060506"/>
<path d="M11.773 7.26123C12.1359 7.26159 12.4983 7.26708 12.86 7.27736C12.8642 7.01653 12.8685 6.75339 12.8726 6.48972C12.5165 6.47518 12.1598 6.46579 11.802 6.46313C11.7932 6.72876 11.7837 6.99526 11.7729 7.26124L11.773 7.26123Z" fill="#070607"/>
<path d="M11.8023 6.46306C12.16 6.46571 12.5167 6.47511 12.8728 6.48964C12.877 6.22597 12.8809 5.96194 12.8846 5.69951C12.5327 5.68285 12.1802 5.67258 11.8278 5.66992C11.8193 5.93253 11.8111 6.19744 11.8022 6.46306H11.8023Z" fill="#0A0A0A"/>
<path d="M10.771 5.68584C11.1228 5.6722 11.4752 5.66741 11.8276 5.67007C11.836 5.40746 11.8445 5.14681 11.8538 4.88969C11.5073 4.88788 11.1618 4.89466 10.8186 4.91042C10.8026 5.16612 10.7867 5.42483 10.771 5.68584V5.68584Z" fill="#121212"/>
<path d="M10.8184 4.91035C11.1616 4.89459 11.507 4.88785 11.8536 4.88962C11.8628 4.63251 11.8728 4.37876 11.8843 4.12962C11.545 4.12799 11.2054 4.13528 10.8662 4.15212C10.8503 4.40162 10.8344 4.65448 10.8184 4.91035Z" fill="#1E1E1E"/>
<path d="M11.8276 5.67003C12.1801 5.67268 12.5325 5.68297 12.8844 5.69962C12.8882 5.43719 12.8916 5.17618 12.8946 4.91889C12.5476 4.90134 12.2002 4.89142 11.8538 4.88965C11.8445 5.14676 11.836 5.40742 11.8276 5.67003H11.8276Z" fill="#121212"/>
<path d="M11.854 4.88964C12.2004 4.89146 12.5478 4.90135 12.8948 4.91888C12.8978 4.66159 12.9004 4.40784 12.9024 4.15959C12.5635 4.14133 12.2242 4.13106 11.8847 4.12964C11.8732 4.37878 11.8632 4.63253 11.854 4.88964V4.88964Z" fill="#1B1A1B"/>
<path d="M12.8599 7.27739C13.2216 7.28766 13.5827 7.30291 13.9433 7.32258C13.9409 7.06706 13.9401 6.80835 13.9395 6.5484C13.5842 6.5243 13.2286 6.50445 12.8724 6.48975C12.8684 6.75342 12.8641 7.01656 12.8599 7.27739H12.8599Z" fill="#151515"/>
<path d="M12.8726 6.48959C13.2287 6.50431 13.5843 6.52414 13.9396 6.54824C13.9391 6.28847 13.9389 6.02746 13.9382 5.76751C13.5878 5.73916 13.2364 5.71612 12.8844 5.69946C12.8807 5.96189 12.8768 6.22592 12.8726 6.48959H12.8726Z" fill="#151415"/>
<path d="M13.9432 7.32252C14.3037 7.34219 14.6636 7.36647 15.023 7.39482C15.0178 7.1416 15.0122 6.88697 15.006 6.63198C14.6503 6.60079 14.2949 6.57244 13.9395 6.54834C13.94 6.80829 13.9409 7.067 13.9432 7.32252H13.9432Z" fill="#232323"/>
<path d="M13.9395 6.54831C14.295 6.57241 14.6503 6.60077 15.0061 6.63195C14.9998 6.37696 14.993 6.12162 14.9853 5.86716C14.6377 5.82942 14.2884 5.79593 13.938 5.76758C13.9387 6.02753 13.9389 6.28854 13.9394 6.54831H13.9395Z" fill="#1F1E1F"/>
<path d="M12.8843 5.69968C13.2363 5.71634 13.5877 5.73937 13.9381 5.76773C13.9374 5.50778 13.9358 5.24889 13.9326 4.99319C13.5879 4.96147 13.2413 4.93649 12.8944 4.91895C12.8915 5.17624 12.888 5.43725 12.8843 5.69968H12.8843Z" fill="#141314"/>
<path d="M12.894 4.91872C13.241 4.93627 13.5876 4.96125 13.9323 4.99297C13.9291 4.73709 13.9243 4.48458 13.9168 4.23721C13.579 4.2039 13.2406 4.17768 12.9017 4.15942C12.8996 4.40768 12.8971 4.66143 12.8941 4.91872H12.894Z" fill="#121212"/>
<path d="M13.9381 5.7677C14.2885 5.79605 14.6378 5.82954 14.9854 5.86728C14.9778 5.61265 14.9693 5.3589 14.9597 5.1071C14.6201 5.06298 14.2773 5.02471 13.9326 4.99316C13.9358 5.24886 13.9373 5.50775 13.9381 5.7677H13.9381Z" fill="#151415"/>
<path d="M13.9325 4.99306C14.2771 5.0246 14.62 5.06287 14.9596 5.10699C14.9501 4.85502 14.9395 4.60517 14.9277 4.35815C14.5918 4.3112 14.2547 4.27062 13.917 4.2373C13.9245 4.48467 13.9293 4.73718 13.9325 4.99306H13.9325Z" fill="#0A0A0A"/>
<path d="M15.0234 7.39468C15.6632 7.44518 16.3017 7.50879 16.939 7.58374C16.9249 7.34027 16.9079 7.09556 16.8887 6.85085C16.2646 6.76154 15.6375 6.68712 15.0063 6.63184C15.0126 6.88682 15.0181 7.14146 15.0234 7.39468H15.0234Z" fill="#2A292A"/>
<path d="M15.0061 6.63198C15.6373 6.68726 16.2644 6.76169 16.8885 6.851C16.8693 6.60646 16.8481 6.36157 16.8253 6.11793C16.2118 6.01745 15.5974 5.93293 14.9854 5.86719C14.9931 6.12165 14.9999 6.37699 15.0061 6.63198Z" fill="#232323"/>
<path d="M16.9389 7.58396C17.5763 7.65874 18.2125 7.74486 18.8482 7.84019C18.8144 7.61816 18.7837 7.38976 18.7532 7.1594C18.1339 7.04458 17.5128 6.94038 16.8887 6.85107C16.9078 7.09578 16.9248 7.34049 16.9389 7.58396V7.58396Z" fill="#272627"/>
<path d="M16.8884 6.85099C17.5125 6.9403 18.1336 7.04449 18.7529 7.15931C18.7224 6.92878 18.6921 6.69612 18.659 6.46523C18.0511 6.33516 17.4387 6.21857 16.8252 6.11792C16.848 6.36157 16.8692 6.60646 16.8884 6.85099Z" fill="#212021"/>
<path d="M14.9852 5.86711C16.2092 5.99877 17.4432 6.20486 18.6589 6.46516C18.6259 6.23409 18.59 6.0048 18.5485 5.78117C17.3613 5.48738 16.1451 5.25986 14.9595 5.10693C14.969 5.35873 14.9775 5.61248 14.9852 5.86711V5.86711Z" fill="#151515"/>
<path d="M14.9596 5.10699C16.1453 5.25992 17.3615 5.48744 18.5486 5.78123C18.5071 5.55743 18.4597 5.3393 18.4038 5.13056C17.2668 4.78981 16.0959 4.52065 14.9277 4.35815C14.9395 4.60517 14.9502 4.85502 14.9596 5.10699V5.10699Z" fill="#070607"/>
<path d="M18.848 7.84022C19.4836 7.93555 20.1186 8.0401 20.7533 8.15173C20.6999 7.95097 20.6526 7.74241 20.6062 7.53101C19.9897 7.39935 19.3722 7.27407 18.7529 7.15942C18.7835 7.38978 18.8142 7.61819 18.848 7.84022Z" fill="#1F1F1F"/>
<path d="M18.753 7.15918C19.3723 7.27382 19.9898 7.3991 20.6063 7.53076C20.5601 7.31936 20.5149 7.10531 20.4656 6.89338C19.8704 6.73886 19.2671 6.59515 18.6592 6.46509C18.6922 6.69598 18.7225 6.92864 18.753 7.15918Z" fill="#1B1A1B"/>
<path d="M20.7535 8.15173C21.3883 8.26354 22.0228 8.38244 22.6575 8.50648C22.5951 8.31529 22.5275 8.12639 22.4552 7.93998C21.839 7.80035 21.2231 7.66249 20.6064 7.53101C20.6528 7.7424 20.7001 7.95097 20.7535 8.15173Z" fill="#121212"/>
<path d="M20.6065 7.53094C21.2232 7.66242 21.839 7.80028 22.4552 7.93991C22.3828 7.7535 22.3057 7.56957 22.2237 7.38812C21.6482 7.21393 21.061 7.04825 20.4658 6.89355C20.5151 7.10548 20.5603 7.31954 20.6065 7.53094V7.53094Z" fill="#100F10"/>
<path d="M18.6593 6.46524C19.8751 6.72536 21.0726 7.03972 22.2237 7.38809C22.1417 7.20664 22.0551 7.02767 21.9639 6.85153C20.8941 6.43458 19.736 6.07487 18.5488 5.78125C18.5904 6.00487 18.6263 6.23417 18.6593 6.46524V6.46524Z" fill="#100F10"/>
<path d="M18.5491 5.78129C19.7362 6.0749 20.8944 6.43462 21.9641 6.85157C21.873 6.67543 21.7772 6.50213 21.6772 6.33149C20.6444 5.88318 19.5413 5.47119 18.4043 5.13062C18.4602 5.33935 18.5075 5.55749 18.5491 5.78129V5.78129Z" fill="#050505"/>
<path d="M2.32373 6.33093C2.78347 6.11067 3.31817 5.86436 3.87688 5.63312C4.07516 5.16124 4.29285 4.69786 4.52693 4.25806C4.02404 4.54051 3.54481 4.84511 3.12733 5.14316C2.8353 5.5206 2.56667 5.91734 2.32373 6.33093Z" fill="black"/>
<path d="M3.12695 5.14312C3.54443 4.84507 4.02367 4.54046 4.52656 4.25801C4.76072 3.81838 5.01119 3.40249 5.27504 3.02612C4.84923 3.34561 4.44699 3.69452 4.07178 4.07018C3.73474 4.40721 3.41906 4.76551 3.12695 5.14312V5.14312Z" fill="black"/>
<path d="M3.87646 5.63308C4.15582 5.51737 4.44111 5.40556 4.72604 5.30243C4.80977 5.04655 4.90023 4.7983 4.99556 4.55713C4.72339 4.6739 4.45271 4.80149 4.18807 4.9335C4.07953 5.16332 3.97561 5.39723 3.87646 5.63308Z" fill="#1B1A1B"/>
<path d="M4.18799 4.93359C4.45263 4.80157 4.7233 4.67399 4.99548 4.55722C5.09081 4.31623 5.19093 4.08215 5.29397 3.85498C5.03535 3.98132 4.77797 4.11706 4.52644 4.25811C4.4094 4.47801 4.29643 4.70376 4.18799 4.93359V4.93359Z" fill="#181818"/>
<path d="M4.72607 5.30229C5.01092 5.19934 5.2955 5.10524 5.57317 5.02497C5.64999 4.76006 5.7299 4.50047 5.81266 4.24707C5.54163 4.33496 5.26786 4.44039 4.99559 4.55699C4.90026 4.79816 4.8098 5.04641 4.72607 5.30229V5.30229Z" fill="#222122"/>
<path d="M4.99561 4.55727C5.26787 4.44067 5.54164 4.33524 5.81267 4.24735C5.89542 3.99395 5.98092 3.74676 6.06872 3.50684C5.81249 3.61138 5.55263 3.72851 5.2941 3.85503C5.19106 4.0822 5.09094 4.31628 4.99561 4.55727V4.55727Z" fill="#1F1E1F"/>
<path d="M4.52686 4.25816C5.02983 3.97589 5.55647 3.71576 6.06901 3.50684C6.24462 3.02681 6.42952 2.57531 6.62019 2.15942C6.15061 2.41707 5.70124 2.70697 5.27534 3.02628C5.01149 3.40265 4.76102 3.81853 4.52686 4.25816V4.25816Z" fill="#121212"/>
<path d="M5.57324 5.02513C5.98337 4.90712 6.43062 4.78538 6.88744 4.67658C7.0074 4.12195 7.13613 3.58398 7.27107 3.07471C6.85421 3.20566 6.4471 3.35273 6.06878 3.50672C5.89318 3.98675 5.72678 4.49531 5.57324 5.02513V5.02513Z" fill="#242324"/>
<path d="M6.06885 3.50676C6.44717 3.35277 6.85428 3.20569 7.27114 3.07474C7.40608 2.56547 7.54713 2.08474 7.69163 1.64404C7.32412 1.79732 6.96662 1.96938 6.62002 2.15934C6.42936 2.57522 6.24445 3.02672 6.06885 3.50676Z" fill="#1B1A1B"/>
<path d="M6.8877 4.67657C7.34442 4.56795 7.81072 4.47226 8.25895 4.40616C8.34542 3.82655 8.43739 3.26855 8.53228 2.73926C8.1148 2.82892 7.68819 2.94374 7.27133 3.07469C7.13639 3.58396 7.00766 4.12194 6.8877 4.67657Z" fill="#242324"/>
<path d="M7.271 3.07458C7.68786 2.94363 8.11446 2.8288 8.53194 2.73914C8.62683 2.20967 8.72473 1.70891 8.82317 1.24341C8.43652 1.35682 8.059 1.49078 7.69149 1.64388C7.54698 2.08457 7.40593 2.56531 7.271 3.07458V3.07458Z" fill="#161616"/>
<path d="M8.25879 4.40623C8.68017 4.34279 9.11643 4.28981 9.55526 4.24746C9.61781 3.65526 9.67957 3.07795 9.74079 2.52881C9.32933 2.58427 8.92249 2.65427 8.53212 2.73932C8.43723 3.26861 8.34526 3.82661 8.25879 4.40623V4.40623Z" fill="#242324"/>
<path d="M8.53223 2.7393C8.92259 2.65424 9.32944 2.58425 9.7409 2.52878C9.80221 1.97964 9.86299 1.45868 9.92377 0.979004C9.54997 1.049 9.18281 1.13724 8.82345 1.24356C8.72502 1.70906 8.62712 2.20983 8.53223 2.7393V2.7393Z" fill="#121112"/>
<path d="M9.55518 4.24725C9.99392 4.2049 10.4351 4.17318 10.8662 4.15192C10.9049 3.54714 10.9427 2.96221 10.9766 2.40527C10.5681 2.43203 10.1522 2.47314 9.7407 2.5286C9.67948 3.07774 9.61773 3.65506 9.55518 4.24725V4.24725Z" fill="#242324"/>
<path d="M9.74072 2.52878C10.1522 2.47332 10.5682 2.43221 10.9766 2.40545C11.0104 1.84834 11.0405 1.31905 11.0636 0.825195C10.6778 0.857622 10.2974 0.909187 9.92359 0.979004C9.86281 1.45868 9.80203 1.97964 9.74072 2.52878V2.52878Z" fill="#161616"/>
<path d="M10.8662 4.15224C11.2191 4.13469 11.5723 4.12761 11.9252 4.12991C11.9471 3.5207 11.9663 2.93098 11.9798 2.37068C11.6457 2.36941 11.3074 2.38397 10.9766 2.40559C10.9428 2.96253 10.9049 3.54746 10.8662 4.15224V4.15224Z" fill="#242324"/>
<path d="M10.9766 2.40546C11.3074 2.38384 11.6457 2.36931 11.9798 2.37055C11.9932 1.81008 12.001 1.27901 12.0001 0.787109C11.6848 0.787109 11.3722 0.799684 11.0636 0.825207C11.0404 1.31906 11.0104 1.84835 10.9766 2.40546V2.40546Z" fill="#1B1A1B"/>
<path d="M11.9253 4.12983C12.4276 4.13321 12.9296 4.15553 13.4304 4.19451C13.427 3.58991 13.4232 2.99718 13.4111 2.43582C12.9367 2.39347 12.4579 2.3722 11.9799 2.37061C11.9664 2.93091 11.9472 3.52062 11.9253 4.12983V4.12983Z" fill="#1E1D1E"/>
<path d="M11.98 2.37055C12.458 2.37219 12.9369 2.39342 13.4112 2.43577C13.3991 1.87458 13.3787 1.34493 13.342 0.866671C12.9019 0.814043 12.454 0.787109 12.0003 0.787109C12.0012 1.27901 11.9934 1.81008 11.98 2.37055Z" fill="#161616"/>
<path d="M13.4304 4.19449C13.427 3.58988 13.4232 2.99716 13.4111 2.43579C13.6483 2.45705 13.8843 2.48345 14.1186 2.51535C14.1442 3.07282 14.1597 3.6636 14.1804 4.26483C13.9309 4.23754 13.6808 4.2138 13.4304 4.19449V4.19449Z" fill="#0B0B0B"/>
<path d="M14.1805 4.26486C14.1598 3.66363 14.1443 3.07285 14.1187 2.51538C14.353 2.54728 14.5855 2.58467 14.8155 2.62755C14.8628 3.17598 14.8992 3.75825 14.9279 4.35825C14.6793 4.32352 14.4302 4.29233 14.1805 4.26486V4.26486Z" fill="#030303"/>
<path d="M13.4115 2.43579C13.8858 2.47814 14.3557 2.54158 14.8158 2.62752C14.7685 2.07892 14.7103 1.56415 14.638 1.09954C14.215 0.997296 13.7825 0.919149 13.3423 0.866699C13.379 1.34496 13.3993 1.87461 13.4115 2.43579Z" fill="#080808"/>
<path d="M14.9275 4.35805C17.2638 4.68321 19.611 5.43471 21.6764 6.33133C21.1911 5.50505 20.6026 4.74576 19.9285 4.07169C18.4952 2.63851 16.6743 1.59091 14.6372 1.09937C14.7818 2.02877 14.87 3.15824 14.9275 4.35805Z" fill="black"/>
<g opacity="0.600006">
<path d="M20.3444 6.42229C21.6076 9.54415 21.3492 12.5942 19.7663 13.2349C18.1833 13.8756 15.8765 11.8626 14.614 8.74123C13.3507 5.61864 13.61 2.56863 15.1921 1.92901C16.7749 1.28813 19.0818 3.29969 20.3444 6.42229Z" fill="url(#paint1_radial_8136_575)"/>
</g>
<path d="M6.75052 6.49505V18.0157C6.75052 18.0157 6.66179 19.0818 7.6703 19.6604C8.66447 20.2311 9.88146 19.3599 9.88146 19.3599L19.6285 13.8538C19.6285 13.8538 20.3184 13.4664 20.3184 12.1864C20.3184 11.0943 19.0536 10.4309 19.0536 10.4309L10.0513 5.31199C10.0513 5.31199 9.01267 4.65514 8.4177 4.65514C6.73165 4.65514 6.75052 6.49505 6.75052 6.49505" fill="url(#paint2_radial_8136_575)"/>
<path d="M6.75051 6.49497C6.75051 6.49497 6.73164 4.65488 8.41768 4.65488C9.01266 4.65488 10.0513 5.31191 10.0513 5.31191L19.0538 10.4308C19.0538 10.4308 20.3185 11.0944 20.3185 12.1864C20.3185 13.4663 19.6286 13.8537 19.6286 13.8537L9.88163 19.3599C9.88163 19.3599 8.66446 20.231 7.67029 19.6605C6.66196 19.0817 6.75051 18.0157 6.75051 18.0157V6.49497Z" stroke="white" stroke-width="0.0565826" stroke-miterlimit="10"/>
<path d="M6.75051 6.49497C6.75051 6.49497 6.73164 4.65488 8.41768 4.65488C9.01266 4.65488 10.0513 5.31191 10.0513 5.31191L19.0538 10.4308C19.0538 10.4308 20.3185 11.0944 20.3185 12.1864C20.3185 13.4663 19.6286 13.8537 19.6286 13.8537L9.88163 19.3599C9.88163 19.3599 8.66446 20.231 7.67029 19.6605C6.66196 19.0817 6.75051 18.0157 6.75051 18.0157V6.49497Z" fill="#CCC6BE"/>
<path d="M6.75051 6.49497C6.75051 6.49497 6.73164 4.65488 8.41768 4.65488C9.01266 4.65488 10.0513 5.31191 10.0513 5.31191L19.0538 10.4308C19.0538 10.4308 20.3185 11.0944 20.3185 12.1864C20.3185 13.4663 19.6286 13.8537 19.6286 13.8537L9.88163 19.3599C9.88163 19.3599 8.66446 20.231 7.67029 19.6605C6.66196 19.0817 6.75051 18.0157 6.75051 18.0157V6.49497Z" stroke="#CCC6BE" stroke-width="0.0565826" stroke-miterlimit="10"/>
<path d="M6.75051 6.49497C6.75051 6.49497 6.73164 4.65488 8.41768 4.65488C9.01266 4.65488 10.0513 5.31191 10.0513 5.31191L19.0538 10.4308C19.0538 10.4308 20.3185 11.0944 20.3185 12.1864C20.3185 13.4663 19.6286 13.8537 19.6286 13.8537L9.88163 19.3599C9.88163 19.3599 8.66446 20.231 7.67029 19.6605C6.66196 19.0817 6.75051 18.0157 6.75051 18.0157V6.49497Z" stroke="white" stroke-width="0.0565826" stroke-miterlimit="10"/>
<defs>
<radialGradient id="paint0_radial_8136_575" cx="0" cy="0" r="1" gradientUnits="userSpaceOnUse" gradientTransform="translate(11.9994 11.9999) scale(11.9997)">
<stop stop-color="#E5DCDC"/>
<stop offset="0.119887" stop-color="#F1EEEB"/>
<stop offset="0.327273" stop-color="#F1EEEB"/>
<stop offset="0.642424" stop-color="#DFD7D0"/>
<stop offset="0.928159" stop-color="#DFD7D0"/>
<stop offset="1" stop-color="#F1EEEB"/>
</radialGradient>
<radialGradient id="paint1_radial_8136_575" cx="0" cy="0" r="1" gradientUnits="userSpaceOnUse" gradientTransform="translate(17.4792 7.58191) rotate(-22.0266) scale(3.09104 6.09768)">
<stop stop-color="white"/>
<stop offset="0.366322"/>
<stop offset="1"/>
</radialGradient>
<radialGradient id="paint2_radial_8136_575" cx="0" cy="0" r="1" gradientUnits="userSpaceOnUse" gradientTransform="translate(13.5335 12.2546) scale(7.20387)">
<stop stop-color="#E5DCDC"/>
<stop offset="0.366322" stop-color="#F1EEEB"/>
<stop offset="1" stop-color="#F1EEEB"/>
</radialGradient>
</defs>
</svg>
