<svg width="24" height="24" viewBox="0 0 24 24" fill="none" xmlns="http://www.w3.org/2000/svg">
<path fill-rule="evenodd" clip-rule="evenodd" d="M7.9744 5.21997C6.44181 3.789 4.84609 3.3641 4.85609 3.39148C5.81269 4.29007 7.06342 5.61528 7.62581 6.95111C8.87093 6.12975 10.246 5.96089 11.3674 5.81538C10.9949 3.88263 11.2424 2.40077 11.6108 1.31843C10.761 1.66188 10.2783 4.03673 10.1095 4.60628C9.55193 3.39148 8.26923 0.993163 7.52097 0C7.52097 1.74629 7.62581 3.62107 7.9744 5.21997ZM6.44181 8.89842C4.95316 10.3877 4.14671 12.4111 4.19986 14.5125C4.25854 16.8305 5.38304 19.0409 7.23299 20.4419C10.0223 22.5543 13.9951 22.4783 16.7187 20.3077C19.1264 18.3888 20.1469 14.908 19.2255 11.9725C17.4907 6.56078 10.3555 4.98321 6.44181 8.89842ZM8.81284 8.17968C3.22156 10.9824 4.13974 19.5225 10.2913 20.9885C12.5781 21.5335 15.0467 20.8478 16.7206 19.192C19.2104 16.729 19.4235 12.7374 17.2492 10.0143C15.2748 7.5414 11.6439 6.76048 8.81284 8.17968ZM11.6202 10.061C11.9741 11.3353 13.5795 11.9105 14.7701 11.554C18.7317 10.3673 10.6181 6.45207 11.6202 10.061Z" fill="#ED8E23"/>
<path fill-rule="evenodd" clip-rule="evenodd" d="M7.9744 5.21997C6.44181 3.789 4.84609 3.3641 4.85609 3.39148C5.81269 4.29007 7.06342 5.61528 7.62581 6.95111C8.87093 6.12975 10.246 5.96089 11.3674 5.81538C10.9949 3.88263 11.2424 2.40077 11.6108 1.31843C10.761 1.66188 10.2783 4.03673 10.1095 4.60628C9.55193 3.39148 8.26923 0.993163 7.52097 0C7.52097 1.74629 7.62581 3.62107 7.9744 5.21997ZM6.44181 8.89842C4.95316 10.3877 4.14671 12.4111 4.19986 14.5125C4.25854 16.8305 5.38304 19.0409 7.23299 20.4419C10.0223 22.5543 13.9951 22.4783 16.7187 20.3077C19.1264 18.3888 20.1469 14.908 19.2255 11.9725C17.4907 6.56078 10.3555 4.98321 6.44181 8.89842ZM8.81284 8.17968C3.22156 10.9824 4.13974 19.5225 10.2913 20.9885C12.5781 21.5335 15.0467 20.8478 16.7206 19.192C19.2104 16.729 19.4235 12.7374 17.2492 10.0143C15.2748 7.5414 11.6439 6.76048 8.81284 8.17968ZM11.6202 10.061C11.9741 11.3353 13.5795 11.9105 14.7701 11.554C18.7317 10.3673 10.6181 6.45207 11.6202 10.061Z" fill="#ED8E23"/>
<path d="M9.35491 16.6512C9.35491 16.6512 9.33164 13.3089 9.33164 12.5253C9.44931 12.5253 9.92629 12.4567 9.99545 12.5301C9.99545 12.5301 10.0162 15.4714 10.0199 16.1413L11.4233 16.1514L11.4182 16.6514C11.3976 16.6848 9.38834 16.6846 9.35491 16.6512Z" fill="white"/>
<path d="M9.35491 16.6512C9.35491 16.6512 9.33164 13.3089 9.33164 12.5253C9.44931 12.5253 9.92629 12.4567 9.99545 12.5301C9.99545 12.5301 10.0162 15.4714 10.0199 16.1413L11.4233 16.1514L11.4182 16.6514C11.3976 16.6848 9.38834 16.6846 9.35491 16.6512Z" fill="white"/>
<path d="M14.7993 12.5462C14.7993 12.5104 15.4751 12.5337 15.5651 12.535C15.894 13.1891 16.5185 14.4007 16.5252 14.3939L17.4688 12.5495C17.5161 12.5147 18.2117 12.5148 18.2117 12.5497L16.8642 15.1498L16.8448 16.6648H16.5152H16.1856L16.1662 15.1657C15.7113 14.2922 15.2552 13.4192 14.7993 12.5462Z" fill="white"/>
<path d="M14.7993 12.5462C14.7993 12.5104 15.4751 12.5337 15.5651 12.535C15.894 13.1891 16.5185 14.4007 16.5252 14.3939L17.4688 12.5495C17.5161 12.5147 18.2117 12.5148 18.2117 12.5497L16.8642 15.1498L16.8448 16.6648H16.5152H16.1856L16.1662 15.1657C15.7113 14.2922 15.2552 13.4192 14.7993 12.5462Z" fill="white"/>
<path fill-rule="evenodd" clip-rule="evenodd" d="M6.00613 12.5484C6.00613 12.5484 6.00366 15.5124 6.00648 16.6648C6.12133 16.6667 6.60349 16.7382 6.6591 16.6507C6.6591 16.6507 6.67525 15.4542 6.67539 15.0853L6.71901 15.0759C7.50228 14.9075 8.40795 15.276 8.77986 14.2702C9.03299 13.5859 8.65521 12.7746 7.94535 12.5792C7.69885 12.5114 6.06743 12.3875 6.00613 12.5484ZM6.68993 13.0988C6.68993 13.0988 8.42755 12.9274 8.20971 13.8591C7.99187 14.7908 7.19922 14.5168 6.67539 14.4972L6.68993 13.0988Z" fill="white"/>
<path fill-rule="evenodd" clip-rule="evenodd" d="M6.00613 12.5484C6.00613 12.5484 6.00366 15.5124 6.00648 16.6648C6.12133 16.6667 6.60349 16.7382 6.6591 16.6507C6.6591 16.6507 6.67525 15.4542 6.67539 15.0853L6.71901 15.0759C7.50228 14.9075 8.40795 15.276 8.77986 14.2702C9.03299 13.5859 8.65521 12.7746 7.94535 12.5792C7.69885 12.5114 6.06743 12.3875 6.00613 12.5484ZM6.68993 13.0988C6.68993 13.0988 8.42755 12.9274 8.20971 13.8591C7.99187 14.7908 7.19922 14.5168 6.67539 14.4972L6.68993 13.0988Z" fill="white"/>
<path fill-rule="evenodd" clip-rule="evenodd" d="M13.2409 12.5989C13.2292 12.6178 11.7165 16.6535 11.7165 16.6658C11.7165 16.6658 12.3776 16.7101 12.4378 16.6405C12.4378 16.6405 12.6567 16.0399 12.7615 15.7826C13.0507 15.7826 14.4071 15.6318 14.5076 15.8198C14.6384 16.0642 14.6438 16.4347 14.8208 16.6479C14.8909 16.7325 15.5258 16.6616 15.5201 16.626L14.0194 12.6077C13.9968 12.58 13.2577 12.5717 13.2409 12.5989ZM12.9843 15.2058C13.0795 14.8894 13.6326 13.3687 13.6368 13.3738C13.649 13.3884 14.2952 15.2089 14.2952 15.2287C14.2952 15.2592 12.9756 15.2348 12.9843 15.2058Z" fill="white"/>
<path fill-rule="evenodd" clip-rule="evenodd" d="M13.2409 12.5989C13.2292 12.6178 11.7165 16.6535 11.7165 16.6658C11.7165 16.6658 12.3776 16.7101 12.4378 16.6405C12.4378 16.6405 12.6567 16.0399 12.7615 15.7826C13.0507 15.7826 14.4071 15.6318 14.5076 15.8198C14.6384 16.0642 14.6438 16.4347 14.8208 16.6479C14.8909 16.7325 15.5258 16.6616 15.5201 16.626L14.0194 12.6077C13.9968 12.58 13.2577 12.5717 13.2409 12.5989ZM12.9843 15.2058C13.0795 14.8894 13.6326 13.3687 13.6368 13.3738C13.649 13.3884 14.2952 15.2089 14.2952 15.2287C14.2952 15.2592 12.9756 15.2348 12.9843 15.2058Z" fill="white"/>
</svg>
