<svg width="24" height="24" viewBox="0 0 24 24" fill="none" xmlns="http://www.w3.org/2000/svg">
<path d="M16.804 19.4018L15.5699 13.3413L15.5118 13.381C15.4721 13.7415 15.4355 14.0989 15.3957 14.4532C15.356 14.8075 15.3072 15.1649 15.243 15.5254L14.6443 19.4049H10.7068L12.9642 4.85229H16.7673C17.5249 4.85229 18.2274 4.91033 18.872 5.02641C19.5165 5.14249 20.0694 5.33799 20.5307 5.61597C20.995 5.89089 21.3524 6.26967 21.612 6.74621C21.8686 7.22274 22 7.82757 22 8.5607C22 8.74092 21.9908 8.9242 21.9694 9.11054C21.9511 9.29688 21.9267 9.49238 21.9022 9.7001C21.7739 10.5096 21.4807 11.2458 21.0255 11.8995C20.5673 12.5562 19.9228 13.0389 19.0858 13.3474L21.0744 19.4079L16.804 19.4018ZM16.1105 11.5848C16.3671 11.5848 16.6054 11.5329 16.8253 11.4321C17.0453 11.3282 17.2347 11.1908 17.3935 11.0167C17.5554 10.8426 17.6868 10.644 17.7906 10.418C17.8914 10.195 17.9647 9.96586 18.0014 9.7337C18.0136 9.65733 18.0228 9.58708 18.0319 9.51987C18.038 9.45572 18.0411 9.39157 18.0411 9.32743C18.0411 8.86311 17.9098 8.52404 17.644 8.3041C17.3813 8.08417 17.0239 7.97725 16.5718 7.97725H16.4191L15.8601 11.5665L16.1105 11.5848Z" fill="white"/>
<path d="M8.09729 19.4018L6.8632 13.3413L6.80516 13.381C6.76544 13.7415 6.72879 14.0989 6.68908 14.4532C6.64937 14.8075 6.60049 15.1649 6.53634 15.5254L5.93762 19.4049H2.00012L4.25754 4.85229H8.06063C8.8182 4.85229 9.52078 4.91033 10.1653 5.02641C10.8099 5.14249 11.3628 5.33799 11.824 5.61597C12.2883 5.89089 12.6457 6.26967 12.9054 6.74621C13.162 7.22274 13.2933 7.82757 13.2933 8.5607C13.2933 8.74092 13.2842 8.9242 13.2628 9.11054C13.2444 9.29688 13.22 9.49238 13.1956 9.7001C13.0673 10.5096 12.774 11.2458 12.3189 11.8995C11.8607 12.5562 11.2161 13.0389 10.3791 13.3474L12.3647 19.4018H8.09729V19.4018ZM7.40388 11.5848C7.66047 11.5848 7.89874 11.5329 8.11867 11.4321C8.33861 11.3282 8.528 11.1908 8.68685 11.0167C8.84875 10.8426 8.9801 10.644 9.08396 10.418C9.18476 10.195 9.25807 9.96586 9.29473 9.7337C9.30695 9.65733 9.31611 9.58708 9.32222 9.51987C9.32833 9.45572 9.33139 9.39157 9.33139 9.32743C9.33139 8.86311 9.20003 8.52404 8.93428 8.3041C8.67157 8.08417 8.31417 7.97725 7.86208 7.97725H7.70934L7.15033 11.5665L7.40388 11.5848Z" fill="#FF3333"/>
</svg>
