<svg width="24" height="24" viewBox="0 0 24 24" fill="none" xmlns="http://www.w3.org/2000/svg">
<path d="M15.2525 9.0226C15.2745 9.36463 15.4714 9.7599 15.9122 9.54182C16.5604 9.22123 16.3227 8.66496 16.3217 8.48961C15.8703 8.55886 15.5349 8.61006 15.2525 9.0226ZM8.07697 9.55673C8.36775 9.65157 8.72483 9.25772 8.74456 8.98029C8.55062 8.73396 8.3544 8.62833 8.17253 8.56003C7.28767 8.22763 7.495 9.36672 8.07697 9.55673ZM10.3432 11.8682C10.3432 11.8682 10.0103 12.0652 10.0103 12.3391C10.0103 13.6729 14.6227 13.3881 14.0246 12.2454C13.9659 12.1331 13.9022 11.9575 13.7817 11.8687C13.2984 12.6997 10.3127 13.3909 10.3432 11.8682ZM9.45332 11.1787C8.90216 11.1742 8.75933 11.5129 8.63595 11.8581C8.47182 12.3172 9.0031 12.7892 8.17253 13.0362C8.50291 13.3136 8.91238 14.0083 9.43742 14.4493C8.53202 14.6434 8.16259 13.9273 7.55421 13.602C7.73424 14.6535 8.70892 14.7881 9.28508 15.3208C9.15946 15.5454 7.74179 15.0338 7.47172 14.9664C7.95771 15.8914 8.92019 15.4351 9.51224 15.9232C8.87707 16.3308 8.2085 15.9218 7.55548 16.1416C8.46745 17.5095 10.3512 16.5491 11.5167 16.0932C12.1132 15.86 11.902 14.5181 11.3635 14.3644C9.64769 13.875 9.26172 12.7254 9.45332 11.1787ZM16.2005 13.1323C15.3705 12.8923 15.4158 11.7237 14.7324 11.17C14.5708 12.7561 14.7301 13.6827 12.76 14.381C12.2059 14.5772 12.0667 15.8853 12.6487 16.1081C13.8796 16.5781 15.5797 17.484 16.5206 16.0676C16.0879 15.8984 15.4811 16.1272 15.1118 15.7653C15.6135 15.5723 16.2171 15.6963 16.5604 14.9713C16.2776 15.0412 14.9229 15.5432 14.7895 15.2992C15.3259 14.7728 16.3495 14.6917 16.393 13.6464C15.8492 14.0021 15.4742 14.6461 14.5937 14.4347C15.1406 13.9915 15.5922 13.6254 16.2005 13.1323ZM14.6428 19.9001C14.3458 18.5381 15.7325 19.7035 16.1752 20.0442C15.5285 17.9429 13.8842 17.2811 11.4065 17.4178C9.39738 17.5287 8.08989 18.712 7.99917 20.0139C8.29908 19.784 8.84224 18.9418 9.32582 19.2741C9.46865 19.3722 9.33363 19.821 9.40349 20.0814C10.6344 20.814 12.0872 20.7427 12.0525 19.8995C12.0578 21.1519 14.144 20.3654 14.6428 19.9001ZM8.36619 3.75474C7.0198 4.54772 5.49485 3.48334 4.39346 4.11707C4.73194 4.29426 5.91804 4.80553 5.90526 4.83549C5.77237 4.78977 5.10506 4.64708 4.91666 4.58206C5.1814 5.67047 5.20991 6.17659 5.14212 7.28037C5.03047 9.09617 7.65766 10.9116 9.34613 10.5852C8.15486 9.40744 6.53141 9.13012 5.72012 7.48184C5.58893 7.21521 5.63536 6.86111 5.60014 6.54719C5.88563 6.46548 5.94986 6.87483 6.06058 7.11355C6.59223 8.25958 8.53664 7.36451 9.28437 8.78039C9.55342 9.29009 9.87741 9.78659 10.4362 10.0209C11.287 9.50067 9.71673 7.80638 9.33519 7.40162C9.68361 7.3021 10.1189 7.03986 10.11 6.97342H8.22208C8.22066 6.95467 8.21895 6.93579 8.21739 6.91691C8.76699 6.81738 9.86421 6.42665 9.86322 6.33096C9.42506 6.06232 7.00578 6.10287 6.99254 5.85277C7.37936 5.75329 10.5913 5.04323 10.5264 4.69167H8.04773C8.82719 4.34041 9.51537 3.83425 10.4174 3.85214C11.3557 3.87102 12.2986 3.9112 13.2321 3.84135C14.2775 3.76312 15.1007 4.25934 16.0109 4.69039H13.5232C13.5111 4.75726 14.6887 5.23289 15.2918 5.39531C15.8806 5.55391 16.4725 5.70142 17.0529 5.91496C16.1042 6.15306 15.0766 5.77894 14.1163 6.393C14.6327 6.97682 15.3162 6.69556 15.9409 6.95311H13.9399C13.9268 7.01828 14.364 7.2994 14.7073 7.41114C14.2619 7.88577 12.8299 9.38389 13.6103 10.0383C15.0198 8.92044 17.542 7.90024 18.3152 6.44255C19.195 8.61497 16.0677 9.5128 14.7773 10.4491C16.7227 11.1828 19.4694 8.41251 18.8356 6.486C18.766 6.27431 18.3489 5.955 18.9334 5.81572C19.0408 5.78937 19.051 4.71943 19.0619 4.59668C18.7828 4.7459 18.4832 4.8017 18.1592 4.97491C18.5404 4.60932 19.0799 4.27808 19.7085 4.15839C19.7496 3.75986 17.1642 4.19741 16.988 4.20042C16.5865 4.20737 15.8658 3.75943 15.8888 3.76284C17.6636 4.03302 19.2848 3.52005 20.8604 2.78417C21.5157 2.47807 22.1615 2.8492 22.1426 3.57443C22.1065 4.96161 21.3069 5.49695 20.8685 6.64062L21.559 6.2851C21.6474 7.15969 20.9606 7.32197 20.3369 7.57541C20.1118 7.0883 20.0353 6.86161 19.5608 6.62968C19.336 7.10421 19.3637 7.46526 19.4306 7.99709C19.5561 8.99809 18.9863 9.50879 18.3807 10.1735C18.6733 10.4163 18.6733 10.4163 19.2725 10.1459C18.9179 11.0212 18.8623 11.0343 17.9187 11.107C17.9565 11.5017 17.9565 11.5017 19.0314 11.7679C18.9106 12.2149 18.6725 13.0781 18.0223 12.634C17.3966 12.2066 16.7816 11.8917 15.9594 12.1503C16.6267 12.5298 17.2938 12.9093 18.0083 13.3156C17.4606 14.0895 19.3076 14.7935 18.3046 15.7314C17.9458 16.0672 17.8584 18.2338 17.9139 18.254C18.4186 17.3559 20.0196 14.5527 19.1149 13.9411C19.6199 12.8984 20.0034 11.7262 20.7857 10.8399C20.7857 10.8399 19.8092 13.8478 19.7965 14.0072C19.9797 13.9606 20.7341 13.6234 20.8107 13.6631C20.3025 15.388 19.706 16.9282 18.9267 18.5486C18.9943 18.6062 19.6486 18.3284 19.859 18.0878C21.5257 16.1832 21.2651 14.0096 21.6347 11.7299C22.5382 15.1813 21.4396 17.3523 19.5381 20.3023C19.4862 20.078 19.5062 19.6962 19.257 19.6593C19.0581 20.0137 18.1554 21.9461 18.051 21.9001C18.051 21.475 18.3662 19.4864 17.6629 19.4879C17.0432 19.4893 17.2666 20.7678 17.2666 21.156C16.5589 20.7599 15.4874 19.8565 14.7489 20.6517C13.7229 21.7569 10.2448 21.5554 9.28224 20.6301C8.53147 19.9084 7.55017 20.7309 6.83494 21.109C6.81592 20.7901 6.9055 19.5811 6.40233 19.5065C5.70707 19.4038 5.96089 21.6117 5.91946 22.0116C5.54179 21.2369 5.16427 20.4623 4.7866 19.6878C4.5349 19.7137 4.5409 20.1447 4.48461 20.3668C2.74657 17.4299 0.800686 15.2218 2.53084 11.7377C2.53084 14.1162 2.45617 17.6123 5.09271 18.6082C4.25035 16.9984 3.52057 15.3877 3.31456 13.7054L4.14812 13.9994C3.83285 12.9039 3.5684 11.7936 3.24244 10.7007C3.36756 10.9535 5.19776 14.0046 5.12196 14.0693C3.90977 15.1417 5.9112 17.2377 6.16622 18.4107C6.34314 17.6764 6.37387 16.3073 5.78557 15.7734C4.92851 14.9958 6.17212 14.1339 6.05547 13.3162C6.72348 12.9326 7.39164 12.5489 8.06618 12.1615C6.83293 11.2165 5.57071 14.0775 5.02513 11.7351C5.59461 11.6513 5.84576 11.5198 6.30536 11.173C5.317 10.995 5.09367 11.0746 4.79015 10.1278C6.3157 10.595 4.81357 7.84332 4.5052 6.63281C4.04358 6.93565 3.91636 7.07638 3.72403 7.59159C3.13879 7.29798 2.39113 7.20314 2.49946 6.30072L3.18351 6.64658C2.7446 5.48368 1.92761 4.94919 1.91237 3.53496C1.90485 2.84338 2.5625 2.45748 3.17471 2.78502C4.81074 3.66023 6.56563 3.92467 8.36619 3.75474Z" fill="#FF3333"/>
</svg>
