<svg width="24" height="24" viewBox="0 0 24 24" fill="none" xmlns="http://www.w3.org/2000/svg">
<path d="M18.3753 15.7522C17.5494 15.7522 16.5116 15.5218 15.8027 16.0297C12.7486 18.236 8.25001 16.3421 7.95863 12.5007C7.62169 8.05678 12.9188 5.17872 16.2287 8.32215C17.5607 9.58699 15.9192 11.3615 14.5298 10.18C13.0194 8.89572 10.7464 9.72159 10.4521 11.7006C10.1348 13.8399 12.8236 15.3324 14.4405 13.8795C14.98 13.3942 15.5552 13.1901 16.2823 13.2175C17.3434 13.2573 18.4072 13.2262 19.4696 13.2287C20.5346 13.2311 20.99 13.6592 20.9951 14.6883C21.0027 16.617 21.0002 18.5446 20.9963 20.4733C20.9902 22.6235 18.7162 22.1266 18.4072 20.3178C12.3093 23.5474 4.13744 21.189 3.10424 13.5547C1.87448 4.47297 13.0143 -1.98376 19.7464 4.8367C21.066 6.17109 19.2985 7.8488 17.9404 6.59996C13.223 2.26838 5.21141 5.63262 5.51103 12.2195C5.70108 16.4117 8.98282 19.5488 13.0911 19.4417C14.7625 19.3982 19.0525 18.1877 18.3753 15.7522Z" fill="#FF3333"/>
</svg>
