<svg width="24" height="24" viewBox="0 0 24 24" fill="none" xmlns="http://www.w3.org/2000/svg">
<path d="M16.8432 9.31667C16.8432 9.78773 16.4753 10.1677 16.0232 10.1677H15.2063V4.68487H16.0232C16.4753 4.68487 16.8432 5.06485 16.8432 5.53587V9.31667ZM16.8432 18.26C16.8432 18.731 16.4753 19.111 16.0232 19.111H15.2063V12.6893C15.2063 12.6893 16.0083 12.6861 16.0232 12.6861C16.4753 12.6861 16.8432 13.0661 16.8432 13.5371V18.26ZM20 14.1275C20 13.4649 19.8825 13.0504 19.8039 12.8557C19.5569 12.2402 19.1741 11.7755 18.6492 11.4583C19.1557 11.0846 19.5358 10.6387 19.78 10.1143C19.8704 9.92275 19.9969 9.20676 19.9969 8.78601L20 5.45422C20 4.60952 19.5992 4.00345 19.2794 3.5387C18.96 3.07082 18.5498 2.70025 18.0492 2.42079C17.5489 2.1413 16.9427 2 16.2314 2H15.6072H12.9902H12.2426V21.9215H16.0173C17.4675 21.9215 18.5228 21.4567 19.1831 20.5209C19.569 19.9777 20 19.3025 20 18.1784V14.1275Z" fill="white"/>
<path d="M10.5043 6.82015V5.35368C10.5043 3.60772 9.14758 2.15067 7.47123 2.13184C7.47123 2.13184 7.00995 2.10986 6.75366 2.10986C6.49137 2.10986 5.99691 2.13184 5.9547 2.13184C4.31454 2.19148 3 3.63597 3 5.35368V9.66832C3 10.2273 3.27135 10.7203 3.68441 11.0123L3.67536 11.0186L7.221 13.5905L7.2421 13.6062V13.6093C7.43808 13.7569 7.5647 13.9892 7.57374 14.2562H7.57676V14.2813V14.2844V14.2876V15.5813V18.753V18.4735C7.57676 18.9445 7.20894 19.3245 6.75667 19.3245C6.30444 19.3245 5.93661 18.9445 5.93661 18.4735V18.753V14.4697L3.00603 15.4557V18.7592C3.00603 20.5052 4.36278 21.9654 6.03912 21.9811C6.03912 21.9811 6.53055 21.9999 6.78684 21.9999C7.14562 21.9999 7.55566 21.9811 7.55566 21.9811C9.19279 21.8649 10.5104 20.4769 10.5104 18.7592V13.2733C10.5104 12.6955 10.2179 12.1899 9.78073 11.8979L9.78977 11.8916L6.30745 9.37631C6.09037 9.23183 5.94867 8.98377 5.93962 8.70113H5.93058V8.52844V5.35682V5.63632C5.93058 5.16526 6.29841 4.78531 6.75064 4.78531C7.20292 4.78531 7.57073 5.16526 7.57073 5.63632V5.35682V7.80932L10.5043 6.82015Z" fill="white"/>
</svg>
