<svg width="24" height="24" viewBox="0 0 24 24" fill="none" xmlns="http://www.w3.org/2000/svg">
<path d="M20.2796 9.06917C20.2796 9.05619 20.2796 9.04322 20.2796 9.03068C20.2797 8.65632 20.1809 8.28855 19.9931 7.96471C19.8053 7.64084 19.5351 7.37243 19.2101 7.18667L19.2133 7.18146L17.1845 6.0095L9.22953 10.6069V14.3702L12.2829 16.0916L15.1647 14.5003V12.2734L12.2829 13.951V11.6929L17.1429 8.89753L17.1643 15.6077L12.2403 18.4246L7.29449 15.628L7.27057 9.46766L15.224 4.87813L13.5376 3.90385C13.2071 3.68691 12.8227 3.56657 12.4275 3.55637C12.0323 3.54617 11.6421 3.64651 11.3009 3.84611L11.2977 3.84039L5.50977 7.18146L5.51342 7.18718C5.18851 7.37294 4.91851 7.6413 4.73079 7.96504C4.54305 8.28881 4.44427 8.65644 4.44446 9.03068V15.7086V15.7222C4.44483 16.127 4.56088 16.5231 4.77893 16.8642C4.99697 17.2052 5.30795 17.4767 5.67519 17.6469L11.2343 20.8595C11.5937 21.0873 12.0133 21.202 12.4386 21.1886C12.8639 21.1753 13.2754 21.0345 13.6198 20.7845L19.0374 17.6567C19.4083 17.4877 19.7227 17.2155 19.9431 16.8726C20.1636 16.5298 20.2807 16.1309 20.2806 15.7232C20.2806 15.7108 20.2806 15.6977 20.2806 15.6847L20.2796 9.06917Z" fill="#8BC53F"/>
</svg>
