<svg width="24" height="24" viewBox="0 0 24 24" fill="none" xmlns="http://www.w3.org/2000/svg">
<g clip-path="url(#clip0_7342_2758)">
<path d="M10.728 11.853L11.7971 10.7888C11.7971 10.7888 11.5023 10.9723 9.06913 8.80716C6.59914 6.64201 5.86169 6.05485 5.86169 6.05485C5.86169 6.05485 6.3043 6.53191 8.70058 9.17413C10.6543 11.3392 10.7648 11.7796 10.728 11.853ZM15.152 9.17413C17.3271 6.71541 17.9171 5.98145 17.9171 5.98145C17.9171 5.98145 17.4377 6.42182 14.7834 8.80716C12.6083 10.7521 12.2029 10.8622 12.0923 10.8255L13.1611 11.8897C13.198 11.8897 12.9768 11.6328 15.152 9.17413ZM12.0923 10.8255C12.0923 10.7888 12.0923 10.8255 12.0923 10.8255V10.8255ZM8.70058 14.8255C6.52543 17.2842 5.93541 18.0182 5.93541 18.0182C5.93541 18.0182 6.41486 17.5778 9.06913 15.1925C11.2443 13.2475 11.6497 13.1374 11.7603 13.1741L10.6911 12.1099C10.6911 12.0732 10.8757 12.3668 8.70058 14.8255ZM11.7603 13.1741C11.7971 13.1741 11.7971 13.1741 11.7603 13.1741V13.1741ZM15.2625 14.7888C13.3089 12.6236 13.198 12.1833 13.2352 12.1099L12.166 13.1741C12.166 13.1741 12.4609 12.9906 14.894 15.1558C17.364 17.3209 18.1014 17.9081 18.1014 17.9081C18.1014 17.9081 17.6588 17.431 15.2625 14.7888Z" fill="white"/>
<path d="M24 11.9266C24 11.9266 21.6774 11.8899 18.1014 11.7064C16.0737 11.5963 14.6729 11.4495 13.8617 11.3395C13.0137 11.1927 12.7557 10.9358 12.6451 10.1284C12.5346 9.24773 12.3503 7.81651 12.2397 5.87155C12.0186 2.60551 11.9445 0 11.9445 0C11.9445 0 11.9077 2.31193 11.7234 5.90827C11.6128 7.77982 11.5023 9.10091 11.3917 9.94497C11.2811 11.0092 11.06 11.2661 9.91716 11.4128C9.03229 11.5229 7.6683 11.6697 5.89857 11.7798C2.61742 12 0 12.0734 0 12.0734C0 12.0734 2.32257 12.1101 5.89857 12.2936C7.92629 12.4037 9.29028 12.5505 10.1383 12.6606C11.0232 12.8073 11.2443 13.0642 11.3549 13.8716C11.3549 13.945 11.6497 16.3303 11.7603 18.1285C11.9814 21.3945 12.0554 24 12.0554 24C12.0554 24 12.0923 21.6881 12.2766 18.0918C12.3871 16 12.5346 14.5688 12.6451 13.7615C12.7926 12.9541 13.0506 12.734 14.0828 12.6239C14.9677 12.5138 16.3317 12.367 18.1014 12.2569C21.3826 12.0367 24 11.9266 24 11.9266Z" fill="white"/>
</g>
<defs>
<clipPath id="clip0_7342_2758">
<rect width="24" height="24" fill="white"/>
</clipPath>
</defs>
</svg>
