<svg width="24" height="24" viewBox="0 0 24 24" fill="none" xmlns="http://www.w3.org/2000/svg">
<path d="M13.212 9.9533C14.0558 9.9533 14.7399 9.26977 14.7399 8.4266C14.7399 7.58343 14.0558 6.8999 13.212 6.8999C12.3681 6.8999 11.6841 7.58343 11.6841 8.4266C11.6841 9.26977 12.3681 9.9533 13.212 9.9533Z" fill="white"/>
<path d="M22.6833 8.42696C22.686 8.72953 22.5988 9.02609 22.4327 9.279C22.2665 9.53191 22.029 9.72977 21.7503 9.84746C21.4713 9.96523 21.1637 9.99751 20.8663 9.9402C20.569 9.8829 20.2954 9.73858 20.0802 9.52556C19.8651 9.3127 19.7182 9.04068 19.6581 8.7441C19.598 8.44752 19.6274 8.13976 19.7427 7.85996C19.858 7.58005 20.0539 7.3407 20.3054 7.17229C20.557 7.00388 20.8529 6.91401 21.1557 6.91406C21.5583 6.91396 21.9446 7.07282 22.2307 7.35608C22.5167 7.63934 22.6794 8.0241 22.6833 8.42666V8.42696Z" fill="white"/>
<path d="M13.212 17.3771C14.0558 17.3771 14.7399 16.6936 14.7399 15.8504C14.7399 15.0073 14.0558 14.3237 13.212 14.3237C12.3681 14.3237 11.6841 15.0073 11.6841 15.8504C11.6841 16.6936 12.3681 17.3771 13.212 17.3771Z" fill="white"/>
<path d="M22.6833 15.8506C22.6833 16.6936 21.9993 17.3776 21.1554 17.3776C20.9548 17.3777 20.7562 17.3382 20.5708 17.2615C20.3855 17.1848 20.2171 17.0724 20.0752 16.9306C19.9333 16.7888 19.8207 16.6204 19.7439 16.4351C19.6671 16.2498 19.6276 16.0512 19.6275 15.8506C19.6275 15.0076 20.3115 14.3236 21.1554 14.3236C21.356 14.3235 21.5547 14.3629 21.74 14.4396C21.9254 14.5163 22.0938 14.6288 22.2357 14.7706C22.3776 14.9124 22.4901 15.0808 22.5669 15.2661C22.6437 15.4514 22.6833 15.65 22.6833 15.8506V15.8506ZM18.7101 12.136C18.7089 12.4383 18.6179 12.7335 18.4487 12.9841C18.2795 13.2347 18.0397 13.4294 17.7597 13.5436C17.1867 13.7776 16.5297 13.6426 16.0947 13.2028C15.8822 12.9877 15.7384 12.7143 15.6816 12.4173C15.6248 12.1203 15.6575 11.8132 15.7755 11.5348C15.8936 11.2563 16.0917 11.0192 16.3447 10.8534C16.5977 10.6877 16.8942 10.6007 17.1966 10.6036C17.6002 10.6071 17.986 10.7703 18.2697 11.0575C18.5533 11.3446 18.7118 11.7324 18.7104 12.136H18.7101Z" fill="white"/>
<path d="M10.7952 17.0054L8.3928 12.9359C9.6282 12.6749 10.4859 11.8178 10.4859 9.959C10.491 7.4819 8.841 6.8999 6.7569 6.8999H1.6989C1.6462 6.8999 1.59565 6.92082 1.55836 6.95805C1.52107 6.99529 1.50008 7.0458 1.5 7.0985V17.0621C1.5 17.1719 1.5891 17.2607 1.6989 17.2607H3.4824C3.50848 17.2607 3.53431 17.2556 3.5584 17.2456C3.5825 17.2356 3.60439 17.221 3.62283 17.2025C3.64127 17.1841 3.6559 17.1622 3.66588 17.1381C3.67586 17.114 3.681 17.0882 3.681 17.0621V13.163H6.2115L8.4381 17.1161C8.4942 17.2196 8.6043 17.2823 8.7222 17.2781H10.6647C10.7089 17.2773 10.7511 17.2594 10.7823 17.2281C10.8136 17.1968 10.8314 17.1546 10.8321 17.1104C10.8307 17.0725 10.8179 17.0359 10.7952 17.0054V17.0054ZM6.771 11.3582H3.681V8.7503H6.771C7.9299 8.7503 8.2818 9.3176 8.2818 10.0328C8.2818 10.748 7.9299 11.3582 6.771 11.3582Z" fill="white"/>
</svg>
