<svg width="24" height="24" viewBox="0 0 24 24" fill="none" xmlns="http://www.w3.org/2000/svg">
<path d="M20.4796 7.41117C20.5205 7.44471 20.5407 7.45918 20.5645 7.48116C20.5706 7.42796 20.5743 7.38575 20.5823 7.31808C20.6905 7.46669 20.7858 7.59272 20.8788 7.72282C20.6868 7.23714 20.3457 6.82896 20.065 6.40751C20.0534 6.42602 20.0436 6.44045 20.0284 6.46531C18.4163 4.35584 19.2611 4.94871 20.3713 6.13C19.7765 4.87364 18.1918 4.41574 17.0779 3.61153C14.1567 1.81921 10.2305 1.35671 7.10217 3.07268C6.17036 3.58649 6.57236 3.33109 7.25441 3.33109C7.35335 3.33109 5.61808 4.36509 5.45574 4.47181C5.26377 4.60016 5.0663 4.73026 5.0235 4.70308C4.95075 4.64816 5.21731 4.43712 5.25032 4.39143C5.3029 4.31629 4.95992 4.52502 5.0394 4.44927C7.77121 1.88806 3.59712 6.29182 3.00904 7.47249C3.07018 7.46901 3.12153 7.46553 3.19918 7.45974C3.03655 7.79045 2.8293 8.07952 2.79812 8.43454C2.87577 8.38134 2.9204 8.30791 3.01088 8.28017C3.04817 8.39581 2.97786 8.50217 2.94974 8.61201C2.95828 8.61393 2.96667 8.61645 2.97481 8.61952C3.02127 8.50389 3.06773 8.38482 3.11237 8.26918C3.15149 8.27322 3.18206 8.27494 3.22119 8.27842C3.09341 9.15609 2.99437 10.0262 2.74249 10.8853L2.7541 10.8744C2.53706 11.5063 2.82197 12.1307 2.73699 12.8031C2.71012 12.8031 2.57811 14.6062 3.30372 15.8899C3.09934 15.2779 3.594 16.2003 3.68889 16.3663C3.79893 16.5588 4.19082 17.2162 3.93343 16.8716C1.53052 13.6546 11.5673 29.0573 21.6497 15.0418C22.2537 13.0762 21.5232 14.7053 21.5237 14.7007C21.5883 14.1966 22.2786 12.7475 21.7402 12.4129C21.6748 12.3724 21.6497 12.4643 21.6436 12.4643C21.6515 12.3816 21.6748 12.1088 21.6087 12.2405C21.5586 12.3377 21.731 14.7486 20.8647 15.7801C20.7038 12.7672 22.1529 13.9029 19.6077 16.8884C19.4781 17.0405 19.7104 16.5149 19.8461 16.1617C19.9684 15.85 19.9446 15.7107 19.7184 16.1009C19.453 16.5588 18.9609 17.1197 18.5568 17.4747C15.1922 20.4245 10.7104 21.0452 7.03615 18.313C6.94139 18.2396 7.13336 18.4286 7.12537 18.4338C5.05421 17.0736 2.94336 12.1682 4.72027 16.0651C4.16498 15.7026 4.5632 15.4457 4.51913 16.1125C4.13519 15.4661 3.83134 14.0704 3.73841 14.0704C3.64548 14.0704 3.73841 14.2919 3.74758 14.3965C3.52504 14.0791 3.38075 13.0754 3.46513 12.8193C3.52626 11.6722 3.71517 10.498 4.1413 9.41742C4.14046 9.41498 4.14046 9.41234 4.1413 9.4099C4.1413 9.40295 4.1468 9.39543 4.14925 9.38792C4.51607 8.47039 5.04796 7.62046 5.81462 6.91686C5.80912 6.91338 5.803 6.90762 5.7975 6.90415C5.66177 7.01978 5.52789 7.12962 5.39277 7.24122C6.20061 4.68667 9.44524 3.72005 11.9332 4.17291C11.1824 3.91892 8.04088 3.95884 10.1859 3.84855C18.1823 3.45703 19.3901 12.6079 16.9635 6.38381C20.2222 8.63255 19.0505 10.6472 18.1007 6.78675C19.6609 9.08206 18.112 5.94216 19.7068 8.14603C19.7532 8.21019 19.7899 8.21194 19.73 8.12924C18.11 5.9281 20.2206 8.6898 20.5407 9.51339C20.1959 8.2183 19.1957 7.19205 18.3868 6.12592C18.7971 6.43409 19.0801 6.84631 19.4261 7.20536C19.4328 7.19981 19.44 7.19477 19.4475 7.19034C19.1559 6.6837 20.4268 8.95897 20.6428 9.45095C20.6935 9.56655 20.6079 9.21101 20.5498 8.96935C20.4918 8.72764 20.5902 8.79587 20.5883 8.96179C20.5865 9.12775 20.8555 9.61571 20.6966 9.87416C20.6831 9.8539 20.6715 9.83367 20.6483 9.7955C20.7779 10.1673 20.7296 10.5517 20.883 10.894C20.9564 11.467 20.9154 12.0405 20.883 12.61H20.9026C20.9258 12.4366 20.9509 12.2585 20.9741 12.0845H20.9992V12.288C21.4282 8.4277 23.2765 12.2046 20.4796 7.41117ZM19.3601 17.9435C19.203 18.0534 19.1853 18.0551 19.3791 17.8279C20.1261 16.9522 20.4108 16.8051 20.6947 15.802C20.7748 16.7977 19.861 17.6984 19.255 18.3575C19.0593 18.5702 19.6114 17.877 19.8125 17.6412C20.5767 16.7755 19.8108 17.6233 19.3601 17.9435ZM4.95075 16.5421C5.1953 17.178 6.21935 18.1488 6.71332 18.3957C5.90143 18.0661 5.22465 17.6122 5.11154 17.4018C5.03879 17.2671 5.15678 17.2931 5.26194 17.4105C5.35357 17.5239 5.46859 17.6185 5.60003 17.6886C5.18674 17.1885 5.00455 16.8601 4.95075 16.5421ZM8.15431 3.11489C7.9098 3.186 7.69335 3.25015 7.97641 3.10562C8.23014 2.97727 8.79198 2.78877 8.89347 2.88938C8.99495 2.98998 8.394 3.04147 8.1519 3.11489H8.15431ZM18.0341 6.28204C17.7391 6.0212 18.0063 6.15711 18.1777 6.36238C18.2071 6.39708 18.1337 6.36238 18.0341 6.28204Z" fill="#FF3333"/>
</svg>
