<svg width="24" height="24" viewBox="0 0 24 24" fill="none" xmlns="http://www.w3.org/2000/svg">
<path d="M11.8216 4.26831L3.65304 7.16431L3.46741 16.5211L12.2301 19.8256L20.1759 16.5211L20.51 7.16431L11.8216 4.26831Z" fill="white"/>
<path d="M21 6.80132C21 10.2763 21 13.7521 21 17.227C18.1155 18.1976 15.2319 19.1726 12.342 20.13C12.1359 20.1983 11.8632 20.1992 11.6571 20.1309C8.76814 19.1734 5.88455 18.1976 3.00006 17.227C3.00006 13.7521 3.00006 10.2763 3.00006 6.80132C5.91245 5.81761 8.82483 4.83128 11.7408 3.85721C11.8965 3.80465 12.1035 3.80552 12.2592 3.85721C15.1752 4.83128 18.0876 5.81761 21 6.80132ZM12.7146 9.66835C12.2043 9.66835 11.7615 9.66835 11.2782 9.66835C11.2782 12.3488 11.2782 15.0722 11.2782 17.8315C10.5848 17.6297 10.1235 17.5587 10.1235 16.7313C10.1244 14.3521 10.128 11.9739 10.1217 9.59477C10.1217 8.92599 9.46899 8.92615 8.93193 8.75034C8.93193 8.98598 8.93193 9.12963 8.93193 9.27417C8.93283 11.8574 8.94993 14.4406 8.92383 17.0229C8.91663 17.7754 9.26223 18.2554 9.92013 18.5279C11.5793 19.2157 12.3662 19.2161 14.0295 18.548C14.7081 18.2756 15.0825 17.8052 15.0753 17.0308C15.0495 14.29 15.0681 11.549 15.0681 8.80816C13.9944 8.91853 13.8756 9.04029 13.8756 9.97932C13.8756 12.3435 13.8783 14.7078 13.8711 17.072C13.8711 17.6635 13.1657 17.6964 12.7146 17.8525C12.7146 15.0564 12.7146 12.3444 12.7146 9.66835ZM17.2578 16.1724C17.2542 13.9255 17.2479 11.6787 17.2641 9.43097C17.2686 8.82991 19.0948 8.53683 19.5024 8.41222C20.0115 8.25759 19.8363 7.55387 19.8363 7.13594C18.9471 7.43377 18.1155 7.71057 17.2848 7.99088C16.4325 8.2782 16.0824 8.73545 16.0608 9.61492C16.0482 10.1256 16.0563 10.6363 16.0572 11.147C16.0572 12.9269 16.0473 14.7078 16.0635 16.4877C16.0716 17.404 16.5333 17.7158 17.3982 17.4311C18.0786 17.2069 18.7518 16.959 19.4376 16.7523C19.7472 16.6585 19.8471 16.5096 19.8453 16.1952C19.8298 13.957 19.8039 9.45462 19.8039 9.45462C19.1982 9.65872 18.6483 9.83829 18.1056 10.0345C17.7511 10.1629 17.922 10.9467 17.922 11.2188C18.2055 11.147 18.4098 11.0953 18.6483 11.0349C18.6483 12.5888 18.6519 14.0911 18.6411 15.5934C18.6372 16.0524 17.2578 16.4318 17.2578 16.1724ZM4.22405 9.47476C4.22405 9.47476 4.16355 14.3237 4.17816 16.3371C4.18261 16.9747 6.14077 17.2763 6.57214 17.4206C7.43524 17.7088 7.91584 17.4276 7.92394 16.5543C7.94554 14.2041 7.93564 11.8539 7.92574 9.50367C7.92304 8.92729 7.69984 8.40083 7.14004 8.17308C6.19145 7.78766 5.20775 7.4837 4.16466 7.12017C4.16466 7.63648 3.99305 8.27607 4.61195 8.45427C5.19397 8.62144 6.76439 8.80216 6.75754 9.59302C6.74294 11.8357 6.75124 14.0785 6.75124 16.3213C6.24568 16.155 5.33736 16.094 5.34455 15.4261C5.36435 13.7039 5.35895 11.9809 5.34995 10.2588C5.34639 9.64118 4.70337 9.62905 4.22405 9.47476ZM8.33704 6.18114C8.02815 6.27455 6.64254 6.54998 7.37314 7.07112C7.79974 7.37683 8.88783 7.36719 9.29913 7.0571C9.98565 6.53926 8.64953 6.28084 8.33704 6.18114ZM15.6783 6.19077C15.353 6.28368 13.9707 6.55197 14.7297 7.07637C15.1572 7.37157 16.1958 7.37245 16.6179 7.07725C17.3632 6.55447 15.9975 6.28287 15.6783 6.19077ZM12.0153 6.19253C11.694 6.28176 10.2988 6.5409 11.0532 7.07199C11.4771 7.37157 12.5085 7.3742 12.9396 7.07637C13.6968 6.55332 12.3363 6.28528 12.0153 6.19253Z" fill="#FF3333"/>
</svg>
