<svg width="24" height="24" viewBox="0 0 24 24" fill="none" xmlns="http://www.w3.org/2000/svg">
<mask id="mask0_7342_5335" style="mask-type:alpha" maskUnits="userSpaceOnUse" x="1" y="2" width="21" height="21">
<path d="M21.9998 12.369C19.3011 17.899 8.92672 21.5167 4.07683 22.6342C3.4208 21.1595 2.08766 17.0419 2.00332 12.369C1.91898 7.69601 3.35052 3.50927 4.07683 2C12.1738 2.30413 19.3992 9.03935 21.9998 12.369Z" fill="#C4C4C4"/>
</mask>
<g mask="url(#mask0_7342_5335)">
<path d="M1.26624 11.9191L8.18904 7.979H15.1825L16.0611 15.3755L10.614 17.6221L7.83776 18.0369L3.05835 14.6151L1.26624 11.9191Z" fill="#ED1B31"/>
<path d="M14.0913 12.3689L14.0256 19.633L16.0942 20.9751L22.8767 12.3689H14.0913Z" fill="#B71F25"/>
<path d="M7.81283 15.7559L3.8782 22.5994L2.67249 26.8852L14.692 19.3865L7.81283 15.7559Z" fill="#D61F2B"/>
<path d="M1.61612 12.1619L7.83625 15.7564L3.97064 22.6345L1.61612 22.116L-1.26562 16.4131L1.61612 12.1619Z" fill="#AA1D22"/>
<path d="M7.90717 8.77399L3.79573 1.72314L2.84628 2.207L0.913696 13.1981L7.90717 8.77399Z" fill="#CE1E2A"/>
<path d="M13.9877 11.5739V4.73047L8.40002 7.28809L8.64633 10.3297L13.9877 11.5739Z" fill="#CD1F29"/>
<path d="M7.80276 8.98148L14.5888 4.9882L14.6203 4.34987L3.6908 1.72314L7.80276 8.98148Z" fill="#9D1C20"/>
<path d="M13.6707 10.6409L13.9827 5.32845L17.2549 4.21216L21.6126 9.36206L13.6707 10.6409Z" fill="#E11D2F"/>
<path d="M13.5651 10.5368L21.5426 9.08521L23.5459 13.1982L14.1277 12.8871L13.5651 10.5368Z" fill="#E71C32"/>
<path d="M14.085 16.0669L10.8831 17.4494L14.085 19.0841V16.0669Z" fill="#E81C32"/>
<path d="M7.01135 15.4097V9.22433C7.01135 8.26321 8.04539 7.64257 8.91451 8.0821L14.7291 11.0227C15.6523 11.4897 15.6793 12.7782 14.7763 13.2821L8.96175 16.5268C8.09116 17.0126 7.01135 16.3942 7.01135 15.4097Z" fill="white"/>
</g>
</svg>
