<svg width="24" height="24" viewBox="0 0 24 24" fill="none" xmlns="http://www.w3.org/2000/svg">
<path d="M11.4432 10.5933C12.6507 11.3668 14.4137 11.4827 15.4347 12.5104C15.7797 13.3018 16.0517 13.9258 15.5311 15.0568C14.8821 16.4477 13.3476 17.0292 11.8725 17.0292C10.5983 17.0292 9.32866 16.5603 7.58407 15.4476C6.3355 14.6538 4.76424 14.6841 3.78435 15.9396C3.556 16.2292 3.53774 16.9884 3.73411 17.2C3.91222 17.3976 10.6866 21.3765 11.0566 21.5052C11.4584 21.6432 12.3948 21.6432 12.7967 21.5053C15.2008 20.6437 17.4198 19.0022 19.6546 17.7516C20.2996 17.4001 20.6669 16.9502 20.9836 16.3126C20.9951 14.5321 21.6787 11.5245 19.9697 10.3082C19.5769 10.0369 13.6719 7.11749 13.1284 6.9336C11.0206 6.19417 9.45929 9.34332 11.4432 10.5933Z" fill="#DD0505"/>
<path d="M10.6604 2.43695C6.87878 4.50979 4.56845 6.07705 4.36628 6.22872C3.36087 6.96619 3.59893 8.33845 3.59893 9.41381C3.59893 10.6718 3.41427 12.0066 4.50872 12.8884C6.21633 14.2712 9.29338 16.285 11.5059 16.285C12.5259 16.285 13.3587 15.5331 13.5424 14.5449C13.91 12.5965 12.0517 11.9469 10.6604 11.3755C9.71744 10.9883 7.83682 10.529 7.97696 9.1932C8.15856 7.36363 9.69514 6.3627 11.4186 6.09543C12.8246 5.87942 14.4926 6.38958 16.3306 7.59375C17.4738 8.34624 18.8913 8.43056 19.7308 7.16173C20.0569 6.67454 20.0321 6.09287 19.7571 5.84428C19.5917 5.68801 13.3439 2.23497 13.0452 2.11547C12.3531 1.83307 11.2996 2.08395 10.6604 2.43695Z" fill="#DD0505"/>
</svg>
