<svg width="24" height="24" viewBox="0 0 24 24" fill="none" xmlns="http://www.w3.org/2000/svg">
<path d="M13.6037 17.1707L13.6358 16.8817L13.9248 16.962C13.957 16.962 16.9117 17.7488 18.3891 16.432C19.8183 15.1634 20.3321 12.1926 18.5015 9.20575C16.7672 6.34735 12.5759 3.39261 11.757 2.83057C10.938 3.39261 6.74673 6.34735 5.01242 9.20575C3.18177 12.1926 3.71169 15.1634 5.12483 16.432C6.60221 17.7488 9.55695 16.962 9.58907 16.962L9.87812 16.8817L9.91023 17.1707C9.91023 17.2349 10.0548 18.9211 8.81826 20.286C7.79053 21.4101 6.15257 21.9722 3.96863 21.9722V22.9839C6.45768 22.9839 8.35257 22.3094 9.57301 20.9605C11.0986 19.2904 10.954 17.2992 10.938 17.0744L10.7934 15.597L9.36425 15.9824C8.72191 16.143 6.71461 16.4641 5.8314 15.6773C4.70731 14.6817 4.35403 12.2408 5.89564 9.71962C7.27666 7.45538 10.392 5.06268 11.7891 4.051C13.1861 5.04663 16.2854 7.43933 17.6825 9.71962C19.2241 12.2408 18.8708 14.6817 17.7467 15.6773C16.8635 16.4641 14.8562 16.159 14.2139 15.9824L12.7686 15.597L12.6402 17.0904C12.6241 17.3152 12.4796 19.3065 14.0051 20.9766C15.2256 22.3094 17.1205 22.9999 19.6095 22.9999V21.9882C17.4095 21.9882 15.7876 21.4101 14.7599 20.3021C13.4591 18.9211 13.6037 17.251 13.6037 17.1707Z" fill="#FF3333"/>
<path d="M19.3846 17.5562C21.3116 15.838 22.0663 12.1445 19.786 8.41898C17.6984 4.98248 12.6722 1.61022 12.4473 1.46569L11.7568 1L11.0663 1.46569C10.8576 1.61022 5.81522 4.96642 3.72763 8.40292C1.44734 12.1285 2.20208 15.8219 4.12909 17.5401C5.26923 18.5679 6.85902 18.7445 8.09551 18.6803C7.99916 18.8891 7.85464 19.0818 7.67799 19.2745C6.95537 20.0613 5.70281 20.4467 3.9685 20.4467V21.4584C6.00792 21.4584 7.51741 20.9445 8.4488 19.9328C9.25172 19.0496 9.4123 17.9898 9.42836 17.492C8.57726 17.6686 6.20062 18.0219 4.8196 16.7693C3.1977 15.3241 2.6196 12.1606 4.61084 8.90073C6.58602 5.65693 11.4517 2.41314 11.6444 2.28467L11.7889 2.18832L11.9335 2.28467C12.1422 2.4292 16.9919 5.65693 18.967 8.90073C20.9583 12.1606 20.3641 15.3241 18.7583 16.7693C17.3773 18.0058 15.0006 17.6686 14.1495 17.492C14.1656 17.9898 14.3262 19.0496 15.1291 19.9328C16.0605 20.9445 17.5539 21.4584 19.6094 21.4584V20.4467C17.8751 20.4467 16.6225 20.0453 15.8999 19.2745C15.7232 19.0818 15.5787 18.873 15.4824 18.6803C16.6546 18.7606 18.2444 18.5839 19.3846 17.5562Z" fill="#FF3333"/>
</svg>
