<svg width="24" height="24" viewBox="0 0 24 24" fill="none" xmlns="http://www.w3.org/2000/svg">
<path d="M12.0193 1.58545L18.349 18.4361L15.4645 21.4213H8.58557L5.65314 18.4361L12.0193 1.58545ZM12.0193 0L5 18.5849L8.35531 22H15.6985L19 18.5785L12.0187 0H12.0193Z" fill="#FF3333"/>
<path d="M10.7378 14.1467C9.86277 13.5701 7.08789 14.8794 7.08789 14.8794L6 17.6768L7.30335 19C7.62654 18.7004 12.1156 15.0614 10.7381 14.1461V14.1467H10.7378Z" fill="#FF3333"/>
<path d="M11.7376 4C11.7376 4 10.8647 6.36276 10.0723 8.47358C8.96309 11.4011 9.2965 12.23 10.7954 11.817C12.9443 11.2303 14.4879 10.2616 14.992 12.4162C15.5279 14.9059 12.9583 17.2874 10.7503 19.0564C9.78689 19.8231 8.67802 20.5564 8 21H15.1454L18 18.3953L11.7376 4Z" fill="#FF3333"/>
</svg>
