<svg width="24" height="24" viewBox="0 0 24 24" fill="none" xmlns="http://www.w3.org/2000/svg">
<path fill-rule="evenodd" clip-rule="evenodd" d="M2.83905 2.00007H12.35C12.8883 1.99751 13.424 2.06749 13.9413 2.2084L13.9496 2.21064C17.5669 3.22037 20.1569 5.40535 21.8161 8.64448C21.9013 8.81128 22.0874 9.03016 21.8956 9.19024C21.7036 9.35065 21.5178 9.13145 21.3477 9.03687C20.2924 8.45212 19.1828 8.01915 17.9581 7.9252C14.8708 7.68811 11.7778 7.87504 8.68779 7.81848C8.31727 7.81209 8.18877 7.98624 8.16513 8.33293C8.12518 8.92343 8.48805 8.97296 8.95511 8.97296C12.1097 8.96529 15.2642 8.96401 18.4191 8.96912C18.813 8.96151 19.2067 8.98998 19.595 9.05412C20.2764 9.17246 20.892 9.51907 21.3321 10.0322C21.7722 10.5454 22.0084 11.1918 21.9985 11.8564C22.0005 14.9607 22.0005 18.065 21.9985 21.1699C21.9985 21.9927 21.9915 21.9982 21.1216 21.9988C18.2986 22.0004 15.476 22.0004 12.6533 21.9988C8.36687 21.9966 3.84674 19.0664 2.22851 15.2397C2.16093 15.0799 1.99015 14.8866 2.14528 14.7415C2.34103 14.5584 2.52546 14.7789 2.68858 14.8729C3.90367 15.5746 5.20198 16.0334 6.62746 16.0452C9.51138 16.0689 12.397 16.0612 15.2819 16.0676C15.6604 16.0686 15.9211 15.9781 15.9277 15.534C15.9347 15.0572 15.6531 14.978 15.2509 14.963C12.6367 14.8645 10.0217 14.9332 7.40712 14.923C6.51594 14.9198 5.62543 15.0029 4.73292 14.9102C3.26616 14.7588 2.02211 13.5682 2.01079 12.1527C1.98582 9.03143 2.01079 5.90958 2.01978 2.78772C2.02013 2.57918 2.10653 2.37926 2.26006 2.2317C2.4136 2.08415 2.62178 2.00066 2.83905 2.00007Z" fill="url(#paint0_linear_7342_5387)"/>
<defs>
<linearGradient id="paint0_linear_7342_5387" x1="22.002" y1="14.5728" x2="1.9984" y2="9.428" gradientUnits="userSpaceOnUse">
<stop stop-color="#54C7DC"/>
<stop offset="1" stop-color="#CE71CB"/>
</linearGradient>
</defs>
</svg>
