<svg width="24" height="24" viewBox="0 0 24 24" fill="none" xmlns="http://www.w3.org/2000/svg">
<path fill-rule="evenodd" clip-rule="evenodd" d="M2.05359 14.403V13.633H4.08218V14.5291C4.08218 15.3491 4.39852 15.7594 5.03076 15.7594H5.03879C5.66523 15.7594 5.97888 15.3505 5.97888 14.533C5.97888 14.066 5.84388 13.6282 5.57298 13.2192C5.30253 12.8103 4.97909 12.4364 4.60259 12.0977L3.58584 11.0467C3.16568 10.679 2.81414 10.2235 2.53122 9.68048C2.24785 9.13702 2.10616 8.53538 2.10616 7.87557C2.10616 6.86013 2.37349 6.08134 2.90815 5.53831C3.44237 4.99529 4.16862 4.724 5.08601 4.724C6.0034 4.724 6.70782 4.99529 7.1997 5.53787C7.69159 6.08045 7.93754 6.85924 7.93754 7.87424V8.27696H6.06665V7.75214C6.06665 6.92939 5.73606 6.5178 5.07441 6.5178C4.41278 6.5178 4.08218 6.92984 4.08218 7.75302C4.08218 8.09759 4.15436 8.42615 4.29827 8.73874C4.44219 9.05133 4.62886 9.33281 4.85834 9.58413C5.08779 9.83499 5.34086 10.0832 5.61711 10.3283C5.89335 10.5738 6.16648 10.8309 6.43558 11.0995C6.7047 11.3682 6.95375 11.6554 7.18232 11.9623C7.41044 12.2686 7.59624 12.6309 7.73972 13.0483C7.88317 13.4661 7.95491 13.9199 7.95491 14.4105C7.95491 15.4233 7.70317 16.2003 7.1997 16.7415C6.69622 17.2828 5.98558 17.5537 5.06774 17.5537C4.14991 17.5537 3.41787 17.2824 2.87206 16.7398C2.32627 16.1972 2.05359 15.418 2.05359 14.403Z" fill="white"/>
<path fill-rule="evenodd" clip-rule="evenodd" d="M11.0549 10.9111H11.9945C12.3162 10.9111 12.5577 10.8205 12.719 10.6398C12.8799 10.4591 12.9605 10.1527 12.9605 9.72072V7.83943C12.9605 7.40742 12.8799 7.10283 12.719 6.92478C12.5577 6.74674 12.3162 6.65794 11.9945 6.65794H11.0549V10.9111ZM9.07886 17.4132V4.86414H11.9901C13.9541 4.86414 14.9365 5.9009 14.9365 7.97398V9.60393C14.9365 11.6712 13.955 12.7053 11.9923 12.7053H11.0549V17.4132H9.07886Z" fill="white"/>
<path fill-rule="evenodd" clip-rule="evenodd" d="M17.8343 10.5175H18.6069C19.0052 10.5175 19.3024 10.4153 19.4984 10.2111C19.6945 10.0068 19.7925 9.66586 19.7925 9.18722V7.95332C19.7983 7.09016 19.4646 6.65813 18.7913 6.65813H17.8343V10.5175ZM15.8583 17.4134V4.86389H18.8399C19.8566 4.86389 20.5994 5.10055 21.0668 5.57342C21.5346 6.04629 21.7685 6.77313 21.7685 7.75394V8.74319C21.7685 10.0335 21.3372 10.8829 20.4746 11.2914C21.3488 11.6595 21.7859 12.5497 21.7859 13.9625V15.8935V15.9721C21.7859 16.6128 21.8563 17.0932 21.9966 17.4134H19.9934C19.8771 17.0582 19.8161 16.5458 19.8103 15.8758V13.9101C19.8103 13.3396 19.7092 12.9302 19.5073 12.6829C19.3051 12.4352 18.9758 12.3117 18.5191 12.3117H17.8343V17.4134H15.8583Z" fill="white"/>
<path fill-rule="evenodd" clip-rule="evenodd" d="M2.00012 19.962H22V18.235H2.00012V19.962Z" fill="white"/>
</svg>
