<svg width="24" height="24" viewBox="0 0 24 24" fill="none" xmlns="http://www.w3.org/2000/svg">
<rect x="5.27954" y="1" width="13.4411" height="22" rx="3" fill="#00D45C"/>
<path d="M11.9808 10.1161L14.3015 12.0798C15.7296 13.2879 15.9273 14.2825 15.9273 16.125C15.9273 18.2895 14.5597 19.2809 11.9999 19.2809C9.44018 19.2809 8.07263 18.2895 8.07263 16.125C8.07263 14.039 8.10872 13.9031 10.1957 13.9031C11.5504 13.7677 10.7811 15.7797 11.0714 16.5042C12.5 18 14.3038 15.7827 12.035 13.8936L9.69838 11.9204C8.27027 10.709 8.07263 9.71764 8.07263 7.87193C8.07263 5.71062 9.44018 4.71924 11.9999 4.71924C14.5597 4.71924 15.9273 5.71062 15.9273 7.87193C15.9273 9.95596 15.8956 10.0938 13.8106 10.0938C12.3902 10.2419 13.2847 7.71552 12.7092 7.18249C10.7947 6.5 10.1957 8.78934 11.9808 10.1161Z" fill="white"/>
</svg>
