<svg width="24" height="24" viewBox="0 0 24 24" fill="none" xmlns="http://www.w3.org/2000/svg">
<path d="M24 16.9709H0V10.5107H24V16.9709ZM20.4915 10.961C20.3059 10.9611 20.1207 10.978 19.9382 11.0115C19.7584 11.0445 19.5819 11.0935 19.4108 11.1579C19.2417 11.2215 19.0788 11.3002 18.9238 11.393C18.7705 11.4849 18.626 11.5908 18.4922 11.7093C18.3593 11.8272 18.2382 11.9579 18.1308 12.0994C18.0231 12.2414 17.9304 12.3943 17.8544 12.5556C17.6955 12.8939 17.6139 13.2634 17.6154 13.6371C17.6123 14.0334 17.6852 14.4266 17.8301 14.7954C17.8984 14.9666 17.984 15.1305 18.0853 15.2845C18.1848 15.4353 18.2994 15.5755 18.4275 15.7028C18.5557 15.83 18.6966 15.9437 18.848 16.0422C19.0025 16.1425 19.1666 16.2271 19.3379 16.2947C19.7056 16.4374 20.0971 16.5093 20.4915 16.5064C20.8859 16.5093 21.2773 16.4375 21.6451 16.2947C21.8164 16.2271 21.9805 16.1425 22.135 16.0422C22.2864 15.9437 22.4273 15.83 22.5555 15.7028C22.6836 15.5755 22.7983 15.4353 22.8977 15.2845C22.9991 15.1305 23.0846 14.9666 23.153 14.7954C23.2978 14.4266 23.3707 14.0334 23.3676 13.6371C23.3692 13.2633 23.2876 12.8939 23.1287 12.5555C23.0526 12.3943 22.96 12.2414 22.8523 12.0994C22.7448 11.9579 22.6237 11.8272 22.4907 11.7093C22.357 11.5908 22.2125 11.4849 22.0592 11.3931C21.9042 11.3003 21.7413 11.2216 21.5723 11.1579C21.4012 11.0935 21.2246 11.0445 21.0448 11.0114C20.8623 10.9779 20.6771 10.961 20.4915 10.961ZM6.66046 10.961C6.47488 10.9611 6.2897 10.978 6.10718 11.0115C5.92735 11.0445 5.75082 11.0936 5.57969 11.158C5.41066 11.2216 5.2477 11.3003 5.09274 11.3931C4.93941 11.4849 4.79493 11.5908 4.66116 11.7093C4.52824 11.8272 4.40719 11.9579 4.29975 12.0994C4.19201 12.2414 4.09935 12.3943 4.02329 12.5556C3.86445 12.894 3.78283 13.2634 3.78436 13.6372C3.78129 14.0334 3.85416 14.4266 3.99904 14.7954C4.06742 14.9667 4.15294 15.1305 4.25429 15.2845C4.35374 15.4353 4.46841 15.5755 4.59649 15.7029C4.7247 15.83 4.86559 15.9438 5.01695 16.0423C5.17144 16.1426 5.33558 16.2271 5.50692 16.2947C5.87463 16.4375 6.26605 16.5093 6.66048 16.5064C7.05491 16.5093 7.44633 16.4375 7.81404 16.2947C7.98538 16.2272 8.14952 16.1426 8.30401 16.0423C8.45537 15.9438 8.59626 15.8301 8.72447 15.7029C8.85256 15.5755 8.96724 15.4354 9.06669 15.2846C9.16804 15.1306 9.25356 14.9667 9.32195 14.7955C9.46683 14.4266 9.5397 14.0334 9.53663 13.6372C9.53816 13.2634 9.45655 12.894 9.29771 12.5556C9.22165 12.3944 9.129 12.2415 9.02126 12.0994C8.91382 11.9579 8.79277 11.8272 8.65984 11.7094C8.52608 11.5908 8.3816 11.4849 8.22826 11.3931C8.07331 11.3003 7.91034 11.2216 7.74132 11.158C7.57018 11.0936 7.39364 11.0446 7.2138 11.0115C7.03127 10.978 6.84607 10.9611 6.66048 10.961H6.66046ZM13.8013 11.1334V12.2784H14.9186V16.3338H16.2704V12.2783H17.3878V11.1333L13.8013 11.1334ZM9.76415 11.1334V12.2784H10.8815V16.3338H12.2333V12.2783H13.3507V11.1333H9.76413L9.76415 11.1334ZM0.632268 11.1334V16.3338H3.60494V15.189H1.9841V11.1334H0.632268ZM20.4915 15.1958C20.2956 15.1964 20.1016 15.1568 19.9215 15.0795C19.834 15.0418 19.7504 14.9955 19.6721 14.9412C19.5936 14.8868 19.5207 14.8248 19.4544 14.7562C19.318 14.6146 19.2107 14.4476 19.1385 14.2648C19.0607 14.0671 19.0213 13.8565 19.0225 13.644C19.0226 13.5549 19.0326 13.466 19.0525 13.3791C19.0724 13.2923 19.1012 13.2078 19.1385 13.127C19.1762 13.0453 19.2218 12.9675 19.2745 12.8945C19.328 12.8206 19.3882 12.7517 19.4543 12.6888C19.5215 12.6249 19.5944 12.5673 19.672 12.5166C19.7509 12.4652 19.8345 12.4211 19.9215 12.3851C20.1021 12.31 20.2959 12.2714 20.4915 12.2715C20.6871 12.2714 20.8808 12.31 21.0615 12.3851C21.1485 12.4211 21.232 12.4652 21.3109 12.5166C21.3886 12.5673 21.4614 12.6249 21.5286 12.6888C21.5948 12.7517 21.655 12.8206 21.7085 12.8945C21.7612 12.9674 21.8068 13.0453 21.8445 13.127C21.8818 13.2078 21.9107 13.2923 21.9305 13.3791C21.9504 13.466 21.9605 13.5549 21.9606 13.644C21.9617 13.8565 21.9223 14.0671 21.8445 14.2648C21.7723 14.4476 21.665 14.6146 21.5286 14.7562C21.4623 14.8248 21.3894 14.8868 21.3109 14.9412C21.2326 14.9955 21.149 15.0418 21.0615 15.0795C20.8814 15.1568 20.6874 15.1964 20.4915 15.1958V15.1958ZM6.66046 15.1958C6.46451 15.1964 6.27054 15.1568 6.09048 15.0795C6.00294 15.0418 5.91937 14.9955 5.84101 14.9412C5.76255 14.8868 5.68962 14.8248 5.62331 14.7562C5.48694 14.6146 5.37963 14.4476 5.30747 14.2648C5.22965 14.0671 5.19025 13.8565 5.19139 13.644C5.19151 13.5549 5.20159 13.466 5.22143 13.3791C5.24131 13.2923 5.27015 13.2078 5.30747 13.127C5.3452 13.0453 5.39074 12.9674 5.44347 12.8945C5.49696 12.8206 5.55718 12.7517 5.62335 12.6888C5.69054 12.6249 5.76341 12.5673 5.84106 12.5166C5.91997 12.4652 6.00349 12.4211 6.09053 12.3851C6.27117 12.31 6.46488 12.2714 6.6605 12.2715C6.85613 12.2714 7.04985 12.31 7.2305 12.3851C7.31754 12.4211 7.40105 12.4652 7.47997 12.5166C7.55762 12.5673 7.63049 12.6249 7.69767 12.6888C7.76385 12.7517 7.82407 12.8206 7.87756 12.8945C7.93029 12.9674 7.97583 13.0453 8.01356 13.127C8.05088 13.2078 8.07971 13.2923 8.0996 13.3791C8.11944 13.466 8.12952 13.5549 8.12963 13.644C8.13078 13.8564 8.09138 14.0671 8.01356 14.2647C7.94139 14.4476 7.83408 14.6145 7.6977 14.7561C7.63138 14.8248 7.55846 14.8868 7.47999 14.9412C7.40164 14.9955 7.31807 15.0418 7.23052 15.0794C7.05045 15.1568 6.85645 15.1964 6.66048 15.1958H6.66046Z" fill="white"/>
<path d="M3.29208 5.57263C3.02757 5.35219 2.68951 5.2052 2.33679 5.2052C2.07228 5.2052 1.71952 5.35954 1.71952 5.66816C1.71952 5.99149 2.109 6.11649 2.35883 6.19718L2.72625 6.3074C3.49783 6.53522 4.09305 6.92468 4.09305 7.82119C4.09305 8.37231 3.9608 8.93814 3.51989 9.31291C3.08632 9.68031 2.50581 9.83465 1.94731 9.83465C1.24923 9.83465 0.565828 9.5995 0 9.20267L0.617251 8.04163C0.977321 8.35769 1.40354 8.61481 1.89589 8.61481C2.2339 8.61481 2.59397 8.44579 2.59397 8.05633C2.59397 7.65217 2.02814 7.51254 1.71952 7.42435C0.815655 7.16717 0.22044 6.93203 0.22044 5.85915C0.22044 4.73485 1.02141 4 2.13103 4C2.68951 4 3.37289 4.17637 3.86526 4.45561L3.29208 5.57263Z" fill="white"/>
<path d="M9.58242 4.14697V7.26268C9.58242 7.97551 9.55301 8.68093 9.00184 9.21737C8.53899 9.67284 7.81145 9.83464 7.16488 9.83464C6.51831 9.83464 5.79077 9.67295 5.32777 9.21737C4.77665 8.68093 4.74719 7.97551 4.74719 7.26268V4.14697H6.18754V7.06427C6.18754 7.78444 6.23896 8.57064 7.16488 8.57064C8.0908 8.57064 8.14223 7.78437 8.14223 7.06427V4.14697H9.58242Z" fill="white"/>
<path d="M10.4937 4.14697H12.6982C13.8886 4.14697 14.7116 4.6981 14.7116 5.9694C14.7116 7.27741 14.0062 7.85059 12.7496 7.85059H11.9339V9.68768H10.4937V4.14697ZM11.9339 6.68952H12.1764C12.6982 6.68952 13.2125 6.68952 13.2125 6.01345C13.2125 5.31537 12.7349 5.30802 12.1764 5.30802H11.9339V6.68952Z" fill="white"/>
<path d="M16.7912 5.36681V6.2926H18.4152V7.51244H16.7912V8.46773H18.5034V9.68757H15.351V4.14697H18.5034V5.36681H16.7912Z" fill="white"/>
<path d="M24 9.68766H22.207L20.8476 7.55662H20.8329V9.68766H19.3926V4.14697H21.5456C22.6406 4.14697 23.4709 4.66871 23.4709 5.85179C23.4709 6.61602 23.0447 7.27745 22.2585 7.41701L24 9.68766ZM20.8329 6.63072H20.9725C21.4428 6.63072 21.9719 6.54254 21.9719 5.93997C21.9719 5.3374 21.4428 5.24922 20.9725 5.24922H20.8329V6.63072Z" fill="white"/>
<path d="M2.61975 19.0091C2.61302 19.3738 2.5866 19.6856 2.36441 19.9973C2.11902 20.3388 1.75092 20.4882 1.33309 20.4882C0.547178 20.4882 0 19.9543 0 19.1684C0 18.3559 0.550495 17.822 1.35631 17.822C1.87031 17.822 2.26824 18.0541 2.48384 18.5217L1.86704 18.7804C1.77751 18.5416 1.58847 18.3824 1.32652 18.3824C0.89873 18.3824 0.676451 18.7904 0.676451 19.1717C0.676451 19.5597 0.908593 19.9543 1.33636 19.9543C1.61822 19.9543 1.83377 19.8084 1.86031 19.5199H1.32973V19.0092L2.61975 19.0091Z" fill="white"/>
<path d="M6.30714 19.9707L6.13471 20.4051H5.44495L6.4066 17.9048H7.11625L8.05802 20.4051H7.365L7.2025 19.9707H6.30714ZM6.76133 18.6775H6.75472L6.48622 19.4733H7.02674L6.76133 18.6775Z" fill="white"/>
<path d="M11.0508 17.9048H11.6908L12.1982 19.2412L12.7354 17.9048H13.382L13.7601 20.4051H13.11L12.9276 18.966H12.9209L12.3207 20.4051H12.062L11.4884 18.966H11.4816L11.2727 20.4051H10.6263L11.0508 17.9048Z" fill="white"/>
<path d="M17.5734 18.4553V18.8731H18.3063V19.4236H17.5734V19.8547H18.346V20.4051H16.9233V17.9048H18.346V18.4553H17.5734Z" fill="white"/>
<path d="M23.6384 18.5482C23.5183 18.4446 23.3659 18.3859 23.2073 18.3823C23.088 18.3823 22.9288 18.452 22.9288 18.5912C22.9288 18.7371 23.1045 18.7935 23.2173 18.83L23.3832 18.8797C23.7314 18.9825 24 19.1583 24 19.5629C24 19.8116 23.9403 20.0669 23.7413 20.236C23.5456 20.4019 23.2837 20.4714 23.0317 20.4714C22.7165 20.4683 22.4099 20.3688 22.153 20.1862L22.4315 19.6622C22.594 19.8049 22.7863 19.9209 23.0085 19.9209C23.1611 19.9209 23.3235 19.8447 23.3235 19.6689C23.3235 19.4865 23.0682 19.4235 22.929 19.3837C22.521 19.2676 22.2525 19.1615 22.2525 18.6774C22.2525 18.17 22.614 17.8384 23.1147 17.8384C23.3883 17.8433 23.6567 17.9138 23.8974 18.044L23.6384 18.5482Z" fill="white"/>
</svg>
