<svg width="24" height="24" viewBox="0 0 24 24" fill="none" xmlns="http://www.w3.org/2000/svg">
<path d="M12.5163 2C8.94435 2 8.94434 7.34248 12.5163 7.34248C16.091 7.34248 16.0916 2 12.5163 2ZM12.519 6.0056C10.7331 6.0056 10.7331 3.33689 12.519 3.33689C14.3051 3.33689 14.3043 6.0056 12.519 6.0056Z" fill="#F6DA42"/>
<path d="M20.1702 9.3252C16.5954 9.3252 16.5954 14.6677 20.1702 14.6677C23.7448 14.6677 23.7456 9.3252 20.1702 9.3252ZM20.1702 13.3308C18.3841 13.3308 18.3848 10.6621 20.1702 10.6621C21.9547 10.6621 21.9576 13.3308 20.1702 13.3308Z" fill="#24ACF9"/>
<path d="M12.511 16.6602C8.93974 16.6602 8.93849 22.0001 12.511 22.0001C16.0863 22.0001 16.085 16.6602 12.511 16.6602ZM12.511 20.6632C10.7251 20.6632 10.7251 17.9945 12.511 17.9945C14.2966 17.9945 14.2988 20.6632 12.511 20.6632Z" fill="#54EC3B"/>
<path d="M4.87326 9.33496C1.29851 9.33496 1.29852 14.6774 4.87326 14.6774C8.44783 14.6774 8.44858 9.33496 4.87326 9.33496ZM4.87326 13.3405C3.08722 13.3405 3.0879 10.6718 4.87326 10.6718C6.65838 10.6718 6.66056 13.3405 4.87326 13.3405Z" fill="#FF3333"/>
<path d="M9.65052 9.96281C8.89763 9.24099 8.09167 8.46834 7.99889 8.38191C7.55695 7.95822 6.45547 8.58914 6.38969 7.30174C6.35255 6.62819 6.91195 6.07666 7.60388 6.07666C8.90277 6.07666 8.3626 7.1853 8.80482 7.60926C8.90026 7.70076 9.70356 8.47086 10.4538 9.19269C10.5497 9.27316 9.77636 10.0834 9.65052 9.96281Z" fill="white"/>
<path d="M14.6293 9.32994C14.7556 9.42211 15.2873 10.0919 15.4219 9.96281C15.6287 9.76457 16.867 8.26754 17.1611 8.36159C17.8608 8.54179 18.6444 8.05328 18.6828 7.30174C18.7199 6.62819 18.1605 6.07666 17.4686 6.07666C16.711 6.07666 16.1153 6.77859 16.2915 7.51776C16.3685 7.83763 14.8372 8.98246 14.6187 9.19269C14.5763 9.22829 14.5815 9.29436 14.6293 9.32994Z" fill="white"/>
<path d="M15.422 13.9887C16.1749 14.7105 16.9808 15.4832 17.0736 15.5696C17.1709 15.6629 17.5791 15.5478 17.7284 15.5772C18.2586 15.684 18.6563 16.1313 18.6828 16.6498C18.7199 17.3233 18.1606 17.8748 17.4686 17.8748C16.8006 17.8748 16.2571 17.3563 16.2571 16.7108C16.2571 16.6205 16.3419 16.4134 16.2677 16.3422C16.1722 16.2507 15.369 15.4806 14.6187 14.7588C14.5219 14.6776 15.2967 13.8686 15.422 13.9887Z" fill="white"/>
<path d="M9.65052 13.9888C9.44373 14.187 8.20548 15.684 7.9114 15.59C7.2117 15.4097 6.42809 15.8983 6.38969 16.6499C6.35255 17.3234 6.91195 17.8749 7.60388 17.8749C8.36135 17.8749 8.95735 17.173 8.78096 16.4338C8.70399 16.1139 10.2353 14.9691 10.4538 14.7589C10.5496 14.6785 9.77636 13.8681 9.65052 13.9888Z" fill="white"/>
<path d="M12.5137 13.8872C9.87762 13.8872 9.88144 9.9375 12.5163 9.9375C15.1566 9.9375 15.1484 13.8872 12.5137 13.8872Z" fill="white"/>
</svg>
