<svg width="24" height="24" viewBox="0 0 24 24" fill="none" xmlns="http://www.w3.org/2000/svg">
<g clip-path="url(#clip0_7342_5418)">
<path d="M13.1854 19.0001H9.24771C8.85146 19.0001 8.46761 18.7868 8.21994 18.4059C7.9599 18.0251 7.86085 17.5376 7.92277 17.0501L9.45821 6.38634C9.56967 5.59415 10.1269 5.01526 10.7832 5.01526H14.7085C15.1048 5.01526 15.4886 5.22855 15.7363 5.60942C15.9963 5.99025 16.0954 6.47774 16.0335 6.96524L14.498 17.629C14.399 18.4212 13.8293 19.0001 13.1854 19.0001ZM10.7956 5.33518C10.2755 5.33518 9.82972 5.79222 9.73064 6.43202L8.19519 17.0958C8.14565 17.4767 8.21994 17.8727 8.43045 18.1774C8.64095 18.4821 8.93816 18.6497 9.26009 18.6497H13.1854C13.7055 18.6497 14.1513 18.1926 14.2503 17.5528L15.7858 6.88906C15.8353 6.5082 15.7611 6.11214 15.5505 5.80745C15.34 5.50275 15.0428 5.33518 14.7209 5.33518H10.7956Z" fill="#FAFF13"/>
<path d="M13.9655 6.40149L9.47058 12.5713H11.4271L10.0402 17.2633L14.5104 11.0479H12.5168L13.9655 6.40149Z" fill="#FAFF13"/>
<path d="M23.686 5.59412C23.4259 5.21329 23.0545 5 22.6582 5H18.7329C18.0766 5 17.5194 5.57889 17.4079 6.37104L15.8724 17.0348C15.7982 17.5223 15.9096 18.0098 16.1697 18.3906C16.4297 18.7715 16.8012 18.9848 17.1974 18.9848H21.1227C21.779 18.9848 22.3362 18.4059 22.4477 17.6137L23.9831 6.94994C24.0451 6.47771 23.9336 5.97499 23.686 5.59412ZM23.7107 6.88899L22.1753 17.5528C22.0886 18.1926 21.6428 18.6496 21.1104 18.6496H19.5749L21.94 15.3591H19.9464L21.3952 10.7127L16.9002 16.8977H18.8567L18.3366 18.6496H17.185C16.8631 18.6496 16.5659 18.482 16.3554 18.1774C16.1449 17.8727 16.0706 17.4766 16.1201 17.0958L17.6556 6.43199C17.7423 5.79215 18.188 5.33515 18.7205 5.33515H22.6458C22.9678 5.33515 23.265 5.50272 23.4755 5.80742C23.6736 6.11207 23.7603 6.50816 23.7107 6.88899Z" fill="#FAFF13"/>
<path d="M7.84847 5.60942C7.58846 5.22855 7.21696 5.01526 6.82071 5.01526H2.88301C2.22672 5.01526 1.6695 5.59415 1.55806 6.38634L0.0225955 17.0501C-0.0517011 17.5376 0.0597436 18.0251 0.319781 18.4059C0.57982 18.7868 0.951301 19.0001 1.34755 19.0001H5.27289C5.92915 19.0001 6.48637 18.4212 6.59783 17.629L8.13331 6.96524C8.2076 6.49297 8.09614 5.99025 7.84847 5.60942ZM7.87326 6.90429L6.33778 17.5681C6.23874 18.2079 5.79294 18.6801 5.27289 18.6801H1.34755C1.0256 18.6801 0.728411 18.5126 0.517907 18.2079C0.307399 17.9032 0.233102 17.5071 0.282633 17.1262L1.81809 6.46252C1.90477 5.82267 2.35055 5.36567 2.88301 5.36567H4.33179L2.21434 8.27533H4.17083L2.78395 12.9522L7.25413 6.73672H5.26051L5.69389 5.35041H6.82071C7.14267 5.35041 7.43984 5.51798 7.65035 5.82267C7.8361 6.12737 7.92277 6.52342 7.87326 6.90429Z" fill="#FAFF13"/>
</g>
<defs>
<clipPath id="clip0_7342_5418">
<rect width="24" height="24" fill="white"/>
</clipPath>
</defs>
</svg>
