<svg width="24" height="24" viewBox="0 0 24 24" fill="none" xmlns="http://www.w3.org/2000/svg">
<path d="M11.9181 23.9955C11.4065 23.9676 10.8964 23.9397 10.3864 23.9118C9.78641 23.8808 9.18644 23.8498 8.58648 23.8141C8.54772 23.8126 8.50586 23.7816 8.4702 23.7537C7.22841 22.7227 5.98817 21.6902 4.74794 20.6593C4.21463 20.2143 3.67978 19.7694 3.14648 19.3229C3.10772 19.2904 3.07051 19.2346 3.05191 19.1772C2.68139 18.0625 2.30622 16.9494 1.9481 15.8255C1.81477 15.4069 1.72485 14.9635 1.61943 14.5278C1.41479 13.6814 1.21635 12.8334 1.01172 11.9869C0.993112 11.9094 0.997764 11.8489 1.01792 11.7761C1.15279 11.3187 1.28767 10.8614 1.41789 10.401C1.94499 8.54835 2.47055 6.69729 2.99765 4.84468C3.01315 4.78732 3.03486 4.73151 3.04416 4.6726C3.06741 4.53462 3.14028 4.46796 3.22399 4.40905C3.25345 4.3889 3.28135 4.36254 3.30926 4.33773C4.17433 3.55948 5.03319 2.76728 5.90601 2.00299C6.26568 1.68672 6.65015 1.42782 7.02377 1.14257C7.50747 0.776699 7.99271 0.413929 8.47795 0.0527096C8.51206 0.0263545 8.55392 0.0124027 8.59267 0.0124027C10.7956 0.00620148 13.0002 0.0015503 15.2031 0C15.2357 0 15.2698 0.0124017 15.2977 0.0356562C16.2155 0.722438 17.1364 1.40302 18.0479 2.10531C18.3518 2.3394 18.6324 2.63086 18.9208 2.89906C19.5068 3.44166 20.0943 3.98582 20.6788 4.53152C20.7145 4.56408 20.747 4.61989 20.7641 4.6757C21.4276 6.98565 22.0896 9.29869 22.7516 11.6102C22.7547 11.6195 22.7547 11.6288 22.7578 11.6365C22.8632 11.8133 22.8151 11.9885 22.7686 12.1776C22.4787 13.345 22.2043 14.5185 21.9066 15.6844C21.7997 16.1045 21.6477 16.5076 21.5144 16.9153C21.2648 17.6734 21.0121 18.4299 20.7641 19.188C20.7393 19.2625 20.7067 19.3121 20.6571 19.3539C18.9409 20.7818 17.2232 22.208 15.5086 23.6436C15.3613 23.7676 15.2171 23.8296 15.0466 23.8358C14.5443 23.8544 14.0435 23.8855 13.5412 23.9134C13.056 23.9413 12.5707 23.9707 12.0839 23.9986C12.0297 24.0017 11.977 23.9986 11.9227 23.9986C11.9181 23.9986 11.9181 23.9971 11.9181 23.9955ZM15.2094 16.9091C15.8729 17.9556 16.5318 18.9927 17.1922 20.033C17.2015 20.0206 17.2077 20.0128 17.2139 20.002C17.4216 19.6004 17.6278 19.1989 17.834 18.7974C17.8464 18.7741 17.8557 18.7416 17.8573 18.7137C17.8681 18.5323 17.8759 18.3524 17.8852 18.171C17.9146 17.6145 17.9441 17.0548 17.9735 16.4967C17.989 16.2254 18.0014 15.9526 18.0154 15.672C17.9875 15.6797 17.9658 15.6828 17.9441 15.689C17.2743 15.9014 16.6062 16.1138 15.9364 16.3262C15.9178 16.3324 15.8961 16.337 15.8806 16.3526C15.6574 16.5355 15.4388 16.72 15.2094 16.9091ZM5.80989 15.6704C5.82539 15.9541 5.83624 16.2208 5.85175 16.4859C5.8905 17.2145 5.92771 17.9463 5.96802 18.6749C5.97112 18.7261 5.98507 18.7834 6.00678 18.8268C6.19901 19.2051 6.3928 19.5818 6.58814 19.9585C6.60209 19.9849 6.61605 20.0097 6.6331 20.0392C7.29663 18.9943 7.9555 17.9556 8.61748 16.9138C8.38804 16.7231 8.16634 16.5386 7.94465 16.3541C7.92915 16.3417 7.90744 16.337 7.88729 16.3308C7.39119 16.1727 6.89355 16.013 6.39746 15.8565C6.20212 15.7913 6.00988 15.7324 5.80989 15.6704ZM5.05179 12.9962C5.0766 12.9636 5.09365 12.9388 5.1107 12.9155C5.50293 12.3512 5.89516 11.7838 6.29048 11.2242C6.38505 11.0908 6.45636 10.9498 6.49977 10.7746C6.55558 10.5544 6.62069 10.3405 6.68426 10.1141C5.6099 9.71417 4.54175 9.3173 3.46584 8.91732C3.50305 9.37621 3.5387 9.81959 3.57901 10.2614C3.58521 10.3327 3.61002 10.4087 3.64102 10.4661C3.96659 11.0567 4.29525 11.6427 4.62236 12.2319C4.76499 12.483 4.90761 12.7357 5.05179 12.9962ZM18.7626 13.0039C18.7797 12.9807 18.7843 12.9744 18.7874 12.9667C19.2618 12.114 19.7378 11.2629 20.2122 10.4103C20.2261 10.3839 20.2354 10.3513 20.2385 10.3203C20.2556 10.1421 20.2711 9.96067 20.285 9.78083C20.3098 9.49868 20.3315 9.21498 20.3563 8.91577C19.2789 9.31575 18.2107 9.71262 17.1379 10.1126C17.2247 10.4149 17.3054 10.7079 17.3891 10.9978C17.3968 11.0273 17.417 11.0536 17.434 11.0769C17.8619 11.6939 18.2913 12.3094 18.7192 12.9264C18.7332 12.9481 18.7471 12.9745 18.7626 13.0039ZM17.017 20.1663C16.3535 19.1198 15.6992 18.0873 15.0404 17.0502C14.8032 17.2471 14.5691 17.4409 14.3365 17.6377C14.321 17.6532 14.3071 17.675 14.2947 17.6967C13.9195 18.3462 13.5428 18.9974 13.1676 19.6485C13.1583 19.664 13.1521 19.681 13.1428 19.7027C13.163 19.7105 13.1785 19.7182 13.194 19.7213C14.0358 19.9725 14.8776 20.2236 15.7209 20.4701C15.7535 20.4794 15.7876 20.4794 15.8202 20.4717C16.1039 20.4019 16.3876 20.3275 16.6713 20.2562C16.7845 20.2283 16.8961 20.1988 17.017 20.1663ZM10.684 19.7043C10.6747 19.6841 10.6701 19.6748 10.6654 19.6655C10.2841 19.0051 9.90268 18.3447 9.52131 17.6858C9.51045 17.6672 9.49805 17.6471 9.4841 17.6362C9.2531 17.4424 9.02211 17.2502 8.78646 17.0533C8.12913 18.0904 7.47336 19.1245 6.81293 20.1663C6.83619 20.1756 6.84704 20.1818 6.85789 20.1849C7.20361 20.2733 7.54932 20.3616 7.89504 20.4469C7.96945 20.4655 8.04852 20.4887 8.11828 20.4686C8.83297 20.264 9.54611 20.05 10.2592 19.8376C10.3957 19.7911 10.5368 19.7477 10.684 19.7043ZM14.9179 4.77337C14.8977 4.74392 14.8838 4.72221 14.8714 4.70361C14.3288 3.94861 13.7862 3.19207 13.242 2.43707C13.2203 2.40761 13.1924 2.38281 13.1645 2.36886C12.8033 2.18747 12.4405 2.00919 12.0793 1.8278C12.0622 1.8185 12.0436 1.8123 12.0219 1.8061C12.0219 3.08975 12.0219 4.36409 12.0219 5.64619C12.0498 5.64619 12.0746 5.64619 12.0979 5.64619C12.3366 5.64619 12.5785 5.64774 12.8172 5.64464C12.8591 5.64464 12.9025 5.63534 12.9428 5.61828C13.2575 5.48496 13.5707 5.35008 13.8838 5.21676C14.2249 5.07103 14.566 4.9253 14.9179 4.77337ZM11.8033 5.64619C11.8033 4.35944 11.8033 3.08664 11.8033 1.80455C11.777 1.8154 11.7553 1.8247 11.7351 1.834C11.3848 2.00764 11.0375 2.18127 10.6887 2.35801C10.6422 2.38126 10.5957 2.42002 10.5616 2.46808C10.036 3.19517 9.512 3.92536 8.988 4.65245C8.96165 4.68965 8.92599 4.71136 8.89343 4.74081C8.93219 4.78112 8.95234 4.79042 8.97095 4.79817C9.57091 5.05707 10.1709 5.31287 10.7708 5.57177C10.8298 5.59813 10.8902 5.63999 10.9507 5.64154C11.2328 5.64929 11.5165 5.64619 11.8033 5.64619ZM20.2866 8.65532C20.254 8.61966 20.2339 8.60106 20.2168 8.57935C19.9781 8.27084 19.7424 7.96078 19.5021 7.65692C19.4665 7.61042 19.42 7.57166 19.3735 7.54995C18.7471 7.26625 18.1193 6.9841 17.4929 6.70039C17.2976 6.61357 17.1023 6.52521 16.9023 6.43684C16.8992 6.4818 16.8961 6.51746 16.8945 6.55466C16.8666 7.29105 16.8387 8.02745 16.8077 8.76384C16.8031 8.88011 16.8155 8.98708 16.848 9.09405C16.9116 9.30489 16.9689 9.51728 17.0294 9.72812C17.0418 9.76998 17.0542 9.81184 17.0666 9.8537C18.1379 9.45682 19.1998 9.05995 20.2866 8.65532ZM6.75867 9.85525C6.84549 9.55139 6.92921 9.25683 7.01137 8.96228C7.02067 8.92972 7.01757 8.89096 7.01602 8.85376C6.99122 8.21038 6.96796 7.56546 6.94316 6.92053C6.93851 6.7624 6.92921 6.60272 6.923 6.44149C6.9013 6.44924 6.8889 6.45389 6.8765 6.46009C6.05639 6.82907 5.23473 7.19804 4.41617 7.56856C4.38827 7.58096 4.36036 7.60732 4.33866 7.63677C4.09216 7.95458 3.84566 8.27395 3.60072 8.59331C3.58521 8.61346 3.57126 8.63516 3.5511 8.66462C4.62546 9.0615 5.68897 9.45682 6.75867 9.85525ZM12.0235 12.3001C12.0235 13.6783 12.0235 15.0348 12.0235 16.3913C12.887 16.3913 13.7474 16.3913 14.6187 16.3913C13.7521 15.0239 12.8917 13.669 12.0235 12.3001ZM9.20504 16.3929C10.0794 16.3929 10.9398 16.3929 11.7987 16.3929C11.7987 15.0317 11.7987 13.6752 11.7987 12.3032C10.9305 13.6721 10.0717 15.0255 9.20504 16.3929ZM12.0204 6.457C12.0204 8.14837 12.0204 9.82579 12.0204 11.5249C12.7273 10.4118 13.4234 9.31419 14.1241 8.20883C13.4203 7.62282 12.7242 7.04146 12.0204 6.457ZM11.8064 11.5265C11.8064 9.82269 11.8064 8.14527 11.8064 6.45389C11.1011 7.04146 10.4034 7.61972 9.69959 8.20728C10.4003 9.31264 11.098 10.4103 11.8064 11.5265ZM14.8078 16.2719C15.0776 15.32 15.3427 14.3821 15.6109 13.4411C14.4776 13.021 13.3536 12.6008 12.2095 12.1745C13.0808 13.5496 13.9397 14.9015 14.8078 16.2719ZM9.01591 16.2719C9.88407 14.9046 10.7414 13.5527 11.6003 12.1978C11.5972 12.1915 11.5956 12.1884 11.5941 12.1822C10.4701 12.6008 9.34302 13.0194 8.21285 13.4411C8.48106 14.3837 8.74616 15.3185 9.01591 16.2719ZM7.4222 10.1033C8.82057 10.6242 10.2019 11.1373 11.5832 11.652C11.5863 11.6443 11.5894 11.6396 11.5925 11.6319C10.9011 10.542 10.2096 9.45062 9.51666 8.36076C8.82057 8.94057 8.12759 9.51573 7.4222 10.1033ZM14.3071 8.35921C13.6141 9.45217 12.9227 10.5405 12.2328 11.6303C12.2359 11.6381 12.239 11.6427 12.2421 11.6505C13.6234 11.1358 15.0047 10.6226 16.4015 10.1017C15.6961 9.51573 15.0047 8.94057 14.3071 8.35921ZM11.4964 11.9202C11.4964 11.914 11.4979 11.9094 11.4979 11.9016C10.1151 11.3869 8.73376 10.8738 7.33694 10.3529C7.60669 11.3048 7.87024 12.235 8.13534 13.1682C9.26241 12.7528 10.3802 12.3373 11.4964 11.9202ZM12.3258 11.9016C12.3258 11.9078 12.3258 11.9125 12.3242 11.9202C13.4436 12.3373 14.5629 12.7543 15.6853 13.1713C15.9519 12.2334 16.2155 11.3032 16.4837 10.356C15.0869 10.8738 13.7071 11.3885 12.3258 11.9016ZM20.933 9.56999C20.7703 9.863 20.6121 10.1452 20.4556 10.4304C20.4401 10.4583 20.4323 10.4971 20.4292 10.5312C20.3951 10.925 20.3625 11.3187 20.3315 11.7125C20.285 12.2768 20.237 12.8411 20.1905 13.407C20.1579 13.7961 20.1253 14.1868 20.0928 14.5883C20.1114 14.5713 20.1253 14.562 20.1377 14.5496C20.6152 14.0318 21.0943 13.5124 21.5702 12.9915C21.5873 12.9713 21.6012 12.9248 21.5997 12.8923C21.5935 12.6752 21.5811 12.4566 21.5718 12.2396C21.5423 11.6288 21.5129 11.0195 21.4803 10.4087C21.4788 10.3777 21.4741 10.3389 21.4586 10.3157C21.2865 10.0676 21.1129 9.82424 20.933 9.56999ZM3.73249 14.5961C3.71699 14.41 3.70458 14.2457 3.69063 14.0814C3.59606 12.9558 3.5015 11.8303 3.41158 10.7033C3.39763 10.5389 3.36197 10.401 3.28445 10.2707C3.15733 10.0645 3.04416 9.84285 2.92324 9.6289C2.91238 9.6103 2.90153 9.59325 2.88758 9.57309C2.71084 9.82424 2.53721 10.0692 2.36668 10.3172C2.35273 10.3358 2.34807 10.373 2.34652 10.401C2.30467 11.2319 2.26436 12.0613 2.22715 12.8938C2.2256 12.931 2.24575 12.9807 2.26746 13.0039C2.58372 13.3512 2.90308 13.6953 3.21934 14.0411C3.38678 14.2209 3.55266 14.4023 3.73249 14.5961ZM18.0092 19.8702C18.2867 19.7834 18.5533 19.7027 18.8215 19.6159C18.8463 19.6082 18.8681 19.5787 18.8851 19.5555C19.3378 18.9229 19.7858 18.2873 20.2401 17.6564C20.2804 17.6005 20.2866 17.5509 20.2757 17.4796C20.1936 16.9928 20.116 16.5029 20.037 16.0146C19.9967 15.7681 19.9564 15.52 19.913 15.2596C19.899 15.2813 19.8928 15.2921 19.8866 15.3061C19.2866 16.4704 18.6867 17.6346 18.0867 18.7989C18.0759 18.8206 18.0635 18.847 18.0619 18.8733C18.0433 19.1973 18.0262 19.526 18.0092 19.8702ZM3.91543 15.2596C3.90922 15.2859 3.90457 15.3014 3.90147 15.3185C3.78365 16.0533 3.66273 16.7866 3.54645 17.5215C3.5418 17.5571 3.55731 17.6098 3.57591 17.6377C4.0286 18.278 4.48283 18.9167 4.93707 19.5524C4.96188 19.588 4.99753 19.6144 5.03319 19.6268C5.17117 19.6748 5.30759 19.7136 5.44557 19.7555C5.56649 19.7927 5.68742 19.8299 5.81454 19.8655C5.79749 19.5446 5.78198 19.2377 5.76338 18.9338C5.75873 18.8764 5.74633 18.8129 5.72152 18.7664C5.13706 17.6253 4.54795 16.4859 3.96193 15.3464C3.94953 15.3216 3.93403 15.2952 3.91543 15.2596ZM17.1984 4.25867C17.1937 4.26952 17.1875 4.28037 17.1829 4.28968C17.1984 4.29898 17.2139 4.30518 17.2247 4.31913C17.9875 5.30667 18.7502 6.29576 19.513 7.2833C19.5378 7.31431 19.5703 7.34066 19.6044 7.35462C19.8525 7.46934 20.1005 7.57941 20.3501 7.69258C20.3703 7.70188 20.3904 7.70809 20.4153 7.71584C20.4184 7.67553 20.4215 7.64607 20.423 7.61507C20.4339 7.36082 20.4463 7.10502 20.4525 6.85077C20.454 6.79961 20.4401 6.7345 20.4168 6.69419C20.0463 6.02756 19.6696 5.36713 19.299 4.69741C19.2401 4.59043 19.175 4.55168 19.0835 4.53927C18.5626 4.46486 18.0417 4.38424 17.5208 4.30673C17.4139 4.28813 17.3054 4.27572 17.1984 4.25867ZM3.40693 7.71894C3.43793 7.70654 3.46274 7.69878 3.48289 7.68793C3.72474 7.57941 3.96814 7.47244 4.20998 7.35927C4.25029 7.34066 4.29215 7.30811 4.32316 7.26625C5.08125 6.28801 5.8347 5.30822 6.59124 4.32843C6.6052 4.30983 6.61605 4.28968 6.63465 4.26642C6.60675 4.26642 6.58659 4.26487 6.56644 4.26642C5.92771 4.36254 5.28899 4.45866 4.65027 4.55788C4.62391 4.56098 4.59136 4.58733 4.5743 4.61679C4.18053 5.31442 3.78675 6.01206 3.39608 6.71124C3.38057 6.73915 3.36972 6.78256 3.37127 6.81821C3.37592 6.9903 3.38367 7.16083 3.38987 7.33291C3.39297 7.46004 3.40073 7.58406 3.40693 7.71894ZM12.7769 1.36736C12.7707 1.37977 12.7645 1.39527 12.7583 1.40767C12.9335 1.63712 13.1087 1.86501 13.2854 2.0929C13.318 2.13321 13.3552 2.17042 13.3955 2.19057C14.4575 2.72233 15.5225 3.24943 16.586 3.77963C16.6062 3.78893 16.6263 3.79668 16.6558 3.80908C16.6449 3.77963 16.6403 3.76258 16.6341 3.74862C16.3597 3.0882 16.0853 2.42622 15.8078 1.76424C15.7923 1.72703 15.752 1.69603 15.7194 1.68673C15.0156 1.47123 14.3133 1.25884 13.6094 1.04645C13.5846 1.0387 13.5536 1.0294 13.5304 1.04025C13.2777 1.14567 13.0281 1.25574 12.7769 1.36736ZM7.16485 3.81063C7.19431 3.79513 7.20826 3.79203 7.22066 3.78428C8.29657 3.24943 9.37402 2.71457 10.4484 2.17662C10.4763 2.16112 10.5042 2.13786 10.5243 2.10841C10.6871 1.88516 10.8484 1.65882 11.0111 1.43248C11.0251 1.41387 11.0359 1.39372 11.053 1.36736C10.7941 1.25419 10.543 1.14412 10.2918 1.0356C10.2701 1.0263 10.2422 1.0325 10.2189 1.0387C9.512 1.25264 8.80352 1.46658 8.09658 1.68052C8.05317 1.69293 8.02837 1.72083 8.00666 1.77509C7.74001 2.42157 7.47181 3.06649 7.20206 3.71296C7.19275 3.73777 7.18345 3.76413 7.16485 3.81063ZM12.2467 21.6639C12.2731 21.6825 12.2824 21.6902 12.2932 21.6964C12.8575 22.0468 13.4219 22.3987 13.9862 22.7475C14.0141 22.7661 14.0559 22.7661 14.0869 22.7537C14.7706 22.453 15.4543 22.1507 16.1364 21.8437C16.1705 21.8282 16.2031 21.7941 16.2248 21.7569C16.3488 21.546 16.4682 21.3321 16.5891 21.1182C16.6046 21.0949 16.617 21.0686 16.6356 21.0329C16.3953 20.9616 16.1628 20.9027 15.9364 20.8221C15.8047 20.7756 15.6791 20.7833 15.5458 20.819C14.6667 21.0484 13.7862 21.2685 12.9056 21.4918C12.6932 21.5492 12.4777 21.605 12.2467 21.6639ZM11.5786 21.667C11.5429 21.6561 11.5258 21.6484 11.5088 21.6453C10.4251 21.3709 9.34302 21.0949 8.26091 20.8174C8.13379 20.7849 8.01596 20.7818 7.89039 20.8267C7.71676 20.8872 7.54003 20.9321 7.36639 20.9833C7.30903 21.0003 7.25167 21.0205 7.1881 21.0407C7.32918 21.2903 7.46406 21.5274 7.60048 21.7646C7.62219 21.8019 7.6563 21.8344 7.6904 21.8499C8.36788 22.1538 9.04847 22.453 9.72595 22.7553C9.77246 22.7754 9.80966 22.7739 9.85307 22.746C10.2065 22.5227 10.5616 22.3026 10.915 22.084C11.1305 21.946 11.3476 21.8112 11.5786 21.667ZM8.06557 6.07252C8.05317 6.11283 8.04387 6.13918 8.03612 6.16709C7.80357 6.9841 7.57568 7.8042 7.33848 8.61811C7.26407 8.87081 7.21291 9.11886 7.24237 9.39326C7.25787 9.54054 7.25477 9.69402 7.25942 9.84285C7.25942 9.8599 7.26252 9.8785 7.26562 9.90951C7.97411 9.31884 8.67484 8.73593 9.38178 8.14682C8.9446 7.45694 8.50741 6.7686 8.06557 6.07252ZM16.5612 9.91261C16.5721 9.60255 16.5845 9.31264 16.5938 9.02119C16.5953 8.99483 16.5845 8.96693 16.5783 8.94212C16.3147 8.01194 16.0512 7.08332 15.7876 6.15624C15.7814 6.13298 15.7721 6.10818 15.7597 6.07562C15.3179 6.7717 14.8822 7.45849 14.4435 8.14992C15.1473 8.73593 15.8465 9.31885 16.5612 9.91261ZM15.8837 13.2458C16.5953 13.5109 17.3023 13.7729 18.0185 14.0411C18.0061 13.9945 17.9999 13.9635 17.9906 13.9325C17.7782 13.1837 17.5565 12.4396 17.3565 11.6831C17.2557 11.2986 17.1178 10.9622 16.8945 10.6924C16.8232 10.6071 16.7628 10.5048 16.6914 10.4025C16.4201 11.3559 16.155 12.2954 15.8837 13.2458ZM5.80214 14.0411C6.52148 13.7729 7.22686 13.5093 7.94 13.2458C7.67025 12.2954 7.4036 11.3544 7.1323 10.4025C6.96331 10.6459 6.80208 10.8784 6.6393 11.1125C6.6238 11.1342 6.6176 11.1668 6.60985 11.1932C6.44861 11.7621 6.28738 12.3311 6.12615 12.9C6.01918 13.2752 5.91376 13.6488 5.80214 14.0411ZM17.9317 14.3031C17.2185 14.038 16.5163 13.7775 15.8093 13.514C15.5427 14.455 15.2776 15.3883 15.0094 16.3355C15.045 16.3277 15.0636 16.3246 15.0822 16.3169C15.2497 16.2657 15.4171 16.2068 15.5861 16.1603C15.7194 16.1231 15.8388 16.0533 15.9566 15.9557C16.5907 15.4224 17.2263 14.8968 17.8635 14.3666C17.8805 14.3511 17.9007 14.3294 17.9317 14.3031ZM5.89206 14.3046C5.92616 14.3341 5.94787 14.3527 5.96802 14.3713C6.60364 14.9015 7.23927 15.427 7.87334 15.9603C7.98961 16.058 8.10898 16.1309 8.24386 16.1634C8.33843 16.1867 8.43145 16.2223 8.52447 16.2518C8.61748 16.2812 8.7105 16.3091 8.81437 16.3401C8.80352 16.2983 8.79886 16.2719 8.79111 16.2456C8.54151 15.3619 8.28882 14.4798 8.04077 13.5946C8.02371 13.5341 8.00511 13.5171 7.9586 13.5357C7.51522 13.7031 7.06873 13.8674 6.6238 14.0333C6.38195 14.1217 6.1432 14.21 5.89206 14.3046ZM12.0235 16.675C12.0235 17.5246 12.0235 18.3679 12.0235 19.2191C12.0498 19.1989 12.0715 19.1834 12.0917 19.1663C12.687 18.6718 13.2777 18.1664 13.8776 17.6843C14.1117 17.4967 14.3164 17.2781 14.4668 16.9665C14.5133 16.8688 14.5737 16.7804 14.6342 16.675C13.7567 16.675 12.8932 16.675 12.0235 16.675ZM9.18799 16.675C9.32287 16.9076 9.44689 17.1246 9.57246 17.3416C9.59262 17.3773 9.61897 17.4083 9.64688 17.4316C10.3461 18.0145 11.0468 18.5974 11.7475 19.1803C11.763 19.1927 11.7816 19.2035 11.7987 19.2175C11.7987 18.3648 11.7987 17.5215 11.7987 16.6766C10.9305 16.675 10.067 16.675 9.18799 16.675ZM14.2575 7.99644C14.6915 7.31121 15.1225 6.63218 15.5659 5.93299C15.521 5.93299 15.4946 5.93299 15.4698 5.93299C14.6729 5.93299 13.8776 5.93454 13.0823 5.93144C12.9444 5.93144 12.8126 5.95315 12.6808 6.01671C12.5118 6.09732 12.3382 6.16554 12.1537 6.24615C12.8591 6.83217 13.5536 7.41043 14.2575 7.99644ZM8.25781 5.93454C8.70275 6.63528 9.13373 7.31431 9.56626 7.99799C10.267 7.41508 10.9631 6.83527 11.6669 6.24925C11.6421 6.23685 11.6251 6.22755 11.6096 6.2198C11.4096 6.13298 11.208 6.04616 11.0065 5.964C10.9662 5.94695 10.9228 5.93764 10.8809 5.93764C10.036 5.93609 9.19109 5.93609 8.34463 5.93609C8.32448 5.93454 8.29967 5.93454 8.25781 5.93454ZM19.8835 14.6007C19.9874 13.3667 20.0881 12.1543 20.1889 10.9436C20.1843 10.942 20.1781 10.9405 20.1734 10.9358C19.7533 11.6893 19.3331 12.4411 18.9115 13.1992C19.2324 13.6643 19.5517 14.1232 19.8835 14.6007ZM3.94178 14.6007C4.27199 14.1263 4.59136 13.6674 4.91382 13.2023C4.49214 12.4442 4.07046 11.6893 3.65033 10.9343C3.64568 10.9374 3.64102 10.9405 3.63482 10.9436C3.73714 12.1543 3.83791 13.3651 3.94178 14.6007ZM4.09991 15.1278C4.64407 16.1851 5.17892 17.2223 5.71377 18.261C5.71842 18.2579 5.72462 18.2548 5.72927 18.2517C5.68276 17.368 5.63626 16.4843 5.58975 15.6007C5.09365 15.4425 4.60531 15.2875 4.09991 15.1278ZM18.0945 18.2517C18.0991 18.2532 18.1069 18.2548 18.1115 18.2579C18.6448 17.2207 19.1797 16.1836 19.7238 15.1278C19.2184 15.289 18.7285 15.4441 18.234 15.6007C18.1875 16.4859 18.141 17.3695 18.0945 18.2517ZM6.84549 4.38424C6.14165 5.29737 5.45022 6.19499 4.75724 7.09107C4.77584 7.10192 4.78669 7.10037 4.79599 7.09727C5.48433 6.78721 6.17421 6.4756 6.86255 6.16709C6.9044 6.14848 6.91215 6.12058 6.90905 6.06787C6.892 5.64309 6.8765 5.22141 6.86099 4.79662C6.85789 4.66485 6.85169 4.53462 6.84549 4.38424ZM19.0556 7.10967C19.0587 7.10347 19.0618 7.09727 19.0649 7.09107C18.3735 6.19499 17.6805 5.29737 16.9798 4.38735C16.9751 4.43385 16.9736 4.45711 16.972 4.48191C16.9519 5.00436 16.9348 5.52681 16.9116 6.04616C16.9085 6.12368 16.9271 6.15159 16.9782 6.17329C17.4914 6.40273 18.003 6.63218 18.5161 6.86317C18.696 6.94534 18.8758 7.02905 19.0556 7.10967ZM10.1368 2.65256C10.1337 2.64481 10.1321 2.64016 10.1275 2.63241C9.17404 3.1068 8.2206 3.58119 7.25167 4.06178C7.71986 4.26332 8.1679 4.45246 8.61593 4.64935C8.66554 4.67105 8.69499 4.66175 8.73375 4.61059C9.05001 4.16565 9.36938 3.72537 9.68564 3.28198C9.83602 3.07424 9.9864 2.8634 10.1368 2.65256ZM16.5519 4.07264C16.5519 4.06643 16.5519 4.06023 16.5519 4.05403C15.6 3.57964 14.6466 3.1068 13.6932 2.63241C13.6885 2.64171 13.6823 2.65256 13.6777 2.66186C13.7149 2.70837 13.7552 2.75178 13.7924 2.80139C14.228 3.40601 14.6636 4.01527 15.1008 4.61834C15.1179 4.6416 15.1566 4.66485 15.1783 4.65555C15.6388 4.46486 16.0946 4.26797 16.5519 4.07264ZM12.1537 21.4065C13.1862 21.143 14.1986 20.8856 15.2094 20.6283C15.1938 20.6081 15.1783 20.6004 15.1628 20.5973C14.4559 20.3864 13.7505 20.1787 13.0436 19.9663C13.0017 19.9539 12.9785 19.9725 12.9537 20.0144C12.7552 20.3601 12.5568 20.7042 12.3584 21.0484C12.2948 21.1616 12.2297 21.2748 12.1537 21.4065ZM8.61283 20.6112C8.61283 20.6174 8.61283 20.6221 8.61283 20.6283C9.62517 20.8872 10.6391 21.1445 11.6638 21.405C11.6499 21.3771 11.6468 21.3662 11.6421 21.3569C11.3832 20.9089 11.1243 20.4624 10.867 20.0113C10.8344 19.9554 10.805 19.957 10.7631 19.9709C10.2732 20.1167 9.78331 20.2624 9.29341 20.4066C9.06707 20.4748 8.84072 20.543 8.61283 20.6112ZM7.76792 1.78905C7.74777 1.7906 7.73536 1.7906 7.72606 1.79525C7.25632 1.93787 6.78503 2.07585 6.31839 2.22778C6.21607 2.26033 6.1215 2.3456 6.01608 2.41071C6.32614 2.89751 6.62069 3.36105 6.92145 3.83544C7.20516 3.14711 7.48421 2.47428 7.76792 1.78905ZM16.0527 1.7844C16.3411 2.47583 16.6201 3.15176 16.9038 3.83699C17.2061 3.3595 17.5007 2.89596 17.8076 2.41226C17.7069 2.34715 17.6201 2.26654 17.527 2.23553C17.1953 2.12236 16.8604 2.02779 16.5256 1.92547C16.3721 1.87741 16.2186 1.834 16.0527 1.7844ZM20.099 15.1092C20.2215 15.8565 20.3408 16.5913 20.4649 17.3556C20.4928 17.3075 20.5067 17.2796 20.5238 17.2564C20.8168 16.8424 21.1098 16.4254 21.4074 16.0177C21.4834 15.9138 21.5098 15.7851 21.5516 15.6503C21.0664 15.4689 20.5873 15.289 20.099 15.1092ZM3.33716 17.3478C3.34646 17.3385 3.35577 17.3292 3.36507 17.3199C3.48444 16.5866 3.60382 15.8534 3.72629 15.1092C3.23329 15.2921 2.7558 15.4704 2.27676 15.6487C2.31397 15.8037 2.35738 15.934 2.43954 16.0471C2.731 16.4456 3.01625 16.8533 3.30461 17.2595C3.31856 17.2827 3.32631 17.3184 3.33716 17.3478ZM21.6198 13.2845C21.1361 13.8101 20.6617 14.3232 20.1812 14.8457C20.671 15.0286 21.1485 15.2053 21.6229 15.3821C21.7129 15.1201 21.7129 15.1201 21.6958 14.8488C21.688 14.7201 21.6834 14.593 21.6772 14.4627C21.6586 14.0767 21.64 13.6922 21.6198 13.2845ZM2.20545 13.2861C2.20235 13.3186 2.2008 13.3341 2.2008 13.3481C2.17599 13.8752 2.15274 14.4023 2.12173 14.9294C2.11243 15.0953 2.15274 15.2332 2.2008 15.3836C2.67984 15.2053 3.15578 15.027 3.64412 14.8441C3.16043 14.3217 2.68914 13.8101 2.20545 13.2861ZM19.0494 4.25712C18.7766 3.77188 18.5161 3.31299 18.2588 2.84945C18.1828 2.71302 18.0712 2.66186 17.9751 2.56885C17.679 3.03549 17.3891 3.49282 17.0899 3.96566C17.7441 4.06333 18.3875 4.15945 19.0494 4.25712ZM6.73697 3.96566C6.43621 3.48972 6.1432 3.03084 5.84554 2.55954C5.75563 2.64791 5.65331 2.71302 5.58975 2.81999C5.32465 3.26803 5.07195 3.73002 4.8146 4.18736C4.8053 4.20596 4.79755 4.22456 4.78204 4.25712C5.43627 4.15945 6.07809 4.06333 6.73697 3.96566ZM13.7505 22.9057C13.1661 22.5398 12.5971 22.1863 12.0235 21.8282C12.0235 22.408 12.0235 22.9785 12.0235 23.5413C12.1258 23.5413 12.2312 23.5723 12.3211 23.5351C12.794 23.3366 13.2622 23.1227 13.7505 22.9057ZM11.8018 21.8282C11.2251 22.1879 10.6561 22.5429 10.0763 22.9057C10.1089 22.9212 10.1275 22.9289 10.1461 22.9382C10.5755 23.1289 11.0049 23.3165 11.4344 23.5118C11.5568 23.5676 11.6762 23.5444 11.8018 23.5506C11.8018 22.9754 11.8018 22.4065 11.8018 21.8282ZM22.5748 11.9001C22.2849 11.4893 21.9997 11.0846 21.7051 10.6661C21.7392 11.3683 21.7718 12.0427 21.8059 12.7357C22.0694 12.4504 22.3175 12.1791 22.5748 11.9001ZM2.11708 10.6924C2.11243 10.6909 2.10778 10.6862 2.10313 10.6847C1.81942 11.0862 1.53572 11.4908 1.24891 11.8985C1.50781 12.1791 1.75741 12.4504 2.01786 12.7326C2.05197 12.0396 2.08452 11.3668 2.11708 10.6924ZM3.34492 6.32522C3.67203 5.74386 3.98674 5.1842 4.31385 4.60284C3.95418 4.6571 3.61777 4.70826 3.27515 4.75942C3.29996 5.28342 3.32166 5.79037 3.34492 6.32522ZM20.547 4.76097C20.2029 4.70981 19.8664 4.6602 19.5083 4.60594C19.837 5.1873 20.1517 5.74851 20.4773 6.32832C20.5021 5.78882 20.5253 5.28032 20.547 4.76097ZM4.57895 19.4873C4.58205 19.4811 4.58361 19.4749 4.58516 19.4687C4.21929 18.954 3.85341 18.4408 3.47979 17.9153C3.41468 18.3152 3.35267 18.6982 3.2891 19.0888C3.72164 19.2222 4.15107 19.3555 4.57895 19.4873ZM19.2355 19.4718C19.2386 19.478 19.2401 19.4826 19.2432 19.4888C19.6727 19.3555 20.1021 19.2237 20.5331 19.0888C20.468 18.6951 20.4059 18.3137 20.3424 17.9153C19.9672 18.4455 19.6013 18.9586 19.2355 19.4718ZM14.3117 22.9553C14.6094 23.1413 14.8884 23.3134 15.1675 23.4901C15.2109 23.518 15.2326 23.5103 15.2621 23.4591C15.4807 23.0715 15.6992 22.6871 15.9178 22.3026C15.9287 22.284 15.9364 22.2638 15.955 22.2266C15.4047 22.47 14.8667 22.7072 14.3117 22.9553ZM9.512 22.9537C8.957 22.7072 8.41904 22.4685 7.88109 22.2297C8.11053 22.6576 8.34463 23.0731 8.58183 23.4839C8.58958 23.4994 8.61903 23.5056 8.63143 23.4994C8.92134 23.3242 9.20815 23.1429 9.512 22.9537ZM9.86392 0.858867C9.84687 0.843364 9.83912 0.837161 9.83137 0.83251C9.44069 0.661977 9.05156 0.492996 8.66244 0.320913C8.62523 0.30386 8.60973 0.322462 8.59423 0.36122C8.51516 0.556557 8.433 0.750345 8.35238 0.945683C8.29657 1.08056 8.24076 1.21698 8.1772 1.36891C8.74305 1.19838 9.29806 1.03095 9.86392 0.858867ZM13.9536 0.857315C14.5257 1.03095 15.0791 1.19838 15.645 1.37046C15.6295 1.33016 15.6202 1.30535 15.6109 1.2821C15.4869 0.98289 15.3613 0.686783 15.2404 0.386025C15.2155 0.324013 15.1938 0.30851 15.1427 0.330214C14.7722 0.494546 14.4016 0.654227 14.0311 0.817008C14.0094 0.82631 13.9877 0.838711 13.9536 0.857315ZM5.17582 13.2194C5.3138 13.469 5.45022 13.7124 5.59285 13.9666C5.80834 13.2101 6.01608 12.4737 6.22537 11.7373C6.22072 11.7342 6.21762 11.7296 6.21297 11.7265C5.8688 12.2226 5.52309 12.7187 5.17582 13.2194ZM18.6479 13.2194C18.2991 12.7171 17.9549 12.2226 17.6108 11.7265C17.6061 11.7296 17.603 11.7342 17.5984 11.7373C17.8077 12.4753 18.0169 13.2116 18.2309 13.9651C18.3735 13.7077 18.5084 13.469 18.6479 13.2194ZM7.84233 6.03686C7.82683 6.03531 7.82063 6.03376 7.81598 6.03531C7.59894 6.13298 7.38344 6.23065 7.1664 6.32677C7.12764 6.34382 7.13075 6.37793 7.1323 6.41979C7.1478 6.84922 7.16485 7.2771 7.18035 7.70808C7.18656 7.88637 7.19586 8.06621 7.20361 8.24449C7.20826 8.24449 7.21291 8.24604 7.21756 8.24604C7.42375 7.5143 7.63149 6.77946 7.84233 6.03686ZM16.6077 8.24604C16.6124 8.24604 16.617 8.24449 16.6217 8.24449C16.6248 8.21503 16.6263 8.18403 16.6279 8.15457C16.6511 7.57166 16.6728 6.9903 16.6945 6.40738C16.6976 6.35312 16.679 6.33917 16.648 6.32677C16.4418 6.23685 16.2356 6.14228 16.031 6.04927C16.0171 6.04306 16.0031 6.04151 15.9814 6.03686C16.1922 6.77946 16.4 7.5112 16.6077 8.24604ZM9.9988 18.061C10.0065 18.0873 10.0081 18.0935 10.0112 18.0982C10.298 18.5943 10.5848 19.0904 10.8701 19.588C10.8949 19.633 10.9212 19.6361 10.9569 19.6252C11.1104 19.5772 11.2623 19.5338 11.4158 19.4873C11.4824 19.4671 11.5506 19.4469 11.6344 19.4221C11.0809 18.9617 10.5445 18.5168 9.9988 18.061ZM13.8234 18.0842C13.8203 18.0811 13.8187 18.0765 13.8156 18.0718C13.2792 18.5183 12.7428 18.9648 12.2033 19.4128C12.2111 19.4221 12.2142 19.4283 12.2188 19.4299C12.4421 19.4966 12.6638 19.5663 12.887 19.6268C12.9087 19.633 12.9444 19.6035 12.9614 19.5756C13.2203 19.1353 13.4746 18.6904 13.7304 18.247C13.7598 18.1928 13.7924 18.1369 13.8234 18.0842ZM5.79284 15.3821C6.31219 15.5464 6.82533 15.7092 7.33848 15.8735C7.34003 15.8658 7.34313 15.8611 7.34313 15.8534C6.81448 15.4146 6.28583 14.9728 5.74633 14.5247C5.76338 14.8224 5.77888 15.0984 5.79284 15.3821ZM18.0759 14.5232C17.5332 14.9728 17.0077 15.4131 16.4806 15.8518C16.4837 15.8596 16.4852 15.8642 16.4868 15.872C16.9999 15.7092 17.5146 15.5448 18.0293 15.3836C18.0464 15.0999 18.0588 14.824 18.0759 14.5232ZM10.2561 5.64464C10.2298 5.62913 10.2205 5.62448 10.2112 5.61828C9.73835 5.41519 9.2624 5.21055 8.78801 5.01057C8.76631 5.00126 8.72755 5.02142 8.7105 5.04622C8.57717 5.22451 8.4485 5.40744 8.31827 5.59038C8.30897 5.60278 8.30122 5.62138 8.28882 5.64464C8.94304 5.64464 9.58952 5.64464 10.2561 5.64464ZM15.5287 5.64464C15.5334 5.63379 15.5411 5.62293 15.5458 5.61363C15.3954 5.41674 15.2466 5.21676 15.0931 5.02297C15.0791 5.00592 15.0435 5.00746 15.0218 5.01677C14.6652 5.1687 14.3086 5.32062 13.9505 5.4741C13.828 5.52526 13.7056 5.57953 13.5831 5.63069C13.5846 5.63379 13.5846 5.63999 13.5862 5.64309C14.2342 5.64464 14.8822 5.64464 15.5287 5.64464ZM16.7674 4.49897C16.7627 4.49742 16.7581 4.49587 16.7519 4.49276C16.4945 4.89894 16.2372 5.30667 15.9736 5.72215C16.2232 5.83532 16.4604 5.9423 16.7069 6.05237C16.7271 5.52372 16.7472 5.01212 16.7674 4.49897ZM7.07028 4.49122C7.06563 4.49432 7.06098 4.49742 7.05633 4.50052C7.07649 5.01367 7.09509 5.52682 7.11524 6.05237C7.36484 5.9392 7.60204 5.83222 7.84853 5.72215C7.58498 5.30357 7.32763 4.89739 7.07028 4.49122ZM12.0219 21.2019C12.2808 20.7554 12.5258 20.3275 12.78 19.8888C12.5211 19.8113 12.2746 19.74 12.0219 19.664C12.0219 20.1756 12.0219 20.6763 12.0219 21.2019ZM11.8018 21.1988C11.8018 20.6748 11.8018 20.1725 11.8018 19.664C11.5491 19.74 11.3026 19.8128 11.0452 19.8888C11.2979 20.3291 11.5444 20.7554 11.8018 21.1988ZM8.52601 4.89739C8.09813 4.71446 7.6811 4.53617 7.26562 4.35634C7.26252 4.35944 7.26097 4.36564 7.25942 4.36874C7.51522 4.77337 7.77257 5.1749 8.01751 5.56247C8.1865 5.33923 8.35238 5.12374 8.52601 4.89739ZM15.3008 4.89584C15.4729 5.12219 15.6388 5.34233 15.8062 5.56557C16.0543 5.17645 16.3101 4.77337 16.5643 4.37184C16.5612 4.36874 16.5597 4.36254 16.5581 4.35944C16.1426 4.53462 15.7256 4.71446 15.3008 4.89584ZM18.7874 13.4225C18.6479 13.6736 18.5115 13.917 18.3704 14.1713C18.7905 14.3279 19.2014 14.4813 19.6122 14.6348C19.6153 14.6286 19.6169 14.624 19.6184 14.6193C19.3455 14.2209 19.0696 13.824 18.7874 13.4225ZM5.45332 14.1713C5.31069 13.9155 5.17427 13.6705 5.03474 13.4225C4.75259 13.8287 4.47818 14.2255 4.20378 14.6193C4.20688 14.6255 4.20843 14.6302 4.20998 14.6364C4.62236 14.4813 5.03164 14.3279 5.45332 14.1713ZM19.5192 14.9092C19.5192 14.903 19.5192 14.8984 19.5192 14.8922C19.1146 14.7402 18.7084 14.5914 18.296 14.4379C18.2805 14.7371 18.265 15.0193 18.251 15.3123C18.6789 15.1759 19.099 15.0425 19.5192 14.9092ZM5.57424 15.3123C5.55874 15.0131 5.54324 14.7309 5.52774 14.4379C5.11381 14.5914 4.70918 14.7418 4.3061 14.8922C4.3061 14.8984 4.3061 14.903 4.3061 14.9108C4.72623 15.0425 5.14481 15.1774 5.57424 15.3123ZM22.4787 12.3776C22.4756 12.3714 22.4725 12.3683 22.4694 12.3621C22.2601 12.5884 22.0508 12.8148 21.8446 13.0427C21.8291 13.0597 21.8245 13.1093 21.826 13.1403C21.84 13.4612 21.857 13.7837 21.8725 14.1062C21.8772 14.2054 21.8818 14.3077 21.888 14.4069C21.8927 14.4085 21.8973 14.4085 21.9035 14.41C22.0942 13.7341 22.2865 13.0551 22.4787 12.3776ZM1.92794 14.4302C1.93414 14.3976 1.9388 14.3852 1.9388 14.3744C1.95895 13.9558 1.98065 13.5341 1.99771 13.1155C1.99926 13.0845 1.9791 13.0411 1.9605 13.021C1.76671 12.807 1.57137 12.5962 1.37604 12.3838C1.36984 12.376 1.36053 12.3729 1.34038 12.3605C1.53727 13.0566 1.7295 13.7341 1.92794 14.4302ZM21.271 16.6363C21.2664 16.6347 21.2633 16.6301 21.2586 16.6285C21.0602 16.9076 20.8679 17.1975 20.6617 17.461C20.5455 17.6083 20.5114 17.7447 20.5594 17.9525C20.6137 18.1881 20.6431 18.4346 20.6866 18.7028C20.885 17.9974 21.0772 17.3153 21.271 16.6363ZM3.13718 18.6935C3.14648 18.6532 3.15268 18.6284 3.15578 18.6067C3.20229 18.3183 3.24725 18.0315 3.29686 17.7447C3.30616 17.6874 3.29685 17.6548 3.26895 17.616C3.05036 17.3091 2.83022 17.0021 2.61162 16.6936C2.59767 16.675 2.58527 16.6611 2.56977 16.6425C2.56512 16.6456 2.56201 16.6502 2.55736 16.6533C2.7496 17.3292 2.94029 18.0021 3.13718 18.6935ZM8.27331 0.570511C8.27021 0.567411 8.26711 0.562758 8.26401 0.559658C7.78032 0.964286 7.29352 1.36581 6.80983 1.77044C7.16485 1.68052 7.51522 1.5751 7.86248 1.46658C7.88729 1.45883 7.91675 1.42627 7.9307 1.39217C8.02682 1.17047 8.11828 0.945684 8.20975 0.72089C8.233 0.66818 8.25316 0.61857 8.27331 0.570511ZM15.5613 0.558108C15.5582 0.561209 15.5551 0.564309 15.552 0.56741C15.5613 0.590664 15.569 0.615469 15.5783 0.637173C15.6806 0.88212 15.783 1.12862 15.8822 1.37511C15.9054 1.43248 15.9349 1.45883 15.9783 1.47123C16.1597 1.52549 16.3411 1.57975 16.5225 1.63557C16.6837 1.68362 16.8449 1.73168 17.0077 1.77974C17.0092 1.77354 17.0108 1.77044 17.0123 1.76424C16.5287 1.36581 16.0434 0.962736 15.5613 0.558108ZM20.1812 4.4261C20.1827 4.4199 20.1843 4.4137 20.1843 4.4075C19.7021 4.00752 19.2215 3.60599 18.7394 3.20447C18.927 3.56724 19.1223 3.91606 19.3176 4.26177C19.33 4.28193 19.3533 4.29743 19.3735 4.30053C19.6432 4.34549 19.913 4.3858 20.1812 4.4261ZM5.0921 3.22307C5.08745 3.21687 5.08435 3.21222 5.08125 3.20757C4.59911 3.60755 4.11852 4.01062 3.63482 4.4106C3.90923 4.38734 4.17898 4.34549 4.44718 4.30363C4.46733 4.30053 4.49214 4.28503 4.50299 4.26487C4.70298 3.91761 4.89676 3.57034 5.0921 3.22307ZM2.50465 8.42587C2.64263 8.67547 2.77441 8.91112 2.89378 9.12351C3.0054 8.98553 3.11547 8.846 3.22554 8.70803C3.23174 8.69873 3.2395 8.68012 3.23795 8.66772C3.23175 8.48478 3.22399 8.30185 3.21624 8.10651C2.97439 8.21348 2.7434 8.3158 2.50465 8.42587ZM20.9315 9.12351C21.0509 8.90957 21.1826 8.67082 21.3206 8.42587C21.0803 8.31735 20.8478 8.21348 20.609 8.10651C20.6013 8.30185 20.592 8.47858 20.5873 8.65842C20.5873 8.67547 20.592 8.69718 20.6013 8.70803C20.7098 8.846 20.8199 8.98243 20.9315 9.12351ZM12.3909 1.24644C12.2235 1.02475 12.0622 0.813907 11.9165 0.623221C11.763 0.823209 11.6034 1.03095 11.4359 1.24954C11.5956 1.3193 11.746 1.38597 11.8979 1.45108C11.9103 1.45728 11.9243 1.45108 11.9367 1.44798C12.0824 1.37977 12.2297 1.31776 12.3909 1.24644ZM17.7766 20.2252C17.6092 20.2764 17.4495 20.3244 17.2914 20.374C17.2759 20.3802 17.2573 20.3926 17.2464 20.4112C17.1643 20.5539 17.0837 20.6949 16.9968 20.85C17.2464 20.9244 17.4883 20.9957 17.7332 21.0701C17.7472 20.7849 17.7611 20.5136 17.7766 20.2252ZM6.82844 20.8515C6.74007 20.6949 6.661 20.5539 6.57884 20.4159C6.56954 20.3988 6.55403 20.3849 6.54163 20.3802C6.37885 20.3291 6.21607 20.2795 6.04709 20.2267C6.06259 20.512 6.07654 20.788 6.09205 21.0701C6.33854 20.9972 6.57729 20.9259 6.82844 20.8515ZM9.07637 23.5273C9.07637 23.5335 9.07792 23.5397 9.07792 23.5459C9.65308 23.5459 10.2313 23.5459 10.8174 23.5459C10.8034 23.5335 10.8003 23.5258 10.7941 23.5242C10.4716 23.3801 10.1476 23.2359 9.82361 23.0948C9.80811 23.087 9.78796 23.087 9.77245 23.0964C9.53836 23.239 9.30737 23.3832 9.07637 23.5273ZM14.7474 23.5459C14.7474 23.5413 14.7489 23.5351 14.7489 23.5273C14.5179 23.3832 14.2869 23.2374 14.0528 23.0948C14.0327 23.0824 14.0001 23.0917 13.9769 23.1025C13.7428 23.2033 13.5087 23.3087 13.2746 23.4142C13.1878 23.4529 13.1025 23.4917 13.0157 23.5304C13.0172 23.5366 13.0172 23.5413 13.0188 23.5444C13.5939 23.5459 14.1722 23.5459 14.7474 23.5459ZM1.47061 11.1823C1.48611 11.1699 1.49386 11.1653 1.49696 11.1606C1.70315 10.8691 1.90934 10.5777 2.11243 10.2847C2.13103 10.2568 2.14033 10.2087 2.14188 10.1684C2.15429 9.98237 2.16204 9.79324 2.16979 9.6072C2.17599 9.45837 2.18219 9.30644 2.18839 9.15762C2.18374 9.15606 2.17909 9.15606 2.17289 9.15451C1.9419 9.82424 1.70935 10.494 1.47061 11.1823ZM22.3361 11.173C22.3407 11.1699 22.3438 11.1668 22.3469 11.1637C22.1128 10.4924 21.8803 9.81959 21.6462 9.14831C21.6477 9.50488 21.6632 9.85525 21.6818 10.2041C21.6834 10.2304 21.6927 10.2599 21.7051 10.2785C21.9159 10.5761 22.1268 10.8753 22.3361 11.173ZM20.7393 5.48806C20.7346 5.48806 20.73 5.48806 20.7253 5.48961C20.7083 5.86788 20.6897 6.2477 20.6757 6.62598C20.6742 6.65698 20.6897 6.69574 20.7036 6.72364C20.8586 7.0027 21.0137 7.27865 21.1702 7.55616C21.178 7.57166 21.1857 7.58561 21.1951 7.60111C21.1997 7.59801 21.2013 7.59336 21.2059 7.58871C21.0509 6.88798 20.8943 6.18724 20.7393 5.48806ZM3.09842 5.49116C3.09377 5.48961 3.08911 5.48806 3.08446 5.48496C2.92788 6.18569 2.77285 6.88798 2.61472 7.59646C2.62558 7.59026 2.63023 7.58871 2.63178 7.58561C2.79921 7.29106 2.96664 6.9934 3.13252 6.69574C3.14337 6.67559 3.14803 6.64458 3.14803 6.61977C3.13407 6.24615 3.11702 5.86788 3.09842 5.49116ZM17.1751 21.6964C17.155 21.698 17.1488 21.6964 17.141 21.698C16.8713 21.8174 16.6 21.9367 16.3318 22.0592C16.3085 22.0701 16.2868 22.098 16.2713 22.1259C16.1132 22.4034 15.9535 22.6809 15.7954 22.9615C15.7845 22.9816 15.7752 23.0018 15.7644 23.0219C15.7675 23.025 15.769 23.0281 15.7721 23.0312C16.2372 22.5879 16.7023 22.146 17.1751 21.6964ZM8.05162 23.0312C8.05472 23.0281 8.05627 23.0219 8.06092 23.0188C7.95085 22.8235 7.82993 22.639 7.73071 22.4328C7.60358 22.1631 7.43926 21.9879 7.20671 21.9352C7.17105 21.9274 7.14005 21.9057 7.10439 21.8887C6.96021 21.8267 6.81603 21.7615 6.67186 21.698C6.66876 21.7042 6.6672 21.7088 6.66565 21.7166C7.12764 22.1522 7.58963 22.591 8.05162 23.0312ZM19.8913 19.5927C19.8913 19.5865 19.8897 19.5834 19.8897 19.5772C19.8835 19.5772 19.8757 19.5756 19.8695 19.5772C19.5796 19.6671 19.2897 19.757 18.9998 19.8485C18.9719 19.8578 18.944 19.8841 18.9223 19.9105C18.7735 20.1167 18.6247 20.3275 18.4758 20.5368C18.4495 20.574 18.4169 20.605 18.3859 20.6376C18.3921 20.6469 18.3999 20.6577 18.4045 20.667C18.9006 20.3105 19.3967 19.9523 19.8913 19.5927ZM5.41611 20.6686C5.42076 20.6624 5.42232 20.6577 5.42697 20.6515C5.24403 20.3957 5.0611 20.1368 4.87816 19.8826C4.86266 19.8624 4.8394 19.8547 4.81925 19.8469C4.62236 19.7865 4.42702 19.7244 4.23014 19.664C4.13247 19.6345 4.03325 19.6035 3.93558 19.5741C3.93403 19.5803 3.93248 19.5865 3.93093 19.5927C4.42703 19.9508 4.92157 20.3105 5.41611 20.6686ZM14.4203 0.358119C14.4203 0.351917 14.4203 0.347267 14.4203 0.339516C13.8528 0.381374 13.2854 0.423232 12.718 0.46509C12.7335 0.483693 12.7506 0.492994 12.7676 0.496095C12.9552 0.553456 13.1459 0.596866 13.3304 0.66973C13.4839 0.728641 13.6234 0.71934 13.7722 0.643375C13.9846 0.537955 14.2032 0.454237 14.4203 0.358119ZM11.1104 0.480594C11.1104 0.474392 11.1088 0.471291 11.1088 0.46509C10.5414 0.423232 9.97399 0.381375 9.38488 0.337966C9.40968 0.35657 9.41744 0.364319 9.42519 0.36742C9.69494 0.485243 9.96624 0.603066 10.236 0.719338C10.2577 0.72864 10.2841 0.728642 10.3073 0.72089C10.4654 0.674381 10.622 0.627871 10.7801 0.581362C10.8887 0.548806 10.9987 0.5147 11.1104 0.480594ZM21.0493 9.36225C21.1873 9.53434 21.3253 9.70332 21.4508 9.8599C21.4353 9.52038 21.4152 9.14366 21.3981 8.76694C21.3935 8.76539 21.3888 8.76384 21.3826 8.76074C21.2757 8.95608 21.1671 9.15296 21.0493 9.36225ZM2.44109 8.76539C2.43644 8.76694 2.42869 8.76849 2.42404 8.77159C2.40699 9.14676 2.38838 9.52038 2.37133 9.8568C2.4969 9.70177 2.63333 9.53124 2.7713 9.3607C2.65813 9.15296 2.54806 8.95918 2.44109 8.76539ZM20.6524 7.10657C20.6416 7.35152 20.6323 7.56856 20.6261 7.78405C20.6261 7.79955 20.6416 7.82126 20.6509 7.82591C20.8261 7.90652 21.0013 7.98714 21.1966 8.07396C21.0121 7.74219 20.8385 7.43678 20.6524 7.10657ZM3.17128 7.10657C2.98524 7.43678 2.81161 7.74374 2.62713 8.07396C2.82247 7.98559 2.99765 7.90807 3.17128 7.82591C3.18368 7.81971 3.19764 7.79025 3.19764 7.77475C3.19144 7.55926 3.18058 7.34686 3.17128 7.10657ZM17.9565 20.8608C18.1704 20.5601 18.3704 20.2795 18.5704 19.9989C18.3828 20.0392 18.2045 20.0934 18.0262 20.1523C18.0123 20.1554 17.9937 20.1802 17.9921 20.1973C17.9797 20.4066 17.9689 20.619 17.9565 20.8608ZM5.86415 20.7849C5.85485 20.6112 5.84399 20.3988 5.83159 20.1864C5.83004 20.1709 5.81299 20.1539 5.80059 20.1492C5.62075 20.0919 5.43937 20.0361 5.25953 19.9818C5.25488 19.9896 5.25333 19.9942 5.24868 20.002C5.45642 20.2686 5.66571 20.5337 5.86415 20.7849ZM17.4046 21.2825C17.4046 21.2747 17.403 21.267 17.403 21.2623C17.2294 21.2112 17.0558 21.1585 16.8821 21.1089C16.8697 21.1058 16.848 21.112 16.8418 21.1259C16.741 21.2996 16.6418 21.4747 16.5426 21.6499C16.5457 21.6561 16.5473 21.6592 16.5504 21.6654C16.8341 21.5352 17.1193 21.4112 17.4046 21.2825ZM13.1413 0.916227C13.1413 0.910026 13.1413 0.905375 13.1413 0.899174C12.842 0.809256 12.5459 0.717789 12.2467 0.627871C12.2421 0.637173 12.2359 0.644924 12.2312 0.654226C12.3506 0.810806 12.47 0.967387 12.5893 1.12242C12.6002 1.13482 12.6235 1.14102 12.6359 1.13482C12.8064 1.06661 12.9738 0.990641 13.1413 0.916227ZM7.29508 21.6732C7.22841 21.5554 7.1726 21.4577 7.11679 21.3616C7.06873 21.2763 7.02998 21.1523 6.96796 21.1213C6.9013 21.0903 6.81293 21.1476 6.73542 21.1693C6.63 21.1988 6.52613 21.2313 6.42071 21.2654C6.42071 21.2732 6.42071 21.2778 6.42071 21.2856C6.70596 21.4112 6.99277 21.5383 7.29508 21.6732ZM10.6825 0.902275C10.6825 0.908476 10.6825 0.913127 10.6825 0.919328C10.8499 0.993743 11.0173 1.06816 11.1863 1.13947C11.2003 1.14567 11.2235 1.13947 11.2328 1.12707C11.3522 0.972038 11.4716 0.815457 11.591 0.658877C11.5863 0.651125 11.5817 0.641825 11.5755 0.635623C11.2778 0.72089 10.9801 0.810807 10.6825 0.902275ZM20.4835 9.89556C20.4881 9.89711 20.4912 9.90176 20.4959 9.90331C20.5951 9.72657 20.6943 9.54674 20.7966 9.36381C20.7129 9.25838 20.6354 9.16071 20.5548 9.05684C20.53 9.33435 20.5067 9.61495 20.4835 9.89556ZM3.32786 9.90176C3.33251 9.90021 3.33561 9.89556 3.34181 9.89401C3.31701 9.6134 3.29531 9.3328 3.27205 9.06615C3.19144 9.16536 3.11237 9.26303 3.03021 9.36535C3.13098 9.54829 3.23019 9.72657 3.32786 9.90176ZM6.01918 19.34C6.01453 19.3415 6.00678 19.3431 6.00213 19.3462C6.01143 19.5307 6.02228 19.7152 6.03313 19.8996C6.03468 19.9136 6.04399 19.9368 6.05329 19.9399C6.15716 19.9756 6.26258 20.0066 6.3835 20.0438C6.25327 19.7942 6.13701 19.5663 6.01918 19.34ZM17.8216 19.3477C17.8169 19.3462 17.8092 19.3446 17.8045 19.3415C17.6867 19.571 17.5689 19.7973 17.4418 20.0469C17.5596 20.0097 17.6604 19.9803 17.7596 19.9477C17.7735 19.9446 17.7906 19.9198 17.7921 19.9043C17.803 19.7167 17.8123 19.5322 17.8216 19.3477ZM3.43638 8.41812C3.59917 8.20573 3.74954 8.01194 3.89837 7.81661C3.74179 7.86621 3.59451 7.93288 3.44569 8.00264C3.43328 8.00884 3.42088 8.04295 3.42088 8.0631C3.42553 8.17473 3.43173 8.2848 3.43638 8.41812ZM20.3858 8.41812C20.3904 8.28945 20.3935 8.18248 20.4013 8.07551C20.4044 8.0259 20.3889 8.00574 20.3563 7.99024C20.237 7.93908 20.1176 7.88327 19.9982 7.82901C19.975 7.81816 19.9517 7.8104 19.9285 7.79955C19.9269 7.80575 19.9254 7.8104 19.9238 7.81661C20.0742 8.01194 20.223 8.20573 20.3858 8.41812ZM11.6003 1.60611C11.4871 1.5565 11.3925 1.51309 11.2979 1.47434C11.2886 1.47123 11.2716 1.47743 11.2623 1.48984C11.1584 1.62316 11.0561 1.75804 10.9522 1.89136C10.9569 1.90067 10.9631 1.90997 10.9677 1.91927C11.1724 1.8216 11.3755 1.71928 11.6003 1.60611ZM12.8544 1.92082C12.8591 1.90997 12.8653 1.90067 12.87 1.88981C12.7692 1.75804 12.67 1.62781 12.5692 1.49914C12.5583 1.48364 12.5351 1.47279 12.5227 1.47899C12.4297 1.51619 12.3366 1.55805 12.225 1.60766C12.4467 1.71928 12.6498 1.8185 12.8544 1.92082ZM16.9643 20.4624C16.7348 20.5213 16.5209 20.5756 16.307 20.6298C16.4542 20.6903 16.6015 20.7352 16.7488 20.7756C16.7643 20.7787 16.7876 20.7662 16.7984 20.7492C16.8527 20.6608 16.9023 20.5709 16.9643 20.4624ZM6.85944 20.4624C6.92145 20.5709 6.97416 20.6655 7.02842 20.757C7.03617 20.7694 7.05633 20.7787 7.06718 20.7771C7.21756 20.7352 7.36639 20.6903 7.51677 20.6453C7.51677 20.6391 7.51677 20.6345 7.51522 20.6283C7.30283 20.574 7.08889 20.5213 6.85944 20.4624ZM16.8558 9.93276C16.831 9.8444 16.8093 9.76688 16.7876 9.69092C16.7829 9.69247 16.7767 9.69402 16.7721 9.69402C16.7721 9.78238 16.7721 9.87075 16.7721 9.96377C16.7984 9.95292 16.8232 9.94362 16.8558 9.93276ZM7.05168 9.96377C7.05168 9.8661 7.05168 9.78083 7.05168 9.69402C7.04703 9.69247 7.04238 9.69247 7.03618 9.69092C7.01292 9.76998 6.99122 9.84905 6.96796 9.93276C7.00207 9.94517 7.02533 9.95292 7.05168 9.96377ZM6.8951 10.1886C6.8703 10.2723 6.84859 10.3467 6.82844 10.4227C6.83309 10.4258 6.83464 10.4289 6.83929 10.432C6.8858 10.3653 6.93076 10.2986 6.98347 10.2227C6.95091 10.2118 6.92766 10.2025 6.8951 10.1886ZM16.8403 10.2227C16.8945 10.3002 16.9395 10.3668 16.986 10.4335C16.9891 10.432 16.9922 10.4273 16.9953 10.4258C16.9736 10.3482 16.9503 10.2707 16.9286 10.1917C16.8976 10.2025 16.8759 10.2103 16.8403 10.2227ZM9.08877 16.9665C9.09342 16.9603 9.09497 16.9572 9.09962 16.951C9.06087 16.8828 9.02056 16.8161 8.97715 16.7401C8.95855 16.7727 8.94305 16.7975 8.92599 16.8269C8.9849 16.8797 9.03606 16.9231 9.08877 16.9665ZM14.8466 16.7432C14.8016 16.8192 14.7629 16.8874 14.7241 16.9541C14.7272 16.9603 14.7303 16.9634 14.7334 16.9696C14.7892 16.9231 14.8419 16.8797 14.9086 16.8254C14.8822 16.7897 14.8667 16.7696 14.8466 16.7432ZM8.79266 16.6146C8.7353 16.5975 8.68414 16.582 8.62368 16.5634C8.72445 16.6905 8.75081 16.6983 8.79266 16.6146ZM15.2062 16.5618C15.1396 16.582 15.0884 16.599 15.0357 16.6161C15.0714 16.7014 15.0869 16.6952 15.2062 16.5618ZM12.025 6.01361C12.0715 5.99346 12.115 5.97485 12.177 5.94695C12.0312 5.91749 12.0157 5.92524 12.025 6.01361ZM11.8018 6.01516C11.8033 5.92679 11.7661 5.91129 11.6576 5.95315C11.7103 5.97485 11.7537 5.99345 11.8018 6.01516Z" fill="#FFA700"/>
</svg>
