<svg width="24" height="24" viewBox="0 0 24 24" fill="none" xmlns="http://www.w3.org/2000/svg">
<path fill-rule="evenodd" clip-rule="evenodd" d="M3.0614 2.57689V3.15379H11.7148H20.3682V2.57689V2H11.7148H3.0614V2.57689ZM4.42883 6.30266L4.45556 7.6247L5.53723 7.65191L6.61891 7.67912V13.3487V19.0183H8.06114H9.50337V13.3456V7.67278H10.561H11.6186V6.32669V4.98061H8.01037H4.4021L4.42883 6.30266ZM12.8686 12.0007V19.0208L16.1617 18.9955L19.4548 18.9703V17.6242V16.2781L17.6039 16.2519L15.753 16.2259V10.6032V4.98061H14.3108H12.8686V12.0007ZM3.0614 21.4225V22L11.6908 21.9754L20.3201 21.9509L20.3489 21.398L20.3778 20.8452H11.7196H3.0614V21.4225Z" fill="#60D4FD"/>
</svg>
