<svg width="24" height="24" viewBox="0 0 24 24" fill="none" xmlns="http://www.w3.org/2000/svg">
<path d="M12 22C17.5228 22 22 17.5228 22 12C22 6.47716 17.5228 2 12 2C6.47716 2 2 6.47716 2 12C2 17.5228 6.47716 22 12 22Z" fill="white"/>
<path d="M19.691 15.2961L16.3949 12L19.691 8.70387C20.103 8.29185 20.103 7.64439 19.691 7.23237L16.7676 4.30901C16.3556 3.897 15.7082 3.897 15.2961 4.30901L12 7.60516L8.70386 4.30901C8.29184 3.897 7.64438 3.897 7.23236 4.30901L4.30901 7.23237C3.897 7.64439 3.897 8.29185 4.30901 8.70387L7.60515 12L4.30901 15.2961C3.897 15.7081 3.897 16.3556 4.30901 16.7676L7.23236 19.691C7.64438 20.103 8.29184 20.103 8.70386 19.691L12 16.3948L15.2961 19.691C15.7082 20.103 16.3556 20.103 16.7676 19.691L19.691 16.7676C20.103 16.3556 20.103 15.7081 19.691 15.2961Z" fill="#FF003A"/>
</svg>
