<svg width="284" height="80" viewBox="0 0 284 80" fill="none" xmlns="http://www.w3.org/2000/svg">
<path d="M209.514 41.4683C207.532 41.4683 205.551 41.4683 203.57 41.4683C201.942 41.4243 200.665 40.6759 199.917 39.2672C199.124 37.7704 199.168 36.2736 200.137 34.8649C201.017 33.5442 202.294 32.9719 203.879 32.9719C207.4 32.9719 210.922 32.9279 214.444 32.9719C217.746 33.06 220.695 30.4626 220.871 27.0729C220.959 24.8277 221.003 22.5385 220.827 20.2934C220.563 17.2118 217.834 14.8345 214.708 14.8345C211.054 14.7905 207.4 14.8345 203.791 14.8345C200.533 14.8345 198.464 11.5328 199.961 8.62731C200.665 7.21858 201.854 6.38214 203.438 6.33812C207.444 6.2941 211.451 6.25008 215.501 6.33812C218.67 6.42617 221.444 7.61478 223.909 9.59581C226.991 12.1491 228.84 15.4068 229.324 19.3689C229.412 20.0732 229.456 20.8216 229.456 21.526C229.412 23.8592 229.5 26.1924 229.28 28.4816C228.972 31.6512 227.607 34.3807 225.45 36.6698C222.896 39.4433 219.727 41.0281 216.029 41.3803C214.4 41.5564 212.727 41.4243 211.054 41.4683C210.438 41.4683 209.998 41.4683 209.514 41.4683Z" fill="white"/>
<path d="M283.956 62.115C283.956 63.9639 282.944 65.4607 281.227 66.1651C279.686 66.7814 277.881 66.4292 276.692 65.1526C276.296 64.7564 275.988 64.2721 275.768 63.7438C274.447 61.0144 273.126 58.285 271.806 55.5556C269.429 50.581 267.051 45.6064 264.63 40.6319C262.957 37.154 261.284 33.6762 259.611 30.1984C257.542 25.8842 255.429 21.4819 253.316 17.0796C252.568 15.4948 251.775 13.866 251.027 12.2812C250.191 10.4762 250.631 8.4952 252.172 7.17451C253.536 5.9859 255.649 5.89785 257.19 6.9544C257.719 7.30658 258.203 7.83485 258.511 8.36313C259.567 10.4322 260.58 12.5453 261.593 14.6584C262.165 15.891 262.781 17.0796 263.353 18.3123C265.158 22.0102 266.919 25.7521 268.724 29.4501C270.089 32.2675 271.454 35.129 272.818 37.9465C275.284 43.0531 277.705 48.1598 280.17 53.2224C281.271 55.4675 282.327 57.7127 283.428 59.9579C283.692 60.7063 284 61.4106 283.956 62.115Z" fill="white"/>
<path d="M75.3758 36.3617C75.3758 27.7332 75.3758 19.1047 75.3758 10.4762C75.3758 8.75935 76.1682 7.52672 77.665 6.73431C79.1177 5.98592 80.6145 6.07396 81.9792 6.99844C83.2999 7.8789 83.8722 9.19958 83.8722 10.7844C83.8722 19.7651 83.8722 28.7017 83.8722 37.6823C83.8722 45.6945 83.8722 53.7066 83.8722 61.7188C83.8722 62.5993 83.7401 63.4357 83.2999 64.2721C81.8912 66.8695 78.1052 67.2217 76.3003 64.8884C75.6399 64.052 75.3318 63.1275 75.3318 62.071C75.4198 53.5306 75.3758 44.9461 75.3758 36.3617Z" fill="white"/>
<path d="M243.587 36.4057C243.587 44.9461 243.587 53.5306 243.587 62.071C243.587 64.0961 242.442 65.6809 240.593 66.2532C237.908 67.1336 235.091 65.0646 235.091 62.2471C235.091 58.1089 235.091 53.9708 235.091 49.8327C235.091 36.7139 235.091 23.5951 235.091 10.5203C235.091 8.36317 236.719 6.51421 238.877 6.2941C241.034 6.07398 243.015 7.43869 243.499 9.59581C243.587 9.99201 243.631 10.3882 243.631 10.8284C243.587 19.3249 243.587 27.8653 243.587 36.4057Z" fill="white"/>
<path d="M0.00885266 51.6376C-0.123216 49.7446 1.24149 48.1598 2.82631 47.5875C5.59975 46.619 8.41721 48.6 8.50526 51.5936C8.5933 54.0588 9.64985 55.9078 11.7629 57.1404C13.9641 58.4611 17.2658 58.0649 19.1588 56.26C20.5235 54.9393 21.1838 53.3545 21.2278 51.4615C21.2719 49.7006 22.1523 48.3799 23.7812 47.7196C25.366 47.0152 26.9068 47.2353 28.2275 48.3799C29.3721 49.3484 29.7683 50.6251 29.7243 52.1218C29.6362 54.411 29.0639 56.5681 27.9633 58.5492C27.391 59.5617 26.6427 60.4862 25.9383 61.4547C25.7622 61.6748 25.7182 61.8509 25.8502 62.071C26.9508 64.052 28.0074 66.0331 29.1079 67.9701C30.2085 69.9511 29.6362 72.1522 28.0954 73.3849C26.4225 74.7496 24.0453 74.6615 22.5485 73.2088C21.9762 72.6805 21.6241 71.9321 21.2278 71.2718C20.3034 69.6869 19.4669 68.0581 18.5865 66.4293C18.4104 66.1211 18.2343 66.033 17.8821 66.1211C14.7565 66.7814 11.7629 66.4293 8.85744 65.1526C6.92043 64.3162 5.24757 63.0835 3.83884 61.4987C1.46161 58.8133 0.140921 55.6437 0.00885266 51.6376Z" fill="white"/>
<path d="M127.587 43.3173C127.543 42.2167 128.115 41.2482 128.775 40.3237C129.964 38.6508 131.197 36.9339 132.385 35.2171C134.983 31.5191 137.536 27.8652 140.133 24.1673C142.643 20.6015 145.152 17.0356 147.661 13.4258C148.982 11.5328 150.347 9.63981 151.667 7.74683C152.68 6.3381 154.441 5.72178 156.114 6.11798C157.742 6.51419 159.019 7.92292 159.283 9.59578C159.459 10.7844 159.151 11.8409 158.491 12.8094C156.51 15.5829 154.573 18.4003 152.636 21.1738C149.466 25.6641 146.297 30.1544 143.127 34.6888C140.53 38.3867 137.976 42.0846 135.335 45.7385C133.486 48.3359 129.832 48.2038 128.159 45.5184C127.763 44.9021 127.587 44.1977 127.587 43.3173Z" fill="white"/>
<path d="M0.0527538 20.6895C0.140799 17.5199 1.15332 14.6584 3.04631 12.1491C5.51158 8.89143 8.81329 6.95443 12.8634 6.42615C17.0896 5.80983 20.9196 6.9104 24.2653 9.5958C27.3909 12.1931 29.1959 15.4949 29.6801 19.545C29.7682 20.4254 29.8562 21.3059 29.5921 22.1863C29.0198 24.2114 26.9947 25.5761 24.9256 25.2679C22.8566 25.0038 21.3158 23.1988 21.2717 21.0857C21.2277 19.2808 20.6554 17.696 19.2907 16.4634C17.3097 14.6584 15.0205 14.1742 12.5552 15.1867C10.0019 16.1992 8.68122 18.2243 8.59318 20.9977C8.50513 24.1673 5.51158 26.1924 2.6501 24.9598C1.06528 24.2994 0.184822 22.9787 0.0967766 21.2618C0.00873094 21.0857 0.0527538 20.8656 0.0527538 20.6895Z" fill="white"/>
<path d="M106.852 6.20604C110.33 6.25006 113.456 7.35063 116.185 9.55177C119.795 12.5013 121.644 16.3313 121.732 20.9977C121.776 22.7146 120.719 24.3434 119.223 24.9598C117.462 25.7081 115.877 25.4 114.512 24.1233C113.632 23.3309 113.235 22.2303 113.235 21.0417C113.191 17.8281 110.902 15.1867 107.733 14.7905C103.903 14.3062 100.601 17.2117 100.557 21.1298C100.557 23.2429 99.1041 24.9157 97.0791 25.2679C94.5698 25.7522 92.1045 23.7271 92.1045 21.1738C92.1045 17.652 93.161 14.4823 95.4062 11.7969C97.8715 8.80338 100.997 6.95442 104.871 6.38213C105.487 6.29408 106.192 6.25006 106.852 6.20604Z" fill="white"/>
<path d="M177.113 66.4732C173.371 66.4292 170.069 65.1966 167.252 62.6433C164.038 59.7378 162.409 56.0839 162.277 51.7696C162.189 48.6 165.271 46.4869 168.176 47.7195C169.849 48.4239 170.685 49.7446 170.773 51.5495C170.817 52.8702 171.126 54.1028 171.874 55.2034C173.503 57.6247 176.76 58.6372 179.49 57.5366C181.911 56.5681 183.452 54.2789 183.496 51.6376C183.54 48.556 186.49 46.5749 189.351 47.6755C190.892 48.2918 191.948 49.8326 191.948 51.5495C191.948 54.9393 190.892 57.9768 188.823 60.6622C186.49 63.6558 183.408 65.5047 179.666 66.2091C179.226 66.2972 178.786 66.3412 178.301 66.3852C177.949 66.4732 177.509 66.4732 177.113 66.4732Z" fill="white"/>
<path d="M107.028 66.4732C102.846 66.3852 99.3243 64.9765 96.4628 62.115C93.8214 59.4736 92.4127 56.304 92.1045 52.6061C92.0165 51.5055 92.1045 50.4489 92.6768 49.4364C93.6453 47.8516 95.5383 47.0152 97.2552 47.4554C99.1482 47.9396 100.469 49.4804 100.557 51.4174C100.601 52.474 100.777 53.5305 101.261 54.499C103.066 58.0649 107.821 59.0774 110.902 56.5241C112.443 55.2474 113.235 53.6186 113.235 51.6376C113.279 48.5119 116.273 46.5309 119.179 47.6755C120.763 48.3358 121.82 50.0527 121.776 51.8577C121.688 55.2034 120.631 58.241 118.518 60.8383C115.965 63.9639 112.707 65.8129 108.701 66.3412C108.085 66.4292 107.513 66.4732 107.028 66.4732Z" fill="white"/>
<path d="M176.848 6.25005C180.678 6.29407 183.848 7.39464 186.577 9.6398C190.055 12.5453 191.86 16.3313 191.992 20.8656C192.036 22.9787 190.804 24.6076 188.779 25.1799C186.181 25.8842 183.496 23.8592 183.496 21.1738C183.496 19.5009 182.968 17.9601 181.779 16.7715C180.062 15.0106 177.949 14.3062 175.528 14.9666C172.578 15.759 170.861 18.0922 170.773 21.1738C170.729 22.9347 169.673 24.4315 168.044 25.0478C166.503 25.6641 164.654 25.2239 163.465 23.9912C162.453 22.9347 162.189 21.658 162.321 20.2493C162.541 16.9916 163.642 14.0861 165.711 11.6208C168.22 8.58326 171.478 6.82234 175.396 6.33809C175.924 6.29407 176.54 6.25005 176.848 6.25005Z" fill="white"/>
<path d="M52.5282 66.4733C48.5661 66.3852 45.1324 65.1086 42.3149 62.4672C39.2773 59.6057 37.7365 56.0839 37.5604 51.9457C37.4284 48.7761 40.3779 46.5749 43.3274 47.6315C44.9122 48.2038 46.0128 49.8326 46.0568 51.5935C46.1009 52.9583 46.453 54.1909 47.2454 55.2915C48.8743 57.6687 52.088 58.6372 54.7733 57.4926C57.3267 56.4361 58.6474 54.455 58.7794 51.6816C58.8675 48.3799 62.1692 46.3108 64.9866 47.8076C66.4394 48.6 67.2318 49.8326 67.2758 51.5055C67.3198 55.0273 66.2193 58.1529 64.0181 60.8383C60.9806 64.5363 57.1066 66.3852 52.5282 66.4733Z" fill="white"/>
<path d="M283.912 55.2034C282.767 52.8262 281.667 50.493 280.522 48.1157C278.981 44.9021 277.397 41.6444 275.856 38.4307C275.636 37.9465 275.504 37.4622 275.504 36.8899C275.504 28.1294 275.504 19.4129 275.504 10.6523C275.504 8.05499 277.397 6.16201 279.906 6.20603C282.151 6.29408 284 8.14304 284 10.4322C284 19.3248 284 28.2174 284 37.11C284 42.9651 284 48.8201 284 54.6751C284 54.8512 284 54.9833 284 55.1594C284 55.2034 283.956 55.2034 283.912 55.2034Z" fill="white"/>
<path d="M250.763 17.74C251.159 18.5324 251.511 19.3248 251.907 20.1172C253.844 24.1673 255.781 28.2174 257.762 32.2675C258.159 33.104 258.555 33.9404 258.951 34.8208C259.039 35.041 259.127 35.3491 259.127 35.6133C259.127 44.4618 259.127 53.3544 259.127 62.203C259.127 65.1085 256.574 67.0896 253.756 66.3852C252.083 65.945 250.763 64.3601 250.631 62.5992C250.587 61.9829 250.631 61.3666 250.631 60.7503C250.631 46.619 250.631 32.4876 250.631 18.3563C250.631 18.1802 250.631 18.0041 250.631 17.828C250.675 17.74 250.719 17.74 250.763 17.74Z" fill="white"/>
<path d="M46.0568 46.1787C43.1953 44.3298 40.4219 44.2857 37.5604 46.1787C37.5604 46.0467 37.5164 45.9586 37.5164 45.8265C37.5164 34.0725 37.5164 22.3184 37.5164 10.5643C37.5164 8.80336 38.3088 7.5267 39.8496 6.69026C41.3463 5.89785 42.8871 6.02992 44.2518 7.04245C45.3964 7.87888 45.9687 9.02347 46.0128 10.4322C46.0128 11.929 46.0128 13.4258 46.0128 14.9225C46.0128 25.1798 46.0128 35.4372 46.0128 45.6945C46.0568 45.8265 46.0568 45.9586 46.0568 46.1787Z" fill="white"/>
<path d="M67.2318 46.1787C64.3703 44.3298 61.5968 44.2858 58.7794 46.1787C58.7794 46.0467 58.7354 45.9586 58.7354 45.8706C58.7354 34.1165 58.7354 22.3624 58.7354 10.6083C58.7354 8.099 60.6283 6.16199 63.0496 6.20602C65.3828 6.25004 67.2318 8.099 67.2318 10.4322C67.2318 13.2937 67.2318 16.1552 67.2318 19.0167C67.2318 27.8652 67.2318 36.7138 67.2318 45.5184C67.2318 45.7825 67.2318 45.9586 67.2318 46.1787Z" fill="white"/>
<path d="M146.561 34.4246C147.309 36.0095 148.058 37.5503 148.806 39.1351C149.863 41.3802 150.963 43.6254 152.02 45.8706C153.913 49.8767 155.85 53.8827 157.743 57.9328C158.139 58.7693 158.491 59.5617 158.887 60.3981C159.68 62.115 159.327 63.964 157.963 65.2846C156.642 66.5613 154.749 66.8254 153.076 65.989C152.196 65.5048 151.535 64.8004 151.139 63.8759C150.127 61.7188 149.07 59.5617 148.058 57.4046C146.429 53.9708 144.8 50.537 143.127 47.1032C142.423 45.6505 141.762 44.1977 141.058 42.745C140.926 42.5248 140.926 42.3488 141.102 42.1286C142.907 39.6193 144.668 37.066 146.473 34.5567C146.473 34.4687 146.517 34.4687 146.561 34.4246Z" fill="white"/>
<path d="M127.587 37.4622C127.587 37.1981 127.587 37.066 127.587 36.8899C127.587 28.1294 127.587 19.3688 127.587 10.6083C127.587 8.89141 128.335 7.57072 129.876 6.77831C131.329 5.9859 132.826 6.07395 134.234 7.04245C135.467 7.87888 136.127 9.0675 136.127 10.5643C136.127 15.4068 136.127 20.2493 136.127 25.1358C136.127 25.3559 136.039 25.6201 135.907 25.7962C133.222 29.6702 130.492 33.5002 127.807 37.3742C127.763 37.3301 127.719 37.3742 127.587 37.4622Z" fill="white"/>
<path d="M188.118 44.726C184.685 44.814 182.395 46.3988 181.163 49.5685C176.056 42.3047 171.037 35.129 165.975 27.9093C169.409 27.9533 171.742 26.4125 173.063 23.2428C178.037 30.4186 183.056 37.5503 188.118 44.726Z" fill="white"/>
<path d="M207.885 44.0656C207.885 44.2857 207.885 44.4178 207.885 44.5499C207.885 50.4049 207.885 56.2599 207.885 62.115C207.885 65.0205 205.243 67.0896 202.47 66.3412C200.621 65.8569 199.388 64.184 199.388 62.115C199.388 57.2284 199.388 52.3419 199.388 47.4554C199.388 46.0466 199.388 44.6819 199.388 43.2732C199.388 43.0971 199.388 42.921 199.388 42.6569C199.564 42.7449 199.696 42.789 199.828 42.877C201.017 43.6694 202.294 44.0656 203.702 44.0656C204.935 44.0656 206.124 44.0656 207.356 44.0656C207.488 44.0656 207.664 44.0656 207.885 44.0656Z" fill="white"/>
<path d="M21.272 26.5446C24.1335 28.4375 26.9069 28.4375 29.7244 26.5005C29.7244 33.0599 29.7244 39.6193 29.7244 46.1787C26.9069 44.2858 24.0894 44.2858 21.272 46.1787C21.272 39.6634 21.272 33.104 21.272 26.5446Z" fill="white"/>
<path d="M100.513 46.1787C97.6955 44.2858 94.878 44.2858 92.0605 46.1787C92.0605 39.5753 92.0605 33.0599 92.0605 26.5005C94.878 28.3935 97.6514 28.3935 100.513 26.5005C100.513 33.0599 100.513 39.5753 100.513 46.1787Z" fill="white"/>
<path d="M8.5493 26.5005C8.5493 33.104 8.5493 39.6193 8.5493 46.2228C5.73184 44.2858 2.91438 44.2858 0.0969238 46.1787C0.0969238 39.6193 0.0969238 33.104 0.0969238 26.5446C2.87036 28.4375 5.68782 28.4375 8.5493 26.5005Z" fill="white"/>
<path d="M136.083 48.7761C136.083 48.9962 136.083 49.1283 136.083 49.3043C136.083 53.5746 136.083 57.8888 136.083 62.159C136.083 65.0645 133.442 67.0896 130.624 66.2972C128.82 65.8129 127.587 64.14 127.587 62.203C127.587 59.2535 127.587 56.304 127.587 53.3545C127.587 52.0338 127.587 50.6691 127.587 49.3484C127.587 49.2163 127.587 49.0402 127.587 48.8201C128.908 49.7886 130.316 50.2729 131.857 50.2729C133.398 50.2729 134.807 49.7446 136.083 48.7761Z" fill="white"/>
<path d="M207.841 30.3745C206.564 30.3745 205.287 30.4185 204.055 30.3745C202.382 30.3305 200.885 30.7267 199.52 31.6952C199.52 31.6952 199.476 31.6952 199.388 31.7392C199.388 26.5005 199.388 21.3058 199.388 16.0231C199.52 16.0671 199.608 16.1111 199.696 16.1992C200.929 17.0356 202.294 17.4318 203.79 17.3878C204.979 17.3878 206.124 17.3878 207.312 17.3878C207.444 17.3878 207.62 17.3878 207.797 17.3878C207.841 21.702 207.841 26.0163 207.841 30.3745Z" fill="white"/>
</svg>
