<svg width="24" height="24" viewBox="0 0 24 24" fill="none" xmlns="http://www.w3.org/2000/svg">
<path d="M15.5324 8.85205H9.34665C9.11144 8.85205 8.92004 9.03408 8.92004 9.2579V15.1408C8.92004 15.3081 9.02096 15.4518 9.18337 15.5157C9.2377 15.5372 9.29395 15.5477 9.34933 15.5477C9.45914 15.5477 9.56579 15.5065 9.64843 15.4277L15.834 9.54486C15.9584 9.42663 15.9937 9.25704 15.9266 9.10247C15.8591 8.94799 15.7081 8.85205 15.5324 8.85205Z" fill="white"/>
<path d="M22.5723 8.85205H16.3864C16.1512 8.85205 15.96 9.03408 15.96 9.2579V15.1408C15.96 15.3081 16.0609 15.4518 16.2231 15.5157C16.2776 15.5372 16.3339 15.5477 16.3892 15.5477C16.4991 15.5477 16.6055 15.5065 16.6884 15.4277L22.8739 9.54486C22.9981 9.42663 23.0337 9.25704 22.9665 9.10247C22.8991 8.94799 22.748 8.85205 22.5723 8.85205Z" fill="white"/>
<path d="M7.61357 8.85205H1.42768C1.25199 8.85205 1.10089 8.94799 1.0335 9.10247C0.966323 9.25704 1.00168 9.42663 1.1261 9.54486L7.31158 15.4277C7.39426 15.5065 7.50092 15.5477 7.61068 15.5477C7.66607 15.5477 7.72233 15.5372 7.77666 15.5157C7.93908 15.4518 8.03999 15.3081 8.03999 15.1408V9.2579C8.03999 9.03408 7.84859 8.85205 7.61357 8.85205Z" fill="white"/>
</svg>
