<svg width="24" height="24" viewBox="0 0 24 24" fill="none" xmlns="http://www.w3.org/2000/svg">
<path d="M15.0287 22.5923C18.7103 21.558 21.6035 18.6503 22.6306 14.976L20.0484 11.4462C19.6651 10.9255 18.8911 10.9327 18.515 11.4607L18.1534 11.9742C17.8062 12.4733 17.1407 12.618 16.62 12.3142L14.9491 11.4462C14.6309 11.2799 14.2475 11.2799 13.922 11.439L12.5261 12.1478L14.356 13.6017C14.6815 13.8621 14.8334 14.2743 14.7611 14.6866L14.4356 16.4732C14.3488 16.9506 14.6381 17.4135 15.101 17.5509L16.497 17.956C16.9744 18.0934 17.1986 18.6359 16.9599 19.0698L15.0287 22.5923Z" fill="url(#paint0_linear_3460_2506)"/>
<path d="M5.57515 12.1117L5.9585 11.6054C6.32738 11.1207 6.99282 10.9978 7.50636 11.3233L9.14826 12.2491C9.46651 12.4299 9.84263 12.4444 10.1753 12.2925L11.6003 11.6343L9.7486 10.2311C9.40865 9.9707 9.24229 9.53671 9.32185 9.1172L9.62564 7.61273C9.7269 7.10642 9.40142 6.61457 8.90234 6.50608L7.58593 6.22399C7.07238 6.11549 6.81923 5.52962 7.07961 5.08117L9.20612 1.4285C5.64748 2.36156 2.79767 5.03778 1.61145 8.48069L4.05621 12.09C4.41063 12.6107 5.18456 12.6252 5.57515 12.1117Z" fill="url(#paint1_linear_3460_2506)"/>
<path d="M7.97652 18.8095L3.32568 18.8167C5.35816 21.4206 8.54069 23.0842 12.0993 23.0553C12.7503 23.048 13.3868 22.9829 14.0089 22.8672L15.9039 19.5545C16.1498 19.1205 15.9256 18.5635 15.4482 18.4261L14.2403 18.0789C13.7557 17.9415 13.4664 17.4497 13.5821 16.965L14.0233 15.0338C14.1101 14.6505 13.9872 14.2454 13.7051 13.9706L12.1934 12.5312L11.2314 14.4624C11.0867 14.759 10.8191 14.9687 10.4936 15.0483L8.64196 15.5112C8.23691 15.6125 8.00545 16.0392 8.14288 16.4298L8.64196 17.8619C8.80108 18.3321 8.46113 18.8095 7.97652 18.8095Z" fill="url(#paint2_linear_3460_2506)"/>
<path d="M15.8822 4.85696L20.1714 4.69784C18.1317 2.4339 15.1734 1.02346 11.8968 1.05962C11.2458 1.06686 10.6093 1.13195 9.99452 1.24768L8.09947 4.44468C7.83185 4.89313 8.07777 5.479 8.59131 5.59473L9.63287 5.83342C10.1247 5.94915 10.443 6.42653 10.3489 6.9256L9.98005 8.84959C9.90772 9.24017 10.0451 9.63799 10.3345 9.89838L11.8896 11.2799L12.7865 9.31974C12.9239 9.02318 13.1843 8.79896 13.5025 8.70493L16.0847 7.96716L15.2457 5.82618C15.0721 5.36327 15.3976 4.87143 15.8822 4.85696Z" fill="url(#paint3_linear_3460_2506)"/>
<path d="M7.10133 18.2236C7.6004 18.2236 7.94759 17.7173 7.75953 17.2544L7.26045 16.0103C7.10132 15.6052 7.34001 15.1496 7.76676 15.0555L9.92944 14.5854C10.226 14.5203 10.4864 14.3395 10.6455 14.0791L11.8896 12.09L10.1971 12.9941C9.85711 13.1749 9.43759 13.1677 9.10487 12.9724L7.39065 11.9815C7.05069 11.7862 6.62395 11.8658 6.37802 12.1623L5.51729 13.2111C5.11948 13.6957 4.36001 13.6595 4.01282 13.1388L1.38 9.24017C1.13408 10.1732 1.00389 11.1497 1.01112 12.1623C1.03282 14.4118 1.72719 16.4949 2.89894 18.2236H7.10133Z" fill="url(#paint4_linear_3460_2506)"/>
<path d="M16.7719 5.41392C16.2728 5.42838 15.9473 5.94916 16.1498 6.40484L16.6923 7.63445C16.8659 8.03227 16.6417 8.49518 16.2221 8.60368L14.0956 9.14616C13.7918 9.22572 13.5315 9.42824 13.3868 9.7031L12.3452 11.6343L13.8714 10.7519C14.2041 10.5566 14.6236 10.5494 14.9636 10.7302L16.714 11.6632C17.0612 11.8441 17.4879 11.7573 17.7194 11.4463L18.5439 10.3685C18.9273 9.86946 19.6795 9.87669 20.0556 10.3902L22.797 14.1514C22.9344 13.4426 23.0067 12.7048 22.9995 11.9526C22.9778 9.43548 22.1026 7.12091 20.6632 5.27649L16.7719 5.41392Z" fill="url(#paint5_linear_3460_2506)"/>
<defs>
<linearGradient id="paint0_linear_3460_2506" x1="12.5238" y1="16.8297" x2="22.6308" y2="16.8297" gradientUnits="userSpaceOnUse">
<stop stop-color="#00A8D4"/>
<stop offset="1" stop-color="#0067BF"/>
</linearGradient>
<linearGradient id="paint1_linear_3460_2506" x1="12.4506" y1="10.9236" x2="3.4649" y2="4.53902" gradientUnits="userSpaceOnUse">
<stop stop-color="#00A8D4"/>
<stop offset="1" stop-color="#0067BF"/>
</linearGradient>
<linearGradient id="paint2_linear_3460_2506" x1="9.85648" y1="23.9647" x2="9.44267" y2="13.0281" gradientUnits="userSpaceOnUse">
<stop stop-color="#9D3633"/>
<stop offset="1" stop-color="#D05948"/>
</linearGradient>
<linearGradient id="paint3_linear_3460_2506" x1="14.5303" y1="0.0105175" x2="13.4071" y2="11.7747" gradientUnits="userSpaceOnUse">
<stop stop-color="#9D3633"/>
<stop offset="1" stop-color="#D05948"/>
</linearGradient>
<linearGradient id="paint4_linear_3460_2506" x1="13.0034" y1="11.2476" x2="-1.53927" y2="15.3858" gradientUnits="userSpaceOnUse">
<stop stop-color="#E9D700"/>
<stop offset="1" stop-color="#949400"/>
</linearGradient>
<linearGradient id="paint5_linear_3460_2506" x1="12.3402" y1="9.71452" x2="22.9977" y2="9.71452" gradientUnits="userSpaceOnUse">
<stop stop-color="#E9D700"/>
<stop offset="1" stop-color="#949400"/>
</linearGradient>
</defs>
</svg>
