<svg width="24" height="24" viewBox="0 0 24 24" fill="none" xmlns="http://www.w3.org/2000/svg">
<rect x="2" y="2" width="20" height="20" rx="2" fill="#B01414"/>
<path d="M9.13355 13.0215H4.13941C4.06257 13.4577 4.02416 13.8748 4.00495 14.3109C3.87693 15.1263 5.36605 15.1505 6.0026 15.1263C7.61265 15.1263 10.8431 15.0694 10.8431 15.0694C11.2428 14.9905 11.4856 14.718 11.573 14.3299C11.8208 13.3919 12.0148 12.2695 12.0148 11.296V11.2011C12.0608 10.7012 11.6979 10.3668 11.208 10.3668C11.208 10.3668 8.16247 10.3289 6.65569 10.3289C6.75537 9.83628 6.82762 9.779 7.32797 9.779H10.3244C11.0187 9.779 12.0258 9.86687 12.2837 9.03947C12.3989 8.58437 12.495 8.12929 12.5334 7.67419C10.302 7.67419 5.7721 7.71213 5.7721 7.71213C5.29997 7.71213 4.89132 8.03695 4.81169 8.50853L4.3507 11.5045C4.3507 12.0196 4.52375 12.3958 5.11902 12.3958C5.11902 12.3958 8.21674 12.4337 9.74819 12.4337C9.74819 12.8956 9.56139 13.0215 9.13355 13.0215Z" fill="white"/>
<path d="M17.5833 12.5588C17.5833 13.0526 17.3943 13.1152 16.9631 13.1152H14.5164L14.861 10.4293C14.94 9.98976 15.0173 9.85378 15.4813 9.85378H17.9279L17.5833 12.5588ZM14.0684 7.74346C13.0438 7.74346 13.0904 9.1313 13.0002 9.83459L12.3282 15.2255L12.087 17.3742C12.087 17.4509 12.0697 17.5468 12.0525 17.6236C11.9861 17.9192 11.6776 18.1455 11.4667 18.3334C12.3243 18.3334 13.4447 18.4176 13.8617 17.4893C14.1056 16.7646 14.1429 15.9587 14.2579 15.2063H17.4283C19.0808 15.2063 19.3014 14.6471 19.4442 13.0576C19.6682 11.2543 19.806 10.1799 19.8577 9.8154C20.1775 8.21327 19.7567 7.66673 18.2208 7.66673C16.8128 7.66673 15.4374 7.59835 14.0684 7.74346Z" fill="white"/>
</svg>
