<svg width="24" height="24" viewBox="0 0 24 24" fill="none" xmlns="http://www.w3.org/2000/svg">
<g clip-path="url(#clip0_7342_5647)">
<path fill-rule="evenodd" clip-rule="evenodd" d="M7.65724 1.05393C7.54065 0.281207 10.3892 -0.413191 10.4871 0.327929C10.5578 0.861814 11.6825 5.77287 12.2823 4.49523C12.8984 3.19047 13.3063 1.7973 13.4913 0.366329C13.5975 -0.453601 16.445 0.287205 16.3356 1.04253C16.2546 1.60267 15.0908 4.99936 15.7791 4.71303C16.9649 4.22062 17.995 3.47327 18.9057 2.57613C19.5301 1.95705 21.565 3.99068 21.0633 4.51623C19.3584 6.30003 17.3007 7.47123 14.9067 8.05893C13.897 8.30723 16.3633 10.9104 17.1903 10.1367C18.7462 8.683 20.5828 7.65269 22.5672 6.91713C23.2605 6.6608 24.1889 9.4254 23.4609 9.68283C22.2734 10.0983 21.157 10.7031 20.1471 11.4513C19.234 12.1281 22.9487 12.5416 23.3646 12.5733C24.5634 12.6657 23.8793 15.5225 23.1402 15.468C21.1178 15.3205 13.2713 10.5557 12.015 10.5182C10.7588 10.4807 4.95603 15.1552 0.943538 15.465C0.0768942 15.5306 -0.48001 12.6514 0.453638 12.5859C4.69188 12.2905 3.90874 10.8593 0.556838 9.69273C-0.336945 9.38285 0.741659 6.68221 1.46044 6.93003C3.46275 7.6242 5.26561 8.74156 6.83344 10.1586C7.55095 10.8068 10.1739 8.30838 9.21544 8.08533C6.73119 7.51357 4.62847 6.22687 2.83864 4.43703C2.37289 3.96729 4.56763 2.04034 4.95334 2.43663C5.92236 3.43518 7.04873 4.25201 8.34844 4.76913C9.21544 5.28674 7.73907 1.60757 7.65724 1.05393Z" fill="#E6852B"/>
<path fill-rule="evenodd" clip-rule="evenodd" d="M10.5447 23.2715C10.5411 22.199 10.527 21.3534 10.5447 20.2809C10.5736 18.5242 7.75558 16.1695 6.75628 14.8638C6.26908 14.227 8.8592 12.8257 9.33538 13.4472C9.77673 14.0229 11.6637 17.3499 12.3042 16.5138C13.1022 15.4719 13.9002 14.43 14.6994 13.389C15.1421 12.8124 17.6454 14.3163 17.313 14.7519C16.3211 16.0502 13.4235 18.5005 13.4409 20.2266C13.452 21.2991 13.4508 22.1444 13.4493 23.2172C13.448 24.0467 10.5475 24.0083 10.5447 23.2715Z" fill="#E6852B"/>
</g>
<defs>
<clipPath id="clip0_7342_5647">
<rect width="24" height="24" fill="white"/>
</clipPath>
</defs>
</svg>
