<svg width="24" height="24" viewBox="0 0 24 24" fill="none" xmlns="http://www.w3.org/2000/svg">
<path d="M15.8633 16.0239C16.0543 15.98 16.0816 15.0989 15.8976 15.044C14.8177 14.5328 14.2006 13.5785 14.2006 12.505C14.2006 9.91072 17.4954 8.9189 19.4717 10.0596C19.8491 10.4352 21.9401 9.24467 21.9401 9.85517L22.0001 11.4911C22.0001 11.9636 20.9202 11.6181 20.9202 12.505C20.9202 14.1262 19.4766 15.2536 17.9461 15.3422C17.6923 15.3422 17.7142 15.8535 17.9718 15.8535C19.5249 15.9421 21.5973 16.4817 21.5973 18.384C21.5973 20.4277 19.1564 20.9145 17.5433 20.9145C15.8969 20.9145 13.4635 20.4678 13.4635 18.3755C13.5406 17.1826 14.4234 16.3902 15.8633 16.0239ZM19.2917 18.384C19.2917 17.5608 15.8976 17.5608 15.8976 18.384C15.9569 19.1898 19.2917 19.1528 19.2917 18.384ZM17.5947 11.6018C16.2919 11.5422 16.2319 13.4592 17.5947 13.3229C18.8928 13.3791 18.8666 11.6018 17.5947 11.6018Z" fill="white"/>
<path d="M4.80678 7.1796H13.0348L3.46116 10.3577C1.9425 10.8694 1.17661 16.5264 3.38402 16.5264H12.452C14.274 16.5264 14.4901 13.1182 12.5377 13.1182H4.87536L13.8319 10.1361C15.358 9.62186 16.4457 3.77148 13.9348 3.77148H4.86678C3.0539 3.77148 2.87329 7.1796 4.80678 7.1796Z" fill="#FB7D04"/>
</svg>
