<?xml version="1.0" encoding="UTF-8"?>
<svg xmlns="http://www.w3.org/2000/svg" xmlns:xlink="http://www.w3.org/1999/xlink" width="48pt" height="48pt" viewBox="0 0 48 48" version="1.1">
<g id="surface202">
<path style=" stroke:none;fill-rule:nonzero;fill:rgb(65.882355%,65.882355%,65.882355%);fill-opacity:1;" d="M 43.257812 38.300781 C 41.019531 35.304688 38.113281 32.875 34.765625 31.195312 C 31.425781 29.515625 27.734375 28.644531 24 28.644531 C 20.253906 28.644531 16.570312 29.511719 13.222656 31.1875 C 9.882812 32.863281 6.96875 35.292969 4.730469 38.292969 C 6.960938 41.300781 9.863281 43.75 13.203125 45.429688 C 16.550781 47.117188 20.246094 48 23.996094 48 C 27.734375 48 31.429688 47.125 34.777344 45.445312 C 38.125 43.757812 41.03125 41.3125 43.257812 38.300781 Z M 43.257812 38.300781 "/>
<path style=" stroke:none;fill-rule:nonzero;fill:rgb(65.882355%,65.882355%,65.882355%);fill-opacity:1;" d="M 24 25.550781 C 29.132812 25.550781 33.285156 21.390625 33.285156 16.257812 C 33.285156 11.125 29.132812 6.96875 24 6.96875 C 18.867188 6.96875 14.714844 11.125 14.714844 16.257812 C 14.714844 21.390625 18.867188 25.550781 24 25.550781 Z M 24 25.550781 "/>
</g>
</svg>
